<?xml version="1.0" encoding="UTF-8" standalone="no"?>
<!-- Created with Inkscape (http://www.inkscape.org/) -->

<svg
   version="1.1"
   id="svg1"
   width="512"
   height="512"
   viewBox="0 0 512 512"
   sodipodi:docname="about_icon_02_linkedin.svg"
   inkscape:version="1.1.2 (0a00cf5339, 2022-02-04)"
   inkscape:export-filename="/home/dusoudeth/Documentos/github/isadora-urel-landing-page/src/assets/images/about_icon_02_linkedin.png"
   inkscape:export-xdpi="96"
   inkscape:export-ydpi="96"
   xmlns:inkscape="http://www.inkscape.org/namespaces/inkscape"
   xmlns:sodipodi="http://sodipodi.sourceforge.net/DTD/sodipodi-0.dtd"
   xmlns="http://www.w3.org/2000/svg"
   xmlns:svg="http://www.w3.org/2000/svg">
  <defs
     id="defs1" />
  <sodipodi:namedview
     id="namedview1"
     pagecolor="#ffffff"
     bordercolor="#000000"
     borderopacity="0.25"
     inkscape:showpageshadow="2"
     inkscape:pageopacity="0.0"
     inkscape:pagecheckerboard="0"
     inkscape:deskcolor="#d1d1d1"
     showgrid="false"
     inkscape:zoom="1.1269514"
     inkscape:cx="281.28985"
     inkscape:cy="234.70399"
     inkscape:window-width="1868"
     inkscape:window-height="1016"
     inkscape:window-x="52"
     inkscape:window-y="27"
     inkscape:window-maximized="1"
     inkscape:current-layer="g1"
     inkscape:pageshadow="2"
     inkscape:object-paths="true" />
  <g
     inkscape:groupmode="layer"
     inkscape:label="Image"
     id="g1">
    <path
       style="fill:#800080;stroke-width:0.976694"
       d="m 44.487432,504.49485 c -4.106004,-1.92848 -5.790645,-3.4442 -8.174619,-7.35487 l -2.073366,-3.40116 -0.0039,-163.38351 c -0.0039,-180.50051 -0.488152,-167.4532 6.408492,-172.71478 l 3.689326,-2.81466 47.446583,-0.25729 c 53.265322,-0.28883 51.162212,-0.54428 57.144092,6.94052 l 2.99952,3.75314 0.28909,162.2849 c 0.19744,110.83623 -0.0347,163.40412 -0.7321,165.81526 -1.43169,4.9495 -4.59356,8.6194 -9.24716,10.73296 -3.69673,1.67897 -7.25351,1.80803 -49.399833,1.79246 -37.002839,-0.0137 -45.959097,-0.27172 -48.346372,-1.39297 z M 123.11133,330.14251 V 183.63836 H 92.833804 62.556278 v 146.50415 146.50416 h 30.277526 30.277526 z m 73.21116,173.59094 c -3.11452,-1.62124 -4.98227,-3.49996 -6.56015,-6.59872 l -2.20596,-4.33219 0.25257,-164.18099 0.25255,-164.18098 2.81466,-3.69012 c 5.03791,-6.60486 4.04376,-6.49721 57.21405,-6.19553 46.49053,0.26379 47.82596,0.32426 50.45086,2.28469 4.98043,3.71967 6.60584,6.86694 7.03609,13.62389 0.22196,3.4859 0.81371,6.338 1.31499,6.338 0.50128,0 2.11616,-0.623 3.58861,-1.38444 3.57258,-1.84744 16.80451,-5.99659 24.08489,-7.55231 7.90818,-1.68987 32.42892,-1.66693 41.02117,0.0384 20.22259,4.01358 38.52273,13.43269 54.04321,27.81614 27.77584,25.74099 43.65429,57.1496 47.97958,94.90671 0.61972,5.4098 1.00549,45.95807 1.01045,106.2073 0.009,107.08029 0.30645,101.79535 -5.98582,106.28312 l -3.28476,2.34274 -45.90464,0.25769 c -51.25362,0.28773 -50.30575,0.40003 -54.91959,-6.50646 l -2.21703,-3.3187 v -97.34562 c 0,-98.29173 -0.22034,-105.19367 -3.56468,-111.66091 -2.46445,-4.76574 -8.32536,-10.51075 -13.46549,-13.19922 -4.20317,-2.1984 -6.19152,-2.59015 -13.24735,-2.61003 -6.82618,-0.0192 -9.08317,0.38239 -12.69703,2.25941 -8.7491,4.54425 -14.5686,12.1065 -16.50685,21.4501 -0.73853,3.56021 -1.07365,35.50401 -1.07365,102.34011 0,106.75685 0.29704,101.50409 -5.99384,105.99087 l -3.28476,2.34276 -47.89893,0.27043 L 200.6767,506 Z m 80.35703,-120.60527 c 0.33566,-104.22234 -0.16361,-96.54641 7.19585,-110.63166 14.48452,-27.72188 49.81567,-39.20718 77.84322,-25.30494 15.62983,7.75271 26.33471,20.68351 31.75151,38.35378 1.3523,4.41137 1.58812,16.66125 1.88787,98.07117 l 0.34256,93.03014 h 26.81336 26.81335 l -0.006,-89.61171 c -0.006,-98.30792 -0.0774,-99.74315 -5.82413,-117.4475 -3.57978,-11.02862 -10.04336,-24.08523 -16.36518,-33.05812 -7.27854,-10.3308 -23.0337,-25.35842 -31.72581,-30.26076 -29.28803,-16.51841 -63.77118,-14.08234 -90.66133,6.40478 -6.49109,4.94544 -7.86481,5.58465 -12.6593,5.89056 -4.1234,0.26309 -6.10759,-0.11506 -8.50493,-1.62091 -5.36514,-3.36999 -6.5375,-6.88553 -6.95361,-20.8518 l -0.37092,-12.45285 h -29.69109 -29.6911 v 146.50415 146.50416 h 29.75218 29.75217 z M 76.229999,122.7587 C 55.104402,116.49093 39.223196,99.100553 34.605482,77.178674 26.018044,36.411178 63.786639,-1.3574174 104.55413,7.2300213 c 27.97415,5.8925927 47.85803,29.9554997 47.85803,57.9164417 0,10.773999 -1.37335,16.794628 -6.08651,26.682627 -5.54591,11.63511 -15.486,21.57519 -27.1211,27.1211 -4.56605,2.17643 -10.63098,4.43624 -13.47762,5.02182 -8.549084,1.75862 -21.239458,1.23661 -29.496931,-1.21331 z M 107.31939,92.31288 c 5.78319,-3.14761 9.81983,-7.298061 13.08327,-13.452147 3.17194,-5.981554 3.17542,-19.765931 0.007,-26.196951 -9.39789,-19.07236 -35.568592,-23.064617 -49.573999,-7.56231 -5.62449,6.225636 -7.748136,11.793553 -7.764261,20.35687 -0.01983,10.497121 3.864828,18.311324 12.27068,24.683442 5.719054,4.335378 10.27549,5.604121 18.969027,5.281941 6.441533,-0.23872 8.742323,-0.788932 13.008443,-3.110845 z"
       id="path15950" />
  </g>
</svg>
