<?xml version="1.0" encoding="UTF-8" standalone="no"?>
<!-- Created with Inkscape (http://www.inkscape.org/) -->

<svg
   version="1.1"
   id="svg1"
   width="512"
   height="512"
   viewBox="0 0 512 512"
   sodipodi:docname="about_icon_01_instagram.svg"
   inkscape:version="1.1.2 (0a00cf5339, 2022-02-04)"
   inkscape:export-filename="/home/dusoudeth/Documentos/github/isadora-urel-landing-page/src/assets/images/about_icon_01_instagram.png"
   inkscape:export-xdpi="96"
   inkscape:export-ydpi="96"
   xmlns:inkscape="http://www.inkscape.org/namespaces/inkscape"
   xmlns:sodipodi="http://sodipodi.sourceforge.net/DTD/sodipodi-0.dtd"
   xmlns="http://www.w3.org/2000/svg"
   xmlns:svg="http://www.w3.org/2000/svg">
  <defs
     id="defs1" />
  <sodipodi:namedview
     id="namedview1"
     pagecolor="#ffffff"
     bordercolor="#000000"
     borderopacity="0.25"
     inkscape:showpageshadow="2"
     inkscape:pageopacity="0.0"
     inkscape:pagecheckerboard="0"
     inkscape:deskcolor="#d1d1d1"
     showgrid="false"
     inkscape:zoom="1.1269514"
     inkscape:cx="281.28985"
     inkscape:cy="234.70399"
     inkscape:window-width="1868"
     inkscape:window-height="1016"
     inkscape:window-x="52"
     inkscape:window-y="27"
     inkscape:window-maximized="1"
     inkscape:current-layer="g1"
     inkscape:pageshadow="2"
     inkscape:object-paths="true" />
  <g
     inkscape:groupmode="layer"
     inkscape:label="Image"
     id="g1">
    <path
       style="fill:#800080;stroke-width:0.978347"
       d="M 129.30409,505.75551 C 97.008897,502.66629 68.501075,489.24591 45.611381,466.35622 25.596529,446.34136 13.025144,422.49331 7.712086,394.46081 6.1777741,386.36558 6.0324016,374.37894 6.0324016,255.9676 6.0324016,137.55627 6.1777741,125.56962 7.712086,117.47439 13.025144,89.441906 25.596529,65.593842 45.611381,45.578988 65.626242,25.564133 89.474296,12.992748 117.50679,7.6796899 125.60202,6.1453819 137.58867,6.0000049 256,6.0000049 c 118.41134,0 130.39798,0.145377 138.49321,1.679685 28.0325,5.3130581 51.88055,17.8844431 71.89541,37.8992981 20.01485,20.014854 32.58624,43.862918 37.8993,71.895402 1.53431,8.09523 1.67968,20.08188 1.67968,138.49321 0,118.41134 -0.14537,130.39798 -1.67968,138.49321 -5.31306,28.0325 -17.88445,51.88055 -37.8993,71.89541 -15.95343,15.95343 -32.83241,26.35047 -54.01736,33.2734 -19.85953,6.48978 -11.83812,6.15535 -151.9687,6.33614 -69.95179,0.0902 -128.9461,-0.004 -131.09847,-0.21025 z m 257.79438,-30.05788 c 45.88913,-7.55384 81.07772,-42.74243 88.63156,-88.63156 2.02341,-12.29209 2.02341,-249.90485 0,-262.19694 -7.55384,-45.889118 -42.74243,-81.077709 -88.63156,-88.631553 -12.29209,-2.023411 -249.90485,-2.023411 -262.19694,0 -45.889126,7.553844 -81.077716,42.742435 -88.631561,88.631553 -2.023407,12.29209 -2.023407,249.90485 0,262.19694 7.479099,45.43505 42.445369,80.75643 87.653221,88.5434 11.24285,1.93657 251.45749,2.01703 263.17528,0.0882 z M 240.34645,391.87472 c -30.18074,-3.32171 -58.44389,-17.13095 -80.78325,-39.47031 -29.24801,-29.24801 -43.56712,-68.45679 -39.67188,-108.63014 3.22037,-33.21313 16.19657,-60.76817 39.67188,-84.24347 29.248,-29.24801 68.45678,-43.56712 108.63013,-39.67188 33.21313,3.22037 60.76817,16.19657 84.24348,39.67188 29.24801,29.248 43.56711,68.45678 39.67187,108.63013 -3.22037,33.21313 -16.19657,60.76817 -39.67187,84.24348 -30.03763,30.03762 -69.98537,44.1044 -112.09036,39.47031 z m 37.66635,-30.7063 c 36.63957,-7.76918 67.42606,-34.85237 79.37357,-69.82578 16.99692,-49.75428 -3.20183,-103.00616 -49.0115,-129.21364 -21.35427,-12.21667 -49.67884,-16.53716 -74.38767,-11.34673 -36.5493,7.6777 -67.42478,34.83317 -79.37357,69.81029 -21.6262,63.30535 17.83501,129.92865 83.79067,141.46581 10.35976,1.81215 28.82158,1.39734 39.6085,-0.88995 z M 388.24929,150.23766 c -7.26185,-1.42908 -14.65203,-5.47833 -20.29239,-11.11869 -19.54365,-19.54366 -14.00325,-52.670303 10.74607,-64.251911 20.45049,-9.569938 44.20215,-1.40572 53.60806,18.426842 14.25158,30.049739 -11.51445,63.348809 -44.06174,56.943759 z M 401.2396,120.4223 c 8.21783,-3.89961 7.63156,-16.00702 -0.94871,-19.59209 -9.18624,-3.838249 -17.72783,5.21152 -13.79743,14.6183 1.00535,2.40614 2.58515,4.08129 4.72636,5.0116 4.17354,1.81332 6.13441,1.80592 10.01978,-0.0378 z"
       id="path15714" />
  </g>
</svg>
