<?xml version="1.0" encoding="UTF-8" standalone="no"?>
<!-- Created with Inkscape (http://www.inkscape.org/) -->

<svg
   version="1.1"
   id="svg1"
   width="512"
   height="512"
   viewBox="0 0 512 512"
   sodipodi:docname="contact_01.svg"
   inkscape:version="1.1.2 (0a00cf5339, 2022-02-04)"
   inkscape:export-filename="/home/dusoudeth/Documentos/github/isadora-urel-landing-page/src/assets/images/contact_01_white.png"
   inkscape:export-xdpi="96"
   inkscape:export-ydpi="96"
   xmlns:inkscape="http://www.inkscape.org/namespaces/inkscape"
   xmlns:sodipodi="http://sodipodi.sourceforge.net/DTD/sodipodi-0.dtd"
   xmlns="http://www.w3.org/2000/svg"
   xmlns:svg="http://www.w3.org/2000/svg">
  <defs
     id="defs1" />
  <sodipodi:namedview
     id="namedview1"
     pagecolor="#ffffff"
     bordercolor="#000000"
     borderopacity="0.25"
     inkscape:showpageshadow="2"
     inkscape:pageopacity="0.0"
     inkscape:pagecheckerboard="0"
     inkscape:deskcolor="#d1d1d1"
     showgrid="false"
     inkscape:zoom="0.796875"
     inkscape:cx="-36.392157"
     inkscape:cy="177.56863"
     inkscape:window-width="1868"
     inkscape:window-height="1016"
     inkscape:window-x="52"
     inkscape:window-y="27"
     inkscape:window-maximized="1"
     inkscape:current-layer="g1"
     inkscape:pageshadow="2"
     inkscape:object-paths="true"
     inkscape:snap-smooth-nodes="false" />
  <g
     inkscape:groupmode="layer"
     inkscape:label="Image"
     id="g1">
    <path
       style="fill:#ffffff;stroke-width:1.02119"
       d="m 6.9523109,480.32325 c -0.84365,-1.01653 -1.08056,-46.2982 -0.89094,-170.28299 l 0.25833,-168.89821 9.1906901,-4.46053 c 5.05488,-2.4533 16.54323,-6.92357 25.52968,-9.93394 l 16.338997,-5.47339 0.510594,-44.394095 c 0.377094,-32.786995 0.833666,-44.716944 1.74625,-45.628885 1.554176,-1.553093 8.867685,-1.325133 22.762245,0.70948 59.350473,8.690835 105.146553,29.567927 140.786953,64.180652 10.67779,10.369898 23.71299,25.744578 30.5227,36.000758 2.5277,3.80698 4.19873,5.39782 5.29103,5.03708 0.87807,-0.28997 7.32985,-2.65993 14.33727,-5.26657 13.37268,-4.97437 36.59002,-11.7049 40.37677,-11.7049 3.19611,0 5.98181,3.44858 5.22416,6.46731 -0.64047,2.55183 -3.50821,4.1057 -9.8353,5.32921 -6.50878,1.25865 -26.90027,7.69401 -37.52864,11.84367 l -10.46717,4.08674 V 285.2069 c 0,75.49974 0.28034,137.27225 0.62297,137.27225 0.34263,0 7.21091,-2.27568 15.26284,-5.05707 52.92423,-18.28167 106.31194,-22.99434 156.26762,-13.79413 16.62975,3.06265 34.48312,8.15824 49.77588,14.20668 6.4587,2.55449 12.01325,4.64452 12.34344,4.64452 0.33018,0 0.60033,-62.46384 0.60033,-138.80852 0,-124.828 0.16163,-138.97016 1.60473,-140.41326 1.97117,-1.97119 5.91413,-2.08738 7.46396,-0.21994 0.84363,1.01651 1.08056,46.16515 0.89092,169.77239 l -0.25833,168.3876 -2.86498,0.3286 c -1.57573,0.18073 -10.53665,-1.52357 -19.91315,-3.78734 -39.19478,-9.46279 -67.12494,-12.7725 -107.93384,-12.79008 -39.83965,-0.0172 -63.35799,2.82188 -101.228,12.21984 l -18.51182,4.59397 -17.74033,-4.50565 c -35.45771,-9.00547 -62.3846,-12.31583 -100.45649,-12.35002 -40.903752,-0.0368 -72.144006,3.81438 -112.015579,13.8086 -13.35278,3.347 -16.3956801,3.61786 -18.0637901,1.60791 z M 33.416331,465.97401 c 65.222993,-14.37073 122.227999,-16.16017 177.651429,-5.57666 10.39354,1.98473 34.48325,7.61647 37.45153,8.75551 1.18673,0.4554 1.40466,-0.55577 1.15313,-5.35043 l -0.31014,-5.91195 -7.14831,-2.4381 c -18.32932,-6.25164 -47.99463,-12.91096 -71.99371,-16.16127 -16.79236,-2.27426 -53.68816,-3.0819 -70.506351,-1.54337 -28.383983,2.59659 -57.581038,9.45922 -78.331688,18.41152 l -5.36124,2.31296 v 5.49077 c 0,3.01993 0.36047,5.49078 0.80105,5.49078 0.44058,0 7.90802,-1.56589 16.5943,-3.47976 z m 264.170049,-5.09827 c 28.26815,-4.88223 44.12002,-6.09763 79.42431,-6.08961 42.8433,0.0102 72.28253,3.24635 105.18229,11.56404 6.73984,1.70395 12.5989,3.09934 13.02014,3.10085 0.42124,10e-4 0.76589,-2.4681 0.76589,-5.48803 v -5.49077 l -5.36123,-2.31296 c -20.74765,-8.95099 -49.94806,-15.81497 -78.32126,-18.41055 -16.95236,-1.55079 -54.91006,-0.72444 -71.53798,1.55742 -23.98845,3.29194 -54.43895,10.11592 -71.9937,16.13385 l -7.14831,2.4505 -0.30316,5.67787 -0.30316,5.67786 10.74333,-2.88217 c 5.90883,-1.5852 17.53361,-4.05494 25.83284,-5.4883 z M 39.689811,438.42877 C 93.86416,422.00778 154.60276,421.63618 217.19415,437.3428 c 9.82933,2.46657 21.20313,5.61833 25.27512,7.00392 l 7.4036,2.51926 v -5.91309 -5.91309 l -6.38242,-2.69819 c -13.90984,-5.88044 -36.095,-12.64516 -52.69166,-16.06679 -59.05254,-12.17454 -116.694533,-7.03958 -166.315239,14.81597 l -7.95197,3.50246 -0.30267,6.14491 -0.30267,6.14491 6.06086,-2.46275 c 3.33347,-1.35451 11.29969,-4.05071 17.70271,-5.99155 z m 252.491079,-0.67979 c 17.92478,-4.50033 38.64384,-8.26116 56.74715,-10.30047 16.9325,-1.90744 57.56022,-1.62921 73.86612,0.50585 23.34581,3.05684 50.7233,9.76326 67.21874,16.46596 l 6.06086,2.46275 -0.30267,-6.17909 -0.30267,-6.17908 -9.19069,-3.97441 c -21.14789,-9.14517 -46.54894,-15.90162 -70.97251,-18.87806 -17.42808,-2.12392 -58.0586,-1.54409 -74.54668,1.06384 -24.83538,3.92824 -49.18591,10.17708 -68.93014,17.6889 l -10.21187,3.88516 -0.30287,6.294 -0.30286,6.29401 7.43115,-2.5275 c 4.08714,-1.39013 14.76966,-4.36996 23.73894,-6.62186 z M 20.922331,421.07057 c 5.15448,-2.63297 30.28406,-10.95937 42.073267,-13.94049 21.550606,-5.44949 35.420933,-7.27021 59.739452,-7.84183 34.35832,-0.80763 62.62773,3.26696 98.54458,14.20363 9.26727,2.82188 17.74701,5.3871 18.84386,5.70049 1.33088,0.38025 -0.19601,-2.12051 -4.59004,-7.51769 -39.64554,-48.69647 -90.19419,-74.97283 -161.022648,-83.70329 -8.62749,-1.06344 -13.627346,-2.1546 -14.820511,-3.2344 -1.695549,-1.53445 -1.800629,-7.19235 -1.800629,-96.95229 0,-52.4275 -0.136411,-95.32274 -0.30313,-95.32274 -1.401599,0 -25.569151,8.67693 -32.630161,11.71529 l -8.93539,3.84489 v 137.22851 c 0,95.13311 0.32881,137.2285 1.0719,137.2285 0.58954,0 2.3128,-0.63386 3.82945,-1.40858 z M 247.24528,141.94378 C 235.76173,122.34859 210.53534,96.524481 188.16505,81.463684 158.16129,61.26366 115.85457,46.173065 77.036924,41.824839 l -7.914202,-0.886513 v 137.606104 137.6061 l 4.340046,0.54101 c 2.387025,0.29757 8.475855,1.06004 13.530732,1.69439 47.18404,5.92124 91.55126,24.56401 124.97836,52.51494 11.01448,9.21005 24.48361,23.23209 31.79116,33.09617 l 5.59926,7.55818 0.25914,-132.55735 0.25913,-132.55735 z M 211.5303,310.05797 c -5.98469,-6.19021 -18.2874,-16.22018 -27.32807,-22.27962 -4.38546,-2.93931 -8.23703,-6.03078 -8.55904,-6.86993 -1.1152,-2.90615 1.44852,-6.50142 4.63603,-6.50142 5.05781,0 23.35922,13.07261 37.68155,26.91577 3.74759,3.6222 5.36123,5.97613 5.36123,7.82077 0,6.43611 -6.00325,6.90166 -11.7917,0.91443 z m -4.54729,-43.91783 c -4.77405,-4.49178 -12.76699,-11.01764 -17.76208,-14.50192 -14.29221,-9.96943 -14.53771,-10.22021 -13.34491,-13.63237 0.78106,-2.23436 1.75608,-2.98678 4.17785,-3.22402 4.16607,-0.40809 17.77998,8.72604 32.21023,21.61119 10.81247,9.65473 12.87162,13.06634 9.98546,16.54395 -2.67797,3.22676 -6.35117,1.59141 -15.26655,-6.79683 z m -60.25005,2.99434 c -5.42997,-3.69131 -17.53575,-9.51302 -25.42772,-12.22825 -3.08933,-1.06289 -5.97742,-2.50002 -6.41798,-3.19365 -0.44056,-0.69361 -0.80806,-11.68269 -0.81666,-24.42018 -0.0133,-19.70629 0.22361,-23.39832 1.58909,-24.76379 0.88259,-0.8826 2.00405,-1.60472 2.4921,-1.60472 4.5951,0 31.96313,12.80885 38.28245,17.91704 l 3.06356,2.47641 0.27035,21.71538 c 0.20114,16.15665 -0.0662,22.36888 -1.04447,24.26834 -1.92687,3.74135 -6.33215,3.68015 -11.99072,-0.16658 z m 2.04237,-26.37148 v -14.28381 l -4.34005,-2.74534 c -4.11529,-2.60316 -18.35741,-9.53453 -19.59092,-9.53453 -0.31764,0 -0.57752,6.83698 -0.57752,15.1933 v 15.1933 l 5.87182,2.23382 c 3.22951,1.2286 8.39927,3.56062 11.48836,5.18227 3.08909,1.62164 5.96118,2.97012 6.38242,2.99662 0.42124,0.0266 0.76589,-6.37953 0.76589,-14.23563 z m 60.76064,-13.87754 c -23.40162,-21.44798 -55.32065,-40.38772 -80.67379,-47.86926 -12.27051,-3.62095 -14.23321,-4.67783 -14.60736,-7.86587 -0.47066,-4.01021 2.37583,-6.28232 6.85028,-5.46801 8.26055,1.50336 26.86318,8.46432 39.8711,14.91945 20.35577,10.10146 38.86843,22.86544 55.74143,38.4322 6.705,6.18593 8.16651,9.53373 5.37895,12.3213 -2.56503,2.56503 -6.35748,1.21544 -12.56061,-4.46981 z m 0.44525,-39.49231 c -27.23153,-23.91974 -57.24272,-41.43678 -84.54883,-49.34978 -9.83704,-2.85067 -11.37743,-3.81503 -11.37743,-7.12292 0,-3.7982 2.79807,-5.84153 6.93612,-5.06523 21.60994,4.05405 58.54721,22.79339 82.13808,41.671 18.57266,14.86201 22.78539,20.44736 18.58812,24.64463 -2.57379,2.57379 -4.05165,1.97216 -11.73606,-4.7777 z m -0.44525,-40.21156 c -15.1389,-14.11846 -33.48548,-27.17428 -48.80365,-34.72971 -8.39432,-4.14036 -10.10701,-6.40747 -7.92315,-10.48805 1.71291,-3.20059 5.17572,-2.66267 15.13383,2.35096 16.05247,8.08196 33.68732,20.70116 49.07243,35.11538 5.79201,5.42651 6.4241,6.40852 6.12712,9.51902 -0.30219,3.16504 -0.64365,3.4892 -3.9053,3.70741 -3.07843,0.20594 -4.42396,-0.55342 -9.70128,-5.47501 z M 120.18209,99.041197 c -5.71215,-1.039589 -7.99773,-6.438504 -4.18601,-9.888054 1.67927,-1.519721 2.54019,-1.596473 6.38242,-0.569016 2.44272,0.653213 5.01572,1.658531 5.71779,2.234041 1.77345,1.453763 1.59584,5.436996 -0.32824,7.361076 -1.60291,1.602906 -2.7799,1.736651 -7.58596,0.861953 z M 300.81303,331.47427 c -1.94691,-1.9469 -2.11946,-3.04287 -1.73733,-11.03523 0.33512,-7.00947 0.92292,-9.68051 2.79795,-12.71438 2.8509,-4.61285 8.38228,-8.41874 13.61051,-9.36475 3.45774,-0.62565 3.83163,-1.00403 3.85188,-3.89811 0.048,-6.86132 6.64469,-16.0712 12.56582,-17.54364 1.22043,-0.30349 19.22173,-0.41824 40.0029,-0.25499 37.72786,0.29636 37.78889,0.30033 41.1259,2.68046 4.25874,3.03756 7.38049,9.13904 7.38049,14.42524 0,3.59079 0.29777,4.12834 2.29767,4.14786 3.45906,0.0338 10.12002,3.43312 13.21047,6.74182 3.9946,4.2767 4.91561,7.60707 4.91561,17.7748 0,7.94017 -0.24953,9.22182 -1.97524,10.1454 -1.30398,0.69786 -24.7293,1.05711 -68.93015,1.05711 -66.82416,0 -66.95911,-0.004 -69.11648,-2.16159 z m 129.81,-12.18574 c 0,-5.11 -2.59453,-8.91371 -6.89465,-10.10792 -5.17792,-1.43799 -101.50738,-1.44508 -106.68234,-0.008 -4.68881,1.30251 -6.92312,4.32731 -6.92312,9.37283 v 3.85753 h 60.25006 60.25005 z m -20.42375,-24.5042 c 0,-1.94038 -0.94267,-4.05265 -2.50656,-5.61653 l -2.50654,-2.50656 h -34.95626 c -34.48496,0 -34.98814,0.0299 -37.31976,2.22038 -1.55165,1.4577 -2.36349,3.38694 -2.36349,5.61653 v 3.39615 h 39.82631 39.8263 z m 46.78956,-48.95126 c -4.56521,-1.37773 -5.92925,-2.75349 -26.85016,-27.08078 -11.10919,-12.91802 -21.24787,-24.5845 -22.53038,-25.92552 l -2.33185,-2.43819 -11.71039,9.99574 -11.71039,9.99573 0.96283,3.48708 c 3.83686,13.89596 -12.76626,25.95242 -25.58193,18.57646 -3.7775,-2.17412 -46.01259,-50.31986 -49.47362,-56.39729 -2.72759,-4.78953 -1.95495,-13.66829 1.59438,-18.3217 4.86297,-6.37567 10.49136,-7.79552 22.46412,-5.6669 1.13266,0.20137 14.82797,-10.88277 37.46047,-30.3182 l 35.67509,-30.635624 -0.57335,-5.278956 c -1.18451,-10.905862 6.71947,-19.744636 17.649,-19.736313 3.15284,0.002 6.21711,0.736071 8.24904,1.975047 3.44511,2.100664 45.24055,49.851046 49.09779,56.093146 4.70229,7.60964 1.66104,18.45564 -6.51925,23.24961 -4.4621,2.61497 -7.8649,2.85672 -16.91022,1.20137 -1.00866,-0.18459 -6.46594,3.68759 -13.04148,9.25351 -9.82248,8.31433 -11.13662,9.78796 -10.00919,11.22391 0.71381,0.90914 11.01125,12.9653 22.88321,26.79147 11.87195,13.82616 21.93615,26.23771 22.36488,27.58121 4.34944,13.62985 -7.74766,26.42251 -21.1586,22.37519 z m 9.82843,-12.50079 c 0.87432,-1.24827 1.58659,-3.20129 1.58282,-4.34005 -0.006,-1.88959 -42.69117,-52.65375 -44.94961,-53.45751 -0.50644,-0.18024 -2.88345,1.50305 -5.28227,3.74064 -4.05446,3.78196 -4.24898,4.20038 -2.76335,5.94423 24.32043,28.54746 40.43663,47.18265 42.0264,48.59521 2.84531,2.52814 7.44281,2.2918 9.38601,-0.48252 z m -96.44429,-11.00584 c 4.46955,-4.46955 3.47755,-6.10933 -20.58954,-34.03446 -13.95316,-16.18991 -23.55019,-26.49037 -25.02653,-26.86091 -5.3914,-1.35315 -10.275,5.48772 -7.20933,10.09875 2.16994,3.26377 42.46771,50.02734 44.43318,51.56251 2.41502,1.88632 6.07393,1.5524 8.39222,-0.76589 z m 39.64084,-50.17635 c 18.35573,-15.80227 34.2396,-29.54755 35.29749,-30.54506 1.86737,-1.76075 1.41039,-2.40976 -15.67125,-22.25635 L 412.04535,98.905962 389.42209,118.42445 c -12.4428,10.73517 -28.49481,24.56641 -35.67114,30.73611 -7.17634,6.1697 -12.92052,11.58279 -12.76485,12.02909 0.60041,1.72135 33.79332,39.69186 34.69768,39.69186 0.5258,0 15.97431,-12.92914 34.33004,-28.73142 z m 58.95014,-35.04637 c 1.37861,-1.37861 2.50656,-3.44741 2.50656,-4.59735 0,-1.23829 -7.76525,-11.14624 -19.04457,-24.29961 -29.01646,-33.83754 -29.37918,-34.153117 -34.85113,-30.320417 -1.585,1.110173 -2.2696,2.632008 -2.2696,5.045206 0,3.032365 2.74647,6.639729 22.42861,29.458911 12.33573,14.30189 23.0199,26.24083 23.7426,26.531 2.82452,1.13406 5.08436,0.58544 7.48753,-1.81774 z"
       id="path16876" />
  </g>
</svg>
