<?xml version="1.0" encoding="UTF-8" standalone="no"?>
<!-- Created with Inkscape (http://www.inkscape.org/) -->

<svg
   version="1.1"
   id="svg1"
   width="512"
   height="512"
   viewBox="0 0 512 512"
   sodipodi:docname="contact_02.svg"
   inkscape:version="1.1.2 (0a00cf5339, 2022-02-04)"
   inkscape:export-filename="/home/dusoudeth/Documentos/github/isadora-urel-landing-page/src/assets/images/contact_02_white.png"
   inkscape:export-xdpi="96"
   inkscape:export-ydpi="96"
   xmlns:inkscape="http://www.inkscape.org/namespaces/inkscape"
   xmlns:sodipodi="http://sodipodi.sourceforge.net/DTD/sodipodi-0.dtd"
   xmlns="http://www.w3.org/2000/svg"
   xmlns:svg="http://www.w3.org/2000/svg">
  <defs
     id="defs1" />
  <sodipodi:namedview
     id="namedview1"
     pagecolor="#ffffff"
     bordercolor="#000000"
     borderopacity="0.25"
     inkscape:showpageshadow="2"
     inkscape:pageopacity="0.0"
     inkscape:pagecheckerboard="0"
     inkscape:deskcolor="#d1d1d1"
     showgrid="false"
     inkscape:zoom="0.796875"
     inkscape:cx="-36.392157"
     inkscape:cy="177.56863"
     inkscape:window-width="1868"
     inkscape:window-height="1016"
     inkscape:window-x="52"
     inkscape:window-y="27"
     inkscape:window-maximized="1"
     inkscape:current-layer="g1"
     inkscape:pageshadow="2"
     inkscape:object-paths="true"
     inkscape:snap-smooth-nodes="false" />
  <g
     inkscape:groupmode="layer"
     inkscape:label="Image"
     id="g1">
    <path
       style="fill:#ffffff;stroke-width:1.11667"
       d="m 225.04735,504.69395 c -4.25139,-2.05856 -4.87324,-5.60798 -4.87324,-27.81579 0,-23.30914 0.64446,-26.46991 6.38117,-31.29704 3.14037,-2.64244 3.36814,-3.39004 3.9058,-12.8198 0.39366,-6.90424 1.26307,-11.36277 2.79983,-14.35823 l 2.22887,-4.34453 -4.05044,-5.35155 c -7.64652,-10.10281 -8.25469,-13.01453 -8.775,-42.01163 l -0.46585,-25.96258 h -15.05647 -15.05646 l -3.26411,-3.26412 c -3.76577,-3.76576 -4.16259,-7.56519 -1.18867,-11.38117 8.38948,-10.7649 7.68736,-24.68759 -1.69401,-33.59146 -13.63882,-12.94464 -37.34154,-4.62983 -40.0352,14.04416 -0.77965,5.405 1.48045,13.73309 4.9102,18.09332 3.15136,4.00629 3.15603,10.56617 0.0101,13.41369 -2.20503,1.99553 -4.49283,2.12725 -36.94877,2.12725 H 79.276886 l -2.16452,-2.67308 c -2.10089,-2.59449 -2.15544,-4.89225 -1.85552,-78.16691 0.30855,-75.38146 0.31267,-75.50069 2.76815,-80.09058 3.79353,-7.09105 7.42868,-10.84756 13.91939,-14.38401 4.93397,-2.68827 7.60172,-3.32371 15.560624,-3.70645 l 9.60574,-0.46193 4.23591,-14.10885 c 9.13678,-30.43255 11.8765,-38.1139 15.53106,-43.54457 l 3.78789,-5.628777 -2.09555,-4.242822 c -1.28693,-2.605605 -2.39094,-8.100136 -2.861,-14.23897 -0.69603,-9.089634 -1.04546,-10.231764 -3.85317,-12.594292 -5.85483,-4.926514 -6.77632,-9.785202 -6.38887,-33.686054 l 0.34851,-21.530084 3.25303,-2.7958185 c 2.52498,-2.170104 4.02448,-2.647033 6.70002,-2.130987 6.85163,1.321524 7.35534,3.095678 7.35534,25.9069065 v 20.534695 h 64.76687 64.76687 V 32.097192 c 0,-22.8112285 0.50371,-24.5853825 7.35534,-25.9069065 2.67552,-0.516046 4.17505,-0.03908 6.70002,2.130931 l 3.25303,2.7957745 0.34724,20.664485 c 0.40266,23.962917 -0.43339,28.579924 -6.15193,33.973195 -3.7905,3.574908 -3.92,3.974296 -4.30903,13.28947 -0.27871,6.673489 -1.07646,10.968851 -2.61455,14.077605 l -2.21346,4.473805 3.23244,4.039089 c 7.35495,9.19037 8.30618,13.13509 8.91761,36.98085 l 0.55834,21.77507 7.67195,0.33325 7.67193,0.33326 -0.97192,-4.2416 c -1.89599,-8.27435 -1.02931,-22.68254 1.79955,-29.91678 3.59629,-9.1968 12.73028,-18.29009 21.8035,-21.70639 9.46081,-3.56223 25.02852,-2.98681 34.2458,1.26582 17.78519,8.20565 26.68424,25.67938 22.73028,44.63208 -0.93902,4.50103 -1.70771,8.56057 -1.70822,9.0212 -5e-4,0.46062 11.46903,0.8375 25.48786,0.8375 33.30243,0 30.34474,-2.84513 30.34474,29.18991 0,23.665 -0.0383,24.05693 -2.58448,26.44895 -1.42146,1.33539 -3.89288,2.42799 -5.49202,2.42799 -8.39585,0 -9.79022,-3.40422 -9.79022,-23.90169 v -16.19591 l -30.25025,-0.33043 -30.25025,-0.33044 -2.13319,-2.63621 c -3.65657,-4.51884 -2.78639,-9.39546 2.79861,-15.68387 11.62543,-13.08962 7.46525,-31.91417 -8.52511,-38.57557 -15.25489,-6.35501 -32.14013,5.35526 -32.14013,22.28985 0,7.21447 1.85142,11.42343 7.96618,18.10997 5.03874,5.50992 5.45187,8.9097 1.62377,13.36273 l -2.69342,3.1331 -30.24835,0.33044 -30.24835,0.33043 v 12.84104 12.84105 l 4.18752,-0.88811 c 25.44015,-5.39544 49.4064,12.24787 51.28542,37.75495 1.4146,19.20259 -11.07334,37.46504 -29.38776,42.97686 -5.97245,1.79745 -17.13178,2.06238 -22.46337,0.5333 l -3.62181,-1.03872 v 19.46378 19.46378 h 31.26677 c 29.7424,0 31.26676,-0.10128 31.26676,-2.07786 0,-1.14281 -1.06536,-7.29845 -2.36745,-13.67921 -4.00197,-19.61105 -1.12839,-32.22592 9.83593,-43.17918 11.849,-11.83704 26.67512,-14.58616 36.59253,-6.78512 4.48803,3.53028 5.98237,7.37988 14.45827,37.24628 l 7.9226,27.91675 6.09158,0.34547 c 7.60727,0.43142 13.78572,-2.16802 16.81921,-7.07631 2.07532,-3.35794 2.21532,-5.64195 2.23075,-36.39276 0.0176,-35.25481 0.29412,-37.1723 5.73497,-39.78119 3.51388,-1.68491 9.33599,-0.0438 11.02219,3.10691 0.64534,1.20584 1.0931,16.17087 1.0931,36.53374 0,38.99931 -0.35395,41.22102 -7.94026,49.83952 -6.08869,6.91711 -14.28979,10.72851 -24.79434,11.52297 l -8.38508,0.63416 -2.27911,9.0588 c -3.67929,14.62426 -14.40252,48.26905 -17.01862,53.39704 -1.32627,2.59971 -3.36504,6.01661 -4.53061,7.59312 -2.04424,2.765 -2.04913,3.00319 -0.13798,6.73428 1.35135,2.63824 2.1063,7.15196 2.37466,14.19784 0.3788,9.9454 0.51476,10.41631 3.65248,12.65058 6.15678,4.384 6.57536,6.4667 6.57536,32.71649 v 23.98282 l -2.94227,2.31439 C 379.76416,504.95852 377.31943,506 375.94965,506 c -1.36977,0 -3.81451,-1.04148 -5.43275,-2.31439 l -2.94227,-2.31439 V 480.23553 459.09985 H 302.8077 238.04084 v 20.00873 c 0,11.0048 -0.31215,20.82217 -0.69366,21.81637 -0.75062,1.9561 -6.1101,5.12202 -8.46342,4.99947 -0.79821,-0.0415 -2.52459,-0.59528 -3.83641,-1.23047 z m 131.36052,-71.2142 c 0,-12.00746 3.76653,-11.23002 -54.40697,-11.23002 -57.79869,0 -53.91003,-0.84576 -53.91003,11.72504 v 7.25835 h 54.1585 54.1585 z m 1.8179,-34.36704 c 4.93991,-7.20377 18.24036,-50.01853 19.00302,-61.17158 0.49288,-7.20778 -0.11392,-10.06467 -7.78957,-36.674 -4.57824,-15.87151 -8.84392,-29.37714 -9.47929,-30.0125 -3.11027,-3.11027 -13.58388,4.21394 -17.10287,11.96007 -2.76886,6.09493 -2.62029,9.34424 1.3589,29.71914 4.11615,21.07625 3.81714,22.58853 -5.11648,25.87748 -7.0064,2.57945 -14.95923,10.24294 -19.53098,18.82041 -5.29793,9.93995 -10.14678,12.23171 -16.05187,7.58677 -4.29469,-3.37821 -3.98181,-8.93238 0.96608,-17.14915 2.14959,-3.56975 3.90834,-6.68083 3.90834,-6.9135 0,-0.23268 -15.32629,-0.42305 -34.05843,-0.42305 h -34.05844 v 22.13073 c 0,25.15733 1.0192,30.57776 7.08124,37.6599 l 3.78155,4.41791 51.71414,-0.24528 51.71415,-0.24529 z M 128.95252,318.67856 c -3.91945,-18.811 5.42777,-37.72108 22.89338,-46.31489 6.83082,-3.36104 8.28819,-3.65447 18.05846,-3.63592 9.08732,0.0172 11.51826,0.43976 16.76965,2.91459 9.09291,4.28524 16.07632,11.05537 20.33819,19.71704 3.46011,7.03219 3.67022,8.14751 3.67022,19.4832 v 12.02399 l 18.14589,-2.5e-4 18.14589,-2.4e-4 v -27.86422 c 0,-29.54885 0.42472,-32.3701 5.20069,-34.54618 4.13844,-1.8856 6.5893,-1.51078 10.2472,1.56715 10.68191,8.98823 25.57731,8.08742 34.51061,-2.08706 14.52331,-16.54114 0.17281,-42.55094 -21.66961,-39.27546 -2.65465,0.39808 -7.37104,2.44387 -10.52081,4.56351 -7.17122,4.82587 -12.13792,5.11502 -15.45369,0.89969 -2.16499,-2.75235 -2.31439,-4.37419 -2.31439,-25.12508 v -22.18281 h -26.3735 -26.3735 l -3.52382,3.07084 c -1.93811,1.68897 -4.63243,3.8246 -5.9874,4.74585 l -2.46357,1.67501 2.81558,13.95837 c 3.38419,16.7773 3.00092,24.40063 -1.72971,34.40353 -4.06996,8.60593 -10.65678,15.16517 -19.3668,19.28572 -11.18992,5.29374 -20.40065,3.97193 -27.33192,-3.92234 -4.21049,-4.79548 -9.7016,-23.6015 -8.11207,-27.78231 2.09739,-5.51653 9.75473,-7.02516 14.24524,-2.80656 1.42147,1.33541 2.58448,2.89053 2.58448,3.45584 0,0.5653 1.05394,4.49772 2.3421,8.7387 2.74512,9.03772 4.57188,9.73988 11.77135,4.52462 5.33225,-3.86266 7.78322,-7.43219 9.49321,-13.82565 1.13032,-4.22613 0.82198,-7.29145 -2.43382,-24.19551 -4.32499,-22.45525 -4.09372,-23.84869 4.48428,-27.01737 6.77933,-2.50427 12.3677,-7.47554 17.72934,-15.7716 7.5824,-11.73227 8.94231,-13.15391 12.58274,-13.15391 4.87796,0 9.17332,4.67443 8.5242,9.27648 -0.27658,1.96087 -0.88755,4.45265 -1.3577,5.53728 -0.8072,1.86216 0.87898,1.95551 30.25909,1.67501 l 31.11394,-0.29706 V 141.9655 c 0,-17.8331 -0.0985,-18.62565 -3.06628,-24.6687 -5.3452,-10.88408 -0.24952,-10.01715 -58.87898,-10.01715 -33.25202,0 -52.12876,0.40312 -53.00696,1.13196 -3.32942,2.76318 -7.61165,13.52234 -14.5807,36.63431 -7.20751,23.90274 -7.47007,25.18685 -6.8498,33.5001 0.35474,4.75455 0.94683,10.65463 1.31576,13.11131 0.54015,3.59698 0.21162,4.95588 -1.68736,6.97918 -2.96922,3.16361 -10.00466,3.45583 -12.6564,0.52568 -1.89699,-2.09615 -5.24811,-13.45543 -5.24811,-17.78951 0,-2.32738 -0.50649,-2.55706 -5.6388,-2.55706 -6.88201,0 -11.618064,2.29625 -14.506474,7.0334 -2.09759,3.44017 -2.17994,6.09075 -2.18396,70.29601 l -0.004,66.72105 h 18.475614 18.47566 z M 259.86666,86.741081 c 2.3056,-2.305589 2.74092,-3.813094 2.74092,-9.491692 V 70.49861 H 207.89074 153.1739 v 6.750779 c 0,5.678598 0.43532,7.186103 2.74092,9.491692 l 2.74091,2.740923 h 49.23501 49.23501 z"
       id="path17117" />
  </g>
</svg>
