<?xml version="1.0" encoding="UTF-8" standalone="no"?>
<!-- Created with Inkscape (http://www.inkscape.org/) -->

<svg
   version="1.1"
   id="svg1"
   width="512"
   height="512"
   viewBox="0 0 512 512"
   sodipodi:docname="contact_00.svg"
   inkscape:version="1.1.2 (0a00cf5339, 2022-02-04)"
   inkscape:export-filename="/home/dusoudeth/Documentos/github/isadora-urel-landing-page/src/assets/images/contact_00_white.png"
   inkscape:export-xdpi="96"
   inkscape:export-ydpi="96"
   xmlns:inkscape="http://www.inkscape.org/namespaces/inkscape"
   xmlns:sodipodi="http://sodipodi.sourceforge.net/DTD/sodipodi-0.dtd"
   xmlns="http://www.w3.org/2000/svg"
   xmlns:svg="http://www.w3.org/2000/svg">
  <defs
     id="defs1" />
  <sodipodi:namedview
     id="namedview1"
     pagecolor="#ffffff"
     bordercolor="#000000"
     borderopacity="0.25"
     inkscape:showpageshadow="2"
     inkscape:pageopacity="0.0"
     inkscape:pagecheckerboard="0"
     inkscape:deskcolor="#d1d1d1"
     showgrid="false"
     inkscape:zoom="0.796875"
     inkscape:cx="-36.392157"
     inkscape:cy="177.56863"
     inkscape:window-width="1868"
     inkscape:window-height="1016"
     inkscape:window-x="52"
     inkscape:window-y="27"
     inkscape:window-maximized="1"
     inkscape:current-layer="g1"
     inkscape:pageshadow="2"
     inkscape:object-paths="true"
     inkscape:snap-smooth-nodes="false" />
  <g
     inkscape:groupmode="layer"
     inkscape:label="Image"
     id="g1">
    <path
       style="fill:#ffffff;stroke-width:0.97702"
       d="m 164.89302,504.9997 c -9.0792,-2.13903 -17.64696,-9.11185 -22.21204,-18.07708 l -2.44255,-4.79687 v -92.81693 -92.81693 l 2.44255,-4.79687 c 3.00566,-5.90272 9.27158,-12.49066 14.30048,-15.0354 7.9716,-4.03383 10.06804,-4.10473 121.35994,-4.10473 h 107.23066 l 25.35176,-30.95802 c 13.94347,-17.02692 26.52807,-31.81689 27.96579,-32.86661 6.78174,-4.95157 18.70881,-2.00155 23.01265,5.69192 2.11526,3.78116 2.18677,4.78406 2.20233,30.88267 l 0.0161,26.97461 8.21239,0.51235 c 14.5297,0.90647 24.98715,7.64237 30.54888,19.67727 l 2.76205,5.97685 0.26959,87.8992 c 0.18173,59.25472 -0.0685,89.52791 -0.76797,92.89708 -1.86182,8.96838 -7.12228,16.58731 -14.89012,21.56598 -8.53783,5.4722 -1.71006,5.26294 -168.25234,5.15641 -85.46269,-0.0546 -155.06092,-0.48211 -157.11016,-0.9649 z M 479.0516,488.1082 c 3.80206,-1.62679 8.01826,-5.96701 9.43241,-9.70988 0.70578,-1.868 1.03869,-30.54934 1.03766,-89.39736 -0.002,-97.11047 0.51227,-90.2041 -7.17016,-96.34768 -3.67532,-2.93914 -4.01969,-3.01053 -16.83026,-3.48904 -18.9734,-0.70871 -17.40386,2.36535 -18.00994,-35.27372 l -0.48851,-30.33756 -25.40252,31.21085 c -13.9714,17.16596 -26.56952,31.9285 -27.99583,32.80564 -2.3585,1.45039 -12.61435,1.59479 -113.27014,1.59479 -110.19804,0 -110.69506,0.009 -114.88658,2.0379 -2.31535,1.12084 -5.20203,3.42905 -6.41484,5.12935 l -2.20512,3.09146 v 89.88587 89.88587 l 2.3459,3.28917 c 1.29024,1.80903 4.14802,4.1076 6.35063,5.1079 3.85024,1.74856 9.91423,1.81955 157.18405,1.84018 127.93126,0.0179 153.69752,-0.20026 156.32325,-1.32374 z M 317.0791,471.93048 c -4.98186,-1.21283 -8.8985,-3.72487 -12.90593,-8.27754 -4.68033,-5.31712 -6.14597,-9.85862 -6.14597,-19.04414 0,-6.68009 -0.15515,-7.15775 -3.36854,-10.37117 -3.83566,-3.83564 -5.41133,-8.45416 -5.41919,-15.88439 -0.005,-5.0488 -0.14772,-5.30342 -7.1566,-12.79803 -13.07855,-13.98494 -16.78532,-23.07438 -16.78564,-41.16041 -2.4e-4,-14.75242 2.00749,-21.72944 9.36959,-32.56005 19.14486,-28.16457 57.32931,-33.92961 84.33604,-12.73295 6.29456,4.94038 13.43897,14.12957 16.70491,21.48598 9.98365,22.48778 5.57148,46.25953 -12.06589,65.00818 l -7.25913,7.71647 -0.4834,7.0501 c -0.53076,7.74077 -1.68126,10.72809 -5.50873,14.30378 -2.2371,2.08996 -2.53538,3.13231 -2.53538,8.86012 0,9.8348 -2.22378,16.00213 -7.76964,21.54799 -6.47306,6.47306 -14.61418,8.89916 -23.0065,6.85606 z m 10.86399,-17.99093 c 2.23925,-1.92613 2.73818,-3.26143 3.10298,-8.30467 l 0.43469,-6.00952 h -8.42211 -8.4221 v 5.77528 c 0,5.24955 0.27363,6.00552 3.00603,8.30468 3.73004,3.13861 6.8417,3.20937 10.30051,0.23423 z m 11.51286,-37.40201 c 0.931,-9.08702 2.3639,-11.87577 10.65991,-20.74673 11.72832,-12.54112 15.96363,-24.28528 13.64325,-37.83157 -3.6859,-21.5182 -24.27091,-37.55311 -44.97333,-35.03252 -26.23814,3.19458 -43.13349,28.32314 -35.80923,53.25925 2.14653,7.30807 4.52681,11.0137 12.28627,19.1273 8.16547,8.53814 10.53021,13.37468 10.55909,21.59637 l 0.0215,6.10638 h 16.47443 16.47441 z m -5.21981,-46.03636 c -1.16122,-0.94039 -2.55193,-3.67094 -3.09044,-6.06792 -1.29519,-5.76484 -2.14383,-6.62329 -8.3237,-8.41983 -8.10411,-2.35593 -10.63728,-8.19965 -5.92782,-13.67473 1.90637,-2.21627 2.9993,-2.60976 7.02428,-2.52897 6.52276,0.13092 14.75316,4.36239 18.69174,9.60993 3.38522,4.51028 5.78454,12.69259 4.83326,16.48277 -1.46474,5.836 -8.60808,8.32329 -13.20732,4.59875 z m -111.36858,33.33118 c -2.64006,-3.35629 -2.5719,-7.46831 0.17334,-10.45795 2.40141,-2.61519 17.67702,-8.46218 22.10798,-8.46218 2.92201,0 6.31227,3.00514 7.38493,6.54606 0.98539,3.25284 -1.74662,7.5353 -5.97708,9.36913 -14.65934,6.35455 -20.47417,7.09216 -23.68917,3.00494 z m 189.47102,1.88556 c -14.38562,-5.24652 -16.70264,-6.42784 -18.16892,-9.26331 -2.76615,-5.34916 0.78487,-11.54238 6.61811,-11.54238 4.69304,0 19.53901,5.68412 22.05377,8.4438 6.09278,6.68613 -1.51463,15.63999 -10.50296,12.36189 z M 217.25042,370.01267 c -2.95009,-3.27739 -3.37731,-5.36866 -1.84563,-9.03449 1.81006,-4.33207 6.77594,-5.73344 18.36393,-5.18229 7.30583,0.34746 8.88273,0.7375 10.99148,2.71856 3.28943,3.09026 3.38465,8.58098 0.20069,11.57216 -2.06259,1.93771 -3.29234,2.12436 -13.99649,2.12436 -10.93222,0 -11.87062,-0.15043 -13.71398,-2.1983 z m 183.38877,0.26911 c -2.79107,-2.79106 -3.35295,-6.19326 -1.58689,-9.60845 2.15166,-4.16083 6.62928,-5.38229 17.92021,-4.88847 8.7002,0.38053 9.45034,0.58057 11.61517,3.09732 3.03725,3.53102 3.00418,7.84261 -0.0838,10.93064 -2.28072,2.28073 -2.97437,2.39815 -14.16679,2.39815 -10.41543,0 -11.99048,-0.22184 -13.69784,-1.92919 z M 232.89081,340.6024 c -4.3894,-1.69163 -8.89591,-3.9132 -10.01446,-4.93688 -2.67227,-2.44556 -2.63718,-7.36684 0.0771,-10.81752 1.88192,-2.39247 2.59723,-2.63373 6.59489,-2.22437 2.4662,0.25254 8.11773,1.87499 12.55895,3.60543 6.37639,2.48445 8.39075,3.75695 9.57629,6.04952 1.70882,3.30448 1.15947,6.15288 -1.81301,9.4005 -2.74876,3.0032 -7.11101,2.72659 -16.9798,-1.07668 z m 162.43676,0.26895 c -5.60281,-6.65857 -2.47505,-11.04071 11.41159,-15.98827 8.14403,-2.90156 10.55592,-3.40166 12.62031,-2.61679 5.27715,2.00637 7.34065,8.62315 3.97059,12.73196 -1.93902,2.36406 -18.64053,8.87912 -22.76182,8.87912 -1.82812,0 -3.53517,-0.97915 -5.24067,-3.00602 z M 56.707202,303.63915 c -2.872,-1.47907 -5.14936,-3.615 -6.57881,-6.17024 -2.11525,-3.78116 -2.18677,-4.78406 -2.20231,-30.88268 l -0.016,-26.9746 -8.21239,-0.51235 c -14.5297,-0.90647 -24.98714,-7.64237 -30.5488704,-19.67727 l -2.76211,-5.97685 -0.26938,-88.29852 C 5.8857916,49.249039 6.0537316,36.045019 7.3129516,31.129659 10.539852,18.533859 20.025332,9.4474194 32.686122,6.8239094 c 3.38689,-0.70181 54.19116,-0.94593 159.822958,-0.76796 l 154.85772,0.2609 5.58889,2.6195 c 6.59146,3.0893896 12.98969,9.3463696 16.39406,16.0321196 l 2.44256,4.79687 v 92.816931 92.81693 l -2.44256,4.79686 c -3.00565,5.90273 -9.27157,12.49067 -14.30048,15.03541 -7.9716,4.03382 -10.06803,4.10473 -121.35993,4.10473 H 126.45866 l -25.35176,30.95802 c -13.943479,17.02692 -26.528078,31.81688 -27.965798,32.8666 -4.08525,2.98279 -11.17039,3.18901 -16.43385,0.47833 z m 36.348824,-49.77584 c 12.516294,-15.38531 23.923874,-28.685 25.350194,-29.55487 2.34944,-1.43287 13.00053,-1.58159 113.27014,-1.58159 110.19803,0 110.69505,-0.009 114.88657,-2.0379 2.31535,-1.12083 5.20204,-3.42905 6.41485,-5.12935 l 2.20512,-3.09146 V 122.58227 32.696399 l -2.3459,-3.28916 c -1.29025,-1.80904 -4.14802,-4.10759 -6.35064,-5.10791 -3.8502,-1.74853 -9.91188,-1.81954 -157.08906,-1.84018 -105.835156,-0.0148 -153.933248,0.29928 -155.834738,1.01772 -3.74287,1.41415 -8.08309,5.63035 -9.70988,9.43241 -1.10859,2.59093 -1.34493,18.40158 -1.34368,89.885861 0.002,97.217 -0.51266,90.29879 7.17015,96.44267 3.67533,2.93913 4.0197,3.01052 16.83027,3.48904 19.01101,0.71012 17.44836,-2.39696 17.82534,35.44269 l 0.30393,30.50618 2.83022,-3.41957 c 1.55663,-1.88076 13.07083,-16.00754 25.587114,-31.39284 z M 178.83073,205.4275 c -5.94754,-2.17415 -7.75517,-9.23001 -3.46398,-13.52119 2.93556,-2.93557 7.16797,-3.11993 10.55007,-0.45957 5.02577,3.95326 4.15853,10.81513 -1.67488,13.25249 -1.86692,0.78006 -3.51845,1.38356 -3.67004,1.34114 -0.15161,-0.0424 -0.93513,-0.31821 -1.74117,-0.61287 z m 0.48851,-33.30001 c -1.07472,-0.22042 -2.94327,-1.31283 -4.15234,-2.42758 -1.94301,-1.79144 -2.19829,-2.97598 -2.19829,-10.2001 0,-13.47341 3.48546,-18.00345 16.33558,-21.23129 15.54433,-3.90462 26.7879,-14.10903 31.22122,-28.33568 9.12891,-29.294894 -15.91085,-58.593011 -45.70955,-53.483101 -19.17796,3.28865 -32.60056,17.376901 -35.06346,36.802351 -1.17838,9.29404 -3.29114,12.23232 -8.79567,12.23232 -5.62241,0 -7.81888,-3.04238 -7.80456,-10.810189 0.0431,-23.365012 17.86838,-46.020032 41.72327,-53.028112 13.62996,-4.00421 28.53736,-2.61239 42.22946,3.9427 9.978,4.77697 20.80245,15.56823 25.80067,25.72155 17.13032,34.798321 -2.44335,74.987341 -40.64081,83.444451 -2.44629,0.54162 -2.68681,0.98958 -2.68681,5.00422 0,8.53876 -4.20608,13.60983 -10.25871,12.36846 z"
       id="path16431" />
  </g>
</svg>
