<?xml version="1.0" encoding="UTF-8" standalone="no"?>
<!-- Created with Inkscape (http://www.inkscape.org/) -->

<svg
   version="1.1"
   id="svg1"
   width="512"
   height="512"
   viewBox="0 0 512 512"
   sodipodi:docname="contact_04.svg"
   inkscape:version="1.1.2 (0a00cf5339, 2022-02-04)"
   inkscape:export-filename="/home/dusoudeth/Documentos/github/isadora-urel-landing-page/src/assets/images/contact_04_white.png"
   inkscape:export-xdpi="96"
   inkscape:export-ydpi="96"
   xmlns:inkscape="http://www.inkscape.org/namespaces/inkscape"
   xmlns:sodipodi="http://sodipodi.sourceforge.net/DTD/sodipodi-0.dtd"
   xmlns="http://www.w3.org/2000/svg"
   xmlns:svg="http://www.w3.org/2000/svg">
  <defs
     id="defs1" />
  <sodipodi:namedview
     id="namedview1"
     pagecolor="#ffffff"
     bordercolor="#000000"
     borderopacity="0.25"
     inkscape:showpageshadow="2"
     inkscape:pageopacity="0.0"
     inkscape:pagecheckerboard="0"
     inkscape:deskcolor="#d1d1d1"
     showgrid="false"
     inkscape:zoom="0.796875"
     inkscape:cx="-36.392157"
     inkscape:cy="177.56863"
     inkscape:window-width="1868"
     inkscape:window-height="1016"
     inkscape:window-x="52"
     inkscape:window-y="27"
     inkscape:window-maximized="1"
     inkscape:current-layer="g1"
     inkscape:pageshadow="2"
     inkscape:object-paths="true"
     inkscape:snap-smooth-nodes="false" />
  <g
     inkscape:groupmode="layer"
     inkscape:label="Image"
     id="g1">
    <path
       style="fill:#501357;stroke-width:1.95446;fill-opacity:1"
       d="m 6.3410133,503.89369 c 0.61065,-1.59132 8.7486997,-28.71176 18.0845297,-60.26762 l 16.97427,-57.37431 -9.80937,-20.69322 C 13.603943,327.61533 7.0806433,298.44702 7.0743233,255.93731 7.0663233,202.47362 18.884353,162.79516 48.405073,117.17054 61.564183,96.832965 95.006953,62.951355 115.35921,49.337865 216.8855,-18.572479 347.06716,-5.6403153 432.95922,80.888035 c 44.67721,45.008175 68.73804,98.654125 72.59945,161.867545 4.18125,68.44902 -22.78207,138.46236 -72.49252,188.23517 -29.51642,29.55343 -63.92227,50.63558 -102.71616,62.93921 -27.17576,8.6189 -44.47571,11.13568 -76.224,11.08899 -41.4626,-0.061 -68.2919,-6.21356 -107.66678,-24.69054 L 125.766,470.61795 68.391683,487.59221 c -31.55585,9.33584 -58.6762897,17.47388 -60.2676197,18.08453 -1.97449,0.75769 -2.54074,0.19135 -1.78305,-1.78305 z M 282.99076,474.77794 C 396.96093,460.48729 481.27749,360.75891 476.27434,246.165 470.63515,117.00289 353.57462,19.387585 225.65794,37.179145 178.73427,43.705635 138.2115,63.649065 102.92505,97.582595 27.250913,170.35529 13.784563,286.13814 70.481823,376.52702 c 2.39791,3.82283 1.7592,7.50474 -5.76392,33.22585 -4.65338,15.90963 -10.02742,34.33658 -11.94233,40.94878 l -3.48163,12.02217 12.02216,-3.48164 c 6.6122,-1.91491 25.03916,-7.28895 40.948787,-11.94233 25.7211,-7.52311 29.40301,-8.16183 33.22584,-5.76392 44.37627,27.83544 96.65491,39.61744 147.50003,33.24201 z m 34.35926,-86.04554 c -62.59155,-8.15841 -119.53321,-43.27432 -155.04933,-95.61891 -16.78531,-24.73861 -30.55443,-59.26736 -35.2501,-88.39638 -3.425,-21.24658 -1.65874,-54.23141 3.64135,-68.00196 4.63511,-12.04286 18.30015,-28.7883 28.77601,-35.26272 7.88035,-4.870325 22.80663,-5.769925 30.35652,-1.829555 5.43624,2.837235 50.9861,47.130825 56.88957,55.320545 10.50494,14.57325 8.20884,29.23654 -7.18106,45.85947 -12.19041,13.16709 -14.39078,19.10449 -10.03313,27.07285 1.67993,3.07188 14.40881,17.45862 28.28641,31.97049 l 25.232,26.38523 h 9.91702 c 9.3212,0 10.5376,-0.60993 20.24556,-10.15167 11.3532,-11.15878 17.61183,-14.2791 28.64051,-14.2791 10.75041,0 21.40018,7.80771 48.43935,35.51257 25.72533,26.35869 29.81871,33.54929 27.16155,47.71325 -1.87218,9.97948 -23.1179,32.11249 -36.24655,37.76028 -16.41239,7.06041 -39.07578,9.1716 -63.82568,5.94561 z m 50.33816,-31.76747 c 3.65044,-1.56728 10.12751,-6.484 14.39345,-10.92602 l 7.75626,-8.07645 -23.3614,-23.42242 c -12.84877,-12.88232 -24.13135,-23.42242 -25.07238,-23.42242 -0.94104,0 -6.42049,4.30423 -12.17655,9.56494 -17.11399,15.64124 -34.27821,19.36205 -54.46907,11.80768 -9.38968,-3.51312 -14.39472,-7.81562 -38.67393,-33.24543 -31.97454,-33.48982 -37.05923,-41.40972 -37.16086,-57.88189 -0.0923,-14.94053 4.26219,-24.70179 16.61335,-37.24228 l 10.09636,-10.25113 -24.9986,-24.92918 -24.9986,-24.92918 -8.34834,9.15128 c -5.05801,5.5445 -9.3384,12.68739 -10.86034,18.12324 -3.54791,12.67188 -1.51865,50.7379 3.66471,68.74482 20.76694,72.14394 78.56715,124.42618 153.32066,138.6837 16.70527,3.18617 44.89615,2.2776 54.27528,-1.74926 z"
       id="path17818" />
  </g>
</svg>
