<?xml version="1.0" encoding="UTF-8" standalone="no"?>
<!-- Created with Inkscape (http://www.inkscape.org/) -->

<svg
   version="1.1"
   id="svg1"
   width="512"
   height="512"
   viewBox="0 0 512 512"
   sodipodi:docname="contact_03.svg"
   inkscape:version="1.1.2 (0a00cf5339, 2022-02-04)"
   inkscape:export-filename="/home/dusoudeth/Documentos/github/isadora-urel-landing-page/src/assets/images/contact_03_white.png"
   inkscape:export-xdpi="96"
   inkscape:export-ydpi="96"
   xmlns:inkscape="http://www.inkscape.org/namespaces/inkscape"
   xmlns:sodipodi="http://sodipodi.sourceforge.net/DTD/sodipodi-0.dtd"
   xmlns="http://www.w3.org/2000/svg"
   xmlns:svg="http://www.w3.org/2000/svg">
  <defs
     id="defs1" />
  <sodipodi:namedview
     id="namedview1"
     pagecolor="#ffffff"
     bordercolor="#000000"
     borderopacity="0.25"
     inkscape:showpageshadow="2"
     inkscape:pageopacity="0.0"
     inkscape:pagecheckerboard="0"
     inkscape:deskcolor="#d1d1d1"
     showgrid="false"
     inkscape:zoom="0.796875"
     inkscape:cx="-36.392157"
     inkscape:cy="177.56863"
     inkscape:window-width="1868"
     inkscape:window-height="1016"
     inkscape:window-x="52"
     inkscape:window-y="27"
     inkscape:window-maximized="1"
     inkscape:current-layer="g1"
     inkscape:pageshadow="2"
     inkscape:object-paths="true"
     inkscape:snap-smooth-nodes="false" />
  <g
     inkscape:groupmode="layer"
     inkscape:label="Image"
     id="g1">
    <path
       style="fill:#ffffff;stroke-width:1.95541"
       d="m 456.51089,470.65438 -39.02639,-35.10129 -132.07166,-0.55328 -132.07167,-0.55328 -12.31033,-6.67498 c -12.83977,-6.96202 -20.14372,-14.65631 -28.00353,-29.50004 -4.47673,-8.45457 -4.68445,-10.65722 -5.30148,-56.21793 l -0.64218,-47.4186 h -6.21232 c -5.299818,0 -11.955298,5.16536 -45.31046,35.16571 -21.50398,19.34114 -40.53028,35.17993 -42.28066,35.19732 -1.7504,0.0176 -4.1958703,-1.18938 -5.4343603,-2.68171 -1.66718,-2.0088 -2.11012,-42.7512 -1.706,-156.92135 L 6.6856997,51.186903 13.36676,38.865123 c 7.42071,-13.68587 13.51141,-19.57804 28.30617,-27.383518 l 9.98712,-5.2690532 h 153.49939 153.4994 l 12.32177,6.6810642 c 13.68847,7.422117 19.5826,13.515857 27.37892,28.306147 5.23073,9.92314 5.26859,10.28983 5.90881,57.22561 l 0.64434,47.238467 27.71364,0.71724 c 25.48757,0.65964 28.51585,1.13662 37.70076,5.93804 14.74828,7.70968 20.87064,13.62205 28.30617,27.33525 l 6.68106,12.32178 0.54585,154.20805 c 0.40412,114.17015 -0.0389,154.91255 -1.70599,156.92136 -1.2385,1.49232 -3.68397,2.69908 -5.43435,2.6817 -1.7504,-0.0176 -20.74442,-15.8272 -42.20893,-35.13288 z m 31.09702,-278.02491 c -3.91774,-11.79523 -15.89478,-23.85128 -27.6864,-27.8691 -6.26325,-2.13409 -16.24433,-3.09302 -32.19409,-3.09302 h -23.11654 v 27.31892 27.31895 l 25.6996,0.54559 c 21.97913,0.46664 26.01155,1.041 27.85452,3.96758 1.56967,2.49256 1.56967,4.35137 0,6.84392 -1.84128,2.92388 -5.86446,3.50116 -27.6408,3.96608 l -25.48584,0.54413 -1.3807,9.20714 c -0.75938,5.06394 -2.61543,11.59486 -4.12456,14.51319 -1.5091,2.9183 -2.74384,5.76676 -2.74384,6.32988 0,0.56314 13.32437,1.26679 29.6097,1.56366 25.71115,0.46871 29.89351,0.99034 31.76534,3.96175 1.5707,2.49338 1.57048,4.35055 -8.2e-4,6.84392 -1.90707,3.02623 -6.36944,3.48348 -38.58588,3.95388 -35.13413,0.513 -36.68379,0.70453 -43.58342,5.38675 -9.61311,6.52364 -24.44688,10.70229 -37.99196,10.70229 -10.45128,0 -11.65035,0.50287 -19.19916,8.05168 l -8.05168,8.05166 v 22.35424 c 0,16.15678 -0.82234,23.94446 -2.96621,28.09023 -2.92388,5.6542 -11.79656,11.66844 -17.21415,11.66844 -1.85024,0 -3.11557,3.01356 -3.79452,9.03719 -0.75475,6.69601 -2.60335,10.62192 -7.13583,15.15439 -5.94254,5.94254 -6.6176,6.11722 -23.64067,6.11722 -17.02306,0 -17.69812,-0.17462 -23.64066,-6.11722 -4.53248,-4.53247 -6.38108,-8.45838 -7.13583,-15.15439 -0.67895,-6.02363 -1.94428,-9.03719 -3.79452,-9.03719 -5.41759,0 -14.29027,-6.01424 -17.21415,-11.66844 -2.14387,-4.14577 -2.96621,-11.93345 -2.96621,-28.09023 v -22.35424 l -8.05168,-8.05166 -8.05166,-8.05168 h -31.05647 -31.05644 v 42.77308 c 0,49.11893 1.21258,54.97398 14.10945,68.12849 14.40332,14.69103 9.49649,14.24201 155.87038,14.26399 l 130.17503,0.0195 33.24191,29.9772 33.24191,29.97722 0.50201,-138.95534 c 0.44034,-121.88933 0.12534,-140.08949 -2.56516,-148.1897 z m -143.1938,177.90502 c -3.15763,-3.15763 -3.01363,-8.40784 0.3062,-11.16305 1.89823,-1.57539 18.55677,-2.07412 56.98355,-1.70597 49.25187,0.47184 54.50177,0.83842 56.45862,3.94218 1.57303,2.49498 1.57303,4.34894 -2e-5,6.84392 -1.9575,3.10471 -7.22024,3.47004 -56.76482,3.94055 -40.83297,0.38778 -55.20669,-0.0808 -56.98353,-1.85763 z m 0,-46.92976 c -3.15763,-3.15762 -3.01363,-8.40783 0.3062,-11.16304 1.89823,-1.57539 18.55677,-2.07412 56.98355,-1.70597 49.25187,0.47184 54.50177,0.83842 56.45862,3.94217 1.57303,2.49499 1.57303,4.34894 -2e-5,6.84393 -1.9575,3.10471 -7.22024,3.47004 -56.76482,3.94055 -40.83297,0.38778 -55.20669,-0.0808 -56.98353,-1.85764 z m -75.11734,62.54326 c 1.29057,-1.29056 2.34649,-4.8103 2.34649,-7.82162 v -5.47514 H 256 240.35675 v 5.47514 c 0,7.98242 3.36262,10.16811 15.64325,10.16811 6.02266,0 12.0062,-1.05592 13.29677,-2.34649 z m 25.38457,-52.89374 0.5509,-22.97602 h -39.17017 -39.17019 v 22.16126 c 0,12.18872 0.60504,22.76633 1.34454,23.50583 0.73949,0.73949 18.11817,1.10613 38.61927,0.81476 l 37.27474,-0.5298 z m -212.6299,-47.90745 7.383009,-6.35507 h 47.873491 47.87347 l 1.32496,-5.37737 c 0.72872,-2.95755 4.05514,-8.21513 7.39206,-11.68351 7.36578,-7.65596 7.18682,-8.18903 -10.83269,-32.26608 -15.63858,-20.89575 -22.01647,-33.61119 -25.78679,-51.41057 -5.47521,-25.84808 -3.20444,-45.16339 8.11283,-69.00842 29.51668,-62.190457 113.75413,-76.211187 161.98056,-26.960507 25.54224,26.084727 35.11737,59.307157 27.47942,95.344217 -3.6898,17.40906 -10.77711,31.84344 -24.06298,49.00796 -6.05532,7.82313 -12.95132,17.62916 -15.32442,21.79122 l -4.3147,7.56734 6.50741,5.7136 c 3.57908,3.14248 7.07912,8.3165 7.77787,11.49785 1.2277,5.58973 1.64807,5.78427 12.49917,5.78427 15.36484,0 27.89721,-4.69949 37.11563,-13.9179 13.81324,-13.81322 13.91789,-14.67906 13.91789,-115.13892 0,-100.474617 -0.052,-100.903237 -13.95274,-114.942917 -14.48559,-14.63041 -8.26947,-14.11389 -169.85545,-14.11389 -161.26228,0 -155.08945,-0.50755 -169.6943,13.95274 -14.59916,14.45466 -14.11389,8.76566 -14.11389,165.462077 V 339.90295 L 48.00983,315.80241 C 62.67205,302.5471 77.99077,288.84209 82.05144,285.3468 Z M 55.02337,229.7546 c -3.17054,-3.17052 -3.02525,-8.41537 0.30975,-11.18317 1.87269,-1.55419 14.49087,-2.0749 41.341163,-1.70599 34.329097,0.47168 38.886657,0.91321 40.802407,3.95295 1.57193,2.4942 1.57189,4.34972 -8e-5,6.84392 -1.91704,3.04168 -6.48598,3.48065 -41.112181,3.94992 C 67.71391,232.00054 56.77789,231.50918 55.02337,229.7546 Z m 0,-46.92975 c -3.17054,-3.17052 -3.02525,-8.41537 0.30975,-11.18317 1.87269,-1.55419 14.49087,-2.0749 41.341163,-1.70599 34.329097,0.47168 38.886657,0.91321 40.802407,3.95295 1.57193,2.4942 1.57189,4.34972 -8e-5,6.84392 -1.91704,3.04168 -6.48598,3.48065 -41.112181,3.94992 -28.650519,0.38831 -39.586539,-0.10305 -41.341059,-1.85763 z m 0,-46.92975 c -3.17054,-3.17052 -3.02525,-8.41537 0.30975,-11.18317 1.87269,-1.55419 14.49087,-2.0749 41.341163,-1.70599 34.329097,0.47168 38.886657,0.91321 40.802407,3.95295 1.57193,2.49418 1.57189,4.34972 -8e-5,6.84392 -1.91704,3.04166 -6.48598,3.48064 -41.112181,3.94992 C 67.71391,138.14104 56.77789,137.64968 55.02337,135.8951 Z m 0.0176,-46.912267 c -1.32162,-1.3217 -2.40299,-3.87922 -2.40299,-5.68339 0,-6.60218 4.75506,-7.81429 28.42188,-7.245 19.37916,0.46615 23.31617,1.08877 25.13296,3.9747 1.56874,2.49191 1.56866,4.35201 -2.6e-4,6.84392 -1.82071,2.89183 -5.76371,3.50645 -25.45147,3.9674 -16.45533,0.38526 -24.00267,-0.16034 -25.70004,-1.85763 z M 308.40512,292.28849 c 1.29057,-1.29057 2.34649,-5.51424 2.34649,-9.38595 0,-3.8717 -1.05592,-8.09538 -2.34649,-9.38595 -3.34011,-3.34011 -101.46967,-3.34011 -104.80978,0 -1.29057,1.29057 -2.34649,5.51425 -2.34649,9.38595 0,3.87171 1.05592,8.09538 2.34649,9.38595 3.34011,3.34011 101.46967,3.34011 104.80978,0 z m -60.22653,-58.82116 v -22.05955 l -11.73243,-11.61001 c -11.79496,-11.67187 -13.72125,-15.80539 -9.38595,-20.14068 4.18322,-4.18322 8.09774,-2.53168 18.61263,7.8526 l 10.32738,10.19908 10.32738,-10.19908 c 10.51489,-10.38428 14.42941,-12.03582 18.61263,-7.8526 4.3353,4.33529 2.40901,8.46881 -9.38595,20.14068 l -11.73243,11.61001 v 22.05955 22.05952 h 15.55175 15.55174 l 3.91717,-8.85541 c 2.15444,-4.87048 10.45739,-17.53762 18.45098,-28.14918 16.85621,-22.37681 22.74921,-36.26468 24.21649,-57.0702 3.60337,-51.0948 -35.20228,-93.548607 -85.50976,-93.548607 -56.62835,0 -97.6342,54.287137 -83.11408,110.033657 3.91856,15.04435 8.11168,22.83805 23.11222,42.95846 6.96715,9.34514 14.29848,20.95689 16.2918,25.8039 l 3.62423,8.81272 16.1321,0.008 16.1321,0.008 v -22.05988 z m -60.53963,-74.63915 c -5.19446,-6.25894 2.43493,-15.87354 9.21022,-11.60678 6.77026,4.26358 4.35827,14.44595 -3.42196,14.44595 -1.88757,0 -4.49229,-1.27762 -5.78826,-2.83917 z M 196.5,127.30807 c -3.73893,-3.73894 -3.73721,-3.67937 -0.29652,-10.22332 4.72808,-8.99242 19.17302,-21.457257 31.25714,-26.972377 14.2202,-6.49006 31.66872,-7.61383 35.11532,-2.26161 3.74413,5.81425 -0.82939,10.08085 -12.63099,11.78334 -15.2321,2.197387 -26.07382,8.209357 -36.42404,20.197977 -9.7132,11.25078 -12.16794,12.32895 -17.02091,7.47599 z"
       id="path17577" />
  </g>
</svg>
