<?xml version="1.0" encoding="UTF-8" standalone="no"?>
<!-- Created with Inkscape (http://www.inkscape.org/) -->

<svg
   width="100mm"
   height="100mm"
   viewBox="0 0 99.998743 99.998737"
   version="1.1"
   id="svg134843"
   inkscape:version="1.1.2 (0a00cf5339, 2022-02-04)"
   sodipodi:docname="favicon.svg"
   inkscape:export-filename="/home/dusoudeth/Documentos/github/isadora-urel-landing-page/public/favicon.png"
   inkscape:export-xdpi="8.1280003"
   inkscape:export-ydpi="8.1280003"
   xmlns:inkscape="http://www.inkscape.org/namespaces/inkscape"
   xmlns:sodipodi="http://sodipodi.sourceforge.net/DTD/sodipodi-0.dtd"
   xmlns="http://www.w3.org/2000/svg"
   xmlns:svg="http://www.w3.org/2000/svg">
  <sodipodi:namedview
     id="namedview134845"
     pagecolor="#ffffff"
     bordercolor="#000000"
     borderopacity="0.25"
     inkscape:pageshadow="2"
     inkscape:pageopacity="0.0"
     inkscape:pagecheckerboard="0"
     inkscape:document-units="px"
     showgrid="true"
     inkscape:zoom="1.0633188"
     inkscape:cx="193.73306"
     inkscape:cy="174.4538"
     inkscape:window-width="1488"
     inkscape:window-height="752"
     inkscape:window-x="343"
     inkscape:window-y="168"
     inkscape:window-maximized="0"
     inkscape:current-layer="layer1"
     inkscape:snap-page="true" />
  <defs
     id="defs134840">
    <inkscape:path-effect
       effect="perspective-envelope"
       up_left_point="34.640579,19.999748"
       up_right_point="47.630797,27.499653"
       down_left_point="34.640579,34.999559"
       down_right_point="47.630797,42.499464"
       id="path-effect135081"
       is_visible="true"
       lpeversion="1"
       deform_type="perspective"
       horizontal_mirror="false"
       vertical_mirror="false"
       overflow_perspective="false" />
    <inkscape:path-effect
       effect="perspective-envelope"
       up_left_point="34.640583,19.999748"
       up_right_point="47.630797,12.499842"
       down_left_point="47.630797,27.499653"
       down_right_point="60.621014,19.999748"
       id="path-effect135036"
       is_visible="true"
       lpeversion="1"
       deform_type="perspective"
       horizontal_mirror="false"
       vertical_mirror="false"
       overflow_perspective="false" />
  </defs>
  <g
     inkscape:label="Layer 1"
     inkscape:groupmode="layer"
     id="layer1">
    <rect
       style="fill:#501357;fill-opacity:1;stroke:none;stroke-width:0.26458"
       id="rect18121"
       width="99.998741"
       height="99.998741"
       x="-9.564161e-07"
       y="-9.564161e-07"
       rx="8.9297228"
       ry="8.9297228" />
    <path
       style="fill:#ffffff;fill-opacity:1;stroke:none;stroke-width:0.407966"
       d="m 48.660419,93.82155 c -1.933956,-2.961754 -2.564088,-4.510455 -2.614071,-6.424743 -0.02052,-0.785334 -0.184212,-1.659323 -0.363788,-1.942201 l -0.326503,-0.514322 -0.986178,1.049734 c -1.595304,1.698129 -3.234768,2.511564 -6.889987,3.418564 -1.893153,0.469758 -4.439621,1.310784 -5.658826,1.868952 -1.219201,0.558169 -2.289035,1.014864 -2.377412,1.014864 -0.210064,0 -1.777044,-2.571687 -1.779022,-2.919677 -0.0025,-0.458329 5.912877,-2.756087 8.839531,-3.433549 3.583875,-0.829596 7.074902,-3.162927 7.069073,-4.724823 -2.91e-4,-0.07757 -1.423069,-0.146282 -3.161733,-0.152729 l -3.161206,-0.01168 -2.758945,-0.941179 -2.758945,-0.941179 -1.728676,0.286753 c -2.497015,0.414204 -6.703428,2.065855 -8.977104,3.524871 l -1.966076,1.261628 -0.601199,-0.767792 C 18.128695,83.05076 17.677841,82.396361 17.457454,82.018826 l -0.400708,-0.686424 1.19118,-0.84819 c 0.655149,-0.466511 2.58262,-1.508991 4.283265,-2.316624 1.700648,-0.807639 3.092089,-1.526807 3.092089,-1.598168 0,-0.07137 -1.055611,-0.444807 -2.345802,-0.829895 l -2.345801,-0.700165 -5.222583,0.0094 -5.222589,0.0094 0.123016,-1.684067 0.123016,-1.684053 6.119483,0.01908 6.119483,0.01908 4.487621,1.776154 c 2.468191,0.97689 5.956296,2.295399 7.751346,2.930027 l 3.263723,1.153866 2.105554,0.0086 2.105552,0.0086 1.040504,-1.236561 C 46.361865,73.236104 46.300285,65.392671 43.59813,60.106978 41.127499,55.274357 32.420642,49.247972 24.399383,46.818893 L 22.155572,46.139402 17.463968,45.929475 12.772365,45.71955 8.7550056,46.293814 4.737648,46.868073 4.6086661,46.428189 C 4.5377207,46.186253 4.3796478,45.406957 4.2573897,44.696413 L 4.0351021,43.404519 6.9758541,42.899787 C 8.5932674,42.622189 12.141324,42.377408 14.860423,42.35584 l 4.943812,-0.03921 -2.903984,-3.173093 c -5.12002,-5.594505 -8.4094297,-9.46264 -8.4033445,-9.881822 0.00329,-0.224381 0.5752033,-0.805677 1.2709953,-1.291773 l 1.2650742,-0.883808 2.648753,3.127618 c 1.456812,1.72019 4.78553,5.325704 7.39714,8.012251 l 4.748392,4.884627 5.507535,2.717993 c 6.565234,3.239972 10.834855,6.17101 13.024541,8.94117 l 1.606396,2.032242 0.204126,-0.715266 c 0.112268,-0.393392 0.423354,-3.040877 0.691295,-5.88329 l 0.487174,-5.168031 -0.207935,-6.05102 -0.207941,-6.051023 -0.656972,-2.080314 -0.65697,-2.080315 -2.144279,-2.018739 C 40.855076,24.288222 39.24537,23.176218 31.797565,18.687639 28.598355,16.75957 25.356499,14.757818 24.593437,14.239304 l -1.387386,-0.942755 0.902641,-1.291582 c 1.142727,-1.635123 0.95067,-1.662166 4.680783,0.659109 1.736495,1.080634 4.188736,2.548971 5.44942,3.262968 l 2.292151,1.298178 2.082446,-4.18089 c 1.145348,-2.299492 3.025684,-5.3431445 4.17853,-6.7636772 l 2.096083,-2.5827846 1.178673,1.1292404 c 1.504855,1.4417426 1.496198,1.5105724 -0.471152,3.7455955 -1.54042,1.7500099 -5.699739,9.3724209 -5.688502,10.4248109 0.003,0.260165 0.609985,0.864614 1.349349,1.343222 0.739364,0.478607 2.467237,1.804715 3.839718,2.946905 l 2.495419,2.076709 1.236981,2.560628 1.23698,2.560631 0.48403,3.443072 0.484028,3.443075 -0.223138,6.430133 -0.223141,6.430132 1.435414,-1.917878 C 55.913862,43.115189 61.816051,38.16008 66.934427,35.795242 l 3.048835,-1.408649 0.282407,-2.496135 C 70.907564,26.216876 73.61238,19.957322 77.009924,16.28273 l 2.226807,-2.408382 1.154871,1.292525 1.15487,1.292524 -1.852266,2.060171 C 76.878619,21.651171 73.763208,29.22523 73.763208,32.93874 v 0.894736 l 5.813508,0.236182 c 5.448743,0.221367 15.647977,1.644656 16.31051,2.276112 0.304466,0.290191 -0.374616,3.319066 -0.744154,3.319066 -0.112171,0 -2.352458,-0.40387 -4.978402,-0.897484 L 85.390224,37.86987 78.046847,37.84943 70.70347,37.829 68.051694,39.196438 c -7.906629,4.077209 -14.723199,11.625024 -17.43225,19.302295 l -1.055868,2.992266 -0.183689,3.263722 -0.18369,3.263726 0.491712,1.821054 0.491712,1.821053 1.490665,1.489557 1.490665,1.489564 2.1619,0.463067 c 3.8885,0.832891 7.891799,0.366939 16.979892,-1.976325 l 4.779334,-1.2323 h 3.50871 c 1.929793,0 4.687513,0.205283 6.12827,0.456176 l 2.619558,0.456175 -0.272084,1.481663 c -0.364533,1.985061 -0.555099,2.115223 -2.452768,1.67533 -0.89732,-0.208003 -3.150788,-0.382566 -5.007696,-0.387918 l -3.376188,-0.0097 0.672794,1.325892 c 0.370035,0.729237 1.318728,2.2346 2.108203,3.345248 l 1.435397,2.019371 -1.383778,1.159088 -1.383787,1.159096 -0.89764,-1.119898 C 78.287356,82.838651 77.277646,81.266024 76.53726,79.95986 75.796866,78.653703 74.995749,77.294835 74.757004,76.940172 l -0.434096,-0.64486 -4.208183,1.06119 c -2.314506,0.583652 -5.854626,1.261375 -7.866946,1.506053 l -3.658765,0.444862 -2.672253,-0.465356 c -1.46974,-0.255944 -3.379495,-0.826164 -4.243905,-1.26715 -1.934686,-0.987001 -1.963571,-0.633672 -0.166506,2.036754 1.736603,2.580581 3.269256,3.895938 6.746925,5.790362 l 2.703914,1.472919 2.425349,0.281989 c 3.57589,0.415748 7.273785,1.123774 7.65536,1.465742 0.183934,0.164848 0.205632,0.986261 0.04819,1.825387 l -0.286213,1.525665 -1.476084,-0.248944 c -0.811855,-0.136912 -3.199943,-0.445329 -5.306863,-0.68536 l -3.830768,-0.43644 -3.40321,-1.840078 c -1.871767,-1.012053 -4.354315,-2.695212 -5.516767,-3.740359 l -2.113559,-1.900268 0.28641,2.851202 0.286409,2.851195 1.85876,2.807575 1.858765,2.807561 -0.548982,0.3691 c -0.301941,0.202999 -1.013751,0.621742 -1.581804,0.930522 l -1.03283,0.561434 z M 59.735266,58.803198 c -2.152579,-1.693219 -2.980682,-5.057254 -1.924327,-7.817312 0.515187,-1.346087 0.823249,-1.383236 2.23856,-0.269952 2.136784,1.680794 2.980237,5.347575 1.817225,7.900109 -0.573522,1.258747 -0.749511,1.274194 -2.131458,0.187155 z M 27.585299,58.125282 c -2.109272,-2.261484 -2.576623,-5.00696 -1.307571,-7.681298 l 0.65445,-1.379151 0.745062,0.398745 c 0.40978,0.219306 1.154194,0.973325 1.654253,1.675592 l 0.909197,1.276847 0.185474,1.930289 0.185478,1.930284 -0.704822,1.485296 c -0.845244,1.781226 -0.979518,1.802244 -2.321521,0.363396 z m -13.325491,-2.039828 -1.606654,-1.52987 -0.429012,-1.631862 -0.42901,-1.631863 0.300855,-1.425415 0.300854,-1.425415 0.643317,-0.123895 c 1.716726,-0.330608 4.42945,3.429027 4.418242,6.123355 -0.01466,3.520028 -0.803415,3.925676 -3.198592,1.644965 z m 55.680306,-5.667986 c -2.091612,-1.939457 -2.787306,-4.735005 -1.848513,-7.428026 l 0.447878,-1.284771 h 0.612343 c 0.97829,0 2.928946,2.376741 3.406635,4.150757 l 0.438654,1.629036 -0.27717,1.291749 c -0.625633,2.915819 -1.101966,3.197052 -2.779827,1.641255 z m 7.063698,-2.271223 -0.462539,-1.717734 0.49166,-1.647982 0.491655,-1.647979 1.604197,-1.529871 c 2.01602,-1.922619 2.251649,-1.911177 2.802927,0.136123 l 0.448607,1.666 -0.272911,1.29175 c -0.3928,1.859249 -1.575574,3.630765 -2.973421,4.45348 -1.619796,0.953346 -1.600759,0.962317 -2.130175,-1.003795 z M 93.13399,48.47952 c -0.677319,-0.295126 -1.815667,-1.201937 -2.529667,-2.015138 l -1.298178,-1.478544 -0.268933,-1.433529 c -0.147917,-0.788443 -0.169101,-1.693693 -0.0471,-2.011665 l 0.221853,-0.578138 1.376738,0.310503 c 3.022373,0.681659 5.204624,3.336146 5.204624,6.330908 v 1.444133 l -0.713938,-0.01597 c -0.39267,-0.0087 -1.268108,-0.257435 -1.945421,-0.552562 z M 31.361718,42.545871 30.776686,42.17567 31.869933,40.523667 c 0.601283,-0.908601 1.690679,-1.964779 2.420872,-2.347063 l 1.327629,-0.695059 1.940974,-0.0067 c 1.067536,-0.0038 2.147353,0.19966 2.399591,0.451895 l 0.458619,0.458619 -0.789785,1.352304 c -0.434384,0.743729 -1.403661,1.765952 -2.153949,2.271572 l -1.364165,0.91931 -2.081485,-0.0061 c -1.144822,-0.0034 -2.344754,-0.172887 -2.666516,-0.376498 z M 8.8964864,40.378783 C 6.5602187,38.784069 5.5157987,35.750449 6.2980694,32.83142 c 0.7692401,-2.870408 5.0464156,1.665699 5.0464156,5.351916 0,3.282393 -0.369775,3.61402 -2.4479986,2.195447 z M 22.613685,35.121979 c -0.549595,-2.747971 1.294173,-6.239617 3.854943,-7.300323 l 1.269839,-0.525983 0.388337,0.575059 c 0.213587,0.316282 0.314061,1.460759 0.223271,2.543284 l -0.16507,1.968226 -0.808418,1.091515 c -0.904552,1.221314 -3.239485,2.927362 -4.006453,2.927362 -0.275343,0 -0.615745,-0.575611 -0.756449,-1.27914 z m 33.73947,-0.602193 c -2.047837,-1.009928 -4.230536,-4.442094 -3.537795,-5.56297 0.363293,-0.587826 2.751286,-0.301461 4.485042,0.537834 l 1.745281,0.844877 0.799514,1.296942 c 0.439734,0.713318 0.92552,1.801798 1.079528,2.418848 l 0.28001,1.121904 -1.778082,-0.0092 c -0.977946,-0.0051 -2.361018,-0.296773 -3.073498,-0.648147 z m 26.095776,-3.40774 c -2.284419,-1.392881 -3.784068,-5.854834 -2.59767,-7.728934 l 0.364035,-0.575059 1.286414,0.532847 c 0.707526,0.293068 1.750745,1.141622 2.318265,1.885676 l 1.031844,1.352823 0.217622,1.622495 c 0.461761,3.442672 -0.321165,4.312132 -2.62051,2.910152 z m -48.768334,-0.48865 c -0.617047,-0.225363 -1.121905,-0.634983 -1.121905,-0.910261 0,-0.858367 2.430388,-3.034167 3.949039,-3.535367 l 1.449643,-0.478426 1.640425,0.220027 c 0.902238,0.121011 1.902087,0.481685 2.221891,0.801491 l 0.581464,0.581461 -1.128502,1.341149 c -1.872921,2.225836 -4.816747,2.993557 -7.592055,1.979926 z M 13.282321,25.727809 c -1.901086,-0.694336 -1.043134,-2.596734 1.832753,-4.063904 l 1.676846,-0.855462 1.99835,0.192015 c 1.09909,0.105608 2.266433,0.460106 2.594101,0.78777 L 21.980122,22.383982 21.08,23.528304 c -1.713933,2.178909 -5.178413,3.156142 -7.797679,2.199505 z m 48.699988,0.03144 c -1.599519,-0.33829 -3.517806,-1.654144 -3.517806,-2.413045 0,-0.288141 0.509537,-0.904318 1.132309,-1.369282 l 1.132303,-0.845386 h 2.145797 2.145797 l 1.515491,0.936627 c 0.833519,0.515142 1.515494,1.192796 1.515494,1.505895 0,1.365438 -3.680299,2.690478 -6.069385,2.185196 z M 46.123546,21.624404 c -1.22614,-0.591345 -1.162068,-0.971389 0.432607,-2.566065 l 1.350533,-1.35053 1.795081,-0.483367 1.795085,-0.483365 1.528863,0.458058 c 0.840875,0.251933 1.650524,0.65491 1.799218,0.895508 0.391863,0.634042 -1.057121,2.396278 -2.690659,3.272357 l -1.408387,0.755325 -1.842209,-0.02762 c -1.013216,-0.0151 -2.255275,-0.226817 -2.760132,-0.470303 z m 23.812665,-6.430615 c -1.431827,-0.454197 -2.976518,-1.848038 -3.797597,-3.426731 l -0.611659,-1.176043 0.548434,-0.34758 c 0.720194,-0.4564432 3.710083,-0.4564843 4.907493,-7e-5 1.711296,0.65229 4.535269,4.140523 3.881405,4.794387 -0.376879,0.376878 -3.882027,0.487859 -4.928076,0.156037 z M 31.419869,12.081862 c -1.272351,-0.649002 -2.94083,-2.3623758 -2.94083,-3.0199563 0,-0.5749168 2.5221,-1.3464817 4.312904,-1.3194094 l 1.794673,0.027125 1.331841,0.8297142 c 0.73251,0.4563413 1.577401,1.2305661 1.87753,1.7204995 l 0.545695,0.890788 -0.626973,0.626971 -0.62697,0.626972 -2.162532,0.151109 -2.162531,0.15111 -1.342807,-0.684938 z m 17.559436,-0.609595 c -2.189379,-1.083726 -2.18202,-1.6998365 0.03586,-2.9995884 l 1.769682,-1.0371132 h 1.744452 1.744458 l 1.585419,0.8910544 c 1.800564,1.011976 1.867413,1.1750774 0.856545,2.0898982 -2.140392,1.937029 -5.13142,2.345198 -7.736416,1.055749 z"
       id="path364560"
       inkscape:export-filename="/home/dusoudeth/Documentos/github/isadora-urel-landing-page/src/assets/images/logo_02.png"
       inkscape:export-xdpi="130.048"
       inkscape:export-ydpi="130.048" />
  </g>
</svg>
