<?xml version="1.0" encoding="UTF-8" standalone="no"?>
<!-- Created with Inkscape (http://www.inkscape.org/) -->

<svg
   version="1.1"
   id="svg1"
   width="1000"
   height="1000"
   viewBox="0 0 1000 1000"
   sodipodi:docname="logo_00.svg"
   inkscape:version="1.1.2 (0a00cf5339, 2022-02-04)"
   inkscape:export-filename="/home/dusoudeth/Documentos/github/isadora-urel-landing-page/src/assets/images/hero_image_no_hammer.png"
   inkscape:export-xdpi="44.629543"
   inkscape:export-ydpi="44.629543"
   xmlns:inkscape="http://www.inkscape.org/namespaces/inkscape"
   xmlns:sodipodi="http://sodipodi.sourceforge.net/DTD/sodipodi-0.dtd"
   xmlns="http://www.w3.org/2000/svg"
   xmlns:svg="http://www.w3.org/2000/svg">
  <defs
     id="defs1">
    <inkscape:path-effect
       effect="perspective-envelope"
       up_left_point="1014.6817,-151.1811"
       up_right_point="1047.4134,-132.28346"
       down_left_point="1014.6817,-113.38583"
       down_right_point="1053.9597,-79.370079"
       id="path-effect128964"
       is_visible="true"
       lpeversion="1"
       deform_type="perspective"
       horizontal_mirror="false"
       vertical_mirror="false"
       overflow_perspective="false" />
    <inkscape:path-effect
       effect="bend_path"
       id="path-effect126345"
       is_visible="true"
       lpeversion="1"
       bendpath="M 339.29463,-91.494968 C 444.6005,-58.9233 467.90401,-173.68194 464.30509,-235.45595"
       prop_scale="1"
       scale_y_rel="false"
       vertical="false"
       hide_knot="false"
       bendpath-nodetypes="cc" />
    <inkscape:path-effect
       effect="bend_path"
       id="path-effect125849"
       is_visible="true"
       lpeversion="1"
       bendpath="m 343.65166,90.253814 c 67.02657,0 105.35802,-31.157391 125.88422,-70.382102"
       prop_scale="1"
       scale_y_rel="false"
       vertical="false"
       hide_knot="false"
       bendpath-nodetypes="cc" />
    <inkscape:path-effect
       effect="bend_path"
       id="path-effect125456"
       is_visible="true"
       lpeversion="1"
       bendpath="M 568.32101,55.174996 C 639.63267,100 750,100 828.81329,10.87086"
       prop_scale="1"
       scale_y_rel="false"
       vertical="false"
       hide_knot="false"
       bendpath-nodetypes="cc" />
    <inkscape:path-effect
       effect="bend_path"
       id="path-effect125260"
       is_visible="true"
       lpeversion="1"
       bendpath="m 500,250 c 206.54289,56.97037 250,0 347.22818,-57.22328"
       prop_scale="1"
       scale_y_rel="false"
       vertical="false"
       hide_knot="false"
       bendpath-nodetypes="cc" />
    <inkscape:path-effect
       effect="bend_path"
       id="path-effect124653"
       is_visible="true"
       lpeversion="1"
       bendpath="M 279.37439,-136.70683 C 344.82323,-19.370655 453.85503,47.951509 568.46553,55.184149"
       prop_scale="1"
       scale_y_rel="false"
       vertical="false"
       hide_knot="false"
       bendpath-nodetypes="cc" />
    <inkscape:path-effect
       effect="bend_path"
       id="path-effect123799"
       is_visible="true"
       lpeversion="1"
       bendpath="M 143.42779,118.04728 C 343.2291,173.81012 313.98631,250 323.36969,356.49367"
       prop_scale="1"
       scale_y_rel="false"
       vertical="false"
       hide_knot="false"
       bendpath-nodetypes="cc" />
    <inkscape:path-effect
       effect="bend_path"
       id="path-effect122828"
       is_visible="true"
       lpeversion="1"
       bendpath="M 134.4182,282.06737 C 265.59175,400.7927 407.24733,394.32242 515.12656,394.32242"
       prop_scale="1"
       scale_y_rel="false"
       vertical="false"
       hide_knot="false"
       bendpath-nodetypes="cc" />
    <inkscape:path-effect
       effect="bend_path"
       id="path-effect122480"
       is_visible="true"
       lpeversion="1"
       bendpath="M 353.20476,1027.1825 C 573.25121,1122.3687 687.43672,1098.3089 900,1097.2577"
       prop_scale="1"
       scale_y_rel="false"
       vertical="false"
       hide_knot="false"
       bendpath-nodetypes="cc" />
    <inkscape:path-effect
       effect="bend_path"
       id="path-effect122228"
       is_visible="true"
       lpeversion="1"
       bendpath="m 250,1094.5849 c 83.94499,0 116.06031,2.2659 198.34301,-44.1872"
       prop_scale="1"
       scale_y_rel="false"
       vertical="false"
       hide_knot="false"
       bendpath-nodetypes="cc" />
    <inkscape:path-effect
       effect="bend_path"
       id="path-effect121538"
       is_visible="true"
       lpeversion="1"
       bendpath="m 250,1088.5751 c 117.32199,0 192.64783,3.7817 248.30738,-51.8779"
       prop_scale="1"
       scale_y_rel="false"
       vertical="false"
       hide_knot="false"
       bendpath-nodetypes="cc" />
    <inkscape:path-effect
       effect="bend_path"
       id="path-effect121190"
       is_visible="true"
       lpeversion="1"
       bendpath="m 100,1045.8596 c 227.72898,0 470.63548,-29.4766 657.39934,157.2872"
       prop_scale="1"
       scale_y_rel="false"
       vertical="false"
       hide_knot="false"
       bendpath-nodetypes="cc" />
    <inkscape:path-effect
       effect="bend_path"
       id="path-effect119597"
       is_visible="true"
       lpeversion="1"
       bendpath="m 250,1091.2178 c 367.69796,0 506.07896,-32.3251 638.14992,-111.98473"
       prop_scale="1"
       scale_y_rel="false"
       vertical="false"
       hide_knot="false"
       bendpath-nodetypes="cc" />
    <inkscape:path-effect
       effect="bend_path"
       id="path-effect79427"
       is_visible="true"
       lpeversion="1"
       bendpath="m 100,500 c 400,0 549.34437,-1.11435 800.73802,250.27931"
       prop_scale="1"
       scale_y_rel="false"
       vertical="false"
       hide_knot="false"
       bendpath-nodetypes="cc" />
    <inkscape:path-effect
       effect="bend_path"
       id="path-effect78908"
       is_visible="true"
       lpeversion="1"
       bendpath="M 695.82794,-285.02602 686.5422,84.53265"
       prop_scale="1"
       scale_y_rel="false"
       vertical="false"
       hide_knot="false"
       bendpath-nodetypes="cc" />
    <inkscape:path-effect
       effect="bend_path"
       id="path-effect73691"
       is_visible="true"
       lpeversion="1"
       bendpath="m 480,500 h 40"
       prop_scale="1"
       scale_y_rel="false"
       vertical="false"
       hide_knot="false" />
  </defs>
  <sodipodi:namedview
     id="namedview1"
     pagecolor="#ffffff"
     bordercolor="#000000"
     borderopacity="0.25"
     inkscape:showpageshadow="2"
     inkscape:pageopacity="0.0"
     inkscape:pagecheckerboard="0"
     inkscape:deskcolor="#d1d1d1"
     showgrid="true"
     inkscape:zoom="0.37046008"
     inkscape:cx="148.46404"
     inkscape:cy="206.49999"
     inkscape:window-width="1868"
     inkscape:window-height="1016"
     inkscape:window-x="52"
     inkscape:window-y="27"
     inkscape:window-maximized="1"
     inkscape:current-layer="g1"
     inkscape:pageshadow="2"
     showguides="true"
     inkscape:guide-bbox="true"
     width="1000px"
     inkscape:lockguides="true"
     inkscape:snap-grids="false"
     inkscape:snap-others="true"
     inkscape:object-nodes="false"
     inkscape:snap-nodes="true"
     inkscape:snap-object-midpoints="false"
     inkscape:snap-to-guides="true"
     inkscape:snap-midpoints="false"
     inkscape:snap-intersection-paths="false"
     inkscape:snap-text-baseline="false">
    <sodipodi:guide
       position="500,750"
       orientation="0,1"
       id="guide1454"
       inkscape:label=""
       inkscape:locked="true"
       inkscape:color="rgb(0,0,0)" />
    <sodipodi:guide
       position="500,250"
       orientation="0,1"
       id="guide1536"
       inkscape:label=""
       inkscape:locked="true"
       inkscape:color="rgb(0,0,0)" />
    <sodipodi:guide
       position="1241.9444,501.78247"
       orientation="0,1"
       id="guide1538"
       inkscape:label=""
       inkscape:locked="true"
       inkscape:color="rgb(0,0,255)" />
    <sodipodi:guide
       position="500,900"
       orientation="0,1"
       id="guide1880"
       inkscape:label=""
       inkscape:locked="true"
       inkscape:color="rgb(0,0,255)" />
    <sodipodi:guide
       position="500,100"
       orientation="0,1"
       id="guide1882"
       inkscape:label=""
       inkscape:locked="true"
       inkscape:color="rgb(0,0,255)" />
    <sodipodi:guide
       position="100,500"
       orientation="-1,0"
       id="guide1884"
       inkscape:label=""
       inkscape:locked="true"
       inkscape:color="rgb(0,0,255)" />
    <sodipodi:guide
       position="900,500"
       orientation="-1,0"
       id="guide1886"
       inkscape:label=""
       inkscape:locked="true"
       inkscape:color="rgb(0,0,255)" />
    <sodipodi:guide
       position="500,500"
       orientation="-1,0"
       id="guide1888"
       inkscape:label=""
       inkscape:locked="true"
       inkscape:color="rgb(0,0,255)" />
    <sodipodi:guide
       position="250,500"
       orientation="-1,0"
       id="guide113167"
       inkscape:label=""
       inkscape:locked="true"
       inkscape:color="rgb(224,27,36)" />
    <sodipodi:guide
       position="750,500"
       orientation="-1,0"
       id="guide113223"
       inkscape:label=""
       inkscape:locked="true"
       inkscape:color="rgb(224,27,36)" />
    <sodipodi:guide
       position="-358.84049,412.11239"
       orientation="0,-1"
       id="guide113269"
       inkscape:locked="true" />
    <inkscape:grid
       type="axonomgrid"
       id="grid130517" />
  </sodipodi:namedview>
  <g
     inkscape:groupmode="layer"
     inkscape:label="tree"
     id="g1">
    <path
       id="rect113293"
       style="fill:#000000;stroke-width:0"
       d="m 456.5,587.88591 c 0.01,-56.6182 -1.8366,-114.1949 -1.6874,-172.7504 0.092,-58.303 2.3193,-117.7509 10.7264,-177.5309 v 0 c 8.3153,-59.4203 23.561,-118.9518 48.6654,-175.4842 13.0446,-29.2026 28.6905,-57.2779 46.7949,-83.7642 19.3766,-28.3112 41.3872,-54.6003 65.4467,-78.6524 l 61.53059,61.506 c -20.4329,20.4582 -39.01509,42.6144 -55.16159,66.2535 -15.1107,22.0885 -28.218,45.6253 -39.1792,70.1486 -21.2829,47.2842 -34.2935,99.0613 -41.9605,152.2209 v 0 c -7.708,53.7358 -9.6475,109.1854 -9.863,165.5359 -0.1594,56.5414 1.6848,114.0415 1.6877,172.5206 z" />
    <path
       id="rect113293-86"
       style="fill:#000000;stroke-width:0"
       d="m 578.41333,26.321288 c 11.60947,11.695454 25.63729,21.445591 40.87768,28.810221 15.97146,7.682326 33.38762,12.647618 50.97807,14.506078 0,-10e-7 0,-10e-7 0,0 18.7283,2.016659 38.084,0.452106 56.48076,-4.408645 l 1e-5,-2e-6 c 20.76344,-5.372853 40.92742,-15.473084 59.34226,-28.552226 l 50.66464,70.726436 c -26.02943,18.75837 -55.66297,33.31817 -87.75092,41.93091 h -10e-6 c -28.53662,7.55881 -58.3727,9.92624 -87.92187,6.8173 h -10e-6 c -27.59231,-2.93858 -54.51276,-10.60569 -79.4909,-22.61154 -23.79218,-11.40187 -45.78227,-26.80399 -64.76452,-45.766189 z" />
    <path
       id="rect113293-86-5"
       style="fill:#000000;stroke-width:0"
       d="m 495.42918,264.02864 c 40.40929,10.97603 79.97907,19.88493 118.51569,21.66871 h 10e-6 c 25.53212,1.12821 50.31268,-0.52828 72.45822,-7.23936 l 10e-6,-10e-6 c 9.43773,-2.73718 18.85886,-6.41243 28.19993,-10.78068 9.20753,-4.29524 18.53622,-9.48492 28.13068,-15.17575 20.81079,-12.37999 42.35288,-27.00387 66.29414,-41.13346 l 44.14627,74.96701 c -20.7499,12.18796 -42.16273,26.7354 -65.90638,40.90412 -11.16708,6.68038 -23.01226,13.2066 -35.68012,19.1854 -12.95621,6.10392 -26.56954,11.3654 -40.77652,15.53935 -34.01682,9.70465 -68.41864,12.48776 -101.32201,10.6192 h -3e-5 C 561.34349,369.9216 515.54468,360.00549 472.28629,347.89286 Z" />
    <path
       id="rect113293-0"
       style="fill:#000000;stroke-width:0"
       d="m 352.08404,-133.07096 c 8.48682,2.43259 16.09381,4.07422 22.3898,3.77929 4.83722,-0.17705 9.232,-0.85685 12.38102,-2.35 2.96821,-1.15306 6.09283,-3.36918 9.01061,-6.10111 3.12944,-2.8624 6.08916,-7.0512 9.03494,-11.98722 v 0 c 6.46884,-10.68731 10.36676,-24.66287 13.35379,-40.11145 2.49196,-14.37689 3.46494,-28.87011 2.62889,-43.01088 l 86.85471,-5.0227 c 1.2136,21.3026 -0.14764,42.48385 -3.79372,63.07499 -3.64763,22.34859 -10.94968,45.73312 -23.56617,68.33837 l -10e-6,1e-5 c -6.1233,10.884117 -14.10273,21.51644 -24.09407,31.317776 -10.02259,9.757682 -22.01688,17.828131 -35.61963,23.6641 -14.95294,6.14159 -30.23467,9.098234 -45.04186,9.180533 -17.99869,0.02581 -34.57364,-2.914189 -49.29369,-7.674397 z" />
    <path
       id="rect113293-0-9"
       style="fill:#000000;stroke-width:0"
       d="m 343.60366,46.755012 c 22.07497,-0.548528 43.0136,-4.129876 57.55052,-13.981392 12.06256,-7.111766 22.39122,-19.213081 29.82004,-33.03372188 L 508.04099,40.111533 c -13.7007,26.514206 -34.4668,49.823916 -61.13235,66.658907 -33.14628,19.63244 -69.34503,27.54738 -103.33089,26.98216 z" />
    <path
       id="rect113293-4"
       style="fill:#000000;stroke-width:0"
       d="m 331.30065,-176.01035 c 27.52382,49.10637 65.76378,92.269532 111.91856,122.083675 42.40318,27.561541 91.96053,44.6307172 141.86116,47.689561 l -5.51873,86.824219 C 513.91502,76.301513 450.374,54.593703 395.74946,18.981645 336.66627,-19.723412 288.91836,-73.071326 255.30708,-133.65627 Z" />
    <path
       id="rect113293-6"
       style="fill:#000000;stroke-width:0"
       d="m 154.98525,76.110713 c 23.12046,6.411324 46.56482,14.013196 69.85937,23.659862 17.77968,7.311615 35.84608,16.266375 53.44998,27.658005 h 10e-6 c 13.82699,8.90029 27.32906,19.8806 39.63411,33.2838 10.40094,11.45167 19.23315,24.46965 26.10886,38.74331 6.36726,13.48616 10.751,27.12413 13.50982,40.47368 2.83762,13.67848 4.37133,26.74595 5.22638,39.01394 1.96437,26.87714 1.92055,51.50212 3.91717,73.61233 l -86.66608,7.60825 c -2.33636,-27.24709 -2.3249,-52.26965 -4.01422,-74.80509 -0.79258,-10.01451 -1.7746,-19.20549 -3.57129,-27.38445 -1.72529,-7.79949 -3.89442,-14.9253 -6.86601,-20.93721 -3.00035,-6.346 -7.16916,-12.42007 -12.11865,-17.91157 -5.93447,-6.7288 -13.79803,-12.89668 -22.71859,-18.84653 l -1e-5,-1e-5 c -11.56623,-7.65132 -24.91645,-14.11319 -39.30146,-20.1793 -18.86406,-7.88767 -38.96306,-14.3323 -59.82326,-20.18813 7.79129,-27.93363 15.58258,-55.86726 23.37387,-83.800887 z" />
    <path
       id="rect113293-7"
       style="fill:#000000;stroke-width:0"
       d="m 163.55778,249.7698 c 27.06143,24.44307 57.13155,45.26279 89.38717,60.73195 h 1e-5 c 27.97814,13.52172 58.13154,23.25453 89.19678,29.5806 h 2e-5 c 28.36771,5.80288 57.961,8.6455 88.21298,9.93237 27.28219,1.14222 55.53014,0.79568 84.69472,0.80767 l 0.002,87.00006 c -28.49301,0.0132 -57.92764,0.33541 -88.25476,-0.88053 -33.54609,-1.32463 -67.70929,-4.71995 -101.92271,-11.59048 h -10e-6 C 287.2992,417.77715 250.31997,405.7498 215.19948,388.8872 l -2e-5,-1e-5 C 174.81901,369.3794 137.86667,343.92882 105.16563,314.26265 Z" />
    <path
       id="rect113293-60-7"
       style="fill:#000000;stroke-width:0"
       d="m 752.46315,412.94354 c -16.15093,-9.33629 -31.72925,-18.07606 -46.21182,-27.08432 -11.71933,-7.34466 -22.4764,-14.59218 -31.5846,-22.41736 v 0 c -9.37956,-7.9002 -18.07547,-17.19653 -26.17114,-27.39085 -10.6569,-13.37761 -20.35119,-28.65261 -30.04317,-44.95224 l -74.91557,44.23533 c 10.64444,18.14152 22.55671,36.65083 36.69703,54.65534 11.15878,14.17326 23.84797,27.60438 38.151,39.79515 v 0 c 13.87446,11.67221 28.09911,21.44539 41.98733,29.99423 16.64339,10.31043 33.01351,19.52443 48.58744,28.50669 z" />
    <path
       id="rect128846"
       d="m 467.89954,-59.245371 37.85932,-38.25886 75.25339,10.10331 -61.04998,41.81325 z"
       style="fill:#000000;fill-opacity:1;stroke:none;stroke-width:0.676104;stroke-miterlimit:4;stroke-dasharray:none" />
    <path
       id="rect128846-37"
       d="m 782.43961,338.12254 52.40951,12.26016 30.74507,69.42544 -67.56747,-30.16761 z"
       style="fill:#000000;fill-opacity:1;stroke:none;stroke-width:0.676104;stroke-miterlimit:4;stroke-dasharray:none" />
    <path
       id="rect128846-3"
       d="m 813.76875,63.919274 29.71951,-44.8756 75.78389,-4.68498 -51.78031,52.86063 z"
       style="fill:#000000;fill-opacity:1;stroke:none;stroke-width:0.676104;stroke-miterlimit:4;stroke-dasharray:none" />
    <path
       id="rect128846-3-3"
       d="m 661.60521,-81.774259 2.91659,-53.745341 62.98734,-42.39983 -17.90086,71.79838 z"
       style="fill:#000000;fill-opacity:1;stroke:none;stroke-width:0.676104;stroke-miterlimit:4;stroke-dasharray:none" />
    <path
       id="rect128846-3-3-8"
       d="m 384.40321,-160.47874 -33.2187,-42.35075 19.44402,-73.39671 33.84214,65.80391 z"
       style="fill:#000000;fill-opacity:1;stroke:none;stroke-width:0.676104;stroke-miterlimit:4;stroke-dasharray:none" />
    <path
       id="rect128846-8"
       d="m 591.81717,156.22481 37.13707,38.96033 -12.29639,74.92628 -40.01278,-62.24487 z"
       style="fill:#000000;fill-opacity:1;stroke:none;stroke-width:0.676104;stroke-miterlimit:4;stroke-dasharray:none" />
    <path
       id="rect128846-8-9"
       d="m 394.49072,333.93573 -16.25255,-51.31202 43.9541,-61.91273 8.60965,73.49368 z"
       style="fill:#000000;fill-opacity:1;stroke:none;stroke-width:0.676104;stroke-miterlimit:4;stroke-dasharray:none" />
    <path
       id="rect128846-8-5"
       d="M 319.44291,76.313428 265.6712,78.695735 217.28339,20.18275 290.49398,30.936987 Z"
       style="fill:#000000;fill-opacity:1;stroke:none;stroke-width:0.676104;stroke-miterlimit:4;stroke-dasharray:none" />
  </g>
  <g
     inkscape:groupmode="layer"
     id="layer1"
     inkscape:label="isadora-urel">
    <text
       xml:space="preserve"
       style="font-weight:bold;font-size:500px;font-family:'Century Schoolbook L';-inkscape-font-specification:'Century Schoolbook L Bold';fill:#000000;fill-opacity:1;stroke-width:0"
       x="58.153427"
       y="898.69189"
       id="text84117"><tspan
         sodipodi:role="line"
         id="tspan84115"
         x="58.153427"
         y="898.69189"
         style="font-style:normal;font-variant:normal;font-weight:bold;font-stretch:normal;font-size:500px;font-family:'DejaVu Sans';-inkscape-font-specification:'DejaVu Sans Bold';fill:#000000;fill-opacity:1">iu</tspan></text>
  </g>
  <g
     inkscape:groupmode="layer"
     id="layer2"
     inkscape:label="guide">
    <ellipse
       style="fill:none;fill-opacity:1;stroke:#000000;stroke-width:0.72371;stroke-miterlimit:4;stroke-dasharray:none"
       id="path123222"
       cx="500"
       cy="146.17104"
       rx="349.63812"
       ry="349.63815" />
  </g>
</svg>
