<?xml version="1.0" encoding="UTF-8" standalone="no"?>
<!-- Created with Inkscape (http://www.inkscape.org/) -->

<svg
   width="1000"
   height="1000"
   viewBox="0 0 264.58333 264.58334"
   version="1.1"
   id="svg134214"
   inkscape:version="1.1.2 (0a00cf5339, 2022-02-04)"
   sodipodi:docname="logo_00_clean.svg"
   inkscape:export-filename="/home/dusoudeth/bitmap.png"
   inkscape:export-xdpi="100"
   inkscape:export-ydpi="100"
   xmlns:inkscape="http://www.inkscape.org/namespaces/inkscape"
   xmlns:sodipodi="http://sodipodi.sourceforge.net/DTD/sodipodi-0.dtd"
   xmlns="http://www.w3.org/2000/svg"
   xmlns:svg="http://www.w3.org/2000/svg">
  <sodipodi:namedview
     id="namedview134216"
     pagecolor="#ffffff"
     bordercolor="#000000"
     borderopacity="0.25"
     inkscape:pageshadow="2"
     inkscape:pageopacity="0.0"
     inkscape:pagecheckerboard="0"
     inkscape:document-units="mm"
     showgrid="false"
     units="px"
     inkscape:zoom="0.37593996"
     inkscape:cx="-119.69997"
     inkscape:cy="501.40986"
     inkscape:window-width="1868"
     inkscape:window-height="1016"
     inkscape:window-x="52"
     inkscape:window-y="27"
     inkscape:window-maximized="1"
     inkscape:current-layer="layer1" />
  <defs
     id="defs134211" />
  <g
     inkscape:label="Layer 1"
     inkscape:groupmode="layer"
     id="layer1">
    <g
       id="g134796"
       transform="translate(0,-4.4979155)">
      <path
         id="rect113293"
         style="fill:#000000;stroke-width:0"
         d="m 121.57221,196.30876 c 0.002,-11.40629 -0.37,-23.00567 -0.33995,-34.80224 0.0185,-11.74571 0.46725,-23.72206 2.16094,-35.76532 v 0 c 1.6752,-11.9708 4.7466,-23.96399 9.80412,-35.352995 2.62796,-5.883147 5.77998,-11.539189 9.42728,-16.87511 3.90361,-5.703566 8.33786,-10.99976 13.18488,-15.845289 l 12.39593,12.39098 c -4.11641,4.121503 -7.85996,8.585084 -11.11283,13.34741 -3.0442,4.449943 -5.68479,9.191659 -7.89303,14.132116 -4.28765,9.525858 -6.90876,19.956858 -8.45335,30.666368 v 0 c -1.55286,10.8256 -1.94359,21.99646 -1.987,33.34882 -0.0321,11.39081 0.33942,22.97476 0.34,34.75595 z" />
      <path
         id="rect113293-86"
         style="fill:#000000;stroke-width:0"
         d="m 146.13284,83.176125 c 2.33883,2.356162 5.16488,4.320422 8.2352,5.804098 3.2176,1.54768 6.72626,2.547985 10.27003,2.922391 0,-10e-7 0,-10e-7 0,0 3.77299,0.406275 7.67239,0.09108 11.37859,-0.888165 l 1e-5,-10e-7 c 4.18299,-1.082413 8.24522,-3.117202 11.95507,-5.752122 l 10.20688,14.248526 c -5.24388,3.779058 -11.21385,6.712268 -17.67827,8.447388 v 0 c -5.74899,1.52279 -11.75975,1.99973 -17.71272,1.37341 v 0 c -5.55874,-0.592 -10.98213,-2.13662 -16.01422,-4.55531 -4.79316,-2.29702 -9.22328,-5.399926 -13.04744,-9.220044 z" />
      <path
         id="rect113293-86-5"
         style="fill:#000000;stroke-width:0"
         d="m 129.41487,131.06457 c 8.14085,2.21123 16.11256,4.00601 23.87614,4.36537 v 0 c 5.14369,0.22729 10.13598,-0.10642 14.59741,-1.45844 v 0 c 1.90132,-0.55143 3.7993,-1.29184 5.68115,-2.17187 1.85494,-0.86532 3.7343,-1.91083 5.6672,-3.0573 4.19253,-2.49407 8.5324,-5.44019 13.3556,-8.28674 l 8.89369,15.10283 c -4.18027,2.45539 -8.49409,5.38611 -13.27748,8.24054 -2.24972,1.34582 -4.63605,2.66059 -7.1881,3.86508 -2.61016,1.2297 -5.3527,2.28967 -8.21483,3.13055 -6.85302,1.9551 -13.7836,2.51578 -20.4123,2.13935 h -1e-5 c -9.69939,-0.5362 -18.92601,-2.5339 -27.64083,-4.97411 z" />
      <path
         id="rect113293-0"
         style="fill:#000000;stroke-width:0"
         d="m 100.5366,51.06501 c 1.70975,0.490069 3.24225,0.820792 4.51065,0.761375 0.9745,-0.03567 1.85987,-0.172621 2.49427,-0.47343 0.59798,-0.232295 1.22746,-0.678754 1.81528,-1.229127 0.63045,-0.576659 1.22672,-1.420533 1.82017,-2.414943 v 0 c 1.30321,-2.153062 2.08848,-4.968574 2.69025,-8.08084 0.50203,-2.896361 0.69805,-5.816165 0.52962,-8.664959 l 17.49772,-1.01187 c 0.24449,4.291613 -0.0298,8.558782 -0.76428,12.707067 -0.73485,4.50234 -2.20592,9.213381 -4.74763,13.767427 v 2e-6 c -1.23361,2.192711 -2.84114,4.334696 -4.85399,6.30927 -2.01914,1.96578 -4.43551,3.59165 -7.17592,4.767362 -3.01241,1.237283 -6.09106,1.832928 -9.07412,1.849507 -3.62601,0.0052 -6.965196,-0.587091 -9.930693,-1.546081 z" />
      <path
         id="rect113293-0-9"
         style="fill:#000000;stroke-width:0"
         d="m 98.828146,87.292697 c 4.447214,-0.110507 8.665504,-0.832004 11.594114,-2.816687 2.43012,-1.432734 4.51092,-3.870662 6.00754,-6.654964 l 15.52584,8.133257 c -2.76014,5.341544 -6.94367,10.037512 -12.3157,13.429084 -6.67765,3.955143 -13.97023,5.549683 -20.81701,5.435813 z" />
      <path
         id="rect113293-4"
         style="fill:#000000;stroke-width:0"
         d="m 96.349586,42.414454 c 5.544934,9.892954 13.248754,18.588593 22.547084,24.594941 8.54253,5.552539 18.52634,8.991291 28.5793,9.607524 L 146.36417,94.1085 C 133.13902,93.245126 120.33806,88.871877 109.33342,81.697483 97.43054,73.899973 87.811261,63.152519 81.039946,50.947094 Z" />
      <path
         id="rect113293-6"
         style="fill:#000000;stroke-width:0"
         d="m 60.829136,93.206687 c 4.657842,1.291623 9.380938,2.823095 14.073851,4.766509 3.581891,1.472995 7.221537,3.277014 10.768014,5.571974 h 8e-6 c 2.78558,1.79305 5.505701,4.00514 7.984672,6.70534 2.095374,2.30705 3.874704,4.92965 5.259884,7.80522 1.282745,2.71691 2.165885,5.46441 2.721685,8.15381 0.57166,2.75566 0.88064,5.38823 1.05291,7.85974 0.39574,5.41466 0.38691,10.3756 0.78914,14.82991 l -17.45972,1.53276 c -0.47068,-5.48919 -0.468373,-10.53023 -0.808699,-15.07021 -0.159678,-2.01752 -0.35751,-3.86913 -0.719476,-5.51686 -0.347574,-1.57129 -0.784562,-3.00685 -1.383222,-4.21801 -0.604448,-1.27846 -1.444297,-2.50214 -2.441418,-3.60846 -1.195555,-1.35558 -2.779748,-2.59816 -4.57688,-3.79681 v -10e-6 c -2.330128,-1.54143 -5.019663,-2.84323 -7.917659,-4.06531 -3.800351,-1.58905 -7.84949,-2.88738 -12.051978,-4.0671 1.569626,-5.62749 3.139261,-11.254993 4.708888,-16.882493 z" />
      <path
         id="rect113293-7"
         style="fill:#000000;stroke-width:0"
         d="m 62.556156,128.19199 c 5.451793,4.92429 11.509708,9.11863 18.007916,12.23504 v 0 c 5.636468,2.72408 11.711165,4.68485 17.969556,5.9593 h 7e-6 c 5.714945,1.16905 11.676805,1.74172 17.771355,2.00097 5.49626,0.23011 11.18709,0.1603 17.06257,0.16271 l 4.1e-4,17.52701 c -5.74019,0.003 -11.67009,0.0676 -17.77978,-0.17739 -6.75818,-0.26686 -13.64069,-0.95088 -20.533319,-2.33502 v 0 c -7.569804,-1.52591 -15.01963,-3.94894 -22.094988,-7.34607 h -8e-6 c -8.13503,-3.93004 -15.579443,-9.0573 -22.167384,-15.03384 z" />
      <path
         id="rect113293-60-7"
         style="fill:#000000;stroke-width:0"
         d="m 181.19686,161.06492 c -3.25377,-1.88088 -6.39217,-3.64159 -9.30982,-5.4564 -2.36098,-1.47965 -4.52809,-2.93973 -6.36303,-4.51619 v 0 c -1.8896,-1.59157 -3.64148,-3.46441 -5.27243,-5.51815 -2.14693,-2.69505 -4.09994,-5.77235 -6.05249,-9.05607 l -15.09246,8.91164 c 2.14442,3.65478 4.54426,7.38366 7.39297,11.01085 2.24804,2.85534 4.80441,5.56117 7.68589,8.01712 v 0 c 2.79514,2.35148 5.66084,4.32038 8.45875,6.04262 3.35297,2.07714 6.65089,3.93339 9.78842,5.74295 z" />
      <path
         id="rect128846"
         d="m 123.86876,65.937891 7.62712,-7.707618 15.16053,2.03541 -12.29911,8.423684 z"
         style="fill:#000000;fill-opacity:1;stroke:none;stroke-width:0.136208;stroke-miterlimit:4;stroke-dasharray:none" />
      <path
         id="rect128846-37"
         d="m 187.23591,145.99151 10.5584,2.46993 6.19389,13.98642 -13.61212,-6.07755 z"
         style="fill:#000000;fill-opacity:1;stroke:none;stroke-width:0.136208;stroke-miterlimit:4;stroke-dasharray:none" />
      <path
         id="rect128846-3"
         d="m 193.54747,90.750603 5.98727,-9.040624 15.26741,-0.943835 -10.43165,10.649287 z"
         style="fill:#000000;fill-opacity:1;stroke:none;stroke-width:0.136208;stroke-miterlimit:4;stroke-dasharray:none" />
      <path
         id="rect128846-3-3"
         d="m 162.89264,61.399228 0.58758,-10.82752 12.68941,-8.541856 -3.6063,14.464479 z"
         style="fill:#000000;fill-opacity:1;stroke:none;stroke-width:0.136208;stroke-miterlimit:4;stroke-dasharray:none" />
      <path
         id="rect128846-3-3-8"
         d="m 107.04761,45.543448 -6.69223,-8.531972 3.91719,-14.786475 6.81783,13.25683 z"
         style="fill:#000000;fill-opacity:1;stroke:none;stroke-width:0.136208;stroke-miterlimit:4;stroke-dasharray:none" />
      <path
         id="rect128846-8"
         d="m 148.83317,109.34645 7.48162,7.84893 -2.47723,15.09463 -8.06096,-12.53984 z"
         style="fill:#000000;fill-opacity:1;stroke:none;stroke-width:0.136208;stroke-miterlimit:4;stroke-dasharray:none" />
      <path
         id="rect128846-8-9"
         d="m 109.07984,145.14803 -3.27423,-10.3373 8.85498,-12.47292 1.73449,14.80601 z"
         style="fill:#000000;fill-opacity:1;stroke:none;stroke-width:0.136208;stroke-miterlimit:4;stroke-dasharray:none" />
      <path
         id="rect128846-8-5"
         d="M 93.96073,93.247526 83.127896,93.727465 73.379701,81.939457 88.12869,84.106002 Z"
         style="fill:#000000;fill-opacity:1;stroke:none;stroke-width:0.136208;stroke-miterlimit:4;stroke-dasharray:none" />
      <text
         xml:space="preserve"
         style="font-weight:bold;font-size:100.73px;font-family:'Century Schoolbook L';-inkscape-font-specification:'Century Schoolbook L Bold';fill:#000000;fill-opacity:1;stroke-width:0"
         x="41.32143"
         y="249.92781"
         id="text84117"><tspan
           sodipodi:role="line"
           id="tspan84115"
           x="41.32143"
           y="249.92781"
           style="font-style:normal;font-variant:normal;font-weight:bold;font-stretch:normal;font-size:100.73px;font-family:'DejaVu Sans';-inkscape-font-specification:'DejaVu Sans Bold';fill:#000000;fill-opacity:1;stroke-width:0">iu</tspan></text>
    </g>
  </g>
</svg>
