<?xml version="1.0" encoding="UTF-8" standalone="no"?>
<!-- Created with Inkscape (http://www.inkscape.org/) -->

<svg
   width="512"
   height="512"
   viewBox="0 0 135.46666 135.46666"
   version="1.1"
   id="svg2123"
   inkscape:version="1.1.2 (0a00cf5339, 2022-02-04)"
   sodipodi:docname="logo_01.svg"
   inkscape:export-filename="/home/dusoudeth/bitmap.png"
   inkscape:export-xdpi="100"
   inkscape:export-ydpi="100"
   xmlns:inkscape="http://www.inkscape.org/namespaces/inkscape"
   xmlns:sodipodi="http://sodipodi.sourceforge.net/DTD/sodipodi-0.dtd"
   xmlns="http://www.w3.org/2000/svg"
   xmlns:svg="http://www.w3.org/2000/svg">
  <sodipodi:namedview
     id="namedview2125"
     pagecolor="#ffffff"
     bordercolor="#000000"
     borderopacity="0.25"
     inkscape:pageshadow="2"
     inkscape:pageopacity="0.0"
     inkscape:pagecheckerboard="0"
     inkscape:document-units="mm"
     showgrid="true"
     width="1000mm"
     units="px"
     inkscape:zoom="1.5037598"
     inkscape:cx="222.77494"
     inkscape:cy="257.02243"
     inkscape:window-width="1868"
     inkscape:window-height="1016"
     inkscape:window-x="52"
     inkscape:window-y="27"
     inkscape:window-maximized="1"
     inkscape:current-layer="layer1"
     inkscape:snap-global="true"
     inkscape:snap-bbox="false"
     inkscape:snap-others="false"
     inkscape:snap-grids="true">
    <sodipodi:guide
       position="0,999.99999"
       orientation="0,3779.5276"
       id="guide2184" />
    <sodipodi:guide
       position="999.99999,999.99999"
       orientation="3779.5276,0"
       id="guide2186" />
    <sodipodi:guide
       position="999.99999,0"
       orientation="0,-3779.5276"
       id="guide2188" />
    <sodipodi:guide
       position="0,0"
       orientation="-3779.5276,0"
       id="guide2190" />
    <inkscape:grid
       type="axonomgrid"
       id="grid2192" />
  </sodipodi:namedview>
  <defs
     id="defs2120">
    <inkscape:path-effect
       effect="perspective-envelope"
       up_left_point="22.267001,93.983334"
       up_right_point="82.888779,58.983334"
       down_left_point="52.57789,111.48333"
       down_right_point="113.19968,76.483334"
       id="path-effect72616"
       is_visible="true"
       lpeversion="1"
       deform_type="perspective"
       horizontal_mirror="false"
       vertical_mirror="false"
       overflow_perspective="false" />
    <inkscape:path-effect
       effect="perspective-envelope"
       up_left_point="22.267001,58.983334"
       up_right_point="82.888779,23.983334"
       down_left_point="22.267001,93.983334"
       down_right_point="82.888779,58.983334"
       id="path-effect72322"
       is_visible="true"
       lpeversion="1"
       deform_type="perspective"
       horizontal_mirror="false"
       vertical_mirror="false"
       overflow_perspective="false" />
    <inkscape:path-effect
       effect="perspective-envelope"
       up_left_point="52.57789,76.483335"
       up_right_point="113.19967,41.483334"
       down_left_point="52.57789,111.48333"
       down_right_point="113.19967,76.483335"
       id="path-effect72221"
       is_visible="true"
       lpeversion="1"
       deform_type="perspective"
       horizontal_mirror="false"
       vertical_mirror="false"
       overflow_perspective="false" />
    <inkscape:path-effect
       effect="perspective-envelope"
       up_left_point="22.267001,58.983335"
       up_right_point="82.888781,23.983334"
       down_left_point="52.57789,76.483335"
       down_right_point="113.19967,41.483334"
       id="path-effect72082"
       is_visible="true"
       lpeversion="1"
       deform_type="perspective"
       horizontal_mirror="false"
       vertical_mirror="false"
       overflow_perspective="false" />
  </defs>
  <g
     inkscape:label="Layer 1"
     inkscape:groupmode="layer"
     id="layer1">
    <path
       id="rect63768-7"
       style="fill:#800080;stroke-width:0;fill-opacity:1"
       d="M 22.267001,93.983334 52.57789,111.48333 64.382476,104.66795 34.071584,87.167955 Z M 43.785876,81.559406 63.245602,92.79448 c 1.736189,1.002389 3.689072,1.656848 5.859215,1.963188 2.170141,0.306341 4.393431,0.359191 6.669619,0.1588 2.179732,-0.256078 4.371555,-0.741639 6.575356,-1.457118 2.285774,-0.762811 4.371514,-1.688724 6.256992,-2.777305 l 10.082877,-5.82135 c 1.885479,-1.088581 3.448329,-2.269181 4.687579,-3.541543 1.32122,-1.319694 2.20312,-2.608747 2.64666,-3.867216 0.34709,-1.314158 0.25555,-2.597774 -0.27505,-3.850707 -0.5306,-1.25293 -1.66415,-2.380429 -3.40034,-3.382819 L 82.888779,58.983334 70.961329,65.86965 89.119055,76.353014 c 1.350369,0.779636 1.912023,1.624633 1.685457,2.535077 -0.144589,0.863114 -0.995409,1.744281 -2.552978,2.643544 l -5.410852,3.123957 c -1.557569,0.899262 -3.124679,1.414087 -4.701614,1.544895 -1.576936,0.130808 -3.040513,-0.193463 -4.390883,-0.973099 L 55.590462,74.744025 Z"
       inkscape:path-effect="#path-effect72616"
       inkscape:original-d="m -69.295166,61.483334 v 31.856453 h 14.59756 V 61.483334 Z m 26.610262,0 v 20.451982 c 0,1.824718 0.50659,3.446627 1.520322,4.865852 1.01373,1.419225 2.331792,2.635657 3.953764,3.64939 1.62197,0.91236 3.497176,1.622202 5.626013,2.12907 2.23021,0.506865 4.51141,0.760159 6.842993,0.760159 h 12.468489 c 2.3315831,0 4.5622291,-0.253294 6.6910641,-0.760159 2.23021,-0.506868 4.155972,-1.21671 5.777942,-2.12907 1.621972,-1.013733 2.9400312,-2.230165 3.9537642,-3.64939 1.013727,-1.419225 1.520322,-3.041134 1.520322,-4.865852 V 61.483334 H -9.0797199 v 19.083589 c 0,1.419225 -0.55766,2.483474 -1.6727651,3.193087 -1.013732,0.709612 -2.483461,1.064535 -4.409551,1.064535 h -6.691063 c -1.92609,0 -3.446375,-0.354923 -4.56148,-1.064535 -1.115105,-0.709613 -1.672765,-1.773862 -1.672765,-3.193087 V 61.483334 Z" />
    <path
       id="rect63768-6-2"
       style="fill:#800080;stroke-width:0;fill-opacity:1"
       d="m 22.267001,58.983334 0,35 11.804586,-6.815381 0,-35 z m 21.518879,-12.423931 0,35 11.804587,-6.815381 v -35 z M 70.961332,30.869649 v 35 l 11.927447,-6.886315 0,-35 z"
       inkscape:path-effect="#path-effect72322"
       inkscape:original-d="m -69.295166,29.626882 v 31.856452 h 14.59756 V 29.626882 Z m 26.610262,0 v 31.856452 h 14.59756 V 29.626882 Z m 33.6051841,0 V 61.483334 H 5.6697693 V 29.626882 Z" />
    <path
       id="rect63768"
       style="fill:#00ff00;stroke-width:0;fill-opacity:1"
       d="m 52.57789,76.483335 v 34.999995 l 11.804584,-6.81538 V 69.667955 Z m 21.518878,-12.42393 v 22.470152 c 0,2.00477 0.409663,3.550208 1.229436,4.636189 0.819772,1.085971 1.885646,1.807054 3.197285,2.163554 1.311636,0.245116 2.828055,0.149497 4.549579,-0.287538 1.8035,-0.484374 3.648235,-1.271137 5.533712,-2.359718 l 10.082876,-5.82135 c 1.885474,-1.08858 3.689334,-2.408331 5.410854,-3.959128 1.8035,-1.598138 3.3608,-3.277134 4.67244,-5.036797 1.31164,-1.87105 2.37751,-3.822897 3.19728,-5.85546 0.81977,-2.032571 1.22944,-4.051051 1.22944,-6.05582 V 41.483334 l -11.92745,6.886316 v 20.966722 c 0,1.559277 -0.45096,2.988909 -1.35271,4.289168 -0.819774,1.25293 -2.008297,2.329066 -3.565866,3.228329 l -5.410853,3.123957 c -1.557568,0.899262 -2.786975,1.219117 -3.688725,0.96011 -0.90175,-0.259008 -1.352712,-1.167913 -1.352712,-2.72719 V 57.244024 Z"
       inkscape:path-effect="#path-effect72221"
       inkscape:original-d="M 22.206978,89.216667 V 121.07312 H 36.804537 V 89.216667 Z m 26.610262,0 v 20.451983 c 0,1.82471 0.506589,3.44662 1.520322,4.86585 1.01373,1.41922 2.331791,2.63565 3.953764,3.64939 1.62197,0.91236 3.497175,1.6222 5.626013,2.12907 2.230209,0.50686 4.51141,0.76016 6.842992,0.76016 h 12.46849 c 2.331582,0 4.562229,-0.2533 6.691063,-0.76016 2.23021,-0.50687 4.155972,-1.21671 5.777942,-2.12907 1.621973,-1.01374 2.940031,-2.23017 3.953764,-3.64939 1.013727,-1.41923 1.520322,-3.04114 1.520322,-4.86585 V 89.216667 H 82.422423 v 19.083583 c 0,1.41923 -0.557659,2.48348 -1.672764,3.19309 -1.013733,0.70961 -2.483461,1.06453 -4.409551,1.06453 h -6.691064 c -1.92609,0 -3.446375,-0.35492 -4.56148,-1.06453 -1.115105,-0.70961 -1.672765,-1.77386 -1.672765,-3.19309 V 89.216667 Z" />
    <path
       id="rect63768-6"
       style="fill:#00ff00;stroke-width:0;fill-opacity:1"
       d="m 22.267001,58.983335 30.310889,17.5 11.804586,-6.815381 -30.310889,-17.5 z m 21.51888,-12.423931 30.310889,17.5 11.804586,-6.815381 -30.310889,-17.5 z m 27.175453,-15.689755 30.310886,17.5 11.92745,-6.886315 -30.310889,-17.5 z"
       inkscape:path-effect="#path-effect72082"
       inkscape:original-d="M 22.206978,57.360215 V 89.216667 H 36.804537 V 57.360215 Z m 26.610262,0 V 89.216667 H 63.414799 V 57.360215 Z m 33.605183,0 V 89.216667 H 97.171912 V 57.360215 Z" />
  </g>
</svg>
