<?xml version="1.0" encoding="UTF-8" standalone="no"?>
<!-- Created with Inkscape (http://www.inkscape.org/) -->

<svg
   width="100mm"
   height="100mm"
   viewBox="0 0 99.998743 99.998737"
   version="1.1"
   id="svg134843"
   inkscape:version="1.1.2 (0a00cf5339, 2022-02-04)"
   sodipodi:docname="logo_02.svg"
   inkscape:export-filename="/home/dusoudeth/Documentos/github/isadora-urel-landing-page/src/assets/images/logo_02.png"
   inkscape:export-xdpi="130.048"
   inkscape:export-ydpi="130.048"
   xmlns:inkscape="http://www.inkscape.org/namespaces/inkscape"
   xmlns:sodipodi="http://sodipodi.sourceforge.net/DTD/sodipodi-0.dtd"
   xmlns="http://www.w3.org/2000/svg"
   xmlns:svg="http://www.w3.org/2000/svg">
  <sodipodi:namedview
     id="namedview134845"
     pagecolor="#ffffff"
     bordercolor="#000000"
     borderopacity="0.25"
     inkscape:pageshadow="2"
     inkscape:pageopacity="0.0"
     inkscape:pagecheckerboard="0"
     inkscape:document-units="px"
     showgrid="true"
     inkscape:zoom="1.0633188"
     inkscape:cx="193.73306"
     inkscape:cy="174.4538"
     inkscape:window-width="1868"
     inkscape:window-height="1016"
     inkscape:window-x="52"
     inkscape:window-y="27"
     inkscape:window-maximized="1"
     inkscape:current-layer="layer1"
     inkscape:snap-page="true" />
  <defs
     id="defs134840">
    <inkscape:path-effect
       effect="perspective-envelope"
       up_left_point="34.640579,19.999748"
       up_right_point="47.630797,27.499653"
       down_left_point="34.640579,34.999559"
       down_right_point="47.630797,42.499464"
       id="path-effect135081"
       is_visible="true"
       lpeversion="1"
       deform_type="perspective"
       horizontal_mirror="false"
       vertical_mirror="false"
       overflow_perspective="false" />
    <inkscape:path-effect
       effect="perspective-envelope"
       up_left_point="34.640583,19.999748"
       up_right_point="47.630797,12.499842"
       down_left_point="47.630797,27.499653"
       down_right_point="60.621014,19.999748"
       id="path-effect135036"
       is_visible="true"
       lpeversion="1"
       deform_type="perspective"
       horizontal_mirror="false"
       vertical_mirror="false"
       overflow_perspective="false" />
  </defs>
  <g
     inkscape:label="Layer 1"
     inkscape:groupmode="layer"
     id="layer1">
    <path
       style="fill:#000000;stroke-width:0.437106;stroke:none"
       d="m 48.56478,96.951705 c -2.072096,-3.173307 -2.747238,-4.83263 -2.800791,-6.883653 -0.02199,-0.841429 -0.19737,-1.777846 -0.389773,-2.080929 l -0.349824,-0.55106 -1.05662,1.124715 c -1.709254,1.819424 -3.465822,2.690962 -7.382129,3.662747 -2.028378,0.503313 -4.756736,1.404412 -6.063027,2.002449 -1.306287,0.598038 -2.452538,1.087354 -2.547227,1.087354 -0.225069,0 -1.903976,-2.755379 -1.906095,-3.128225 -0.0027,-0.491067 6.335225,-2.95295 9.470926,-3.678802 3.839866,-0.888853 7.580252,-3.388851 7.574006,-5.062311 -3.11e-4,-0.08311 -1.524717,-0.156731 -3.387571,-0.163638 l -3.387006,-0.01252 -2.956013,-1.008406 -2.956012,-1.008406 -1.852153,0.307236 c -2.675373,0.44379 -7.182244,2.213416 -9.618326,3.776647 l -2.10651,1.35175 -0.644142,-0.822635 C 15.852218,85.411573 15.36916,84.710432 15.133031,84.30593 l -0.42933,-0.735454 1.276265,-0.908775 c 0.701945,-0.499834 2.767092,-1.616777 4.589212,-2.482098 1.822123,-0.865327 3.312953,-1.635864 3.312953,-1.712322 0,-0.07647 -1.131012,-0.476579 -2.51336,-0.889174 l -2.513358,-0.750176 -5.595625,0.01011 -5.59563,0.01011 0.1318026,-1.804358 0.131803,-1.804343 6.5565884,0.02044 6.556589,0.02044 4.808165,1.903022 c 2.644491,1.046668 6.381746,2.459356 8.305014,3.139315 l 3.496846,1.236285 2.255951,0.0092 2.255948,0.0092 1.114826,-1.324886 C 46.102043,74.895871 46.036064,66.492192 43.140898,60.82895 40.493794,55.651142 31.165018,49.194301 22.570812,46.591716 L 20.166729,45.86369 15.140011,45.638768 10.113293,45.413848 5.8089799,46.029131 1.5046681,46.644409 1.3664733,46.173104 C 1.2904603,45.913887 1.1210965,45.078927 0.99010574,44.31763 L 0.75194041,42.933458 3.9027461,42.392674 C 5.6356889,42.095247 9.4371777,41.832982 12.350498,41.809873 L 17.64744,41.767863 14.536028,38.36812 C 9.0502926,32.374008 5.5259252,28.229577 5.5324451,27.780454 c 0.00352,-0.240408 0.6162893,-0.863226 1.3617807,-1.384043 l 1.3554365,-0.946937 2.8379497,3.351019 c 1.56087,1.843061 5.127353,5.706112 7.925507,8.584555 l 5.087563,5.233529 5.90093,2.912135 c 7.034179,3.471399 11.608773,6.611797 13.954865,9.579825 l 1.721139,2.177403 0.218706,-0.766357 c 0.120287,-0.421491 0.453594,-3.258082 0.740674,-6.303525 L 47.158968,44.680882 46.93618,38.197646 46.713386,31.714407 46.009488,29.4855 45.305591,27.256591 43.008149,25.093656 C 40.201912,22.451711 38.477227,21.260278 30.497436,16.451087 27.069711,14.385298 23.596294,12.240564 22.778727,11.685014 l -1.486485,-1.010095 0.967116,-1.3838376 c 1.22435,-1.7519175 1.018575,-1.7808922 5.015124,0.7061882 1.860531,1.1578214 4.487932,2.7310404 5.838665,3.4960364 l 2.455876,1.390905 2.231192,-4.479525 c 1.227158,-2.4637411 3.241804,-5.7247974 4.476996,-7.2467967 l 2.245804,-2.76726918 1.262863,1.20990038 c 1.612345,1.5447242 1.60307,1.6184704 -0.504805,4.013138 -1.65045,1.8750108 -6.106863,10.0418795 -6.094824,11.1694405 0.0032,0.278748 0.653555,0.926372 1.445731,1.439166 0.792176,0.512794 2.643468,1.933623 4.113984,3.157398 l 2.673663,2.225046 1.325337,2.74353 1.325336,2.743533 0.518603,3.689006 0.518601,3.689009 -0.239076,6.889428 -0.23908,6.889427 1.537944,-2.054869 C 56.336326,42.623462 62.660099,37.314416 68.144074,34.780661 l 3.266609,-1.509266 0.302579,-2.674431 c 0.687744,-6.078838 3.585761,-12.785503 7.225987,-16.722565 l 2.385865,-2.58041 1.237361,1.384848 1.237361,1.384848 -1.984571,2.207326 c -3.0167,3.355289 -6.35464,11.470352 -6.35464,15.449112 v 0.958646 l 6.228758,0.253052 c 5.837939,0.237179 16.76569,1.762132 17.475547,2.438692 0.326213,0.310919 -0.401375,3.556142 -0.797308,3.556142 -0.120183,0 -2.520491,-0.432718 -5.334002,-0.96159 l -5.115478,-0.961588 -7.867904,-0.0219 -7.867904,-0.02189 -2.841189,1.465112 c -8.471388,4.368438 -15.774856,12.455383 -18.67741,20.68103 l -1.131287,3.205999 -0.19681,3.496845 -0.196811,3.49685 0.526835,1.951129 0.526834,1.951128 1.597141,1.595954 1.597141,1.595962 2.316321,0.496143 c 4.16625,0.892383 8.455499,0.393149 18.192742,-2.117491 l 5.120715,-1.320322 h 3.759332 c 2.067635,0 5.022335,0.219946 6.566003,0.48876 l 2.80667,0.488759 -0.291519,1.587496 c -0.390571,2.126851 -0.594749,2.266311 -2.627966,1.794997 -0.961414,-0.222861 -3.375844,-0.409892 -5.365388,-0.415627 l -3.617344,-0.0104 0.72085,1.420598 c 0.396467,0.781326 1.412923,2.394215 2.258789,3.584195 l 1.537926,2.163612 -1.48262,1.24188 -1.482628,1.241888 -0.961758,-1.199891 c -0.528977,-0.659979 -1.610809,-2.344937 -2.40408,-3.744398 -0.793279,-1.399454 -1.651619,-2.855384 -1.907417,-3.23538 l -0.465103,-0.690922 -4.508767,1.13699 c -2.479828,0.625341 -6.272814,1.351473 -8.428871,1.613628 l -3.920105,0.476638 -2.863128,-0.498596 c -1.574722,-0.274226 -3.620888,-0.885176 -4.547041,-1.357661 -2.072878,-1.057501 -2.103826,-0.678934 -0.1784,2.182237 1.860646,2.764908 3.502775,4.174219 7.228849,6.203959 l 2.89705,1.578127 2.598588,0.302131 c 3.831311,0.445445 7.793341,1.204044 8.202172,1.570438 0.197072,0.176623 0.22032,1.056709 0.05163,1.955772 l -0.306657,1.634641 -1.581519,-0.266726 C 69.83426,94.55848 67.275594,94.228033 65.01818,93.970857 l -4.104394,-0.467614 -3.646297,-1.971512 c -2.005465,-1.084343 -4.665337,-2.887727 -5.910822,-4.007528 l -2.264527,-2.036001 0.306868,3.054859 0.306867,3.054852 1.991528,3.008116 1.991534,3.008101 -0.588195,0.395464 c -0.323508,0.217499 -1.086162,0.666152 -1.69479,0.996988 l -1.106601,0.601537 z M 60.430687,59.432043 c -2.306335,-1.814163 -3.193588,-5.418487 -2.061779,-8.375692 0.551986,-1.442236 0.882053,-1.482038 2.398457,-0.289234 2.289412,1.800851 3.193111,5.729545 1.947027,8.464403 -0.614488,1.348657 -0.803048,1.365207 -2.283705,0.200523 z M 25.984294,58.705704 c -2.259934,-2.423018 -2.760668,-5.3646 -1.400969,-8.229962 l 0.701196,-1.477662 0.798281,0.427227 c 0.43905,0.234971 1.236636,1.042848 1.772414,1.795277 l 0.97414,1.36805 0.198722,2.068167 0.198726,2.068162 -0.755166,1.591388 c -0.905619,1.908457 -1.049484,1.930976 -2.487344,0.389353 z M 11.706982,56.520174 9.9855677,54.881028 9.5259113,53.132604 9.0662586,51.38418 9.3886027,49.856949 9.7109461,48.329719 10.400214,48.196974 c 1.83935,-0.354223 4.745839,3.673958 4.733831,6.560738 -0.01571,3.771458 -0.860802,4.206081 -3.427063,1.762462 z m 59.657471,-6.072842 c -2.241013,-2.07799 -2.9864,-5.07322 -1.98055,-7.958599 l 0.479869,-1.376541 h 0.656082 c 1.048168,0 3.138156,2.546509 3.649966,4.44724 l 0.469987,1.745396 -0.296968,1.384017 c -0.670321,3.124091 -1.180678,3.425412 -2.978386,1.758487 z m 7.568248,-2.433453 -0.495578,-1.84043 0.526779,-1.765695 0.526773,-1.765691 1.718782,-1.639148 c 2.160022,-2.059949 2.412481,-2.047689 3.003136,0.145846 l 0.480651,1.785 -0.292405,1.384018 c -0.420857,1.992053 -1.688115,3.890106 -3.185808,4.771586 -1.735496,1.021442 -1.715099,1.031054 -2.28233,-1.075495 z m 17.282333,0.35708 C 95.489335,48.054753 94.269677,47.08317 93.504677,46.211883 l -1.390906,-1.584155 -0.288142,-1.535924 c -0.158482,-0.84476 -0.18118,-1.814671 -0.05046,-2.155355 l 0.2377,-0.619433 1.475076,0.332681 c 3.238257,0.730349 5.576383,3.574443 5.576383,6.783116 v 1.547285 l -0.764934,-0.01711 c -0.420718,-0.0093 -1.358687,-0.275824 -2.084379,-0.592031 z m -66.184577,-6.357481 -0.62682,-0.396644 1.171336,-1.770003 c 0.644232,-0.973501 1.811442,-2.10512 2.593792,-2.51471 l 1.422459,-0.744707 2.079615,-0.0072 c 1.143789,-0.0041 2.300736,0.213922 2.570991,0.484174 l 0.491377,0.491377 -0.846198,1.448897 c -0.465412,0.796853 -1.503923,1.892092 -2.307803,2.433828 l -1.461605,0.984975 -2.230163,-0.0065 c -1.226594,-0.0036 -2.512236,-0.185236 -2.856981,-0.40339 z M 5.9605664,39.691598 C 3.4574225,37.982976 2.338401,34.732669 3.1765482,31.605138 c 0.8241858,-3.075437 5.4068737,1.784677 5.4068737,5.734195 0,3.51685 -0.3961876,3.872165 -2.6228555,2.352265 z m 14.6969986,-5.63229 c -0.588852,-2.944254 1.386613,-6.685304 4.130296,-7.821775 l 1.360541,-0.563553 0.416076,0.616135 c 0.228843,0.338874 0.336494,1.565099 0.239219,2.724947 l -0.176861,2.108814 -0.866162,1.16948 c -0.969163,1.308551 -3.470877,3.136459 -4.292628,3.136459 -0.295011,0 -0.659727,-0.616726 -0.810481,-1.370507 z m 36.149432,-0.645207 c -2.194111,-1.082065 -4.532718,-4.759386 -3.790495,-5.960325 0.389242,-0.629813 2.947806,-0.322994 4.805402,0.576251 l 1.869944,0.905225 0.856622,1.389581 c 0.471144,0.764269 0.991629,1.930498 1.156637,2.591623 l 0.300011,1.20204 -1.905088,-0.0099 c -1.047799,-0.0055 -2.529662,-0.317971 -3.293033,-0.694443 z m 27.95976,-3.65115 c -2.447592,-1.492372 -4.054359,-6.273036 -2.783218,-8.281 l 0.390037,-0.616135 1.378301,0.570908 c 0.758064,0.314001 1.875798,1.223166 2.483855,2.020367 l 1.105547,1.449453 0.233167,1.738387 c 0.494744,3.688578 -0.344106,4.620142 -2.807689,3.11802 z M 32.51497,29.239398 c -0.661122,-0.241461 -1.202041,-0.680339 -1.202041,-0.97528 0,-0.919679 2.603987,-3.250893 4.231113,-3.787893 l 1.553189,-0.512599 1.757599,0.235743 c 0.966683,0.129655 2.03795,0.516091 2.380597,0.85874 l 0.622997,0.622994 -1.209109,1.436946 c -2.006701,2.384824 -5.1608,3.207382 -8.134345,2.121349 z M 10.659675,23.994126 C 8.6227969,23.250195 9.5420312,21.211911 12.623339,19.639943 l 1.79662,-0.916566 2.141089,0.20573 c 1.177597,0.113151 2.428322,0.492971 2.779394,0.844039 l 0.638305,0.638308 -0.964416,1.226059 c -1.836357,2.334546 -5.5483,3.381581 -8.354656,2.356613 z m 52.178558,0.03369 c -1.71377,-0.362454 -3.769078,-1.772297 -3.769078,-2.585405 0,-0.308723 0.545933,-0.968913 1.213188,-1.467088 l 1.213182,-0.905771 h 2.299068 2.299069 l 1.62374,1.003529 c 0.893056,0.551938 1.623743,1.277996 1.623743,1.613459 0,1.462969 -3.943177,2.882655 -6.502912,2.341281 z M 45.846701,19.597621 c -1.313721,-0.633584 -1.245073,-1.040774 0.463508,-2.749356 l 1.446999,-1.446996 1.923302,-0.517893 1.923305,-0.517891 1.638067,0.490776 c 0.900938,0.269928 1.768419,0.701689 1.927734,0.959473 0.419853,0.679331 -1.13263,2.567441 -2.882849,3.506097 l -1.508986,0.809276 -1.973795,-0.02959 C 47.718397,20.08534 46.38762,19.858496 45.846701,19.597619 Z m 25.51357,-6.889945 C 69.82617,12.221036 68.171144,10.727635 67.291417,9.0361781 L 66.636068,7.7761325 67.223676,7.4037251 c 0.771636,-0.4890462 3.975089,-0.4890902 5.258028,-7.47e-5 1.833531,0.6988822 4.859217,4.4362746 4.158648,5.1368436 -0.403799,0.403797 -4.159314,0.522706 -5.280081,0.167182 z M 30.092762,9.3734679 c -1.363233,-0.6953585 -3.15089,-2.5311164 -3.15089,-3.2356669 0,-0.6159823 2.70225,-1.442659 4.620969,-1.4136529 l 1.922864,0.029062 1.426972,0.8889795 c 0.784832,0.4889371 1.690073,1.3184637 2.01164,1.8433927 L 37.50899,8.4399976 36.837233,9.1117531 36.165479,9.7835079 33.848481,9.9454105 31.531484,10.107315 30.092762,9.3734519 Z M 48.906443,8.7203306 C 46.56068,7.5591963 46.568564,6.8990775 48.944865,5.5064862 l 1.896087,-1.1111927 h 1.869056 1.869062 l 1.698663,0.9547012 c 1.929176,1.08426 2.0008,1.2590115 0.917727,2.2391767 -2.293277,2.0753882 -5.49795,2.5127116 -8.289017,1.1311592 z"
       id="path364560"
       inkscape:export-filename="/home/dusoudeth/Documentos/github/isadora-urel-landing-page/src/assets/images/logo_02.png"
       inkscape:export-xdpi="130.048"
       inkscape:export-ydpi="130.048" />
  </g>
</svg>
