<?xml version="1.0" encoding="UTF-8" standalone="no"?>
<!-- Created with Inkscape (http://www.inkscape.org/) -->

<svg
   version="1.1"
   id="svg1"
   width="512"
   height="512"
   viewBox="0 0 512 512"
   sodipodi:docname="services_tree_00.svg"
   inkscape:version="1.1.2 (0a00cf5339, 2022-02-04)"
   inkscape:export-filename="../154eae18/services_tree_01.png"
   inkscape:export-xdpi="96"
   inkscape:export-ydpi="96"
   xml:space="preserve"
   xmlns:inkscape="http://www.inkscape.org/namespaces/inkscape"
   xmlns:sodipodi="http://sodipodi.sourceforge.net/DTD/sodipodi-0.dtd"
   xmlns="http://www.w3.org/2000/svg"
   xmlns:svg="http://www.w3.org/2000/svg"><defs
     id="defs1" /><sodipodi:namedview
     id="namedview1"
     pagecolor="#ffffff"
     bordercolor="#000000"
     borderopacity="0.25"
     inkscape:showpageshadow="2"
     inkscape:pageopacity="0.0"
     inkscape:pagecheckerboard="0"
     inkscape:deskcolor="#d1d1d1"
     showgrid="false"
     inkscape:zoom="1.1269514"
     inkscape:cx="-17.746994"
     inkscape:cy="288.83233"
     inkscape:window-width="1868"
     inkscape:window-height="1016"
     inkscape:window-x="52"
     inkscape:window-y="27"
     inkscape:window-maximized="1"
     inkscape:current-layer="g1"
     inkscape:pageshadow="2" /><g
     inkscape:groupmode="layer"
     inkscape:label="Image"
     id="g1"><path
       id="path1"
       style="fill:#ffffff;stroke-width:0;stroke-dasharray:none;fill-opacity:1;stroke:none"
       sodipodi:type="inkscape:offset"
       inkscape:radius="0.82462722"
       inkscape:original="M 312.19531 60.037109 C 292.47717 60.576062 272.96376 67.042151 256.61328 79.353516 C 252.1551 82.710376 243.4349 91.272751 230.24805 105.24219 C 219.41107 116.72232 209.47216 127.22737 208.16211 128.58789 C 206.15845 130.66873 204.76507 131.25423 199.38086 132.27344 C 177.38235 136.43767 158.22869 148.74264 143.62109 168.0957 C 133.83225 181.06454 119.54102 207.03422 119.54102 211.85156 C 119.54102 216.05375 125.16323 218.83852 128.33398 216.20703 C 128.98336 215.6681 131.75721 210.74436 134.49805 205.26562 C 143.7808 186.71013 154.23592 171.32057 163.14844 163.09766 C 194.33259 134.3264 242.12745 135.13854 271.97656 164.94727 C 282.07766 175.03469 288.78385 186.98399 292.97656 202.36523 C 294.25154 207.04257 294.55527 210.46678 294.57227 220.4043 C 294.59077 231.22524 294.35848 233.53763 292.60938 240.04297 C 290.07841 249.45615 286.47802 257.21826 280.28906 266.60156 C 273.6759 276.62803 271.21218 283.01255 270.75586 291.3125 C 270.28802 299.82197 271.68717 303.54374 280.0293 315.99609 C 283.51308 321.19633 287.48481 328.14308 288.85547 331.43555 C 303.34671 366.24506 291.62867 406.31418 260.89258 427.05469 C 233.11756 445.79708 196.68614 445.14886 170.09961 425.43945 C 149.84706 410.4256 128.05803 373.25687 119.17383 338.56836 C 115.50397 324.23932 114.13855 314.38557 113.63672 298.56836 C 112.9988 278.46212 115.01469 261.49701 120.34766 242.07227 C 121.59011 237.54676 122.60547 233.14899 122.60547 232.29883 C 122.60547 228.26441 115.8841 226.06053 113.06836 229.17188 C 110.53729 231.9687 105.23307 253.56116 103.45312 268.31641 C 102.96995 272.3218 102.27939 284.22315 101.91797 294.76367 C 101.55655 305.3042 100.69907 317.72154 100.01172 322.35938 C 94.831884 357.30986 84.128002 382.07837 67.119141 398.46875 C 60.037527 405.29285 58.860932 407.51835 60.785156 410.45508 C 62.341773 412.83078 70.14398 416.50162 78.265625 418.67969 C 86.519192 420.89315 101.24777 421.09992 108.80859 419.10938 C 115.09744 417.4537 126.35883 411.90513 131.62891 407.86523 C 133.85097 406.16185 135.92086 404.77917 136.22852 404.79297 C 136.53618 404.80679 138.68499 407.62227 141.00391 411.05078 C 148.5456 422.20115 159.58768 432.84787 170.51758 439.50781 C 179.71164 445.11005 193.42152 449.89794 205.01367 451.55273 C 212.07063 452.56011 228.63012 451.77888 236.06055 450.08789 C 292.51261 437.24078 322.49466 375.97776 297.8418 323.84961 C 296.03588 320.03102 291.93689 313.06183 288.73242 308.36328 C 285.4241 303.51247 282.67871 298.61307 282.38086 297.02539 C 281.01877 289.76484 283.43251 282.22172 290.43945 271.83789 C 309.0519 244.25544 311.74721 211.43445 297.81836 181.98242 C 289.86125 165.15741 277.85697 152.02785 262.01367 142.82227 L 256.00586 139.33203 L 262.80859 131.95703 C 279.96279 113.36053 286.87839 108.1461 299.6875 104.14648 C 307.94168 101.56912 322.09543 101.56912 330.34961 104.14648 C 340.17794 107.21535 346.16195 110.83262 353.34766 118.05273 C 360.53699 125.27647 364.02357 130.58976 366.7832 138.52539 C 369.93283 147.58216 370.41539 153.20467 369.51953 170.38281 C 369.07419 178.92217 368.6262 190.86164 368.52344 196.91602 C 368.34154 207.63242 368.3849 207.96243 370.12695 209.37305 C 372.41985 211.22923 375.94026 211.22771 377.79883 209.36914 C 379.37907 207.7889 379.32071 208.46938 380.92773 172.87695 C 382.0068 148.97784 380.72426 139.77744 374.62305 127.64844 C 357.79208 94.188958 318.23874 81.185388 284.48047 98.013672 C 276.44403 102.01978 270.04332 107.49244 256.41602 122.00781 L 244.43945 134.76367 L 238.9082 133.31445 C 235.86597 132.51689 230.87706 131.63977 227.82031 131.36719 C 224.76356 131.0946 222.26172 130.72188 222.26172 130.53711 C 222.26172 130.35236 230.09432 121.92165 239.66602 111.80273 C 262.44846 87.717815 271.25134 81.199032 288.66797 75.513672 C 311.33369 68.114834 337.52903 70.878465 357.98633 82.826172 C 380.68635 96.083698 397.95429 121.26997 400.88672 145.40234 C 401.58574 151.15492 401.51788 154.06838 400.51172 161.50195 C 393.75699 211.40642 393.07772 241.37412 397.82031 280.29297 C 403.16203 324.12841 413.16932 357.69826 436.01172 408.4082 C 441.57391 420.7562 440.71335 420.19563 430.43164 404.76758 C 422.28742 392.54689 416.90561 383.14379 408.89453 367.14258 C 394.92856 339.24714 387.19213 317.115 384.36328 296.96289 C 382.06208 280.56965 379.43492 244.13478 379.41602 228.34766 C 379.41051 223.75186 377.54245 221.29883 374.04492 221.29883 C 372.23267 221.29883 370.99052 221.89387 369.71484 223.37695 C 367.9664 225.40963 367.9354 225.71789 368.3418 237.11328 C 368.90182 252.81563 370.03034 271.37781 371.08203 282.22266 L 371.94727 291.14648 L 367.72266 296.4043 C 353.59946 313.98389 345.85878 334.50169 343.32617 361.07227 C 342.32418 371.5845 342.84237 388.94574 344.25 392.03516 C 345.55157 394.89179 348.79969 395.97793 351.64258 394.50781 C 352.89964 393.85776 354.13716 392.78549 354.39062 392.125 C 354.64407 391.46452 354.64242 386.19107 354.38867 380.40625 C 353.82402 367.53362 356.08598 344.20703 357.89844 344.20703 C 358.20273 344.20703 360.07369 345.28225 362.05664 346.5957 C 365.86321 349.11706 371.68009 356.56833 373.73438 361.55273 C 376.26496 367.69281 380.27172 369.62251 384.08203 366.53711 C 386.6308 364.47324 386.26985 360.75955 382.89844 354.34375 C 377.8763 344.78659 371.9583 338.7114 362.14062 333.03516 C 360.78589 332.2519 360.84072 331.91533 363.27734 326.01367 C 365.97583 319.47776 372.53604 308.04267 373.83594 307.60938 C 374.2575 307.46885 375.02394 309.5229 375.54102 312.17383 C 378.11695 325.38014 388.74424 352.85922 399.44531 373.98438 L 405.4043 385.74805 L 403.45312 388.83789 C 397.85954 397.6987 393.09011 413.02497 391.57227 427.01953 C 390.6971 435.08863 390.7277 435.58738 392.20117 437.56836 C 394.79601 441.05696 400.11278 440.82608 401.46484 437.16602 C 401.89513 436.00119 402.61488 431.59749 403.06445 427.38086 C 403.97922 418.8009 406.80467 408.14409 409.92188 401.51367 L 411.99219 397.10938 L 416.97461 405.21875 C 423.88464 416.46318 431.20925 426.02303 434.03516 427.48438 C 436.97521 429.00472 442.40871 428.50798 446.67773 426.33008 C 450.80719 424.22339 451.86532 422.69106 451.72266 419.02734 C 451.57753 415.30013 450.35388 412.07554 442.76758 395.45312 C 434.0508 376.35374 423.1263 347.76626 424.15234 346.74023 C 424.33491 346.55765 425.75757 346.64737 427.31445 346.93945 C 431.84155 347.78874 436.1481 351.64851 439.26562 357.65039 C 442.57101 364.01397 444.78999 365.63569 448.23438 364.20898 C 453.09484 362.1957 452.86786 356.95714 447.5625 348.68945 C 442.46235 340.74156 434.70521 336.01653 425.49219 335.24414 L 420.15039 334.79492 L 418.55078 328.86719 C 412.36392 305.93838 407.9631 277.00898 406.55078 249.99414 L 406.01367 239.7207 L 409.76953 242.28125 C 421.62977 250.36531 432.91202 264.70882 438.87109 279.28125 C 440.28403 282.73649 442.18174 286.16842 443.08984 286.90625 C 446.10701 289.35772 449.85944 288.30267 451.40625 284.56836 C 452.20243 282.64619 452.01884 281.60417 449.96875 276.44336 C 445.17762 264.38238 439.33954 254.92965 431.52344 246.57422 C 429.00247 243.87929 426.93945 241.14005 426.93945 240.48828 C 426.93945 238.79855 430.53247 234.75395 433.35547 233.26562 C 434.88253 232.46052 437.8478 231.95656 441.50586 231.88086 C 448.89697 231.72795 450.32478 231.22078 451.52539 228.32227 C 453.92304 222.53382 447.74593 219.13481 437.53516 220.62305 C 430.05198 221.71373 425.03257 224.25608 420.57422 229.21484 L 417.05664 233.12695 L 411.57617 230.21484 L 406.09375 227.30469 L 406.58594 215.42188 C 407.13753 202.10782 408.7818 184.40169 410.53711 172.87695 C 413.56134 153.02089 413.36102 144.21752 409.58789 131.19727 C 403.48837 110.1491 387.5642 88.600867 369.00391 76.28125 C 351.83628 64.88603 331.91346 59.498157 312.19531 60.037109 z M 107.75586 344.20703 C 107.97224 343.5746 109.81336 348.06033 111.8457 354.17383 C 115.77846 366.00393 121.5643 379.39433 126.53711 388.16992 C 128.20592 391.11489 129.41272 393.93789 129.21875 394.44336 C 128.62251 395.99714 122.48653 400.63127 117.18164 403.53516 C 114.40865 405.05309 109.43733 406.98737 106.13477 407.83203 C 102.35426 408.79892 97.832303 409.34143 93.927734 409.29883 C 87.825269 409.23225 78.420625 407.54046 77.072266 406.26562 C 76.676916 405.89183 78.120542 403.72063 80.462891 401.16602 C 90.728218 389.97043 100.53202 370.68019 105.70898 351.49023 C 106.61892 348.11726 107.53948 344.83946 107.75586 344.20703 z "
       d="m 312.17187,59.212891 c -19.88334,0.543468 -39.5632,7.064885 -56.05468,19.482421 -4.58368,3.451358 -13.27281,12.001397 -26.46875,25.980468 -10.83658,11.47971 -20.79569,22.00598 -22.08008,23.33984 -0.96239,0.99946 -1.6809,1.56297 -2.84766,2.05274 -1.16675,0.48977 -2.81762,0.88788 -5.49414,1.39453 -22.20423,4.20317 -41.54852,16.64118 -56.26367,36.13672 -4.93761,6.54165 -10.96351,16.2894 -15.77539,25.0332 -2.40594,4.3719 -4.50512,8.48851 -6.01172,11.83399 -0.7533,1.67273 -1.35853,3.15281 -1.78125,4.38672 -0.42272,1.2339 -0.67773,2.19201 -0.67773,2.99804 0,4.93771 6.38514,8.11025 10.14453,4.99024 0.41518,-0.34457 0.615,-0.71892 1.02148,-1.36133 0.40648,-0.64241 0.90372,-1.48684 1.4668,-2.48633 1.12617,-1.99899 2.51072,-4.60886 3.88672,-7.35937 9.25352,-18.49706 19.69884,-33.83851 28.4707,-41.93165 30.8698,-28.48123 78.14455,-27.67485 107.6875,1.82813 9.99982,9.98628 16.62458,21.78026 20.78711,37.05078 1.25686,4.61087 1.54944,7.90319 1.56641,17.82422 0.0185,10.80893 -0.19442,12.94618 -1.93555,19.42187 -2.50957,9.33358 -6.05614,16.98881 -12.21094,26.32032 -6.64991,10.08219 -9.20594,16.67989 -9.66992,25.11914 -0.23675,4.3063 0.007,7.53025 1.38477,11.19726 1.37778,3.66702 3.847,7.75022 8.02734,13.99024 3.45608,5.15888 7.4384,12.14627 8.75,15.29687 14.34431,34.45658 2.7463,74.09975 -27.66211,94.61914 -27.49054,18.55043 -63.53786,17.90617 -89.8418,-1.59375 -19.95678,-14.79459 -41.77827,-51.90236 -50.61718,-86.41406 -3.65951,-14.28863 -5.01105,-24.03965 -5.51172,-39.82031 -0.63571,-20.03649 1.36708,-36.89428 6.68164,-56.25195 0.62409,-2.27322 1.19111,-4.51331 1.60351,-6.29883 0.20621,-0.89276 0.37444,-1.66996 0.49219,-2.28907 0.11775,-0.6191 0.19141,-1.02761 0.19141,-1.40429 0,-2.47515 -2.0129,-4.28424 -4.2793,-5.02735 -2.2664,-0.7431 -5.00144,-0.52188 -6.69336,1.34766 -0.89084,0.98437 -1.59844,2.83314 -2.49023,5.51367 -0.89179,2.68054 -1.85284,6.11834 -2.78907,9.92969 -1.87244,7.62269 -3.64705,16.72747 -4.54296,24.1543 -0.49525,4.10546 -1.1791,15.96431 -1.54102,26.51953 -0.36065,10.51804 -1.2278,22.97688 -1.898438,27.50195 -5.163961,34.84337 -15.814019,59.41444 -32.648437,75.63672 -3.556625,3.42729 -5.664138,5.69784 -6.701172,7.66016 -0.518517,0.98116 -0.763086,1.91587 -0.701172,2.82421 0.06191,0.90835 0.422836,1.74054 0.951172,2.54688 1.017745,1.55328 3.403914,2.96863 6.617188,4.48047 3.213273,1.51184 7.230888,2.9879 11.339843,4.08984 8.478216,2.27371 23.135456,2.49094 30.964846,0.42969 6.4931,-1.70946 17.68238,-7.22354 23.11328,-11.38672 1.09841,-0.84202 2.1617,-1.60545 2.97461,-2.14844 0.39858,-0.26623 0.73297,-0.47738 0.97461,-0.61523 0.0311,0.034 0.0429,0.044 0.0781,0.084 0.25855,0.294 0.62298,0.74471 1.04883,1.30274 0.85171,1.11606 1.96136,2.66798 3.11328,4.37109 7.61448,11.25799 18.71496,21.9645 29.76758,28.69922 9.32684,5.68314 23.08621,10.48287 34.80859,12.15625 7.29466,1.04131 23.71234,0.26106 31.34766,-1.47656 56.94349,-12.95895 87.21382,-74.80906 62.34375,-127.39649 -1.84631,-3.90399 -5.93993,-10.85595 -9.17383,-15.59765 -1.64117,-2.40636 -3.14535,-4.827 -4.26758,-6.83008 -1.12222,-2.00308 -1.86247,-3.70167 -1.95507,-4.19531 -1.31045,-6.98529 0.97916,-14.27111 7.93164,-24.57422 18.76144,-27.80325 21.48905,-60.96671 7.4414,-90.66992 -8.02325,-16.96488 -20.15538,-30.23375 -36.13672,-39.51954 l -5.11914,-2.9746 6.10547,-6.61915 c 17.13138,-18.57176 23.82448,-23.61802 36.51953,-27.58203 7.99816,-2.49741 22.17176,-2.49741 30.16993,0 9.74324,3.04231 15.53878,6.54571 22.66015,13.70118 7.14074,7.17491 10.51388,12.32215 13.24024,20.1621 3.12343,8.98144 3.58597,14.38958 2.6914,31.54297 -0.44592,8.55055 -0.89295,20.48586 -0.99609,26.5625 -0.091,5.35945 -0.13679,8.10854 0.0859,9.83789 0.22272,1.72935 0.9294,2.55045 1.82226,3.27344 2.6139,2.11604 6.54882,2.16602 8.77539,-0.0605 0.37593,-0.37592 0.83934,-0.83385 1.12696,-1.68359 0.28761,-0.84974 0.47222,-2.0621 0.66601,-4.32226 0.38758,-4.52034 0.77267,-13.23722 1.57617,-31.03321 1.08083,-23.93802 -0.23699,-33.39962 -6.39258,-45.63672 -17.02547,-33.846147 -57.10588,-47.020625 -91.24609,-30.001949 -8.14833,4.061889 -14.65414,9.634079 -28.29883,24.167969 l -11.64062,12.39844 -5.05664,-1.32422 c -3.11269,-0.81603 -8.09104,-1.69323 -11.22461,-1.97266 -1.51508,-0.13511 -2.89371,-0.29468 -3.87696,-0.4414 -0.11316,-0.0169 -0.15743,-0.0304 -0.25976,-0.0469 0.16536,-0.18491 0.27616,-0.31086 0.49023,-0.54687 0.87975,-0.96993 2.15639,-2.35629 3.73243,-4.05274 3.15207,-3.3929 7.50266,-8.02992 12.2871,-13.08789 22.7606,-24.061816 31.34044,-30.419178 48.65821,-36.072265 22.42993,-7.32187 48.4061,-4.57883 68.64648,7.242187 22.46451,13.119982 39.6041,38.147158 42.49805,61.962888 0.69423,5.71314 0.62993,8.47861 -0.37305,15.88867 -6.75962,49.94063 -7.44323,80.02331 -2.69336,119.00196 5.35056,43.90797 15.39651,77.6016 38.25782,128.35351 0.91658,2.03482 1.36479,3.15197 1.91406,4.46485 -0.0321,-0.0451 -0.0455,-0.0614 -0.0781,-0.10742 -1.42966,-2.01514 -3.40975,-4.93846 -5.97851,-8.79297 -8.12893,-12.19775 -13.4816,-21.55248 -21.48438,-37.53711 -13.94236,-27.84829 -21.64149,-49.89635 -24.45312,-69.92578 -2.28983,-16.31222 -4.92066,-52.80482 -4.93946,-68.50196 -0.003,-2.40945 -0.48487,-4.35471 -1.54492,-5.74609 -1.06004,-1.39138 -2.70884,-2.125 -4.65039,-2.125 -1.99275,0 -3.57793,0.76419 -4.95508,2.36523 -0.88608,1.03014 -1.50203,1.93774 -1.68945,3.8125 -0.18742,1.87477 -0.0861,4.79154 0.11719,10.49024 0.5606,15.71863 1.68919,34.28175 2.74414,45.16015 l 0.83203,8.58985 -4.01367,4.99609 c -14.22726,17.70911 -22.03036,38.41684 -24.57422,65.10547 -0.50634,5.31216 -0.62646,12.29679 -0.44531,18.36719 0.0906,3.0352 0.25624,5.83932 0.49023,8.0957 0.23399,2.25638 0.4844,3.89976 0.94922,4.91992 1.48349,3.2559 5.30375,4.52724 8.52148,2.86328 0.69479,-0.35928 1.36153,-0.81957 1.91211,-1.29687 0.55059,-0.4773 0.99248,-0.91344 1.22657,-1.52344 0.0975,-0.25404 0.10617,-0.41641 0.13281,-0.66211 0.0266,-0.24569 0.0482,-0.54115 0.0644,-0.89062 0.0325,-0.69894 0.0471,-1.60949 0.0469,-2.67969 -4.6e-4,-2.1404 -0.0641,-4.91507 -0.19141,-7.81836 -0.27926,-6.36636 0.14111,-15.40284 0.85938,-22.81055 0.35913,-3.70385 0.79445,-7.00555 1.24414,-9.34961 0.22484,-1.17202 0.45755,-2.1091 0.66601,-2.69921 0.0583,-0.165 0.0957,-0.2213 0.14453,-0.32422 0.21519,0.1077 0.48072,0.248 0.81055,0.4375 0.7329,0.42106 1.68577,1.01216 2.66406,1.66015 3.50543,2.3219 9.41545,9.83894 11.3711,14.58399 1.31211,3.18366 3.02771,5.38383 5.09765,6.38086 2.06994,0.99702 4.45089,0.61426 6.53125,-1.07032 1.47717,-1.19614 2.14095,-3.00982 1.92969,-5.18554 -0.21126,-2.17572 -1.1918,-4.77609 -2.90234,-8.03125 -5.07929,-9.66591 -11.16209,-15.90865 -21.07618,-21.64063 -0.31444,-0.1818 -0.43377,-0.29464 -0.45117,-0.32226 -0.0174,-0.0276 -0.0572,-0.0684 0,-0.42188 0.11447,-0.70684 0.72047,-2.30031 1.9375,-5.24805 1.32403,-3.20687 3.63247,-7.68989 5.75781,-11.39453 1.06268,-1.85232 2.08161,-3.5139 2.90235,-4.7207 0.40358,-0.59342 0.75666,-1.07207 1.0332,-1.40234 0.0536,0.11962 0.0906,0.16729 0.14844,0.32226 0.28479,0.76265 0.60002,1.90962 0.85156,3.19922 2.61637,13.41363 13.24469,40.83943 23.97656,62.02539 l 5.74805,11.3457 -1.70117,2.69532 c -5.70975,9.04483 -10.47306,24.41677 -12.00391,38.53125 -0.43789,4.03738 -0.65881,6.18208 -0.56836,7.69726 0.0905,1.51519 0.60059,2.41871 1.35547,3.4336 1.46359,1.96769 3.70156,2.90146 5.79492,2.81054 2.09336,-0.0909 4.10847,-1.2656 4.9043,-3.41992 0.28041,-0.75907 0.53919,-2.10892 0.83203,-3.90039 0.29284,-1.79147 0.58796,-3.95768 0.81446,-6.08203 0.90342,-8.47353 3.72911,-19.10736 6.7832,-25.60352 l 1.41992,-3.02343 4.18359,6.80859 c 3.46849,5.64413 7.04061,10.86344 10.11133,14.87109 1.53537,2.00383 2.94465,3.70496 4.16406,5.01172 1.21942,1.30677 2.20616,2.21652 3.10938,2.6836 3.37336,1.74441 8.92037,1.1312 13.39648,-1.15235 2.11143,-1.07716 3.53683,-2.04426 4.42774,-3.33398 0.89091,-1.28973 1.14099,-2.81884 1.0664,-4.73438 -0.0757,-1.9444 -0.4517,-3.82041 -1.74023,-7.21289 -1.28853,-3.39247 -3.49451,-8.35758 -7.28906,-16.67187 -4.34789,-9.52668 -9.25523,-21.43984 -12.94141,-31.08594 -1.84309,-4.82305 -3.3821,-9.0821 -4.39062,-12.18164 -0.50426,-1.54977 -0.87614,-2.81318 -1.08399,-3.68945 -0.0708,-0.29845 -0.0934,-0.47536 -0.125,-0.67188 0.072,0.002 0.10703,-0.003 0.18946,0.002 0.52684,0.0332 1.24735,0.12516 1.99609,0.26563 4.17523,0.78328 8.33011,4.42672 11.37109,10.28125 1.67428,3.22334 3.07529,5.31464 4.67774,6.48633 1.60245,1.17169 3.45775,1.23271 5.33984,0.45312 2.66804,-1.10514 4.10805,-3.35486 3.98438,-6.21093 -0.12368,-2.85608 -1.58676,-6.31966 -4.2793,-10.51563 -5.22517,-8.14272 -13.2417,-13.0297 -22.69531,-13.82227 l -4.76563,-0.40039 -1.44726,-5.36914 c -6.16703,-22.85531 -10.5634,-51.74489 -11.97266,-78.70117 l -0.44922,-8.61133 2.37891,1.62305 c 11.68623,7.96545 22.90993,22.22049 28.80273,36.63086 0.71922,1.7588 1.55689,3.5026 2.33985,4.91797 0.78295,1.41537 1.40154,2.44893 2.12304,3.03515 1.68337,1.36775 3.67634,1.80421 5.45313,1.30469 1.77679,-0.49951 3.29141,-1.9072 4.14453,-3.96679 0.42682,-1.03046 0.6241,-2.03253 0.39844,-3.3086 -0.22566,-1.27607 -0.80308,-2.84725 -1.83204,-5.4375 -4.8214,-12.13718 -10.72126,-21.69454 -18.60937,-30.12695 -1.24193,-1.32763 -2.3723,-2.67022 -3.17969,-3.74219 -0.40369,-0.53598 -0.72718,-1.00785 -0.93554,-1.35742 -0.20837,-0.34958 -0.2461,-0.69591 -0.2461,-0.42383 0,-0.13019 0.14641,-0.63327 0.49024,-1.21094 0.34382,-0.57767 0.85279,-1.25413 1.45117,-1.92773 1.19676,-1.3472 2.76858,-2.68771 4.03515,-3.35547 1.26307,-0.66592 4.19162,-1.21474 7.78321,-1.28906 3.7133,-0.0768 5.96024,-0.21809 7.58984,-0.79688 1.62961,-0.57878 2.5358,-1.72921 3.17383,-3.26953 0.65824,-1.58913 0.75636,-3.12211 0.27539,-4.45117 -0.48097,-1.32906 -1.5155,-2.40068 -2.90625,-3.16602 -2.78149,-1.53067 -7.02271,-1.9753 -12.24023,-1.21484 -7.61208,1.10947 -12.88469,3.77404 -17.45508,8.85742 l -3.08594,3.43164 -4.91211,-2.60937 -5.02344,-2.66602 0.47071,-11.36523 c 0.55003,-13.27654 2.19348,-30.97691 3.9414,-42.45313 3.03051,-19.89726 2.82791,-28.92697 -0.9707,-42.03515 C 404.21643,109.69463 388.20732,88.038187 369.45898,75.59375 352.14624,64.102211 332.05522,58.669423 312.17187,59.212891 Z M 108.0332,346.25977 c 0.1172,0.26588 0.18975,0.38715 0.32422,0.71484 0.7296,1.77788 1.69338,4.41568 2.70508,7.45898 3.95037,11.88308 9.74288,25.29266 14.75781,34.14258 0.82072,1.44834 1.52846,2.87022 1.99805,3.96875 0.23479,0.54927 0.40902,1.02131 0.50586,1.35156 0.0414,0.14124 0.0618,0.2378 0.0742,0.31055 -0.0614,0.1156 -0.45223,0.66404 -1.13086,1.30274 -0.70913,0.6674 -1.67997,1.46939 -2.79883,2.31445 -2.23772,1.69012 -5.07575,3.56075 -7.68359,4.98828 -2.66768,1.46028 -7.65325,3.4017 -10.85547,4.2207 -3.69932,0.94613 -8.17094,1.4831 -11.99219,1.44141 -2.97966,-0.0325 -6.832894,-0.46757 -10.074219,-1.05078 -1.620662,-0.29161 -3.092115,-0.62054 -4.216797,-0.94727 -0.938552,-0.27265 -1.427036,-0.53858 -1.675781,-0.67578 0.09698,-0.20744 0.223247,-0.45893 0.457031,-0.81055 0.566899,-0.85262 1.493021,-2.01384 2.642578,-3.26757 10.407447,-11.35059 20.226598,-30.70905 25.435548,-50.01758 0.68417,-2.53608 1.14689,-4.13742 1.52734,-5.44531 z"
       inkscape:export-filename="/home/dusoudeth/Documentos/github/isadora-urel-landing-page/src/assets/images/services_tree_00_white.png"
       inkscape:export-xdpi="96"
       inkscape:export-ydpi="96" /></g></svg>
