<?xml version="1.0" encoding="UTF-8" standalone="no"?>
<!-- Created with Inkscape (http://www.inkscape.org/) -->

<svg
   version="1.1"
   id="svg1"
   width="512"
   height="512"
   viewBox="0 0 512 512"
   sodipodi:docname="services_tree_01.svg"
   inkscape:version="1.1.2 (0a00cf5339, 2022-02-04)"
   inkscape:export-filename="/home/dusoudeth/Documentos/github/isadora-urel-landing-page/src/assets/images/services_tree_01_white.png"
   inkscape:export-xdpi="96"
   inkscape:export-ydpi="96"
   xmlns:inkscape="http://www.inkscape.org/namespaces/inkscape"
   xmlns:sodipodi="http://sodipodi.sourceforge.net/DTD/sodipodi-0.dtd"
   xmlns="http://www.w3.org/2000/svg"
   xmlns:svg="http://www.w3.org/2000/svg">
  <defs
     id="defs1" />
  <sodipodi:namedview
     id="namedview1"
     pagecolor="#ffffff"
     bordercolor="#000000"
     borderopacity="0.25"
     inkscape:showpageshadow="2"
     inkscape:pageopacity="0.0"
     inkscape:pagecheckerboard="0"
     inkscape:deskcolor="#d1d1d1"
     showgrid="false"
     inkscape:zoom="1.59375"
     inkscape:cx="256"
     inkscape:cy="255.68627"
     inkscape:window-width="1868"
     inkscape:window-height="1016"
     inkscape:window-x="52"
     inkscape:window-y="27"
     inkscape:window-maximized="1"
     inkscape:current-layer="g1"
     inkscape:pageshadow="2" />
  <g
     inkscape:groupmode="layer"
     inkscape:label="Image"
     id="g1">
    <path
       style="fill:#ffffff;fill-opacity:1"
       d="m 409.96353,499.89804 c -3.64313,-3.64313 -2.56478,-5.73466 9,-17.45623 l 11,-11.14913 v -7.96363 -7.96363 l -11.26598,-11.23402 -11.26598,-11.23402 -11.23402,11.26597 -11.23402,11.26598 v 10.57937 c 0,11.60714 -1.01443,13.88934 -6.17375,13.88934 -4.39506,0 -5.82625,-2.78286 -5.82625,-11.32874 0,-4.30036 -0.42713,-7.67126 -0.97203,-7.67126 -0.53462,0 -6.78512,1.575 -13.89,3.5 -7.10489,1.925 -13.79773,3.5 -14.87298,3.5 -2.44572,0 -5.26499,-3.0188 -5.26499,-5.63761 0,-4.18669 2.36035,-5.37244 20.30107,-10.19853 l 17.79112,-4.78584 12.45391,-12.424 12.4539,-12.42401 v -7.265 -7.26501 h -77 -77 v 7.20714 7.20714 l 14,14.12035 14,14.12036 v 12.45 c 0,14.10494 -0.98842,16.89501 -5.98528,16.89501 -5.16141,0 -6.01472,-1.96316 -6.01472,-13.83774 v -10.69488 l -11.26598,-11.23402 -11.26598,-11.23402 -11.23402,11.26597 -11.23402,11.26598 v 10.66293 c 0,11.8401 -0.85638,13.80578 -6.01472,13.80578 -4.38872,0 -5.98528,-3.12695 -5.98528,-11.72251 0,-4.00262 -0.27917,-7.27749 -0.62038,-7.27749 -0.34121,0 -6.6921,1.61101 -14.11309,3.58002 -14.57515,3.86723 -17.65985,3.84561 -19.47422,-0.1365 -0.94684,-2.07809 -0.809,-2.9442 0.81462,-5.11887 1.65108,-2.21143 4.62641,-3.3345 19.17652,-7.23836 l 17.22223,-4.62081 13.02865,-12.98274 13.02865,-12.98274 -0.28149,-6.5 -0.28149,-6.5 -77.25,-0.25617 -77.25,-0.25617 v 7.26957 7.26956 l 14,13.97321 c 9.7607,9.74202 14,14.65858 14,16.2366 0,2.32353 -3.1764,6.2634 -5.04966,6.2634 -2.67546,0 -7.31911,-3.73565 -17.91943,-14.41554 L 73.52535,432.92733 60.41152,445.91268 c -7.21261,7.14195 -13.7639,12.98536 -14.55841,12.98536 -3.0032,0 -5.88958,-3.05283 -5.88958,-6.22921 0,-2.66752 2.0217,-5.15489 14.05174,-17.28834 l 14.05174,-14.17254 -0.30174,-6.40496 -0.30174,-6.40495 -26.93971,-0.26669 c -23.3073,-0.23073 -27.18379,-0.48759 -28.75,-1.90499 -2.3236697,-2.1029 -2.3153597,-5.56126 0.0184,-7.67333 1.60722,-1.45451 5.12018,-1.65499 29,-1.65499 h 27.17127 v -15.80798 -15.80797 l -8.92912,0.4269 c -7.07903,0.33846 -10.34239,-0.004 -15.75,-1.65046 -16.70893,-5.08887 -29.13176,-18.65266 -32.46318,-35.44471 -1.5643397,-7.88503 -0.48721,-9.96241 6.52614,-12.58644 19.73627,-7.38428 42.53723,0.0456 54.84191,17.87066 1.69066,2.44916 1.75036,2.45933 2.9356,0.5 0.66541,-1.1 3.44434,-4.3654 6.1754,-7.25645 9.66801,-10.23437 26.07099,-15.7811 39.73784,-13.43749 9.37233,1.60717 14.88809,3.96557 15.97778,6.83169 2.62062,6.89275 -4.82403,24.15795 -14.133,32.77641 -10.41282,9.64043 -19.84941,13.07288 -34.0711,12.39293 l -8.84827,-0.42304 v 15.81414 15.81415 l 77.25,-0.25617 77.25,-0.25617 0.26763,-24.82416 0.26763,-24.82416 -5.76763,0.82416 c -33.54579,4.79349 -62.07165,-14.28687 -68.98455,-46.14236 -2.13238,-9.82626 -1.34385,-11.61557 6.40161,-14.52628 21.06066,-7.91451 44.72883,-3.01523 61.39757,12.70921 l 6.91774,6.52585 v -7.74953 -7.74953 l -6.49328,-6.88322 c -22.26293,-23.59988 -22.01678,-59.41889 0.56351,-81.99917 3.73275,-3.73276 8.01181,-7.09428 9.50902,-7.47006 3.83863,-0.96343 8.57132,1.85603 14.95321,8.90825 20.84576,23.03531 20.72369,57.52915 -0.28246,79.8138 l -6.25,6.6304 v 7.74305 7.74306 l 6.45376,-6.03718 c 15.54883,-14.54516 37.37187,-19.5174 57.85438,-13.18175 9.57573,2.96197 11.08223,4.70963 10.19323,11.82497 -2.73062,21.85511 -18.27587,40.40344 -39.96349,47.68374 -8.47609,2.84533 -19.44151,3.66769 -29.28788,2.19647 l -5.25,-0.78445 v 25.03445 25.03444 h 77.00004 77 l -0.006,-19.75 -0.006,-19.75 -10.62071,-6 c -11.37439,-6.42578 -13.47259,-8.77986 -11.56233,-12.97241 2.01015,-4.41182 5.33731,-4.22651 14.19235,0.79042 l 8.00269,4.53374 V 309.4552 275.1606 l -5.75,1.3531 c -17.06952,4.01682 -38.47057,-0.17212 -53.69175,-10.50936 -4.43654,-3.01302 -13.4101,-12.06216 -16.73037,-16.87129 -9.59868,-13.90289 -14.90389,-34.167 -10.07788,-38.49413 2.46554,-2.21068 12.7151,-5.4846 21.37871,-6.8288 21.77343,-3.37826 46.63047,6.23178 60.95443,23.56575 l 3.91686,4.73994 v -22.4776 -22.47761 l -5.75,1.3531 c -19.42079,4.57012 -42.57439,-1.11772 -58.50079,-14.37113 -13.87851,-11.54921 -24.44579,-32.22851 -23.55027,-46.08592 0.2948,-4.56175 0.41444,-4.71384 5.754,-7.31503 2.99911,-1.46104 8.17411,-3.25858 11.5,-3.99455 8.20917,-1.81657 23.54209,-1.5239 31.54706,0.60217 13.14956,3.49243 26.85002,12.14123 35.25,22.25257 l 3.75,4.514 V 132.54956 120.9833 l -3.52997,-2.79263 c -8.4273,-6.667 -17.51023,-21.706407 -21.01274,-34.792627 -0.99175,-3.70541 -1.60577,-10.01552 -1.60559,-16.499997 5.4e-4,-19.173605 6.44929,-34.539476 20.23429,-48.213649 8.49916,-8.430837 11.20396,-9.727922 15.55631,-7.460024 4.13429,2.154279 13.69045,11.961408 18.03895,18.5127 17.55039,26.440784 14.05848,62.22015 -8.28911,84.933197 l -7.39214,7.51303 v 10.78594 10.78594 l 8.25,-8.19275 c 15.63363,-15.52515 35.82046,-22.53004 56.69205,-19.67232 10.98812,1.50448 21.89371,5.55335 23.30584,8.65265 1.76861,3.88167 -1.45188,17.40998 -6.6311,27.85528 -7.89866,15.92978 -21.81213,28.27944 -38.26358,33.96291 -10.05624,3.47413 -27.4597,4.54073 -37.10321,2.27395 l -6.25,-1.46912 v 22.2947 22.2947 l 8.25,-8.20319 c 19.72151,-19.60963 47.10642,-25.47935 73.06531,-15.66091 7.79067,2.94667 8.47554,4.58325 6.38295,15.25271 -4.61434,23.52708 -21.72449,43.13202 -44.58051,51.08069 -12.63125,4.39278 -31.52295,4.90892 -41.36998,1.13026 -1.64299,-0.63047 -1.74777,1.40892 -1.74777,34.01885 v 34.68954 l 5.25,-3.12837 c 10.59032,-6.31056 11.57256,-6.64586 14.56741,-4.97288 3.27902,1.83173 4.1729,6.85879 1.60412,9.02133 -0.92433,0.77816 -6.00981,3.91123 -11.30107,6.96239 l -9.62046,5.54755 v 19.45245 19.45244 l 42.43341,0.261 c 37.73316,0.23208 42.63463,0.44309 44.25,1.90498 0.99912,0.9042 1.81659,2.62951 1.81659,3.83402 0,1.20451 -0.81747,2.92982 -1.81659,3.83402 -1.61537,1.46189 -6.51684,1.6729 -44.25,1.90498 l -42.43341,0.261 -0.28131,6.5 -0.28131,6.5 13.28131,13.13944 13.28131,13.13944 16,4.20636 c 8.8,2.31349 17.0125,4.84862 18.25,5.63361 4.18746,2.65626 2.10949,10.38115 -2.79249,10.38115 -1.0448,0 -7.64576,-1.575 -14.6688,-3.5 -7.02304,-1.925 -13.33606,-3.5 -14.02893,-3.5 -0.85145,0 -1.25978,1.68462 -1.25978,5.19732 v 5.19732 l 11,11.14913 c 11.56478,11.72157 12.64313,13.8131 9,17.45623 -3.54901,3.54901 -5.75647,2.51451 -15.90001,-7.45133 l -9.61986,-9.45132 -9.59041,9.45132 c -10.11915,9.97239 -12.33129,11.00976 -15.88972,7.45133 z m -345.25,-146.63029 c 2.9377,-0.78727 2.84538,-1.85879 -0.78629,-9.1264 -5.02254,-10.051 -14.93786,-17.15622 -26.21371,-18.78448 -5.98262,-0.86391 -13.69952,0.24602 -14.39988,2.07115 -0.88145,2.29702 4.16752,11.98766 8.50635,16.32649 3.94312,3.94313 10.03957,7.65022 15.14353,9.2084 3.05606,0.93299 14.66231,1.13231 17.75,0.30484 z m 38.96249,-1.49175 c 7.37947,-2.70575 16.97875,-12.07487 19.68481,-19.21284 2.44194,-6.44126 1.60151,-7.13307 -8.68271,-7.1473 -6.95179,-0.01 -9.17297,0.4308 -14.4489,2.86493 -7.08342,3.26804 -14.32964,10.34028 -17.30072,16.88533 -3.55351,7.8281 -2.9852,8.4218 8.24751,8.61592 4.59786,0.0795 8.53573,-0.55251 12.50001,-2.00604 z m 119.97169,-15.66161 c 0.73758,-0.46903 -2.09089,-2.60151 -7.5,-5.65449 -16.63975,-9.3917 -19.18418,-11.27782 -19.18418,-14.2207 0,-3.30887 2.60562,-6.35128 5.40499,-6.31105 1.15225,0.0166 7.92473,3.37434 15.04995,7.46173 7.12521,4.08739 13.13233,7.25422 13.34915,7.0374 0.98323,-0.98323 -5.74651,-11.25427 -10.46672,-15.97447 -10.99037,-10.99038 -28.80207,-16.0126 -43.33737,-12.21951 -4.25224,1.10966 -4.49134,1.35797 -4.3427,4.51007 0.45994,9.75405 12.85808,25.43494 24.50514,30.99357 8.82611,4.21231 23.08141,6.56517 26.52174,4.37745 z m 51.39701,-1.04962 c 8.41306,-2.19619 16.91274,-7.31773 22.68122,-13.66673 5.12603,-5.6419 10.37518,-15.93355 10.59265,-20.76831 0.13561,-3.01468 -0.14476,-3.29772 -4.35506,-4.39643 -14.48075,-3.77886 -31.20249,0.99323 -43.03784,12.28224 -5.15766,4.91958 -11.81415,14.86384 -10.69721,15.98078 0.25479,0.2548 6.29513,-2.92558 13.42296,-7.06751 7.12784,-4.14192 13.79106,-7.53077 14.80716,-7.53077 4.62887,0 7.41692,7.1683 3.91761,10.07247 -0.87302,0.72455 -7.21292,4.55385 -14.08865,8.50956 -7.01221,4.03423 -11.91356,7.42664 -11.16268,7.72614 2.72483,1.08683 11.53314,0.52577 17.91984,-1.14144 z m -40.08119,-79.11003 c 0,-15.34173 0.0839,-16.00203 2.22251,-17.5 2.88723,-2.02229 4.05381,-1.96281 6.91671,0.35268 2.25756,1.82591 2.38264,2.60199 2.86078,17.75 l 0.5,15.84062 2.866,-4.7858 c 11.01323,-18.39047 7.88236,-43.97187 -7.10118,-58.02153 l -2.99393,-2.80732 -4.2396,4.80732 c -13.61552,15.43877 -15.944,37.29931 -5.86444,55.05733 1.63896,2.8875 3.39691,5.25 3.90654,5.25 0.53007,0 0.92661,-6.82294 0.92661,-15.9433 z m 155.72492,9.13447 c 0.78074,-0.49601 -4.46336,-4.02597 -14.46182,-9.73468 -8.6277,-4.92607 -16.49141,-9.74399 -17.47491,-10.70649 -3.49237,-3.41779 -1.04559,-9.75 3.76741,-9.75 1.2351,0 9.60285,4.2614 18.59502,9.46978 8.99216,5.20838 16.47598,9.10358 16.63071,8.656 0.56713,-1.64047 -3.64343,-9.78789 -8.13539,-15.74195 -10.20188,-13.52251 -27.83443,-22.3491 -44.64594,-22.3491 -5.3205,0 -17.97296,2.53823 -19.30817,3.87344 -1.70458,1.70458 3.08474,14.59022 8.34732,22.45843 7.49273,11.20256 19.18535,19.5795 32.23536,23.09436 5.60989,1.51095 22.43077,2.01331 24.45041,0.73021 z m 57.22974,-0.66651 c 13.28933,-3.53659 25.50638,-12.34811 32.98073,-23.78727 4.19303,-6.41725 8.46436,-17.44465 7.89094,-20.37228 -0.81829,-4.17788 -18.6661,-6.55359 -30.42031,-4.04922 -16.34914,3.48337 -32.17436,15.52596 -39.3514,29.94542 -1.85093,3.71872 -3.12979,6.99686 -2.8419,7.28474 0.28789,0.28789 7.93594,-3.7672 16.99567,-9.01131 9.05973,-5.24411 17.35809,-9.53474 18.4408,-9.53474 4.86214,0 7.53993,6.23945 4.13785,9.64153 -0.80463,0.80463 -8.76666,5.66669 -17.69341,10.80458 -8.92675,5.13789 -15.63716,9.57885 -14.91204,9.86881 2.81116,1.12409 19.59096,0.58881 24.77307,-0.79026 z m -56.6096,-87.27466 c 0.25471,-0.4125 -6.5582,-4.8 -15.13979,-9.75 -8.58159,-4.95 -16.41343,-9.7875 -17.40408,-10.75 -3.45072,-3.35265 -1.08168,-9.75 3.61059,-9.75 1.15599,0 9.52374,4.26452 18.59501,9.47672 9.07126,5.21219 16.63818,9.05229 16.81536,8.53354 0.76704,-2.24567 -7.60735,-15.68435 -13.35624,-21.43324 -9.88873,-9.88873 -25.76253,-16.54229 -39.46591,-16.54229 -5.28023,0 -17.96907,2.53434 -19.28689,3.85216 -1.07751,1.07751 1.51616,10.65076 4.49281,16.58301 6.85269,13.65695 20.7871,24.91875 35.79408,28.92881 5.72244,1.52911 24.53635,2.16103 25.34506,0.85129 z m 56.6096,-0.72534 c 19.30124,-5.1365 35.34525,-20.99898 40.22392,-39.76882 0.85033,-3.27148 0.91164,-5.06562 0.19751,-5.77975 -0.56958,-0.56958 -4.59971,-1.76825 -8.95584,-2.66373 -17.85753,-3.67088 -36.41063,2.27539 -49.85302,15.97791 -4.65228,4.7423 -8.21735,9.54367 -10.41702,14.02942 -1.83929,3.75084 -3.13447,7.02939 -2.87818,7.28567 0.25628,0.25628 7.89987,-3.82508 16.98574,-9.06969 9.08587,-5.24462 17.38382,-9.53567 18.43987,-9.53567 4.68402,0 7.34955,5.82837 4.32966,9.46711 -0.67249,0.81029 -8.37435,5.58676 -17.11524,10.61436 -8.7409,5.0276 -15.64538,9.54102 -15.34328,10.02981 0.87978,1.42352 18.41774,1.00163 24.38588,-0.58662 z M 403.82431,62.807488 c 3.00305,-2.428915 4.64052,-2.408145 7.13922,0.09056 1.86636,1.866364 2.0018,3.353065 2.0269,22.249995 l 0.0269,20.249997 2.93433,-3.5 C 425.48643,90.525193 430.08422,71.020453 426.84242,55.697269 424.54814,44.8528 415.53216,29.28241 409.1106,25.074843 c -2.38432,-1.562268 -2.54062,-1.478565 -7.81001,4.182602 -11.3357,12.17848 -16.73561,29.317306 -14.29981,45.386328 1.46882,9.68991 3.92611,16.06336 9.26127,24.02091 l 4.20148,6.266637 0.5,-20.107197 c 0.48839,-19.640207 0.55483,-20.151537 2.86078,-22.016633 z m -335.81,417.332762 c -3.04765,-2.46784 -3.0989,-7.97508 -0.0968,-10.406 4.5898,-3.7166 11.06274,-0.83314 11.03074,4.91379 -0.0184,3.30935 -0.78358,4.58156 -3.66894,6.1003 -3.01499,1.58696 -4.73162,1.44328 -7.26496,-0.60809 z m 232.60421,-4.07095 c -3.80565,-4.20519 -0.74452,-11.42126 4.84501,-11.42126 5.68842,0 8.83985,7.82249 4.67126,11.59501 -2.42729,2.19667 -7.45414,2.10488 -9.51627,-0.17375 z m 172.34501,-33.8807 c -5.1115,-1.87946 -6.61378,-7.67678 -2.94104,-11.34952 4.50894,-4.50894 12.93742,0.2409 11.38725,6.41725 -0.53996,2.15136 -5.10215,5.96964 -6.64655,5.56276 -0.16481,-0.0434 -0.97466,-0.32714 -1.79966,-0.63049 z m -324.81144,-5.32952 c -4.34187,-4.04506 -1.33362,-11.96104 4.54546,-11.96104 2.91945,0 7.26598,4.18741 7.26598,7 0,2.81259 -4.34653,7 -7.26598,7 -1.2963,0 -3.34175,-0.91753 -4.54546,-2.03896 z m 162.46643,-3.78978 c -2.19667,-2.42729 -2.10488,-7.45414 0.17375,-9.51627 2.42729,-2.19667 7.45414,-2.10488 9.51627,0.17375 2.19667,2.42729 2.10488,7.45414 -0.17375,9.51627 -2.42729,2.19667 -7.45414,2.10488 -9.51627,-0.17375 z"
       id="path1"
       inkscape:export-filename="/home/dusoudeth/Documentos/github/isadora-urel-landing-page/src/assets/images/services_tree_00_white.png"
       inkscape:export-xdpi="96"
       inkscape:export-ydpi="96" />
  </g>
</svg>
