<?xml version="1.0" encoding="UTF-8" standalone="no"?>
<!-- Created with Inkscape (http://www.inkscape.org/) -->

<svg
   version="1.1"
   id="svg1"
   width="512"
   height="512"
   viewBox="0 0 512 512"
   sodipodi:docname="services_tree_00.svg"
   inkscape:version="1.1.2 (0a00cf5339, 2022-02-04)"
   inkscape:export-filename="/home/dusoudeth/Documentos/github/isadora-urel-landing-page/src/assets/images/services_tree_00_white.png"
   inkscape:export-xdpi="96"
   inkscape:export-ydpi="96"
   xml:space="preserve"
   xmlns:inkscape="http://www.inkscape.org/namespaces/inkscape"
   xmlns:sodipodi="http://sodipodi.sourceforge.net/DTD/sodipodi-0.dtd"
   xmlns="http://www.w3.org/2000/svg"
   xmlns:svg="http://www.w3.org/2000/svg"><defs
     id="defs1" /><sodipodi:namedview
     id="namedview1"
     pagecolor="#ffffff"
     bordercolor="#000000"
     borderopacity="0.25"
     inkscape:showpageshadow="2"
     inkscape:pageopacity="0.0"
     inkscape:pagecheckerboard="0"
     inkscape:deskcolor="#d1d1d1"
     showgrid="false"
     inkscape:zoom="1.1269514"
     inkscape:cx="236.92237"
     inkscape:cy="287.94498"
     inkscape:window-width="1868"
     inkscape:window-height="1016"
     inkscape:window-x="52"
     inkscape:window-y="27"
     inkscape:window-maximized="1"
     inkscape:current-layer="g1"
     inkscape:pageshadow="2"
     inkscape:object-paths="false" /><g
     inkscape:groupmode="layer"
     inkscape:label="Image"
     id="g1"><path
       id="path1"
       style="stroke-width:0;fill:#800080"
       d="M 240.98047 100.83594 L 257.66211 107.55859 L 265.41797 99.150391 C 287.17697 75.561925 295.67842 69.151972 311.80273 64.117188 C 321.9614 60.945154 339.96243 60.945154 350.12109 64.117188 C 362.49623 67.981299 369.85731 72.431184 378.90234 81.519531 C 387.97198 90.63257 392.25592 97.171171 395.71875 107.12891 C 399.68589 118.53645 400.27489 125.40445 399.13867 147.19141 C 398.5723 158.05168 398.00405 173.2116 397.87305 180.92969 C 397.75747 187.73687 397.69958 191.22929 397.98242 193.42578 C 398.2653 195.62228 399.16283 196.66374 400.29688 197.58203 C 403.61685 200.26966 408.61339 200.33383 411.44141 197.50586 C 411.91888 197.02838 412.50773 196.44646 412.87305 195.36719 C 413.23835 194.28791 413.47261 192.74764 413.71875 189.87695 C 414.21102 184.13556 414.70016 173.06407 415.7207 150.46094 C 417.09349 120.05664 415.41993 108.0407 407.60156 92.498047 C 385.97706 49.509197 335.07133 32.774773 291.70898 54.390625 C 281.35958 59.549728 273.09609 66.628021 255.76562 85.087891 L 240.98047 100.83594 z " /><path
       id="path2038"
       style="stroke-width:0;fill:#800080"
       d="M 104.37305 448.6875 C 104.01376 448.12752 103.76342 447.81843 103.39258 447.22852 C 102.09669 445.16708 100.73255 442.92411 99.3125 440.49219 C 97.892447 438.06027 96.416425 435.44096 94.898438 432.63086 C 94.76708 432.38769 94.626125 432.09759 94.494141 431.85156 C 94.706928 432.37463 94.909572 432.88762 95.007812 433.22266 L 93.666016 435.27148 C 92.765333 436.11916 91.532419 437.1376 90.111328 438.21094 C 87.269146 440.35761 83.665796 442.73374 80.353516 444.54688 C 76.965218 446.40161 70.631683 448.86796 66.564453 449.9082 C 61.865858 451.1099 56.187451 451.79124 51.333984 451.73828 C 47.549443 451.69698 42.653998 451.14505 38.537109 450.4043 C 36.478665 450.03392 34.610129 449.61616 33.181641 449.20117 C 31.989562 448.85488 31.368671 448.51606 31.052734 448.3418 C 31.175911 448.07832 31.337831 447.7591 31.634766 447.3125 C 32.354798 446.22957 33.530153 444.7545 34.990234 443.16211 C 48.208998 428.74544 60.680862 404.15902 67.296875 379.63477 C 68.165856 376.41363 68.753109 374.37994 69.236328 372.71875 C 69.385187 373.05645 69.477628 373.21074 69.648438 373.62695 C 70.575119 375.88507 71.799 379.23424 73.083984 383.09961 C 77.588796 396.65051 83.974968 411.72847 89.84375 422.81055 C 88.376763 419.84111 86.891318 416.75018 85.386719 413.44727 C 83.751561 409.85775 82.099707 406.06888 80.445312 402.07812 C 78.790918 398.08737 77.133727 393.89383 75.486328 389.49414 C 73.83893 385.09445 72.20206 380.48819 70.587891 375.67188 C 68.973721 370.85556 67.382833 365.82852 65.828125 360.58789 C 64.273417 355.34727 62.754171 349.89333 61.285156 344.2207 C 60.443039 340.96885 59.658738 337.48369 58.851562 334.08789 C 58.564983 337.4536 58.276999 340.41708 58.011719 342.20703 C 51.452841 386.46248 37.92479 417.67106 16.542969 438.27539 C 12.02561 442.62849 9.3503663 445.51347 8.0332031 448.00586 C 7.3746222 449.25206 7.0639397 450.43808 7.1425781 451.5918 C 7.2212111 452.7455 7.6785558 453.80397 8.3496094 454.82812 C 9.6422731 456.801 12.672646 458.59736 16.753906 460.51758 C 20.835166 462.43781 25.939315 464.31329 31.158203 465.71289 C 41.9266 468.60079 60.542018 468.8758 70.486328 466.25781 C 78.733384 464.08658 92.94582 457.08269 99.84375 451.79492 C 101.23886 450.72545 102.58859 449.75607 103.62109 449.06641 L 104.37305 448.6875 z " /><path
       id="path9150"
       style="stroke-width:0;fill:#ffffff"
       d="M 192.28516 98.019531 C 192.20366 98.055961 192.12613 98.093181 192.04102 98.128906 C 190.5591 98.750974 188.46203 99.25687 185.0625 99.900391 C 156.86036 105.23895 132.29164 121.03507 113.60156 145.79688 C 107.33017 154.10557 99.676151 166.48803 93.564453 177.59375 C 90.508611 183.14662 87.843254 188.37387 85.929688 192.62305 C 84.972904 194.74762 84.202922 196.62808 83.666016 198.19531 C 83.129109 199.76251 82.806641 200.98015 82.806641 202.00391 C 82.806641 208.27543 90.916514 212.3046 95.691406 208.3418 C 96.218736 207.90415 96.472001 207.42727 96.988281 206.61133 C 97.504561 205.79539 98.136381 204.72457 98.851562 203.45508 C 100.28194 200.91612 102.03942 197.60091 103.78711 194.10742 C 115.54025 170.61384 128.80786 151.12696 139.94922 140.84766 C 179.15774 104.67292 239.20332 105.69744 276.72656 143.16992 C 289.42758 155.85375 297.84198 170.835 303.12891 190.23047 C 304.72528 196.08686 305.09564 200.26819 305.11719 212.86914 C 305.14069 226.59784 304.86965 229.31217 302.6582 237.53711 C 299.47073 249.39193 294.96776 259.11461 287.15039 270.9668 C 278.70416 283.77244 275.4565 292.15218 274.86719 302.87109 C 274.56649 308.34062 274.87718 312.43619 276.62695 317.09375 C 278.3769 321.75132 281.51272 326.93767 286.82227 334.86328 C 291.21192 341.41571 296.26966 350.28935 297.93555 354.29102 C 316.15463 398.05519 301.42327 448.40656 262.80078 474.46875 C 227.88434 498.03013 182.1007 497.2126 148.69141 472.44531 C 123.3438 453.65433 95.626916 406.52364 84.400391 362.68945 C 79.752346 344.5411 78.036304 332.15474 77.400391 312.11133 C 76.59296 286.66248 79.136568 265.25076 85.886719 240.66406 C 86.67939 237.77679 87.400029 234.93191 87.923828 232.66406 C 88.18574 231.53016 88.399271 230.54414 88.548828 229.75781 C 88.698385 228.97147 88.792969 228.45109 88.792969 227.97266 C 88.792969 224.8289 86.236031 222.53174 83.357422 221.58789 C 80.478813 220.64406 77.004417 220.92624 74.855469 223.30078 C 73.723991 224.55106 72.826043 226.89811 71.693359 230.30273 C 70.560675 233.70735 69.339519 238.07319 68.150391 242.91406 C 65.772159 252.59585 63.518776 264.16074 62.380859 273.59375 C 61.75183 278.8082 60.881558 293.87088 60.421875 307.27734 C 60.106465 316.47601 59.485166 326.64657 58.851562 334.08789 C 59.658738 337.48369 60.443039 340.96885 61.285156 344.2207 C 62.754171 349.89333 64.273417 355.34727 65.828125 360.58789 C 67.382833 365.82852 68.973721 370.85556 70.587891 375.67188 C 72.20206 380.48819 73.83893 385.09445 75.486328 389.49414 C 77.133727 393.89383 78.790918 398.08737 80.445312 402.07812 C 82.099707 406.06888 83.751561 409.85775 85.386719 413.44727 C 86.891318 416.75018 88.376763 419.84111 89.84375 422.81055 C 90.51162 424.07169 91.177323 425.31637 91.828125 426.46484 C 92.870541 428.30441 93.768797 430.11059 94.365234 431.50586 C 94.425256 431.64627 94.44052 431.71975 94.494141 431.85156 C 94.626125 432.09759 94.76708 432.38769 94.898438 432.63086 C 96.416425 435.44096 97.892447 438.06027 99.3125 440.49219 C 100.73255 442.92411 102.09669 445.16708 103.39258 447.22852 C 103.76342 447.81843 104.01376 448.12752 104.37305 448.6875 L 104.95898 448.39258 C 105.28737 448.766 105.75014 449.33808 106.29102 450.04688 C 107.3728 451.4644 108.78301 453.43645 110.24609 455.59961 C 119.91744 469.89867 134.01452 483.49684 148.05273 492.05078 C 159.89897 499.26909 177.37673 505.36483 192.26562 507.49023 C 201.53077 508.81282 222.38227 507.82222 232.08008 505.61523 C 304.40545 489.15574 342.85177 410.59732 311.26367 343.80469 C 308.91862 338.84613 303.72073 330.01669 299.61328 323.99414 C 297.52879 320.93777 295.61874 317.86445 294.19336 315.32031 C 292.76801 312.77613 291.82659 310.61721 291.70898 309.99023 C 290.04453 301.11803 292.95269 291.86554 301.7832 278.7793 C 325.61258 243.46568 329.07662 201.34399 311.23438 163.61719 C 301.04384 142.06966 285.63424 125.21598 265.33594 113.42188 L 258.83398 109.64453 L 242.15234 102.92188 L 235.72852 101.23828 C 231.77502 100.20182 225.45268 99.089284 221.47266 98.734375 C 219.54832 98.562768 217.79768 98.36018 216.54883 98.173828 C 216.40511 98.152368 216.34872 98.134241 216.21875 98.113281 L 192.28516 98.019531 z " /><path
       id="path2241"
       style="stroke-width:0;fill:#800080"
       d="M 330.89844 6 C 329.71387 5.9989887 328.5295 6.0145185 327.3457 6.046875 C 302.09136 6.7371481 277.09664 15.021141 256.15039 30.792969 C 250.32854 35.176626 239.29174 46.035843 222.53125 63.791016 C 208.76744 78.371685 196.11766 91.741366 194.48633 93.435547 C 193.33417 94.632077 192.45122 95.335662 191.11328 95.933594 L 215.04688 96.027344 C 215.2569 95.792485 215.39803 95.631793 215.66992 95.332031 C 216.78731 94.1001 218.40839 92.340262 220.41016 90.185547 C 224.41368 85.87613 229.93879 79.986762 236.01562 73.5625 C 264.92444 43.000977 275.82263 34.926223 297.81836 27.746094 C 326.30718 18.446401 359.29999 21.93114 385.00781 36.945312 C 413.54057 53.609334 435.31064 85.395574 438.98633 115.64453 C 439.86809 122.90093 439.78563 126.41446 438.51172 135.82617 C 429.92615 199.25703 429.05691 237.46488 435.08984 286.97266 C 441.88573 342.74129 454.64687 385.53676 483.68359 449.99805 C 484.84776 452.58252 485.41564 454.00045 486.11328 455.66797 C 486.07251 455.61069 486.05703 455.5897 486.01562 455.53125 C 484.19977 452.97177 481.68451 449.25899 478.42188 444.36328 C 468.0971 428.87061 461.29735 416.98999 451.13281 396.6875 C 433.42426 361.31668 423.64534 333.31293 420.07422 307.87305 C 417.16585 287.15449 413.82466 240.80453 413.80078 220.86719 C 413.79697 217.80689 413.18624 215.33558 411.83984 213.56836 C 410.49346 211.80113 408.39765 210.86914 405.93164 210.86914 C 403.40059 210.86914 401.38782 211.83953 399.63867 213.87305 C 398.51324 215.18145 397.73219 216.33562 397.49414 218.7168 C 397.25609 221.09799 397.38437 224.80099 397.64258 232.03906 C 398.35461 252.0037 399.78704 275.58151 401.12695 289.39844 L 402.18359 300.30859 L 397.08594 306.6543 C 379.01554 329.14709 369.10602 355.44975 365.875 389.34766 C 365.23189 396.09477 365.07851 404.96561 365.30859 412.67578 C 365.42367 416.53086 365.63444 420.09115 365.93164 422.95703 C 366.22884 425.82293 366.54634 427.9113 367.13672 429.20703 C 369.02094 433.34244 373.87402 434.95719 377.96094 432.84375 C 378.84341 432.38742 379.68937 431.8035 380.38867 431.19727 C 381.08799 430.59104 381.64994 430.03649 381.94727 429.26172 C 382.0711 428.93906 382.0814 428.73199 382.11523 428.41992 C 382.14902 428.10787 382.17669 427.73293 382.19727 427.28906 C 382.23854 426.40132 382.25611 425.24405 382.25586 423.88477 C 382.25528 421.16619 382.17537 417.64262 382.01367 413.95508 C 381.65898 405.869 382.19318 394.39115 383.10547 384.98242 C 383.56161 380.27807 384.11438 376.08467 384.68555 373.10742 C 384.97112 371.61881 385.26648 370.4292 385.53125 369.67969 C 385.6053 369.47012 385.65282 369.3983 385.71484 369.26758 C 385.98816 369.40437 386.32522 369.58353 386.74414 369.82422 C 387.67501 370.35902 388.88439 371.10861 390.12695 371.93164 C 394.5793 374.88074 402.08639 384.42828 404.57031 390.45508 C 406.23686 394.49872 408.41584 397.2942 411.04492 398.56055 C 413.674 399.82689 416.69753 399.3408 419.33984 397.20117 C 421.21605 395.68193 422.05934 393.37867 421.79102 390.61523 C 421.52269 387.85179 420.27807 384.54853 418.10547 380.41406 C 411.65414 368.13714 403.92807 360.20806 391.33594 352.92773 C 390.93656 352.69683 390.78577 352.55266 390.76367 352.51758 C 390.74157 352.48252 390.69102 352.43139 390.76367 351.98242 C 390.90906 351.08463 391.67883 349.0604 393.22461 345.31641 C 394.90629 341.24328 397.83765 335.54912 400.53711 330.84375 C 401.88683 328.49107 403.18021 326.38044 404.22266 324.84766 C 404.73525 324.09394 405.18392 323.48589 405.53516 323.06641 C 405.60323 323.21834 405.65115 323.27973 405.72461 323.47656 C 406.08633 324.44522 406.48715 325.90111 406.80664 327.53906 C 410.12976 344.57605 423.62895 379.41149 437.25977 406.32031 L 444.56055 420.73047 L 442.39844 424.1543 C 435.14635 435.64237 429.09671 455.16658 427.15234 473.09375 C 426.59617 478.22172 426.3148 480.94466 426.42969 482.86914 C 426.54463 484.79362 427.19355 485.94143 428.15234 487.23047 C 430.01128 489.72968 432.85289 490.91626 435.51172 490.80078 C 438.17056 490.68533 440.73138 489.1933 441.74219 486.45703 C 442.09834 485.49291 442.42688 483.77734 442.79883 481.50195 C 443.17077 479.22656 443.54435 476.47553 443.83203 473.77734 C 444.97949 463.0149 448.57015 449.50875 452.44922 441.25781 L 454.25195 437.41797 L 459.56641 446.06641 C 463.97182 453.23515 468.50799 459.86291 472.4082 464.95312 C 474.35831 467.49825 476.14845 469.66057 477.69727 471.32031 C 479.24607 472.98007 480.49928 474.13527 481.64648 474.72852 C 485.93107 476.94413 492.97689 476.16408 498.66211 473.26367 C 501.34389 471.89554 503.15359 470.66741 504.28516 469.0293 C 505.41672 467.39118 505.73536 465.44861 505.64062 463.01562 C 505.54449 460.546 505.06628 458.16434 503.42969 453.85547 C 501.79309 449.54661 498.99143 443.23988 494.17188 432.67969 C 488.6495 420.57961 482.41629 405.44902 477.73438 393.19727 C 475.39342 387.07139 473.43915 381.66141 472.1582 377.72461 C 471.51773 375.75621 471.04525 374.15203 470.78125 373.03906 C 470.69133 372.65999 470.66123 372.43515 470.62109 372.18555 C 470.71254 372.18809 470.75858 372.18115 470.86328 372.1875 C 471.53243 372.22967 472.44744 372.34698 473.39844 372.52539 C 478.7015 373.52025 483.97742 378.14799 487.83984 385.58398 C 489.96639 389.67804 491.74593 392.33407 493.78125 393.82227 C 495.81656 395.31046 498.17397 395.38861 500.56445 394.39844 C 503.95321 392.99477 505.78208 390.13734 505.625 386.50977 C 505.46791 382.88218 503.60933 378.48175 500.18945 373.15234 C 493.55283 362.81007 483.37055 356.60431 471.36328 355.59766 L 465.31055 355.08789 L 463.47266 348.26953 C 455.63975 319.24043 450.05557 282.54644 448.26562 248.30859 L 447.69531 237.37109 L 450.7168 239.43164 C 465.55977 249.54876 479.81619 267.65601 487.30078 285.95898 C 488.21428 288.19288 489.27703 290.40737 490.27148 292.20508 C 491.26593 294.00277 492.05236 295.31596 492.96875 296.06055 C 495.10684 297.79776 497.63779 298.35125 499.89453 297.7168 C 502.15128 297.08236 504.07463 295.29368 505.1582 292.67773 C 505.70033 291.36891 505.95068 290.09733 505.66406 288.47656 C 505.37745 286.8558 504.64478 284.86025 503.33789 281.57031 C 497.2141 266.15457 489.72006 254.01491 479.70117 243.30469 C 478.12377 241.61843 476.68759 239.91427 475.66211 238.55273 C 475.14937 237.87197 474.73925 237.27212 474.47461 236.82812 C 474.28366 236.50777 474.20644 236.19447 474.17773 236.17188 C 474.2288 235.91427 474.41781 235.36913 474.78516 234.75195 C 475.22185 234.01824 475.86694 233.15829 476.62695 232.30273 C 478.14699 230.59162 480.14521 228.88915 481.75391 228.04102 C 483.35816 227.19521 487.07691 226.49869 491.63867 226.4043 C 496.35502 226.30675 499.2095 226.12771 501.2793 225.39258 C 503.3491 224.65744 504.50017 223.19468 505.31055 221.23828 C 506.14659 219.21989 506.27105 217.27401 505.66016 215.58594 C 505.04926 213.89787 503.73518 212.53653 501.96875 211.56445 C 498.43591 209.62031 493.04878 209.05561 486.42188 210.02148 C 476.75358 211.43065 470.05693 214.81496 464.25195 221.27148 L 460.33203 225.62891 L 454.09375 222.31641 L 447.71289 218.92969 L 448.31055 204.49414 C 449.00915 187.63127 451.09633 165.15046 453.31641 150.57422 C 457.16553 125.3022 456.9087 113.83263 452.08398 97.183594 C 444.25446 70.165158 423.92017 42.65951 400.10742 26.853516 C 379.14883 12.941993 354.9846 6.0205633 330.89844 6 z " /><path
       style="fill:#000000;stroke:#ffffff;stroke-width:0"
       d="m 215.04688,96.027344 -24.31933,-0.0948"
       id="path2041" /></g></svg>
