<?xml version="1.0" encoding="UTF-8" standalone="no"?>
<!-- Created with Inkscape (http://www.inkscape.org/) -->

<svg
   version="1.1"
   id="svg1"
   width="512"
   height="512"
   viewBox="0 0 512 512"
   sodipodi:docname="about_icon_00_lattes.svg"
   inkscape:version="1.1.2 (0a00cf5339, 2022-02-04)"
   inkscape:export-filename="/home/dusoudeth/Documentos/github/isadora-urel-landing-page/src/assets/images/contact_lattes.png"
   inkscape:export-xdpi="96"
   inkscape:export-ydpi="96"
   xmlns:inkscape="http://www.inkscape.org/namespaces/inkscape"
   xmlns:sodipodi="http://sodipodi.sourceforge.net/DTD/sodipodi-0.dtd"
   xmlns="http://www.w3.org/2000/svg"
   xmlns:svg="http://www.w3.org/2000/svg">
  <defs
     id="defs1" />
  <sodipodi:namedview
     id="namedview1"
     pagecolor="#ffffff"
     bordercolor="#000000"
     borderopacity="0.25"
     inkscape:showpageshadow="2"
     inkscape:pageopacity="0.0"
     inkscape:pagecheckerboard="0"
     inkscape:deskcolor="#d1d1d1"
     showgrid="false"
     inkscape:zoom="1.1269514"
     inkscape:cx="31.05724"
     inkscape:cy="234.704"
     inkscape:window-width="1868"
     inkscape:window-height="1016"
     inkscape:window-x="52"
     inkscape:window-y="27"
     inkscape:window-maximized="1"
     inkscape:current-layer="g1"
     inkscape:pageshadow="2"
     inkscape:object-paths="true" />
  <g
     inkscape:groupmode="layer"
     inkscape:label="Image"
     id="g1">
    <path
       style="fill:#9ad6c7;fill-opacity:1;stroke-width:0.244135"
       d="m 133.02163,504.98016 c -3.15598,-2.90894 -7.7783,-11.34954 -21.67291,-39.57576 -4.46148,-9.06328 -10.72117,-21.86175 -13.910422,-28.44102 -3.18926,-6.57928 -8.07718,-16.63128 -10.86206,-22.33779 -2.78487,-5.70652 -6.73608,-13.83601 -8.78047,-18.06554 -2.04438,-4.22954 -7.12829,-14.72097 -11.29756,-23.31431 -25.0556,-51.64239 -38.32153,-79.4428 -41.33935,-86.63178 -0.86725,-2.06596 -0.83313,-2.42932 0.28536,-3.03908 1.11032,-0.6053 6.43942,-0.007 16.08931,1.8075 7.05007,1.32538 14.687,2.79559 18.18848,3.50157 33.20414,6.6946 61.129052,10.77384 86.914062,12.69631 22.26352,1.65988 56.42647,2.03738 80.05885,0.88463 25.61837,-1.24963 50.07015,-4.46166 72.69408,-9.54923 24.14509,-5.42964 48.39809,-14.276 67.30542,-24.54989 20.74116,-11.27033 32.24751,-20.47311 43.15786,-34.51764 9.96013,-12.82131 13.99692,-22.26102 15.50325,-36.25313 0.37966,-3.52658 0.37102,-15.72108 -0.0139,-19.65238 -1.2021,-12.27666 -3.91567,-20.58349 -13.39787,-41.01365 -2.88648,-6.21915 -5.75899,-13.8202 -6.899,-18.25572 -0.64107,-2.4942 -0.88252,-6.14034 -0.48616,-7.34126 0.3783,-1.14617 1.12119,-1.63308 3.04265,-1.99414 2.50281,-0.47031 4.86814,0.39966 9.66472,3.55468 14.7959,9.73223 43.31912,38.41057 57.7782,58.09241 14.51165,19.75342 24.23862,42.77599 27.64253,65.42655 1.84607,12.28431 1.84507,26.10065 -0.003,38.32824 -2.38225,15.76384 -7.77565,31.95964 -15.81245,47.48307 -16.9632,32.76519 -37.50136,55.9059 -73.87758,83.23924 -22.06539,16.58006 -46.21314,30.78868 -74.52969,43.85355 -16.99685,7.84214 -41.70061,17.35278 -61.0908,23.51923 -4.09546,1.30243 -8.27026,2.63103 -9.27734,2.95243 -3.74868,1.19635 -18.34304,5.48101 -22.70508,6.66586 -2.48413,0.67475 -5.94482,1.61501 -7.69043,2.08945 -1.7456,0.47447 -8.44727,2.1791 -14.89258,3.7881 -36.32374,9.06778 -74.3045,16.78982 -86.14329,17.51415 L 134.12789,506 133.02143,504.98016 Z M 220.1224,297.67618 c -0.80567,-0.10796 -2.45362,-0.31972 -3.66211,-0.47056 -33.81873,-4.22165 -54.08264,-6.76369 -59.44824,-7.4576 -3.69263,-0.47755 -10.0647,-1.30082 -14.16016,-1.8295 -4.09546,-0.52869 -9.97314,-1.29623 -13.06152,-1.70564 -3.08838,-0.4094 -9.84497,-1.29041 -15.01465,-1.95779 -14.54572,-1.87777 -35.546892,-4.65505 -64.575192,-8.53968 -9.0116,-1.20595 -19.01017,-2.61281 -21.07196,-2.96496 -1.37788,-0.23534 -1.60241,-0.357 -2.12446,-1.151 -1.42745,-2.17106 -4.76236,-11.81103 -7.52809,-21.76087 -3.30412,-11.88672 -6.79836,-26.73773 -7.69698,-32.71327 -1.03159,-6.85965 -2.38373,-19.63966 -3.07368,-29.05134 -2.60701,-35.56244 1.32068,-63.86758 12.31704,-88.763363 5.3329,-12.07372 13.40705,-24.713632 22.90954,-35.864447 11.05929,-12.977656 20.95066,-21.445929 34.72505,-29.729072 11.42878,-6.872622 24.918092,-12.803527 38.438062,-16.900224 51.85312,-15.7120524 117.26153,-14.2878689 190.42969,4.146359 24.36594,6.138835 58.05078,17.104546 71.75291,23.358326 10.25437,4.680195 14.34236,8.240534 12.3581,10.762973 -1.10608,1.406092 -4.27273,2.029963 -12.21159,2.405824 -8.74617,0.414091 -22.92273,-0.101845 -47.60743,-1.732596 -19.39978,-1.281609 -31.43864,-1.626072 -43.21289,-1.236411 -25.18054,0.83333 -43.5079,3.7383 -60.54687,9.596979 -18.18079,6.25128 -30.56354,14.953692 -38.80563,27.27202 -13.4792,20.145512 -15.53668,50.187372 -6.10146,89.088952 4.10143,16.9103 11.9134,39.71173 20.22978,59.04632 5.1389,11.94734 9.30432,20.82553 17.78148,37.89953 7.23984,14.58192 7.43688,15.06369 7.0356,17.20259 -0.19904,1.06094 -1.43426,2.52559 -2.50849,2.97442 -0.85287,0.35633 -3.22351,0.38785 -5.56585,0.074 z m 86.32597,-62.24693 c -10.26474,-0.84479 -25.53752,-4.93098 -37.80427,-10.11445 -7.85803,-3.32051 -16.13913,-7.73689 -22.97856,-12.2547 -7.6515,-5.05421 -12.84971,-9.25883 -18.96877,-15.34304 -12.22216,-12.15257 -19.37243,-25.121 -21.46913,-38.93856 -0.54927,-3.61976 -0.74205,-10.94427 -0.38232,-14.52567 1.04483,-10.40188 4.16291,-17.3317 11.12317,-24.72075 6.64346,-7.05276 17.23631,-14.32253 25.56154,-17.54266 16.44151,-6.359446 42.35665,-6.296569 67.33748,0.16337 5.02183,1.29863 13.68953,4.21807 18.00552,6.06459 14.9052,6.37692 29.31907,15.78788 40.58672,26.49951 14.4617,13.74802 21.90486,26.60846 23.67156,40.9001 0.32917,2.66285 0.32869,8.83031 0,11.48687 -1.91946,15.47004 -10.62822,28.53384 -24.65545,36.985 -8.71826,5.25261 -21.69477,8.96481 -38.07617,10.89246 -4.79748,0.56454 -17.40693,0.82185 -21.95039,0.44793 z"
       id="path15411" />
  </g>
</svg>
