<?xml version="1.0" encoding="UTF-8" standalone="no"?>
<!-- Created with Inkscape (http://www.inkscape.org/) -->

<svg
   version="1.1"
   id="svg1"
   width="512"
   height="512"
   viewBox="0 0 512 512"
   sodipodi:docname="about_icon_03_youtube.svg"
   inkscape:version="1.1.2 (0a00cf5339, 2022-02-04)"
   inkscape:export-filename="/home/dusoudeth/Documentos/github/isadora-urel-landing-page/src/assets/images/about_icon_03_youtube.png"
   inkscape:export-xdpi="96"
   inkscape:export-ydpi="96"
   xmlns:inkscape="http://www.inkscape.org/namespaces/inkscape"
   xmlns:sodipodi="http://sodipodi.sourceforge.net/DTD/sodipodi-0.dtd"
   xmlns="http://www.w3.org/2000/svg"
   xmlns:svg="http://www.w3.org/2000/svg">
  <defs
     id="defs1" />
  <sodipodi:namedview
     id="namedview1"
     pagecolor="#ffffff"
     bordercolor="#000000"
     borderopacity="0.25"
     inkscape:showpageshadow="2"
     inkscape:pageopacity="0.0"
     inkscape:pagecheckerboard="0"
     inkscape:deskcolor="#d1d1d1"
     showgrid="false"
     inkscape:zoom="1.1269514"
     inkscape:cx="281.28985"
     inkscape:cy="234.70399"
     inkscape:window-width="1868"
     inkscape:window-height="1016"
     inkscape:window-x="52"
     inkscape:window-y="27"
     inkscape:window-maximized="1"
     inkscape:current-layer="g1"
     inkscape:pageshadow="2"
     inkscape:object-paths="true" />
  <g
     inkscape:groupmode="layer"
     inkscape:label="Image"
     id="g1">
    <path
       style="fill:#800080;stroke-width:0.977957"
       d="M 234.6773,444.98949 C 80.949962,441.39033 66.831495,439.90364 44.493193,424.96288 23.241591,410.74894 11.971972,386.0326 8.8690994,346.8327 5.3139114,301.91855 5.0114974,217.55019 8.2486444,173.73424 11.446545,130.44948 19.669895,108.29539 38.811906,91.395328 49.708082,81.775327 63.076292,75.55008 78.204122,73.051334 97.360742,69.88713 183.7381,66.85555 255.2144,66.838816 c 71.80449,-0.01681 158.4558,2.967368 178.32368,6.141277 32.21759,5.146785 54.58746,24.834515 63.61536,55.987927 6.98212,24.09386 8.75972,49.21097 8.84365,124.95872 0.0957,86.3868 -2.13637,111.74426 -12.11356,137.61599 -10.13271,26.275 -31.40785,42.78961 -60.70214,47.11942 -21.8428,3.22847 -152.70337,7.39966 -198.50409,6.32734 z m 110.0202,-30.75067 c 42.58234,-1.35115 80.67615,-3.60777 88.52358,-5.24401 15.3546,-3.20153 26.59878,-12.11575 32.262,-25.57685 9.32346,-22.16118 11.12182,-42.65385 11.14912,-127.04632 0.0262,-80.96364 -1.6347,-102.98328 -9.38301,-124.39678 -5.68933,-15.7232 -16.40403,-24.99832 -33.55756,-29.0489 -9.85508,-2.32713 -63.49759,-5.115362 -125.42304,-6.519212 -59.44849,-1.3477 -131.70264,-0.19885 -189.96822,3.02051 -37.308038,2.061392 -43.830588,3.150762 -53.422211,8.922292 -17.244814,10.37666 -24.280904,27.4972 -27.474277,66.85162 -2.403419,29.61915 -2.411673,131.60019 -0.0131,161.85195 2.983279,37.62635 9.164184,54.41226 23.431089,63.6334 14.323341,9.25762 31.239581,11.227 117.133889,13.63667 20.70824,0.58095 43.37241,1.18505 50.3648,1.34245 19.15823,0.43127 82.16282,-0.34119 116.37692,-1.42682 z m -135.93607,-83.9679 c -7.34807,-1.78888 -12.66945,-6.62609 -15.02328,-13.65634 -0.7863,-2.34847 -1.11301,-21.88493 -1.11301,-66.55358 v -63.22928 l 2.47727,-4.97124 c 1.54794,-3.10632 3.99297,-6.02162 6.5176,-7.77119 3.52355,-2.44182 4.93233,-2.79995 11.01432,-2.79995 h 6.97399 l 56.4861,30.80566 c 31.06736,16.94311 58.23536,32.28144 60.37333,34.08517 9.98534,8.42427 9.1132,24.34985 -1.73247,31.63543 -7.15317,4.80514 -112.26124,60.76811 -116.56647,62.06379 -4.73732,1.42572 -5.09767,1.44072 -9.40738,0.39153 z m 54.82487,-57.02838 c 30.23279,-16.25913 40.15796,-22.0284 39.26973,-22.82656 -0.65376,-0.58747 -16.81152,-9.57211 -35.90614,-19.96586 -19.09461,-10.39375 -37.0279,-20.18749 -39.85176,-21.76386 l -5.13427,-2.86614 v 44.59042 c 0,24.52472 0.26191,44.59041 0.58204,44.59041 0.32012,0 18.78831,-9.79129 41.0404,-21.75841 z"
       id="path16186" />
  </g>
</svg>
