<?xml version="1.0" encoding="UTF-8" standalone="no"?>
<!-- Created with Inkscape (http://www.inkscape.org/) -->

<svg
   version="1.1"
   id="svg1"
   width="512"
   height="512"
   viewBox="0 0 512 512"
   sodipodi:docname="contact_01.svg"
   inkscape:version="1.1.2 (0a00cf5339, 2022-02-04)"
   inkscape:export-filename="/home/dusoudeth/Documentos/github/isadora-urel-landing-page/src/assets/images/contact_00.png"
   inkscape:export-xdpi="96"
   inkscape:export-ydpi="96"
   xmlns:inkscape="http://www.inkscape.org/namespaces/inkscape"
   xmlns:sodipodi="http://sodipodi.sourceforge.net/DTD/sodipodi-0.dtd"
   xmlns="http://www.w3.org/2000/svg"
   xmlns:svg="http://www.w3.org/2000/svg">
  <defs
     id="defs1" />
  <sodipodi:namedview
     id="namedview1"
     pagecolor="#ffffff"
     bordercolor="#000000"
     borderopacity="0.25"
     inkscape:showpageshadow="2"
     inkscape:pageopacity="0.0"
     inkscape:pagecheckerboard="0"
     inkscape:deskcolor="#d1d1d1"
     showgrid="false"
     inkscape:zoom="0.796875"
     inkscape:cx="412.86275"
     inkscape:cy="266.66667"
     inkscape:window-width="1868"
     inkscape:window-height="1016"
     inkscape:window-x="52"
     inkscape:window-y="27"
     inkscape:window-maximized="1"
     inkscape:current-layer="g1"
     inkscape:pageshadow="2"
     inkscape:object-paths="true"
     inkscape:snap-smooth-nodes="false" />
  <g
     inkscape:groupmode="layer"
     inkscape:label="Image"
     id="g1">
    <path
       id="path2251"
       style="fill:#9ad6c7;fill-opacity:1;stroke-width:1.02586"
       d="M 131.57227 330.02539 L 130.51562 298.67969 L 130.61523 314.58984 L 130.72656 316.98047 C 130.98432 322.51872 131.32398 327.64878 131.57227 330.02539 z " />
    <path
       id="path2697"
       style="fill:#9ad6c7;fill-opacity:1;stroke-width:1.02586"
       d="M 158.85352 357.50195 L 137.0625 343.65234 L 141.16406 347.35742 C 143.41973 349.39528 148.32152 352.51256 152.05859 354.2832 L 158.85352 357.50195 z " />
    <path
       id="path2695"
       style="fill:#9ad6c7;fill-opacity:1;stroke-width:1.02586"
       d="m 405.58927,62.682055 c -22.1593,0.0041 -51.43472,0.05315 -90.29088,0.121093 l -157.47049,0.27539 -4.61717,2.193356 c -7.42409,3.527296 -13.05789,8.190262 -16.87303,13.962871 -5.79744,8.772048 -6.72069,14.403047 -6.72069,40.958925 v 23.34371 l -51.037036,0.29297 -51.037036,0.29297 -5.64257,3.17773 C 15.283653,151.02902 9.3383841,158.29416 7.3730449,165.05104 6.2691855,168.84618 6,189.22896 6,269.27745 c 0,99.01114 0.010841,99.53242 2.1601531,104.1776 2.8712039,6.20531 7.8379159,11.71705 13.6249799,15.11911 4.627425,2.72034 5.163386,2.78891 24.218716,3.12109 11.476087,0.20008 20.015388,0.7791 20.773408,1.40821 0.965384,0.8012 1.287107,7.08805 1.287107,25.1523 v 24.08591 l 3.488276,3.48827 c 2.996405,2.99641 4.180191,3.48828 8.404285,3.48828 h 4.917962 l 28.839803,-28.72457 28.84175,-28.72457 72.26553,-0.01 72.26552,-0.01 5.1289,-2.43359 c 9.79621,-4.64478 16.18427,-13.95738 17.55076,-25.58395 l 0.68358,-5.8164 h 12.43163 12.42967 l 36.92183,36.93159 c 39.41424,39.42566 39.8405,39.76122 46.72844,36.90815 1.70239,-0.70515 4.002,-2.43541 5.11132,-3.84569 1.90915,-2.4271 2.01758,-4.30374 2.01758,-35.12691 0,-25.08983 0.29987,-32.81252 1.30468,-33.64643 0.80911,-0.6715 10.64079,-1.20621 25.90231,-1.40821 24.02065,-0.31796 24.73175,-0.38848 30.28707,-2.99414 7.07607,-3.31895 12.18875,-7.74467 16.24411,-14.06443 6.57744,-10.25002 6.35984,-5.45774 6.04883,-133.16778 C 505.60644,96.012728 505.52368,91.63649 503.62429,87.187879 498.60207,75.425104 490.77895,68.117725 479.43682,64.598067 474.5007,63.066296 472.06717,62.669681 405.58927,62.682055 Z m 9.12109,10.248032 c 70.74463,0.106449 65.15795,1.375344 71.96668,7.744129 9.34502,8.741163 8.66015,-1.549679 8.66015,130.128714 v 115.92366 l -2.93359,5.97265 c -2.85873,5.82192 -7.84288,10.57129 -13.99412,13.33592 -1.56255,0.70228 -12.71758,1.36401 -28.54878,1.69336 l -25.98435,0.54101 -3.5078,3.83203 -3.50976,3.83202 v 32.84175 c 0,30.6336 -0.12109,32.84371 -1.80078,32.84371 -1.00067,0 -17.52388,-15.77237 -37.18745,-35.49604 -19.59963,-19.65952 -36.86103,-36.13416 -38.6894,-36.92964 -2.74355,-1.19364 -17.92617,-1.4375 -89.89049,-1.4375 -94.98586,0 -91.07767,0.24364 -99.19518,-6.18554 -2.25133,-1.7831 -5.19581,-5.65632 -6.83202,-8.98827 l -2.87499,-5.85546 V 210.29122 93.855838 l 2.17968,-4.617181 c 2.62793,-5.56723 7.53083,-10.663216 13.15429,-13.673808 l 4.15624,-2.226559 155.3572,-0.273438 c 43.83052,-0.07694 75.89292,-0.17025 99.47447,-0.134765 z M 81.36708,153.86747 h 48.24993 l 0.89843,144.81229 1.05665,31.34566 c 0.0679,0.64994 0.12901,1.13466 0.17968,1.31641 0.0389,0.13937 0.005,0.26621 -0.12304,0.38281 v 0.006 l 5.43358,11.92185 21.79099,13.84959 70.65615,0.29688 70.65419,0.29687 -0.69726,5.24999 c -0.82492,6.2184 -2.43484,9.58224 -6.38867,13.33787 -6.45063,6.12739 -4.00189,5.94658 -81.61511,6.02538 -39.09072,0.0397 -71.83622,0.38405 -72.76748,0.76758 -0.93125,0.3835 -14.60181,13.2645 -30.37886,28.62301 -15.777043,15.35849 -28.980282,27.63094 -29.339802,27.27144 -0.359504,-0.35952 -0.652342,-10.74885 -0.652342,-23.0859 0,-33.68235 0.671051,-32.89466 -28.724569,-33.64839 -20.908825,-0.53613 -23.732015,-1.12492 -27.833945,-5.79491 -5.229572,-5.95381 -4.994133,-0.83414 -4.994133,-108.58969 0,-108.97908 -0.342692,-102.59042 5.806632,-108.43149 6.277147,-5.96214 6.184417,-5.95311 58.788979,-5.95311 z"
       sodipodi:nodetypes="ssccssccccssssssscssccccccsccccssssssssssssssccsccccssssssccccccccsscccscccccccssssssssscs" />
    <rect
       style="fill:none;fill-opacity:1;stroke:none"
       id="rect1128"
       width="615.4516"
       height="192.10838"
       x="-46.416206"
       y="413.19693" />
    <rect
       style="fill:none;fill-opacity:1;stroke:none"
       id="rect1357"
       width="222.26083"
       height="399.03256"
       x="-258.50992"
       y="-18.889477" />
    <rect
       style="fill:none;fill-opacity:1;stroke:none;stroke-width:2;stroke-miterlimit:4;stroke-dasharray:none"
       id="rect1359"
       width="632.91913"
       height="453.48361"
       x="-46.416206"
       y="-19.168198" />
    <path
       style="fill:none;fill-opacity:1;stroke:none;stroke-width:2;stroke-miterlimit:4;stroke-dasharray:none"
       d="m -17.971345,462.07782 c 5.313983,-6.18968 13.0285098,-13.49848 21.5687523,-14.5563 47.5556957,-5.8904 94.7476917,-5.14312 142.8052427,-2.71771 22.63295,1.14225 44.91632,-3.76674 67.47143,-3.76674 23.5856,0 46.89304,4.92993 70.65977,3.65323 34.49561,-1.85304 68.94063,0.51028 103.49315,-0.94011 26.77496,-1.12391 52.80525,-7.924 79.93876,-4.95151 30.39511,3.32979 56.05171,2.2371 72.98009,33.29959 3.93726,7.22463 9.95461,18.56766 6.23981,27.28171 -9.25937,21.72035 -40.13038,30.34876 -59.29653,37.59616 -54.28943,20.52877 -106.7242,33.50647 -164.74299,35.90357 -67.36125,2.7831 -133.74574,-0.38603 -200.83695,-6.23058 C 96.91643,564.43707 61.897043,566.205 39.058402,551.72626 25.201822,542.94177 18.371037,527.76351 7.6443972,516.07311 2.5715526,510.54448 -17.144176,499.922 -18.71381,491.98656 c -2.054647,-10.38748 3.529637,-19.3199 0.742465,-29.90874 z"
       id="path1487" />
  </g>
</svg>
