<?xml version="1.0" encoding="UTF-8" standalone="no"?>
<!-- Created with Inkscape (http://www.inkscape.org/) -->

<svg
   version="1.1"
   id="svg1"
   width="512"
   height="512"
   viewBox="0 0 512 512"
   sodipodi:docname="contact_icon_00_lattes.svg"
   inkscape:version="1.1.2 (0a00cf5339, 2022-02-04)"
   inkscape:export-filename="/home/dusoudeth/Documentos/github/isadora-urel-landing-page/src/assets/images/contact_icon_00_lattes.png"
   inkscape:export-xdpi="96"
   inkscape:export-ydpi="96"
   xmlns:inkscape="http://www.inkscape.org/namespaces/inkscape"
   xmlns:sodipodi="http://sodipodi.sourceforge.net/DTD/sodipodi-0.dtd"
   xmlns="http://www.w3.org/2000/svg"
   xmlns:svg="http://www.w3.org/2000/svg">
  <defs
     id="defs1" />
  <sodipodi:namedview
     id="namedview1"
     pagecolor="#ffffff"
     bordercolor="#000000"
     borderopacity="0.25"
     inkscape:showpageshadow="2"
     inkscape:pageopacity="0.0"
     inkscape:pagecheckerboard="0"
     inkscape:deskcolor="#d1d1d1"
     showgrid="false"
     inkscape:zoom="1.1269514"
     inkscape:cx="281.28985"
     inkscape:cy="234.70399"
     inkscape:window-width="1868"
     inkscape:window-height="1016"
     inkscape:window-x="52"
     inkscape:window-y="27"
     inkscape:window-maximized="1"
     inkscape:current-layer="g1"
     inkscape:pageshadow="2"
     inkscape:object-paths="true" />
  <g
     inkscape:groupmode="layer"
     inkscape:label="Image"
     id="g1">
    <path
       style="fill:#800080;stroke-width:0.244141"
       d="m 133.02163,504.99212 c -3.15598,-2.90908 -7.7783,-11.35008 -21.67291,-39.57766 -4.46148,-9.06372 -10.72117,-21.8628 -13.910421,-28.44239 -3.18926,-6.57959 -8.07718,-16.63208 -10.86206,-22.33886 -2.78487,-5.70679 -6.73608,-13.83667 -8.78047,-18.06641 -2.04438,-4.22974 -7.12829,-14.72168 -11.29756,-23.31543 -25.0556,-51.64487 -38.32153,-79.44661 -41.33935,-86.63594 -0.86725,-2.06606 -0.83313,-2.42944 0.28536,-3.03923 1.11032,-0.60532 6.43942,-0.007 16.08931,1.80759 7.05007,1.32544 14.687,2.79573 18.18848,3.50174 33.20414,6.69492 61.129051,10.77436 86.914061,12.69692 22.26352,1.65996 56.42647,2.03748 80.05885,0.88467 25.61837,-1.24969 50.07015,-4.46187 72.69408,-9.54969 24.14509,-5.4299 48.39809,-14.27668 67.30542,-24.55107 20.74116,-11.27087 32.24751,-20.47409 43.15786,-34.51929 9.96013,-12.82193 13.99692,-22.26209 15.50325,-36.25488 0.37966,-3.52675 0.37102,-15.72183 -0.0139,-19.65332 -1.2021,-12.27725 -3.91567,-20.58448 -13.39787,-41.01562 -2.88648,-6.21945 -5.75899,-13.82086 -6.899,-18.2566 -0.64107,-2.49432 -0.88252,-6.14063 -0.48616,-7.34161 0.3783,-1.14623 1.12119,-1.63316 3.04265,-1.99424 2.50281,-0.47033 4.86814,0.39968 9.66472,3.55486 14.7959,9.73269 43.31912,38.41241 57.7782,58.0952 14.51165,19.75436 24.23862,42.77804 27.64253,65.42969 1.84607,12.2849 1.84507,26.1019 -0.003,38.33008 -2.38225,15.7646 -7.77565,31.96118 -15.81245,47.48535 -16.9632,32.76677 -37.50136,55.90859 -73.87758,83.24324 -22.06539,16.58086 -46.21314,30.79016 -74.52969,43.85566 -16.99685,7.84251 -41.70061,17.35361 -61.0908,23.52036 -4.09546,1.30249 -8.27026,2.63115 -9.27734,2.95257 -3.74868,1.19641 -18.34304,5.48127 -22.70508,6.66618 -2.48413,0.67478 -5.94482,1.61509 -7.69043,2.08955 -1.7456,0.47449 -8.44727,2.1792 -14.89258,3.78828 -36.32374,9.06822 -74.3045,16.79063 -86.14329,17.51499 l -2.53657,0.1552 -1.10646,-1.01989 z M 220.1224,297.67818 c -0.80567,-0.10796 -2.45362,-0.31973 -3.66211,-0.47058 -33.81873,-4.22185 -54.08264,-6.76402 -59.44824,-7.45796 -3.69263,-0.47757 -10.0647,-1.30088 -14.16016,-1.82959 -4.09546,-0.52871 -9.97314,-1.29629 -13.06152,-1.70572 -3.08838,-0.40942 -9.84497,-1.29047 -15.01465,-1.95788 -14.54572,-1.87786 -35.546891,-4.65528 -64.575191,-8.54009 -9.0116,-1.20601 -19.01017,-2.61294 -21.07196,-2.96511 -1.37788,-0.23535 -1.60241,-0.35701 -2.12446,-1.15105 -1.42745,-2.17117 -4.76236,-11.8116 -7.52809,-21.76192 -3.30412,-11.88729 -6.79836,-26.73901 -7.69698,-32.71484 -1.03159,-6.85998 -2.3837303,-19.6406 -3.0736803,-29.05273 -2.60701,-35.56415 1.3206803,-63.87065 12.3170403,-88.76763 5.3329,-12.0743 13.40705,-24.71482 22.90954,-35.86617 11.05929,-12.97828 20.95066,-21.44696 34.72505,-29.7305 11.42878,-6.872953 24.918091,-12.804143 38.438061,-16.901036 51.85312,-15.7128074 117.26153,-14.2885554 190.42969,4.146558 24.36594,6.13913 58.05078,17.105368 71.75291,23.359448 10.25437,4.68042 14.34236,8.24093 12.3581,10.76349 -1.10608,1.40616 -4.27273,2.03006 -12.21159,2.40594 -8.74617,0.41411 -22.92273,-0.10185 -47.60743,-1.73268 -19.39978,-1.28167 -31.43864,-1.62615 -43.21289,-1.23647 -25.18054,0.83337 -43.5079,3.73848 -60.54687,9.59744 -18.18079,6.25158 -30.56354,14.95441 -38.80563,27.27333 -13.4792,20.14648 -15.53668,50.18978 -6.10146,89.09323 4.10143,16.91111 11.9134,39.71364 20.22978,59.04916 5.1389,11.94791 9.30432,20.82653 17.78148,37.90135 7.23984,14.58262 7.43688,15.06441 7.0356,17.20342 -0.19904,1.06099 -1.43426,2.52571 -2.50849,2.97456 -0.85287,0.35635 -3.22351,0.38787 -5.56585,0.074 z m 86.32597,-62.24992 c -10.26474,-0.84483 -25.53752,-4.93122 -37.80427,-10.11493 -7.85803,-3.32067 -16.13913,-7.73727 -22.97856,-12.25529 -7.6515,-5.05446 -12.84971,-9.25928 -18.96877,-15.34378 -12.22216,-12.15315 -19.37243,-25.12221 -21.46913,-38.94043 -0.54927,-3.61993 -0.74205,-10.9448 -0.38232,-14.52637 1.04483,-10.40238 4.16291,-17.33253 11.12317,-24.72194 6.64346,-7.05309 17.23631,-14.32321 25.56154,-17.5435 16.44151,-6.35975 42.35665,-6.29687 67.33748,0.16338 5.02183,1.29869 13.68953,4.21827 18.00552,6.06488 14.9052,6.37723 29.31907,15.78864 40.58672,26.50078 14.4617,13.74868 21.90486,26.60974 23.67156,40.90207 0.32917,2.66298 0.32869,8.83073 0,11.48742 -1.91946,15.47078 -10.62822,28.53521 -24.65545,36.98678 -8.71826,5.25286 -21.69477,8.96524 -38.07617,10.89298 -4.79748,0.56457 -17.40693,0.82189 -21.95039,0.44795 z"
       id="path15411" />
  </g>
</svg>
