<?xml version="1.0" encoding="UTF-8" standalone="no"?>
<!-- Created with Inkscape (http://www.inkscape.org/) -->

<svg
   version="1.1"
   id="svg1"
   width="512"
   height="512"
   viewBox="0 0 512 512"
   sodipodi:docname="contact_03.svg"
   inkscape:version="1.1.2 (0a00cf5339, 2022-02-04)"
   inkscape:export-filename="/home/dusoudeth/Documentos/github/isadora-urel-landing-page/src/assets/images/contact_03.png"
   inkscape:export-xdpi="96"
   inkscape:export-ydpi="96"
   xmlns:inkscape="http://www.inkscape.org/namespaces/inkscape"
   xmlns:sodipodi="http://sodipodi.sourceforge.net/DTD/sodipodi-0.dtd"
   xmlns="http://www.w3.org/2000/svg"
   xmlns:svg="http://www.w3.org/2000/svg">
  <defs
     id="defs1" />
  <sodipodi:namedview
     id="namedview1"
     pagecolor="#ffffff"
     bordercolor="#000000"
     borderopacity="0.25"
     inkscape:showpageshadow="2"
     inkscape:pageopacity="0.0"
     inkscape:pagecheckerboard="0"
     inkscape:deskcolor="#d1d1d1"
     showgrid="false"
     inkscape:zoom="0.796875"
     inkscape:cx="414.11765"
     inkscape:cy="266.66667"
     inkscape:window-width="1868"
     inkscape:window-height="1016"
     inkscape:window-x="52"
     inkscape:window-y="27"
     inkscape:window-maximized="1"
     inkscape:current-layer="g1"
     inkscape:pageshadow="2"
     inkscape:object-paths="true"
     inkscape:snap-smooth-nodes="false" />
  <g
     inkscape:groupmode="layer"
     inkscape:label="Image"
     id="g1">
    <path
       style="fill:#9ad6c7;stroke-width:1.01054;fill-opacity:1"
       d="m 6.9523082,475.66906 c -0.843643,-0.99544 -1.080559,-45.33762 -0.890935,-166.75 l 0.25833,-165.39397 9.1906858,-4.36799 c 5.054877,-2.4024 16.543234,-6.77992 25.529682,-9.72783 l 16.338997,-5.35983 0.510594,-43.473018 c 0.377094,-32.10674 0.833666,-43.78917 1.74625,-44.68219 1.554176,-1.52087 8.867685,-1.29764 22.762245,0.69476 59.350473,8.51052 105.146553,28.95446 140.786953,62.84905 10.67779,10.154748 23.71299,25.210438 30.5227,35.253818 2.5277,3.728 4.19873,5.28583 5.29103,4.93258 0.87807,-0.28396 7.32985,-2.60475 14.33727,-5.1573 13.37268,-4.87117 36.59002,-11.46205 40.37677,-11.46205 3.19611,0 5.98181,3.37703 5.22416,6.33312 -0.64047,2.49889 -3.50821,4.02052 -9.8353,5.21865 -6.50878,1.23253 -26.90027,7.53437 -37.52864,11.59794 l -10.46717,4.00195 v 134.42418 c 0,73.93329 0.28034,134.42417 0.62297,134.42417 0.34263,0 7.21091,-2.22847 15.26284,-4.95215 52.92423,-17.90237 106.31194,-22.51726 156.26762,-13.50794 16.62975,2.99911 34.48312,7.98898 49.77588,13.91193 6.4587,2.50149 12.01325,4.54816 12.34344,4.54816 0.33018,0 0.60033,-61.16786 0.60033,-135.92857 0,-122.23811 0.16163,-136.08685 1.60473,-137.50001 1.97117,-1.93029 5.91413,-2.04407 7.46396,-0.21538 0.84363,0.99542 1.08056,45.20733 0.89092,166.25001 l -0.25833,164.89395 -2.86498,0.32178 c -1.57573,0.17698 -10.53665,-1.49196 -19.91315,-3.70876 -39.19478,-9.26646 -67.12494,-12.5075 -107.93384,-12.52472 -39.83965,-0.0168 -63.35799,2.76333 -101.228,11.96631 l -18.51182,4.49865 -17.74033,-4.41216 c -35.45771,-8.81863 -62.3846,-12.06031 -100.45649,-12.09379 -40.90375,-0.036 -72.144006,3.73524 -112.015579,13.5221 -13.35278,3.27756 -16.3956828,3.5428 -18.0637928,1.57455 z M 33.416326,461.61754 c 65.222994,-14.07257 122.228004,-15.82489 177.651434,-5.46096 10.39354,1.94355 34.48326,7.45845 37.45153,8.57385 1.18673,0.44595 1.40466,-0.54424 1.15313,-5.23942 l -0.31014,-5.78929 -7.14831,-2.38751 c -18.32932,-6.12194 -47.99463,-12.64309 -71.99371,-15.82596 -16.79236,-2.22708 -53.68816,-3.01796 -70.50635,-1.51135 -28.383984,2.54271 -57.581036,9.26296 -78.331694,18.02952 l -5.361234,2.26497 v 5.37685 c 0,2.95727 0.360469,5.37686 0.80105,5.37686 0.440581,0 7.908014,-1.5334 16.594294,-3.40756 z m 264.170054,-4.9925 c 28.26815,-4.78093 44.12002,-5.97111 79.42431,-5.96326 42.8433,0.01 72.28253,3.179 105.18229,11.32411 6.73984,1.6686 12.5989,3.03504 13.02014,3.03652 0.42124,0.001 0.76589,-2.4169 0.76589,-5.37417 v -5.37685 l -5.36123,-2.26497 c -20.74765,-8.76528 -49.94806,-15.48685 -78.32126,-18.02857 -16.95236,-1.51862 -54.91006,-0.70941 -71.53798,1.5251 -23.98845,3.22364 -54.43895,9.90604 -71.9937,15.79911 l -7.14831,2.39966 -0.30316,5.56007 -0.30316,5.56006 10.74333,-2.82238 c 5.90883,-1.55231 17.53361,-3.9708 25.83284,-5.37443 z M 39.689806,434.6438 c 54.174354,-16.08029 114.912954,-16.44418 177.504354,-1.06344 9.82932,2.41539 21.20312,5.50176 25.27511,6.8586 l 7.4036,2.46699 v -5.7904 -5.79041 l -6.38242,-2.64221 c -13.90984,-5.75843 -36.095,-12.3828 -52.69166,-15.73344 -59.05254,-11.92194 -116.694533,-6.89352 -166.315239,14.50857 l -7.951975,3.4298 -0.30267,6.01741 -0.302669,6.01742 6.060859,-2.41165 c 3.333472,-1.32641 11.299692,-3.96667 17.70271,-5.86724 z m 252.491084,-0.66569 c 17.92478,-4.40696 38.64384,-8.08976 56.74715,-10.08676 16.9325,-1.86786 57.56022,-1.5954 73.86612,0.49536 23.34581,2.99342 50.7233,9.56069 67.21874,16.12433 l 6.06086,2.41165 -0.30267,-6.05089 -0.30267,-6.05088 -9.19069,-3.89195 c -21.14789,-8.95542 -46.54894,-15.57169 -70.97251,-18.48638 -17.42808,-2.07985 -58.0586,-1.51205 -74.54668,1.04177 -24.83538,3.84674 -49.18591,9.96593 -68.93014,17.32189 l -10.21187,3.80456 -0.30287,6.16341 -0.30286,6.16342 7.43115,-2.47506 c 4.08714,-1.36128 14.76966,-4.27929 23.73894,-6.48447 z M 20.922334,417.64574 c 5.154474,-2.57834 30.284055,-10.73199 42.073264,-13.65126 21.550606,-5.33642 35.420932,-7.11937 59.739462,-7.67913 34.35831,-0.79087 62.62772,3.19918 98.54457,13.90894 9.26727,2.76333 17.74701,5.27533 18.84386,5.58222 1.33088,0.37236 -0.19601,-2.07652 -4.59004,-7.36172 -39.64554,-47.68613 -90.19419,-73.41731 -161.022648,-81.96663 -8.62749,-1.04138 -13.627346,-2.1099 -14.820511,-3.1673 -1.695549,-1.50261 -1.800629,-7.04312 -1.800629,-94.94075 0,-51.33976 -0.136411,-93.34502 -0.30313,-93.34502 -1.4016,0 -25.569151,8.4969 -32.630161,11.47222 l -8.935389,3.76512 v 134.38134 c 0,93.15932 0.328813,134.38133 1.0719,134.38133 0.589542,0 2.312795,-0.62071 3.829452,-1.37936 z M 247.24528,144.31018 C 235.76173,125.12155 210.53534,99.833232 188.16505,85.084912 158.16129,65.303992 115.85457,50.526492 77.036924,46.268482 l -7.914202,-0.86812 v 134.751088 134.7511 l 4.340046,0.52979 c 2.387025,0.29139 8.475855,1.03804 13.530732,1.65923 47.18404,5.79839 91.55126,24.05436 124.97836,51.42538 11.01448,9.01896 24.48361,22.75007 31.79116,32.4095 l 5.59926,7.40136 0.25914,-129.80709 0.25913,-129.80709 z M 211.5303,308.9364 c -5.98469,-6.06178 -18.2874,-15.88365 -27.32807,-21.81737 -4.38546,-2.87833 -8.23703,-5.90566 -8.55904,-6.7274 -1.1152,-2.84585 1.44852,-6.36653 4.63603,-6.36653 5.05781,0 23.35923,12.80139 37.68155,26.35733 3.74759,3.54705 5.36123,5.85214 5.36123,7.65851 0,6.30258 -6.00325,6.75847 -11.7917,0.89546 z m -4.54729,-43.00664 c -4.77405,-4.39858 -12.76699,-10.78905 -17.76208,-14.20104 -14.29221,-9.76258 -14.53771,-10.00816 -13.34491,-13.34953 0.78106,-2.188 1.75608,-2.92481 4.17785,-3.15712 4.16607,-0.39963 17.77998,8.54499 32.21023,21.1628 10.81247,9.45442 12.87162,12.79525 9.98546,16.2007 -2.67797,3.15982 -6.35117,1.5584 -15.26655,-6.65581 z m -60.25005,2.93222 c -5.42997,-3.61473 -17.53575,-9.31565 -25.42772,-11.97455 -3.08933,-1.04083 -5.97742,-2.44815 -6.41798,-3.12738 -0.44056,-0.67922 -0.80806,-11.44031 -0.81666,-23.91352 -0.0133,-19.29743 0.22361,-22.91286 1.58909,-24.25 0.88259,-0.8643 2.00405,-1.57144 2.4921,-1.57144 4.5951,0 31.96313,12.54311 38.28245,17.54532 l 3.06356,2.42503 0.27035,21.26483 c 0.20114,15.82144 -0.0662,21.90478 -1.04447,23.76483 -1.92687,3.66373 -6.33215,3.6038 -11.99072,-0.16312 z m 2.04237,-25.82434 v -13.98745 l -4.34004,-2.68838 c -4.1153,-2.54915 -18.35742,-9.33671 -19.59093,-9.33671 -0.31764,0 -0.57752,6.69513 -0.57752,14.87807 v 14.87808 l 5.87182,2.18747 c 3.22951,1.20311 8.39927,3.48675 11.48836,5.07475 3.08909,1.588 5.96118,2.9085 6.38242,2.93445 0.42124,0.026 0.76589,-6.24717 0.76589,-13.94028 z m 60.76065,-13.58961 c -23.40162,-21.00298 -55.32066,-39.54978 -80.6738,-46.87609 -12.27051,-3.54582 -14.23321,-4.58078 -14.60736,-7.70267 -0.47066,-3.92701 2.37583,-6.15198 6.85028,-5.35456 8.26055,1.47217 26.86318,8.2887 39.8711,14.6099 20.35577,9.89188 38.86843,22.39105 55.74143,37.63483 6.705,6.05759 8.16651,9.33593 5.37895,12.06566 -2.56503,2.51181 -6.35748,1.19023 -12.5606,-4.37707 z m 0.44524,-38.67294 c -27.23153,-23.42346 -57.24272,-40.57707 -84.54883,-48.32589 -9.83704,-2.79152 -11.37743,-3.73588 -11.37743,-6.97513 0,-3.7194 2.79807,-5.72034 6.93612,-4.96014 21.60994,3.96994 58.54721,22.32048 82.13808,40.80642 18.57266,14.55366 22.78539,20.02312 18.58812,24.13331 -2.57379,2.52039 -4.05165,1.93124 -11.73606,-4.67857 z m -0.44524,-39.37727 c -15.13891,-13.82553 -33.48549,-26.61047 -48.80366,-34.00914 -8.39432,-4.05446 -10.10701,-6.27453 -7.92315,-10.27045 1.71291,-3.13419 5.17572,-2.60743 15.13383,2.30218 16.05247,7.91428 33.68732,20.27166 49.07243,34.38682 5.79201,5.31392 6.4241,6.27556 6.12712,9.32152 -0.30219,3.09937 -0.64365,3.41681 -3.9053,3.63049 -3.07843,0.20167 -4.42396,-0.54194 -9.70127,-5.36142 z m -89.35389,-49.10009 c -5.71215,-1.01802 -7.99773,-6.304918 -4.18601,-9.682898 1.67927,-1.48819 2.54019,-1.56335 6.38242,-0.55721 2.44272,0.63966 5.01572,1.62412 5.71779,2.18769 1.77345,1.4236 1.59584,5.32419 -0.32824,7.208348 -1.60291,1.56965 -2.7799,1.70062 -7.58596,0.84407 z m 180.63094,227.61063 c -1.94691,-1.90651 -2.11946,-2.97974 -1.73733,-10.80628 0.33512,-6.86404 0.92292,-9.47966 2.79795,-12.45058 2.8509,-4.51715 8.38228,-8.24407 13.61051,-9.17045 3.45774,-0.61267 3.83163,-0.9832 3.85188,-3.81724 0.048,-6.71896 6.64469,-15.73776 12.56582,-17.17965 1.22043,-0.29719 19.22173,-0.40956 40.0029,-0.2497 37.72786,0.29021 37.78889,0.2941 41.1259,2.62485 4.25874,2.97454 7.38049,8.94943 7.38049,14.12595 0,3.51629 0.29777,4.04269 2.29767,4.0618 3.45906,0.0331 10.12002,3.36189 13.21047,6.60194 3.9946,4.18797 4.91561,7.44924 4.91561,17.40602 0,7.77543 -0.24953,9.03049 -1.97524,9.9349 -1.30398,0.68338 -24.7293,1.03518 -68.93015,1.03518 -66.82416,0 -66.95911,-0.004 -69.11648,-2.11674 z m 129.81,-11.93292 c 0,-5.00397 -2.59453,-8.72877 -6.89465,-9.8982 -5.17792,-1.40815 -101.50738,-1.4151 -106.68234,-0.008 -4.68881,1.27549 -6.92312,4.23753 -6.92312,9.17837 v 3.77749 h 60.25006 60.25005 z m -20.42375,-23.99579 c 0,-1.90012 -0.94267,-3.96857 -2.50656,-5.5 l -2.50654,-2.45455 h -34.95626 c -34.48496,0 -34.98814,0.0293 -37.31976,2.17431 -1.55165,1.42745 -2.36349,3.31667 -2.36349,5.5 v 3.32569 h 39.82631 39.8263 z m 46.78956,-47.93563 c -4.56521,-1.34915 -5.92925,-2.69636 -26.85016,-26.51892 -11.10919,-12.65 -21.24787,-24.07444 -22.53038,-25.38763 l -2.33185,-2.38761 -11.71039,9.78835 -11.71039,9.78836 0.96283,3.41473 c 3.83686,13.60765 -12.76626,25.41396 -25.58193,18.19104 -3.7775,-2.12901 -46.01259,-49.27585 -49.47362,-55.22719 -2.72759,-4.69016 -1.95495,-13.3847 1.59438,-17.94156 4.86297,-6.24339 10.49136,-7.63378 22.46412,-5.54933 1.13266,0.19719 14.82797,-10.65698 37.46047,-29.68917 l 35.67509,-29.999998 -0.57335,-5.16943 c -1.18451,-10.67959 6.71947,-19.33498 17.649,-19.32683 3.15284,0.002 6.21711,0.7208 8.24904,1.93407 3.44511,2.05708 45.24055,48.816748 49.09779,54.929338 4.70229,7.45176 1.66104,18.07273 -6.51925,22.76724 -4.4621,2.56071 -7.8649,2.79744 -16.91022,1.17644 -1.00866,-0.18076 -6.46594,3.61108 -13.04148,9.06152 -9.82248,8.14183 -11.13662,9.58488 -10.00919,10.99104 0.71381,0.89028 11.01125,12.6963 22.88321,26.23561 11.87195,13.53931 21.93615,25.69335 22.36488,27.00897 4.34944,13.34706 -7.74766,25.8743 -21.1586,21.91096 z m 9.82843,-12.24143 c 0.87432,-1.22237 1.58659,-3.13487 1.58282,-4.25 -0.006,-1.85039 -42.69117,-51.56132 -44.94961,-52.3484 -0.50644,-0.1765 -2.88345,1.47186 -5.28227,3.66303 -4.05446,3.70349 -4.24898,4.11323 -2.76335,5.8209 24.32043,27.95517 40.43663,46.20373 42.0264,47.58698 2.84531,2.47569 7.44281,2.24425 9.38601,-0.47251 z M 370.37298,223.0251 c 4.46955,-4.37682 3.47755,-5.98258 -20.58954,-33.32834 -13.95316,-15.854 -23.55019,-25.94075 -25.02653,-26.3036 -5.3914,-1.32508 -10.275,5.37386 -7.20933,9.88922 2.16994,3.19605 42.46771,48.9894 44.43318,50.49272 2.41502,1.84718 6.07393,1.52019 8.39222,-0.75 z m 39.64084,-49.13532 c 18.35573,-15.47441 34.2396,-28.93451 35.29749,-29.91132 1.86737,-1.72422 1.41039,-2.35976 -15.67125,-21.79458 l -17.59471,-20.01858 -22.62326,19.11352 c -12.4428,10.51244 -28.49481,24.05672 -35.67114,30.09841 -7.17634,6.04169 -12.92052,11.34247 -12.76485,11.77951 0.60041,1.68564 33.79332,38.86835 34.69768,38.86835 0.5258,0 15.97431,-12.66089 34.33004,-28.13531 z m 58.95014,-34.31924 c 1.37861,-1.35 2.50656,-3.37588 2.50656,-4.50196 0,-1.2126 -7.76525,-10.91498 -19.04457,-23.79545 -29.01646,-33.135488 -29.37918,-33.444518 -34.85113,-29.691338 -1.585,1.08714 -2.2696,2.5774 -2.2696,4.94053 0,2.96945 2.74647,6.50197 22.42861,28.847708 12.33573,14.00515 23.0199,25.69639 23.7426,25.98054 2.82452,1.11053 5.08436,0.57329 7.48753,-1.78003 z"
       id="path1279" />
  </g>
</svg>
