<?xml version="1.0" encoding="UTF-8" standalone="no"?>
<!-- Created with Inkscape (http://www.inkscape.org/) -->

<svg
   width="100mm"
   height="100mm"
   viewBox="0 0 99.998743 99.998737"
   version="1.1"
   id="svg134843"
   inkscape:version="1.1.2 (0a00cf5339, 2022-02-04)"
   sodipodi:docname="favicon.svg"
   inkscape:export-filename="/home/dusoudeth/Documentos/github/isadora-urel-landing-page/public/favicon.png"
   inkscape:export-xdpi="8.1280003"
   inkscape:export-ydpi="8.1280003"
   xmlns:inkscape="http://www.inkscape.org/namespaces/inkscape"
   xmlns:sodipodi="http://sodipodi.sourceforge.net/DTD/sodipodi-0.dtd"
   xmlns="http://www.w3.org/2000/svg"
   xmlns:svg="http://www.w3.org/2000/svg">
  <sodipodi:namedview
     id="namedview134845"
     pagecolor="#ffffff"
     bordercolor="#000000"
     borderopacity="0.25"
     inkscape:pageshadow="2"
     inkscape:pageopacity="0.0"
     inkscape:pagecheckerboard="0"
     inkscape:document-units="px"
     showgrid="true"
     inkscape:zoom="1.0633188"
     inkscape:cx="193.73306"
     inkscape:cy="174.4538"
     inkscape:window-width="1488"
     inkscape:window-height="752"
     inkscape:window-x="343"
     inkscape:window-y="168"
     inkscape:window-maximized="0"
     inkscape:current-layer="layer1"
     inkscape:snap-page="true" />
  <defs
     id="defs134840">
    <inkscape:path-effect
       effect="perspective-envelope"
       up_left_point="34.640579,19.999748"
       up_right_point="47.630797,27.499653"
       down_left_point="34.640579,34.999559"
       down_right_point="47.630797,42.499464"
       id="path-effect135081"
       is_visible="true"
       lpeversion="1"
       deform_type="perspective"
       horizontal_mirror="false"
       vertical_mirror="false"
       overflow_perspective="false" />
    <inkscape:path-effect
       effect="perspective-envelope"
       up_left_point="34.640583,19.999748"
       up_right_point="47.630797,12.499842"
       down_left_point="47.630797,27.499653"
       down_right_point="60.621014,19.999748"
       id="path-effect135036"
       is_visible="true"
       lpeversion="1"
       deform_type="perspective"
       horizontal_mirror="false"
       vertical_mirror="false"
       overflow_perspective="false" />
  </defs>
  <g
     inkscape:label="Layer 1"
     inkscape:groupmode="layer"
     id="layer1">
    <rect
       style="fill:#ffffff;fill-opacity:1;stroke:none;stroke-width:0.263913"
       id="rect18121"
       width="99.746658"
       height="99.746658"
       x="0.12604046"
       y="0.12604046"
       rx="8.9072123"
       ry="8.9072123" />
    <path
       style="fill:#501357;fill-opacity:1;stroke:none;stroke-width:0.349685"
       d="m 48.851698,87.561239 c -1.657677,-2.538646 -2.19779,-3.866104 -2.240632,-5.506923 -0.01759,-0.673143 -0.157896,-1.422277 -0.311819,-1.664743 l -0.279859,-0.440848 -0.845296,0.899772 c -1.367403,1.455539 -2.772658,2.152769 -5.905703,2.930198 -1.622703,0.40265 -3.805389,1.123529 -4.850422,1.601959 -1.04503,0.47843 -1.96203,0.869883 -2.037782,0.869883 -0.180055,0 -1.523181,-2.204303 -1.524876,-2.50258 -0.0021,-0.392854 5.06818,-2.36236 7.576741,-2.943042 3.071893,-0.711082 6.064202,-2.71108 6.059205,-4.049848 -2.49e-4,-0.06649 -1.219773,-0.125385 -2.710057,-0.130911 l -2.709605,-0.01001 -2.36481,-0.806725 -2.36481,-0.806725 -1.481722,0.245788 c -2.140299,0.355032 -5.745795,1.770733 -7.694661,3.021318 l -1.685208,1.081396 -0.515313,-0.658108 c -0.28342,-0.361956 -0.669867,-0.922869 -0.85877,-1.246471 l -0.343464,-0.588363 1.021012,-0.72702 c 0.561556,-0.399867 2.213674,-1.293421 3.67137,-1.985678 1.457698,-0.692262 2.650362,-1.308692 2.650362,-1.369858 0,-0.06117 -0.90481,-0.381263 -2.010688,-0.711339 l -2.010686,-0.600141 -4.4765,0.0081 -4.476505,0.0081 0.105442,-1.443486 0.105442,-1.443474 5.245272,0.01635 5.245271,0.01636 3.846532,1.522417 c 2.115593,0.837335 5.105397,1.967485 6.644011,2.511452 l 2.797477,0.989028 1.804761,0.0074 1.804758,0.0074 0.891861,-1.059909 c 2.259482,-2.685387 2.206699,-9.40833 -0.109434,-13.938924 -2.117684,-4.142246 -9.580704,-9.307719 -16.456069,-11.389787 l -1.923266,-0.582421 -4.021375,-0.179937 -4.021374,-0.179936 -3.443452,0.492226 -3.443449,0.492222 -0.110556,-0.377043 c -0.06081,-0.207374 -0.196301,-0.875342 -0.301094,-1.48438 l -0.190532,-1.107337 2.520644,-0.432628 c 1.386355,-0.237941 4.427546,-0.447753 6.758203,-0.46624 l 4.237553,-0.03361 -2.489129,-2.719794 c -4.388589,-4.795289 -7.208083,-8.110833 -7.202867,-8.470132 0.0028,-0.192326 0.493031,-0.69058 1.089424,-1.107234 l 1.08435,-0.757549 2.270359,2.680815 c 1.248696,1.474449 4.101883,4.564889 6.340406,6.867644 l 4.070051,4.186823 4.720744,2.329708 c 5.627343,2.777119 9.287018,5.289437 11.163892,7.66386 l 1.376911,1.741922 0.174965,-0.613085 c 0.09623,-0.337193 0.362875,-2.606466 0.592539,-5.04282 L 47.727048,45.74458 47.548818,40.557991 47.370583,35.3714 46.807464,33.588274 46.244347,31.805147 44.406394,30.074799 c -2.24499,-2.113556 -3.624738,-3.066702 -10.008571,-6.914055 -2.74218,-1.652631 -5.520914,-3.368419 -6.174967,-3.812859 l -1.189188,-0.808076 0.773692,-1.10707 c 0.979481,-1.401534 0.81486,-1.424714 4.0121,0.56495 1.488424,0.926258 3.590345,2.184833 4.670932,2.79683 l 1.9647,1.112724 1.784954,-3.58362 c 0.981727,-1.970993 2.593444,-4.579838 3.581597,-5.797437 l 1.796643,-2.213816 1.010291,0.967921 c 1.289876,1.235779 1.282455,1.294776 -0.403845,3.21051 -1.32036,1.500009 -4.88549,8.033504 -4.875858,8.935552 0.0026,0.222999 0.522844,0.741098 1.156584,1.151333 0.633741,0.410235 2.114775,1.546899 3.291187,2.525919 l 2.138931,1.780036 1.060269,2.194824 1.060269,2.194827 0.414883,2.951204 0.414881,2.951208 -0.191261,5.511542 -0.191264,5.511542 1.230355,-1.643896 c 3.335227,-4.456248 8.394246,-8.703485 12.781425,-10.730489 l 2.613288,-1.207413 0.242063,-2.139544 c 0.550195,-4.863071 2.868609,-10.228403 5.78079,-13.378053 l 1.908691,-2.064328 0.98989,1.107879 0.989888,1.107878 -1.587656,1.765861 c -2.41336,2.684231 -5.083713,9.176281 -5.083713,12.35929 v 0.766917 l 4.983007,0.202441 c 4.670351,0.189743 13.412552,1.409705 13.980437,1.950953 0.260971,0.248736 -0.321099,2.844914 -0.637846,2.844914 -0.09615,0 -2.016393,-0.346174 -4.267202,-0.769272 l -4.092382,-0.76927 -6.294323,-0.01752 -6.294323,-0.01751 -2.272951,1.17209 C 58.69568,44.234465 52.852906,50.70402 50.530862,57.284538 l -0.90503,2.5648 -0.157447,2.797476 -0.157449,2.797479 0.421468,1.560904 0.421467,1.560902 1.277713,1.276764 1.277713,1.276769 1.853057,0.396914 c 3.333,0.713907 6.764399,0.314519 14.554193,-1.693993 l 4.096572,-1.056257 h 3.007466 c 1.654108,0 4.017868,0.175957 5.252803,0.391008 l 2.245335,0.391007 -0.233215,1.269997 c -0.312457,1.701481 -0.475799,1.813049 -2.102372,1.435997 -0.769132,-0.178288 -2.700676,-0.327913 -4.292311,-0.332501 l -2.893876,-0.0083 0.576681,1.136479 c 0.317173,0.62506 1.130338,1.915371 1.807031,2.867355 l 1.23034,1.73089 -1.186095,0.993504 -1.186103,0.993511 -0.769406,-0.959913 C 74.246215,78.147325 73.38075,76.799359 72.746133,75.67979 72.11151,74.560227 71.424838,73.395483 71.220199,73.091486 l -0.372082,-0.552737 -3.607014,0.909592 c -1.983862,0.500273 -5.018251,1.081178 -6.743097,1.290902 l -3.136084,0.38131 -2.290502,-0.398876 c -1.259778,-0.219381 -2.89671,-0.708141 -3.637633,-1.086129 -1.658303,-0.846001 -1.683061,-0.543147 -0.14272,1.745789 1.488517,2.211927 2.80222,3.339376 5.783079,4.963168 l 2.31764,1.262502 2.078871,0.241705 c 3.065049,0.356355 6.234673,0.963235 6.561737,1.25635 0.157658,0.141298 0.176256,0.845367 0.04131,1.564617 l -0.245325,1.307713 -1.265215,-0.21338 C 65.867284,85.646659 63.820351,85.382301 62.01442,85.17656 l -3.283516,-0.374091 -2.917037,-1.57721 c -1.604371,-0.867474 -3.73227,-2.310182 -4.728657,-3.206022 l -1.811622,-1.628801 0.245494,2.443887 0.245494,2.443882 1.593222,2.406493 1.593228,2.406481 -0.470556,0.316371 c -0.258807,0.173999 -0.86893,0.532922 -1.355832,0.79759 l -0.885283,0.481229 z m 9.492726,-30.015731 c -1.845068,-1.45133 -2.55487,-4.334789 -1.649423,-6.700553 0.441589,-1.153789 0.705642,-1.185631 1.918765,-0.231387 1.83153,1.44068 2.554489,4.583636 1.557622,6.771522 -0.49159,1.078926 -0.642438,1.092166 -1.826964,0.160418 z m -27.557115,-0.58107 c -1.807947,-1.938415 -2.208534,-4.29168 -1.120775,-6.58397 l 0.560957,-1.18213 0.638625,0.341782 c 0.35124,0.187976 0.989309,0.834278 1.417931,1.436222 l 0.779312,1.09444 0.158977,1.654533 0.158982,1.654529 -0.604134,1.273111 c -0.724494,1.526765 -0.839586,1.544781 -1.989875,0.311483 z m -11.421849,-1.748424 -1.377132,-1.311318 -0.367725,-1.398738 -0.367723,-1.39874 0.257876,-1.221784 0.257875,-1.221785 0.551414,-0.106195 c 1.47148,-0.283379 3.796672,2.939166 3.787065,5.24859 -0.01257,3.017166 -0.688641,3.364865 -2.74165,1.40997 z M 67.091437,50.35774 c -1.792811,-1.662392 -2.38912,-4.058576 -1.58444,-6.36688 l 0.383895,-1.101232 h 0.524866 c 0.838534,0 2.510525,2.037207 2.919973,3.557792 l 0.375989,1.396316 -0.237575,1.107214 c -0.536256,2.499273 -0.944542,2.74033 -2.382708,1.40679 z m 6.054598,-1.946763 -0.396462,-1.472343 0.421423,-1.412556 0.421418,-1.412554 1.375026,-1.311318 c 1.728017,-1.647959 1.929985,-1.638151 2.402509,0.116677 l 0.38452,1.428 -0.233923,1.107215 c -0.336686,1.593642 -1.350492,3.112084 -2.548647,3.817268 -1.388396,0.817154 -1.372079,0.824843 -1.825864,-0.860396 z m 13.825867,0.285665 C 86.391343,48.443676 85.415616,47.66641 84.803616,46.96938 l -1.112724,-1.267323 -0.230514,-1.228739 c -0.126786,-0.675808 -0.144944,-1.451737 -0.04037,-1.724284 l 0.19016,-0.495547 1.180061,0.266145 c 2.590606,0.584279 4.461106,2.859554 4.461106,5.426493 v 1.237828 l -0.611946,-0.01369 c -0.336575,-0.0075 -1.08695,-0.220658 -1.667504,-0.473624 z M 34.02424,43.610657 33.522784,43.293342 34.459853,41.877339 c 0.515385,-0.778801 1.449153,-1.684096 2.075033,-2.011768 l 1.137968,-0.595765 1.663692,-0.0057 c 0.91503,-0.0033 1.840588,0.171137 2.056792,0.387339 l 0.393102,0.393102 -0.676959,1.159117 c -0.372329,0.637482 -1.203138,1.513673 -1.846242,1.947062 l -1.169284,0.78798 -1.78413,-0.0052 c -0.981276,-0.0029 -2.009789,-0.148188 -2.285585,-0.322712 z M 14.768327,41.753153 c -2.002515,-1.366898 -2.897733,-3.967144 -2.227215,-6.469169 0.659349,-2.460349 4.325499,1.427742 4.325499,4.587357 0,2.81348 -0.31695,3.097731 -2.098284,1.881812 z m 11.757599,-4.505832 c -0.471082,-2.355404 1.109291,-5.348243 3.304237,-6.25742 l 1.088433,-0.450843 0.33286,0.492908 c 0.183075,0.271099 0.269196,1.252079 0.191376,2.179958 l -0.141489,1.687051 -0.69293,0.935584 c -0.77533,1.046841 -2.776701,2.509167 -3.434102,2.509167 -0.236009,0 -0.527782,-0.49338 -0.648385,-1.096405 z m 28.919546,-0.516166 c -1.755289,-0.865652 -3.626174,-3.807509 -3.032396,-4.76826 0.311394,-0.503851 2.358245,-0.258395 3.844322,0.461001 l 1.495955,0.72418 0.685297,1.111665 c 0.376915,0.611415 0.793303,1.544398 0.92531,2.073298 l 0.240009,0.961632 -1.524071,-0.0079 c -0.838239,-0.0044 -2.023729,-0.254377 -2.634426,-0.555554 z m 22.367808,-2.92092 c -1.958074,-1.193898 -3.243487,-5.018429 -2.226575,-6.6248 l 0.31203,-0.492908 1.102641,0.456726 c 0.606451,0.251201 1.500639,0.978533 1.987084,1.616294 l 0.884438,1.159562 0.186533,1.39071 c 0.395795,2.950862 -0.275284,3.696113 -2.246151,2.494416 z M 36.01185,33.391392 c -0.528897,-0.193168 -0.961632,-0.544271 -0.961632,-0.780223 0,-0.735743 2.083189,-2.600715 3.38489,-3.030315 l 1.242551,-0.410079 1.406079,0.188594 c 0.773347,0.103724 1.63036,0.412873 1.904478,0.686993 l 0.498398,0.498395 -0.967288,1.149556 c -1.605361,1.907859 -4.12864,2.565906 -6.507476,1.697079 z M 18.527614,29.195175 c -1.629503,-0.595145 -0.894115,-2.225772 1.570931,-3.483346 l 1.437296,-0.733253 1.712872,0.164584 c 0.942077,0.09052 1.942657,0.394376 2.223515,0.675231 l 0.510644,0.510647 -0.771533,0.980847 c -1.469086,1.867636 -4.43864,2.705265 -6.683725,1.88529 z m 41.742847,0.02695 c -1.371017,-0.289963 -3.015263,-1.417838 -3.015263,-2.068325 0,-0.246978 0.436746,-0.775129 0.970551,-1.17367 l 0.970545,-0.724617 h 1.839255 1.839255 l 1.298992,0.802824 c 0.714445,0.44155 1.298995,1.022396 1.298995,1.290767 0,1.170375 -3.154542,2.306124 -5.20233,1.873025 z M 46.677235,25.677971 c -1.050977,-0.506867 -0.996058,-0.832619 0.370806,-2.199485 l 1.1576,-1.157597 1.538641,-0.414314 1.538644,-0.414313 1.310454,0.392621 c 0.72075,0.215943 1.414735,0.561351 1.542187,0.767578 0.335883,0.543465 -0.906104,2.053953 -2.306279,2.804878 L 50.622099,26.10476 49.043063,26.08109 C 48.174592,26.06815 47.10997,25.886675 46.677235,25.677973 Z m 20.410856,-5.511956 c -1.22728,-0.389312 -2.551301,-1.584033 -3.255083,-2.937198 l -0.524279,-1.008037 0.470086,-0.297926 c 0.617309,-0.391237 3.180071,-0.391272 4.206423,-6e-5 1.466825,0.559106 3.887373,3.54902 3.326918,4.109475 -0.323039,0.323038 -3.327451,0.418165 -4.224065,0.133746 z M 34.074084,17.498649 c -1.090587,-0.556288 -2.520712,-2.024894 -2.520712,-2.588534 0,-0.492786 2.1618,-1.154127 3.696775,-1.130922 l 1.538291,0.02325 1.141578,0.711183 c 0.627866,0.39115 1.352058,1.054771 1.609312,1.474714 l 0.467738,0.763533 -0.537405,0.537403 -0.537403,0.537405 -1.853599,0.129522 -1.853598,0.129523 -1.150977,-0.58709 z m 15.050945,-0.52251 c -1.876611,-0.928908 -1.870303,-1.457003 0.03074,-2.571076 l 1.51687,-0.888954 h 1.495245 1.495249 l 1.358931,0.763761 c 1.543341,0.867408 1.60064,1.007209 0.734181,1.791341 -1.834621,1.660311 -4.39836,2.01017 -6.631213,0.904928 z"
       id="path364560"
       inkscape:export-filename="/home/dusoudeth/Documentos/github/isadora-urel-landing-page/src/assets/images/logo_02.png"
       inkscape:export-xdpi="130.048"
       inkscape:export-ydpi="130.048" />
  </g>
</svg>
