<?xml version="1.0" encoding="UTF-8" standalone="no"?>
<!-- Created with Inkscape (http://www.inkscape.org/) -->

<svg
   width="1000"
   height="200"
   viewBox="0 0 264.58333 52.916665"
   version="1.1"
   id="svg827"
   inkscape:version="1.1.2 (0a00cf5339, 2022-02-04)"
   sodipodi:docname="logo_name.svg"
   inkscape:export-filename="/home/dusoudeth/Documentos/github/isadora-urel-landing-page/src/assets/images/svg/logo_name.png"
   inkscape:export-xdpi="130.048"
   inkscape:export-ydpi="130.048"
   xmlns:inkscape="http://www.inkscape.org/namespaces/inkscape"
   xmlns:sodipodi="http://sodipodi.sourceforge.net/DTD/sodipodi-0.dtd"
   xmlns="http://www.w3.org/2000/svg"
   xmlns:svg="http://www.w3.org/2000/svg">
  <sodipodi:namedview
     id="namedview829"
     pagecolor="#ffffff"
     bordercolor="#000000"
     borderopacity="0.25"
     inkscape:pageshadow="2"
     inkscape:pageopacity="0.0"
     inkscape:pagecheckerboard="0"
     inkscape:document-units="px"
     showgrid="false"
     units="px"
     showguides="false"
     inkscape:zoom="0.45254834"
     inkscape:cx="353.55339"
     inkscape:cy="-418.7398"
     inkscape:window-width="1868"
     inkscape:window-height="1016"
     inkscape:window-x="52"
     inkscape:window-y="27"
     inkscape:window-maximized="1"
     inkscape:current-layer="layer1" />
  <defs
     id="defs824" />
  <g
     inkscape:label="Layer 1"
     inkscape:groupmode="layer"
     id="layer1">
    <path
       style="fill:#501357;fill-opacity:1;stroke:none;stroke-width:0.174845"
       d="m 28.880807,45.239754 c -0.828848,-1.26934 -1.098908,-1.933076 -1.120332,-2.753496 -0.0088,-0.336576 -0.07895,-0.71115 -0.155908,-0.832382 l -0.139932,-0.220428 -0.422656,0.449892 c -0.683708,0.727778 -1.386344,1.076398 -2.952888,1.465118 -0.81136,0.201328 -1.902716,0.561772 -2.42524,0.800992 -0.52252,0.239216 -0.981028,0.434944 -1.018904,0.434944 -0.09003,0 -0.7616,-1.102164 -0.762448,-1.251304 -0.0012,-0.196428 2.534124,-1.181196 3.78842,-1.471542 1.535964,-0.355544 3.032136,-1.355556 3.02964,-2.024948 -1.24e-4,-0.03324 -0.609896,-0.0627 -1.355048,-0.06546 l -1.35482,-0.005 -1.18242,-0.403368 -1.182416,-0.403368 -0.740872,0.122896 c -1.070164,0.177516 -2.872936,0.885376 -3.84738,1.510676 l -0.842614,0.540708 -0.25766,-0.32906 c -0.141712,-0.18098 -0.334937,-0.46144 -0.42939,-0.62324 l -0.171734,-0.294188 0.510512,-0.363512 c 0.280782,-0.199936 1.10685,-0.64672 1.83571,-0.992852 0.728856,-0.346136 1.325196,-0.654356 1.325196,-0.68494 0,-0.0306 -0.452412,-0.190632 -1.005356,-0.355672 l -1.005356,-0.300076 -2.238279,0.004 -2.23828,0.004 0.05272,-0.721752 0.05272,-0.721744 2.622669,0.0082 2.622667,0.0082 1.923292,0.761216 c 1.057808,0.418672 2.552732,0.983756 3.322048,1.255744 l 1.398756,0.49452 0.902392,0.0036 0.902388,0.0036 0.445936,-0.52996 c 1.129756,-1.342656 1.103364,-4.704172 -0.05472,-6.969496 -1.058856,-2.071148 -4.790412,-4.65392 -8.22814,-5.694964 l -0.961644,-0.291216 -2.010712,-0.08997 -2.010713,-0.08997 -1.721747,0.246116 -1.721746,0.246116 -0.05528,-0.188524 C 9.970837,24.824172 9.903087,24.490184 9.8506885,24.18566 l -0.09527,-0.553676 1.2603385,-0.216316 c 0.693186,-0.118972 2.213801,-0.22388 3.379144,-0.233124 l 2.118803,-0.0168 -1.24458,-1.359912 c -2.194322,-2.397676 -3.604087,-4.055469 -3.601479,-4.235121 0.0014,-0.09616 0.246519,-0.345295 0.544719,-0.553624 l 0.542181,-0.37878 1.135195,1.340425 c 0.624356,0.737233 2.050967,2.282473 3.170244,3.433864 l 2.035048,2.09344 2.360404,1.164868 c 2.813708,1.388576 4.643568,2.644752 5.582016,3.83198 l 0.688464,0.870972 0.08748,-0.306548 c 0.04812,-0.1686 0.18144,-1.303248 0.296272,-2.521444 L 28.31846,24.330968 28.22934,21.73764 28.14022,19.144312 27.85866,18.252738 27.577096,17.361163 26.658108,16.495978 C 25.535619,15.439191 24.845735,14.962612 21.653779,13.038911 20.282671,12.212585 18.893287,11.35468 18.566255,11.132458 l -0.5946,-0.404043 0.386852,-0.553543 c 0.489744,-0.7007746 0.407432,-0.7123646 2.006072,0.28248 0.744224,0.463134 1.795196,1.092429 2.335496,1.398432 l 0.982364,0.556369 0.892488,-1.791833 c 0.490868,-0.9855086 1.296736,-2.2899476 1.79082,-2.8987546 l 0.898332,-1.106922 0.505152,0.483966 c 0.644948,0.617898 0.641236,0.647396 -0.201924,1.605276 -0.660188,0.750014 -2.442776,4.0168016 -2.43796,4.4678316 0.0012,0.111501 0.261424,0.370554 0.5783,0.575674 0.316876,0.20512 1.0574,0.773459 1.645616,1.262975 l 1.069476,0.89003 0.530144,1.097426 0.53014,1.097427 0.207444,1.475621 0.207444,1.475622 -0.09563,2.755808 -0.09564,2.755804 0.615188,-0.82196 c 1.667632,-2.228152 4.197177,-4.351796 6.390793,-5.365311 l 1.30666,-0.603714 0.121032,-1.069786 c 0.275104,-2.431566 1.434324,-5.114266 2.890432,-6.68911 l 0.95436,-1.032177 0.494948,0.553946 0.494951,0.553946 -0.793839,0.882942 c -1.206692,1.342132 -2.541888,4.588199 -2.541888,6.179723 v 0.383463 l 2.491536,0.101222 c 2.335203,0.09487 6.70636,0.704861 6.990308,0.975489 0.130484,0.124369 -0.160552,1.422475 -0.318928,1.422475 -0.04808,0 -1.008209,-0.173088 -2.133629,-0.38464 l -2.046216,-0.38464 -3.147203,-0.0088 -3.1472,-0.0088 -1.136488,0.586052 c -3.388601,1.747396 -6.310025,4.982216 -7.471061,8.272516 l -0.45252,1.282416 -0.07872,1.398756 -0.07873,1.398756 0.21074,0.78046 0.210736,0.780464 0.638864,0.638388 0.638864,0.638392 0.92654,0.19846 c 1.66652,0.35696 3.382241,0.157264 7.277189,-0.847008 l 2.048312,-0.528132 h 1.503752 c 0.827063,0 2.008959,0.08798 2.626431,0.195504 l 1.122684,0.195508 -0.116608,0.635004 c -0.156232,0.850752 -0.237904,0.906536 -1.0512,0.718008 -0.384572,-0.08914 -1.350356,-0.163956 -2.146184,-0.166252 l -1.446955,-0.0042 0.288344,0.568248 c 0.158588,0.312532 0.565176,0.957696 0.903528,1.433696 l 0.615179,0.865456 -0.593055,0.496756 -0.59306,0.49676 -0.384708,-0.47996 C 41.578228,40.532424 41.145488,39.858432 40.828176,39.29864 40.51086,38.738852 40.16752,38.156472 40.0652,38.004472 L 39.879156,37.7281 38.075628,38.182904 c -0.991944,0.25014 -2.50916,0.540596 -3.371592,0.645456 l -1.568065,0.19066 -1.145264,-0.19944 c -0.629896,-0.109692 -1.448372,-0.354076 -1.81884,-0.543072 -0.82916,-0.423008 -0.84154,-0.271576 -0.07136,0.872904 0.744268,1.10598 1.401128,1.669708 2.891576,2.481616 l 1.158836,0.631262 1.039449,0.120852 c 1.532544,0.17818 3.117376,0.481624 3.280908,0.628184 0.07883,0.07065 0.08813,0.422688 0.02064,0.78232 l -0.122664,0.653864 -0.632616,-0.106692 c -0.34794,-0.05868 -1.37142,-0.19086 -2.274396,-0.293728 l -1.641781,-0.187048 -1.458536,-0.788616 c -0.802196,-0.433744 -1.86616,-1.15511 -2.36436,-1.603034 l -0.90582,-0.814412 0.122748,1.22196 0.122748,1.221958 0.79662,1.203264 0.796624,1.203252 -0.23528,0.158188 c -0.129404,0.087 -0.434472,0.266464 -0.677924,0.3988 l -0.442648,0.24062 z M 33.627231,30.2317 c -0.922548,-0.725676 -1.277452,-2.167424 -0.824724,-3.35032 0.220796,-0.576904 0.352828,-0.592824 0.959396,-0.115696 0.915777,0.720348 1.277261,2.291848 0.778821,3.385804 -0.245801,0.539468 -0.321225,0.546088 -0.913493,0.08021 z M 19.848499,29.94116 c -0.903984,-0.96922 -1.10428,-2.145868 -0.560396,-3.292028 l 0.280484,-0.591072 0.319316,0.170892 c 0.17562,0.09399 0.49466,0.417144 0.708972,0.71812 l 0.389664,0.547228 0.07949,0.827276 0.07949,0.827276 -0.302072,0.636564 c -0.362252,0.763392 -0.419796,0.7724 -0.994948,0.155744 z m -5.710997,-0.874224 -0.688574,-0.655668 -0.183866,-0.699376 -0.183863,-0.69938 0.128939,-0.6109 0.128939,-0.6109 0.275711,-0.0531 c 0.735749,-0.141692 1.89836,1.4696 1.893557,2.624328 -0.0063,1.5086 -0.344326,1.682452 -1.370843,0.704992 z m 23.86329,-2.429168 c -0.896416,-0.831204 -1.194576,-2.029312 -0.792228,-3.18348 l 0.191948,-0.550624 h 0.262436 c 0.419272,0 1.25528,1.01862 1.460004,1.77892 l 0.188,0.698168 -0.118792,0.553612 c -0.268132,1.249652 -0.472276,1.370184 -1.191368,0.703404 z m 3.027336,-0.973392 -0.198232,-0.736184 0.210712,-0.706284 0.210712,-0.706288 0.687524,-0.655664 c 0.86402,-0.823992 0.965003,-0.819088 1.201267,0.05834 l 0.192264,0.714012 -0.116964,0.553612 c -0.168344,0.796832 -0.675255,1.556064 -1.274339,1.90866 -0.694208,0.40858 -0.686048,0.412424 -0.912944,-0.430204 z m 6.913019,0.142832 c -0.29028,-0.126484 -0.778152,-0.51512 -1.084156,-0.86364 l -0.556368,-0.633672 -0.11526,-0.614376 c -0.06339,-0.337908 -0.07247,-0.725876 -0.0202,-0.862152 l 0.09508,-0.247776 0.590036,0.133072 c 1.29532,0.292144 2.230581,1.429796 2.230581,2.71328 v 0.618924 l -0.305976,-0.0068 c -0.168288,-0.0036 -0.543481,-0.110332 -0.833761,-0.236816 z m -26.474164,-2.543024 -0.250728,-0.15866 0.46854,-0.708008 c 0.257696,-0.389408 0.724584,-0.84206 1.037528,-1.005896 l 0.568992,-0.297889 0.831856,-0.0029 c 0.45752,-0.0016 0.920304,0.08557 1.028408,0.193673 l 0.196556,0.196552 -0.338484,0.579568 c -0.186168,0.318744 -0.601576,0.756844 -0.923136,0.973544 l -0.584648,0.393992 -0.892076,-0.0028 c -0.490644,-0.0016 -1.004908,-0.07409 -1.142808,-0.161356 z M 11.838907,22.33542 c -1.001271,-0.683456 -1.448885,-1.983596 -1.113622,-3.234624 0.329679,-1.230191 2.162777,0.71388 2.162777,2.293708 0,1.406756 -0.158477,1.548884 -1.049155,0.940916 z m 5.878872,-2.252944 c -0.235544,-1.177716 0.554652,-2.674155 1.65214,-3.128749 l 0.544224,-0.225425 0.166432,0.246458 c 0.09154,0.135551 0.1346,0.626047 0.09569,1.089993 l -0.07074,0.843536 -0.346468,0.467798 c -0.387672,0.523426 -1.388368,1.254599 -1.717076,1.254599 -0.118004,0 -0.263892,-0.246693 -0.324196,-0.54821 z M 32.177735,19.82439 c -0.877656,-0.432831 -1.813108,-1.903778 -1.516216,-2.38416 0.155696,-0.251928 1.179136,-0.129199 1.922184,0.230503 l 0.747988,0.362095 0.342652,0.555839 c 0.18846,0.305712 0.396656,0.772209 0.46266,1.036663 l 0.120008,0.480822 -0.762044,-0.004 c -0.419128,-0.0022 -1.01188,-0.12719 -1.317232,-0.277781 z M 43.361779,18.363912 C 42.382732,17.766955 41.740016,15.854666 42.24848,15.05147 l 0.156016,-0.246457 0.551327,0.228366 c 0.303228,0.125602 0.750328,0.489273 0.993556,0.808157 l 0.442224,0.579788 0.09327,0.695364 c 0.1979,1.47545 -0.137644,1.84808 -1.123092,1.247224 z M 22.460803,18.154488 c -0.264452,-0.09659 -0.480824,-0.272139 -0.480824,-0.390117 0,-0.367876 1.041608,-1.300374 1.692468,-1.515177 l 0.621284,-0.205042 0.703048,0.0943 c 0.386676,0.05186 0.815188,0.206439 0.952248,0.3435 l 0.249204,0.249201 -0.483648,0.574786 c -0.802692,0.953941 -2.064348,1.282969 -3.25378,0.848549 z m -8.742229,-2.098136 c -0.814762,-0.297576 -0.447064,-1.1129 0.785475,-1.741695 l 0.718658,-0.366631 0.856446,0.08229 c 0.471045,0.04526 0.971342,0.19719 1.11177,0.337619 l 0.255328,0.255327 -0.385772,0.49043 c -0.734553,0.93383 -2.219348,1.352649 -3.341905,0.942656 z m 20.871686,0.01348 c -0.685517,-0.144983 -1.507649,-0.708928 -1.507649,-1.034175 0,-0.123491 0.218376,-0.38757 0.48528,-0.586842 l 0.48528,-0.362313 h 0.919637 0.91964 l 0.649504,0.401416 c 0.357228,0.220778 0.649508,0.511205 0.649508,0.645392 0,0.585195 -1.577292,1.153077 -2.6012,0.936524 z m -6.796697,-1.7721 c -0.525496,-0.253437 -0.498036,-0.416315 0.185404,-1.099756 l 0.578808,-0.578806 0.769328,-0.20716 0.769332,-0.207159 0.655236,0.196313 c 0.36038,0.107973 0.707376,0.280679 0.771104,0.383794 0.167944,0.271736 -0.45306,1.02699 -1.153156,1.402456 l -0.6036,0.323715 -0.789528,-0.01184 c -0.43424,-0.0065 -0.96656,-0.09721 -1.182928,-0.201561 z M 37.99912,11.541719 c -0.613648,-0.194658 -1.275668,-0.792026 -1.627564,-1.468618 l -0.26214,-0.5040235 0.235044,-0.148965 c 0.30866,-0.195621 1.590056,-0.195639 2.10324,-3.01e-5 0.73342,0.279557 1.943708,1.7745316 1.66348,2.0547636 -0.161524,0.16152 -1.663748,0.209085 -2.11206,0.06687 z m -16.507213,-1.3337 c -0.5453,-0.2781465 -1.260372,-1.0124586 -1.260372,-1.2942826 0,-0.246396 1.080912,-0.577071 1.848412,-0.565468 l 0.769152,0.01162 0.570796,0.355596 c 0.31394,0.195577 0.67604,0.527392 0.804668,0.737367 l 0.233872,0.38177 -0.268704,0.2687055 -0.268708,0.268705 -0.926808,0.06476 -0.926812,0.06476 -0.575496,-0.293549 z m 7.525568,-0.2612576 c -0.93832,-0.46446 -0.935164,-0.728511 0.01536,-1.285554 l 0.758444,-0.444483 h 0.747632 0.747636 l 0.679472,0.3818851 c 0.77168,0.4337099 0.800332,0.5036109 0.367096,0.895682 -0.917324,0.8301655 -2.199208,1.0050975 -3.315648,0.45247 z"
       id="path364560"
       inkscape:export-filename="/home/dusoudeth/Documentos/github/isadora-urel-landing-page/src/assets/images/logo_02.png"
       inkscape:export-xdpi="130.048"
       inkscape:export-ydpi="130.048" />
    <text
       xml:space="preserve"
       style="font-weight:bold;font-size:26.4583px;font-family:'Century Schoolbook L';-inkscape-font-specification:'Century Schoolbook L Bold';fill:#000000;fill-opacity:1;stroke:none;stroke-width:0.529167"
       x="59.962864"
       y="37.808945"
       id="text2086"><tspan
         sodipodi:role="line"
         id="tspan2084"
         style="font-style:normal;font-variant:normal;font-weight:normal;font-stretch:normal;font-size:26.4583px;font-family:'Cinzel Decorative';-inkscape-font-specification:'Cinzel Decorative';fill:#501357;fill-opacity:1;stroke:none;stroke-width:0.529167"
         x="59.962864"
         y="37.808945">Isadora Urel</tspan></text>
  </g>
</svg>
