<?xml version="1.0" encoding="UTF-8" standalone="no"?>
<!-- Created with Inkscape (http://www.inkscape.org/) -->

<svg
   width="100mm"
   height="100mm"
   viewBox="0 0 99.998743 99.998737"
   version="1.1"
   id="svg134843"
   inkscape:version="1.2.2 (b0a8486541, 2022-12-01)"
   sodipodi:docname="logo_03.svg"
   inkscape:export-filename="../logo_03.png"
   inkscape:export-xdpi="130.048"
   inkscape:export-ydpi="130.048"
   xmlns:inkscape="http://www.inkscape.org/namespaces/inkscape"
   xmlns:sodipodi="http://sodipodi.sourceforge.net/DTD/sodipodi-0.dtd"
   xmlns="http://www.w3.org/2000/svg"
   xmlns:svg="http://www.w3.org/2000/svg">
  <sodipodi:namedview
     id="namedview134845"
     pagecolor="#ffffff"
     bordercolor="#000000"
     borderopacity="0.25"
     inkscape:pageshadow="2"
     inkscape:pageopacity="0.0"
     inkscape:pagecheckerboard="0"
     inkscape:document-units="px"
     showgrid="true"
     inkscape:zoom="1.0633188"
     inkscape:cx="155.17453"
     inkscape:cy="173.98357"
     inkscape:window-width="1872"
     inkscape:window-height="1011"
     inkscape:window-x="48"
     inkscape:window-y="32"
     inkscape:window-maximized="1"
     inkscape:current-layer="layer1"
     inkscape:snap-page="true"
     inkscape:showpageshadow="2"
     inkscape:deskcolor="#d1d1d1" />
  <defs
     id="defs134840">
    <inkscape:path-effect
       effect="perspective-envelope"
       up_left_point="34.640579,19.999748"
       up_right_point="47.630797,27.499653"
       down_left_point="34.640579,34.999559"
       down_right_point="47.630797,42.499464"
       id="path-effect135081"
       is_visible="true"
       lpeversion="1"
       deform_type="perspective"
       horizontal_mirror="false"
       vertical_mirror="false"
       overflow_perspective="false" />
    <inkscape:path-effect
       effect="perspective-envelope"
       up_left_point="34.640583,19.999748"
       up_right_point="47.630797,12.499842"
       down_left_point="47.630797,27.499653"
       down_right_point="60.621014,19.999748"
       id="path-effect135036"
       is_visible="true"
       lpeversion="1"
       deform_type="perspective"
       horizontal_mirror="false"
       vertical_mirror="false"
       overflow_perspective="false" />
  </defs>
  <g
     inkscape:label="Layer 1"
     inkscape:groupmode="layer"
     id="layer1">
    <rect
       style="fill:#135745;fill-opacity:1;stroke-width:0.249997;stroke-linecap:square;stroke-dasharray:0.249997, 0.999988;paint-order:fill markers stroke"
       id="rect2771"
       width="99.998741"
       height="99.998741"
       x="0"
       y="0" />
    <path
       style="fill:#ffffff;stroke:none;stroke-width:0.437106"
       d="m 49.228641,75.22434 c -1.113226,-1.704848 -1.475943,-2.596314 -1.504714,-3.698218 -0.01181,-0.452055 -0.106036,-0.955141 -0.209404,-1.117971 l -0.187942,-0.296055 -0.567665,0.604249 c -0.918291,0.977479 -1.862,1.445709 -3.966022,1.967797 -1.089739,0.270403 -2.555539,0.754515 -3.257339,1.075808 -0.701798,0.321294 -1.317617,0.584178 -1.368488,0.584178 -0.120918,0 -1.022904,-1.480318 -1.024042,-1.680628 -0.0015,-0.263824 3.403576,-1.586462 5.08822,-1.976423 2.062953,-0.477533 4.072462,-1.820647 4.069106,-2.719708 -1.66e-4,-0.04465 -0.819148,-0.0842 -1.81996,-0.08791 l -1.819656,-0.0067 -1.588108,-0.541762 -1.588106,-0.541762 -0.995062,0.165062 c -1.437335,0.238424 -3.858634,1.189149 -5.16741,2.028989 l -1.131715,0.726223 -0.346063,-0.441958 c -0.190333,-0.243074 -0.449854,-0.61976 -0.576714,-0.837077 l -0.230656,-0.39512 0.685669,-0.488236 c 0.377118,-0.268534 1.48661,-0.868607 2.465537,-1.333498 0.978929,-0.464893 1.779872,-0.878861 1.779872,-0.919939 0,-0.04108 -0.607632,-0.25604 -1.350293,-0.477705 l -1.350293,-0.403029 -3.006228,0.0054 -3.006232,0.0054 0.07081,-0.969386 0.07081,-0.969377 3.522502,0.01098 3.522504,0.01098 2.583168,1.022393 c 1.420743,0.562318 3.42857,1.321279 4.461838,1.686585 l 1.878668,0.664189 1.212002,0.0049 1.211999,0.0049 0.598937,-0.71179 c 1.517372,-1.803233 1.481925,-6.318079 -0.07349,-9.360636 -1.422147,-2.781758 -6.433998,-6.250672 -11.051203,-7.648901 l -1.291585,-0.391129 -2.700586,-0.120838 -2.700585,-0.120838 -2.312477,0.330559 -2.312475,0.330555 -0.07425,-0.253206 c -0.04084,-0.139228 -0.131822,-0.587807 -0.202197,-0.996811 l -0.127953,-0.743641 1.692759,-0.290534 c 0.931017,-0.159792 2.973353,-0.300693 4.538522,-0.313108 l 2.845764,-0.02257 -1.671595,-1.826499 c -2.947191,-3.220315 -4.840645,-5.446895 -4.837141,-5.688185 0.0019,-0.129158 0.331099,-0.463764 0.731611,-0.743572 l 0.728203,-0.508738 1.524678,1.800322 c 0.838572,0.990178 2.754652,3.065588 4.25795,4.612021 l 2.733274,2.811695 3.170253,1.564533 c 3.779087,1.864996 6.23677,3.552163 7.497199,5.146726 l 0.924676,1.169801 0.117499,-0.411722 c 0.06463,-0.226445 0.243692,-1.750393 0.397925,-3.386546 l 0.280427,-2.974827 -0.119692,-3.483095 -0.119695,-3.483096 -0.378166,-1.197472 -0.378167,-1.197473 -1.234293,-1.162029 c -1.50764,-1.419376 -2.43422,-2.059468 -6.721334,-4.643188 -1.841532,-1.109838 -3.707612,-2.262088 -4.146848,-2.560556 l -0.798608,-0.54267 0.519579,-0.743461 c 0.657778,-0.941211 0.547226,-0.956778 2.694357,0.379397 0.999564,0.622036 2.411126,1.467242 3.136802,1.878233 l 1.31941,0.747258 1.1987,-2.406608 c 0.659286,-1.323636 1.741646,-3.075627 2.405249,-3.893315 l 1.20655,-1.486705 0.678469,0.650015 c 0.866226,0.829897 0.861243,0.869517 -0.271205,2.156043 -0.886698,1.007343 -3.28089,5.394963 -3.274422,6.000741 0.0017,0.149756 0.35112,0.49769 0.776713,0.773186 0.425594,0.275497 1.420194,1.038832 2.210224,1.696301 l 1.436415,1.195397 0.712033,1.473952 0.712031,1.473953 0.278618,1.981905 0.278617,1.981906 -0.128443,3.70132 -0.128445,3.70132 0.826254,-1.103971 c 2.239798,-2.992629 5.637223,-5.844895 8.583468,-7.206145 l 1.754973,-0.810848 0.16256,-1.436828 c 0.369488,-3.265833 1.926437,-6.868964 3.882135,-8.984136 l 1.281797,-1.386316 0.664768,0.744004 0.664768,0.744004 -1.066204,1.185878 c -1.620711,1.802617 -3.414006,6.162405 -3.414006,8.299979 v 0.515029 l 3.346376,0.135951 c 3.136412,0.127423 9.007306,0.946699 9.388674,1.310179 0.175256,0.16704 -0.215638,1.910524 -0.428351,1.910524 -0.06457,0 -1.354125,-0.232476 -2.865673,-0.516611 l -2.748272,-0.516609 -4.227002,-0.01177 -4.227003,-0.01176 -1.526418,0.787127 c -4.551222,2.346927 -8.474984,6.691608 -10.03437,11.110807 l -0.607779,1.722411 -0.105736,1.878667 -0.105736,1.878669 0.28304,1.048237 0.283039,1.048237 0.858059,0.85742 0.858058,0.857425 1.244435,0.266551 c 2.238302,0.479429 4.542686,0.211218 9.773984,-1.137614 l 2.751085,-0.709338 h 2.019688 c 1.110829,0 2.69823,0.118165 3.52756,0.262584 l 1.507874,0.262584 -0.156618,0.852876 c -0.209833,1.142643 -0.319527,1.217568 -1.411865,0.964356 -0.516516,-0.119731 -1.81366,-0.220213 -2.882535,-0.223294 l -1.943404,-0.0056 0.387273,0.763211 c 0.213001,0.419764 0.759088,1.286283 1.213527,1.925596 l 0.826244,1.162392 -0.796532,0.667196 -0.796536,0.667199 -0.516701,-0.644637 C 66.28253,68.902354 65.70132,67.997116 65.275138,67.245261 64.848952,66.493409 64.387811,65.711216 64.250385,65.507065 L 64.00051,65.13587 61.578191,65.746713 c -1.332278,0.335962 -3.370046,0.726074 -4.52838,0.866916 l -2.106062,0.256072 -1.538204,-0.267869 c -0.846014,-0.147327 -1.945309,-0.475558 -2.442882,-0.729398 -1.113646,-0.568139 -1.130272,-0.364755 -0.09584,1.172398 0.999625,1.485437 1.881852,2.242584 3.883672,3.333054 l 1.55643,0.847843 1.396082,0.162319 c 2.058358,0.239314 4.186943,0.646868 4.406586,0.843712 0.105876,0.09489 0.118366,0.567713 0.02773,1.050731 l -0.164749,0.878205 -0.849665,-0.143297 C 60.655591,73.938588 59.280957,73.761056 58.06817,73.62289 L 55.863099,73.371666 53.90414,72.312478 c -1.077429,-0.582559 -2.506435,-1.55142 -3.175567,-2.15303 l -1.21661,-1.093834 0.164864,1.641212 0.164864,1.641208 1.06994,1.6161 1.069945,1.61609 -0.316006,0.212462 c -0.173803,0.11685 -0.583537,0.357888 -0.910519,0.535628 l -0.594518,0.323174 z m 6.374915,-20.157301 c -1.23907,-0.974652 -1.715743,-2.911062 -1.107683,-4.49981 0.296552,-0.774836 0.47388,-0.796219 1.288562,-0.15539 1.229978,0.9675 1.715488,3.078177 1.046034,4.54747 -0.330132,0.72456 -0.431436,0.733452 -1.226913,0.10773 z M 37.097359,54.676816 C 35.883217,53.375059 35.6142,51.794704 36.344693,50.255299 l 0.376715,-0.793869 0.428874,0.229527 c 0.235878,0.126237 0.664377,0.560266 0.952223,0.964506 l 0.523352,0.73498 0.106764,1.111114 0.106764,1.111113 -0.40571,0.854967 c -0.48654,1.025312 -0.563832,1.03741 -1.336316,0.209179 z m -7.670434,-1.174168 -0.924823,-0.880625 -0.246949,-0.939334 -0.246946,-0.939335 0.173178,-0.820499 0.173178,-0.820499 0.370306,-0.07132 c 0.988184,-0.190305 2.549685,1.973821 2.543233,3.524732 -0.0084,2.026202 -0.462463,2.259702 -1.841177,0.946877 z m 32.050756,-3.262612 c -1.203975,-1.116393 -1.604432,-2.725569 -1.064042,-4.275728 l 0.257807,-0.739542 h 0.352478 c 0.563124,0 1.685963,1.368103 1.960931,2.389264 l 0.252499,0.937707 -0.159545,0.743558 c -0.360128,1.678407 -0.634316,1.84029 -1.600128,0.944741 z m 4.066014,-1.307363 -0.266247,-0.988765 0.28301,-0.948613 0.283006,-0.948611 0.92341,-0.880626 c 1.160464,-1.106701 1.296096,-1.100113 1.613424,0.07836 l 0.258228,0.958984 -0.157094,0.743559 c -0.226104,1.070223 -0.906933,2.089945 -1.711563,2.563517 -0.932389,0.548766 -0.921431,0.55393 -1.226174,-0.577806 z m 9.28487,0.191839 c -0.389879,-0.169881 -1.045136,-0.691859 -1.456129,-1.159955 l -0.74726,-0.851082 -0.154803,-0.82517 c -0.08514,-0.453844 -0.09734,-0.974924 -0.02711,-1.157956 l 0.127703,-0.332788 0.792479,0.178732 c 1.739742,0.392377 2.995892,1.920356 2.995892,3.644204 v 0.831273 l -0.410958,-0.0092 c -0.22603,-0.005 -0.72995,-0.148186 -1.119826,-0.318066 z m -35.55742,-3.415533 -0.336757,-0.213096 0.629296,-0.950927 c 0.346111,-0.52301 0.973191,-1.130968 1.393505,-1.351019 l 0.764211,-0.400091 1.117265,-0.0039 c 0.614496,-0.0022 1.236062,0.114929 1.381256,0.260121 l 0.26399,0.263991 -0.454617,0.778414 c -0.250041,0.428106 -0.807976,1.01652 -1.239858,1.307565 l -0.785242,0.529174 -1.198147,-0.0035 c -0.658983,-0.002 -1.349689,-0.09955 -1.534902,-0.216752 z m -12.93146,-1.247422 c -1.344804,-0.917951 -1.945995,-2.664166 -1.495703,-4.34442 0.442791,-1.652268 2.904822,0.958811 2.904822,3.080675 0,1.889415 -0.212849,2.080306 -1.409119,1.263745 z m 7.895908,-3.025926 c -0.316359,-1.58179 0.744953,-3.591655 2.218986,-4.20222 l 0.730946,-0.302767 0.223535,0.331017 c 0.122945,0.182058 0.18078,0.840842 0.128519,1.463967 l -0.09502,1.132953 -0.465342,0.628298 c -0.520678,0.703014 -1.864715,1.685051 -2.306198,1.685051 -0.158494,0 -0.354436,-0.331333 -0.435428,-0.736299 z m 19.421149,-0.346636 c -1.178778,-0.581335 -2.435186,-2.556962 -2.03643,-3.202162 0.209119,-0.338365 1.583698,-0.173528 2.581685,0.309588 l 1.00462,0.48633 0.460218,0.746546 c 0.25312,0.410601 0.532749,1.037153 0.621398,1.39234 l 0.16118,0.645792 -1.023501,-0.0053 C 54.862985,41.459229 54.06686,41.2913 53.656742,41.089042 Z M 68.67802,39.127429 c -1.31496,-0.801772 -2.178189,-3.370166 -1.495273,-4.448938 l 0.209546,-0.331016 0.740487,0.306719 c 0.407267,0.168696 1.007765,0.657141 1.334442,1.085435 l 0.593951,0.778712 0.125268,0.933943 c 0.265799,1.981675 -0.184869,2.482154 -1.508421,1.675145 z M 40.60594,38.846151 c -0.355185,-0.129724 -0.645792,-0.365509 -0.645792,-0.523965 0,-0.494095 1.398982,-1.746531 2.27315,-2.035031 l 0.834445,-0.275392 0.944264,0.126652 c 0.519346,0.06966 1.094881,0.277268 1.278966,0.461355 l 0.334703,0.334701 -0.649589,0.771994 c -1.078093,1.281238 -2.772621,1.723154 -4.370147,1.139686 z M 28.864264,36.028149 c -1.094305,-0.399675 -0.60045,-1.494736 1.054971,-2.33927 l 0.965228,-0.492421 1.150292,0.110528 c 0.632659,0.06079 1.304606,0.264847 1.493218,0.453457 l 0.342927,0.342928 -0.518128,0.658696 c -0.986576,1.254226 -2.980804,1.816742 -4.488508,1.266082 z m 28.032737,0.0181 c -0.920716,-0.194728 -2.024923,-0.95216 -2.024923,-1.389 0,-0.16586 0.293301,-0.520544 0.651781,-0.788187 l 0.651778,-0.48662 h 1.235166 1.235166 l 0.872348,0.539142 c 0.479791,0.296527 0.87235,0.686599 0.87235,0.866825 0,0.785974 -2.118458,1.548696 -3.493666,1.257844 z m -9.128638,-2.380106 c -0.705791,-0.340391 -0.66891,-0.559152 0.249018,-1.477082 l 0.777396,-0.777394 1.033286,-0.278236 1.033289,-0.278234 0.880045,0.263667 c 0.484026,0.145018 0.950077,0.37698 1.035668,0.515474 0.225564,0.364967 -0.608501,1.379347 -1.5488,1.883637 l -0.810697,0.434781 -1.060414,-0.0159 c -0.583229,-0.0087 -1.298184,-0.13056 -1.588791,-0.270715 z m 13.707072,-3.701598 c -0.82419,-0.261446 -1.713347,-1.06377 -2.185977,-1.972499 l -0.352084,-0.676955 0.31569,-0.200074 c 0.414559,-0.262738 2.135602,-0.262762 2.824857,-4.1e-5 0.985058,0.375473 2.610597,2.383373 2.234218,2.759751 -0.216939,0.216938 -2.234576,0.280822 -2.836704,0.08982 z M 39.304618,28.173254 c -0.732392,-0.373579 -1.692804,-1.359833 -1.692804,-1.738351 0,-0.330934 1.451773,-0.775062 2.482599,-0.759479 l 1.03305,0.01561 0.766636,0.477602 c 0.421649,0.262679 0.907986,0.708339 1.080746,0.990355 l 0.314114,0.512756 -0.360899,0.360899 -0.360897,0.360897 -1.244799,0.08698 -1.244798,0.08698 -0.772948,-0.394265 z m 10.107581,-0.350896 c -1.260253,-0.623815 -1.256018,-0.978461 0.02064,-1.726626 l 1.018665,-0.596984 h 1.004144 1.004146 l 0.912601,0.512909 c 1.036442,0.582515 1.074922,0.6764 0.493046,1.20299 -1.232055,1.114995 -2.953754,1.349945 -4.453244,0.607711 z"
       id="path364560"
       inkscape:export-filename="/home/dusoudeth/Documentos/github/isadora-urel-landing-page/src/assets/images/logo_02.png"
       inkscape:export-xdpi="130.048"
       inkscape:export-ydpi="130.048" />
  </g>
</svg>
