<?xml version="1.0" encoding="UTF-8" standalone="no"?>
<!-- Created with Inkscape (http://www.inkscape.org/) -->

<svg
   version="1.1"
   id="svg1"
   width="512"
   height="512"
   viewBox="0 0 512 512"
   sodipodi:docname="services_tree_03.svg"
   inkscape:version="1.1.2 (0a00cf5339, 2022-02-04)"
   inkscape:export-filename="/home/dusoudeth/Documentos/github/isadora-urel-landing-page/src/assets/images/services_tree_03_white.png"
   inkscape:export-xdpi="96"
   inkscape:export-ydpi="96"
   xmlns:inkscape="http://www.inkscape.org/namespaces/inkscape"
   xmlns:sodipodi="http://sodipodi.sourceforge.net/DTD/sodipodi-0.dtd"
   xmlns="http://www.w3.org/2000/svg"
   xmlns:svg="http://www.w3.org/2000/svg">
  <defs
     id="defs1" />
  <sodipodi:namedview
     id="namedview1"
     pagecolor="#ffffff"
     bordercolor="#000000"
     borderopacity="0.25"
     inkscape:showpageshadow="2"
     inkscape:pageopacity="0.0"
     inkscape:pagecheckerboard="0"
     inkscape:deskcolor="#d1d1d1"
     showgrid="false"
     inkscape:zoom="0.796875"
     inkscape:cx="17.568627"
     inkscape:cy="344.47059"
     inkscape:window-width="1868"
     inkscape:window-height="1016"
     inkscape:window-x="52"
     inkscape:window-y="27"
     inkscape:window-maximized="1"
     inkscape:current-layer="g1"
     inkscape:pageshadow="2"
     inkscape:object-paths="true" />
  <g
     inkscape:groupmode="layer"
     inkscape:label="Image"
     id="g1">
    <path
       id="path1277"
       style="fill:#9ad6c7;stroke-width:0.976997;fill-opacity:1"
       d="M 236.51562 198.38867 C 234.95036 198.38639 233.38664 199.26766 231.62109 201.0332 C 229.44376 203.21054 227.63298 203.94424 223.3457 204.38672 C 206.44241 206.1313 195.10412 225.03484 199.7168 243.78125 C 202.49095 255.05567 208.83323 263.0161 217.58594 266.21094 C 223.513 268.37438 252.37901 267.73682 257.20508 265.33594 C 262.2871 262.80771 267.36318 257.58428 270.47852 251.67578 C 272.92104 247.04331 273.15039 245.68255 273.15039 235.85938 C 273.15039 226.0224 272.92205 224.68261 270.46289 220.01758 C 265.46847 210.54315 258.13421 205.19304 248.91602 204.30273 C 245.42279 203.96535 243.5023 203.1312 241.41797 201.04688 C 239.64729 199.27616 238.08089 198.39095 236.51562 198.38867 z M 247.03711 218.76367 C 259.21136 218.76367 263.81513 240.93714 253.51758 249.97852 L 250.12305 252.95898 L 236.72266 252.95312 C 225.33622 252.95002 222.87152 252.67452 220.31445 251.11523 C 216.91962 249.04505 214.06514 243.76485 213.31445 238.16797 C 211.56799 225.14711 224.13821 213.09388 230.49609 221.69336 C 232.19807 223.99542 233.41057 224.625 236.14258 224.625 C 238.7846 224.625 240.23792 223.9196 242.19141 221.69336 C 243.66568 220.01326 245.73393 218.76367 247.03711 218.76367 z " />
    <path
       id="path1277-7"
       style="fill:#9ad6c7;stroke-width:0.976997;fill-opacity:1"
       d="m 329.06067,108.91181 c -1.56526,-0.002 -3.12898,0.87899 -4.89453,2.64453 -2.17733,2.17734 -3.98811,2.91104 -8.27539,3.35352 -16.90329,1.74458 -28.24158,20.64812 -23.6289,39.39453 2.77415,11.27442 9.11643,19.23485 17.86914,22.42969 5.92706,2.16344 34.79307,1.52588 39.61914,-0.875 5.08202,-2.52823 10.1581,-7.75166 13.27344,-13.66016 2.44252,-4.63247 2.67187,-5.99323 2.67187,-15.8164 0,-9.83698 -0.22834,-11.17677 -2.6875,-15.8418 -4.99442,-9.47443 -12.32868,-14.82454 -21.54687,-15.71485 -3.49323,-0.33738 -5.41372,-1.17153 -7.49805,-3.25585 -1.77068,-1.77072 -3.33708,-2.65593 -4.90235,-2.65821 z m 10.52149,20.375 c 12.17425,0 16.77802,22.17347 6.48047,31.21485 l -3.39453,2.98046 -13.40039,-0.006 c -11.38644,-0.003 -13.85114,-0.2786 -16.40821,-1.83789 -3.39483,-2.07018 -6.24931,-7.35038 -7,-12.94726 -1.74646,-13.02086 10.82376,-25.07409 17.18164,-16.47461 1.70198,2.30206 2.91448,2.93164 5.64649,2.93164 2.64202,0 4.09534,-0.7054 6.04883,-2.93164 1.47427,-1.6801 3.54252,-2.92969 4.8457,-2.92969 z" />
    <path
       id="path13978"
       style="fill:#9ad6c7;stroke-width:0.976997;fill-opacity:1"
       d="M 203.85547 62.376953 C 201.83866 62.404974 199.87523 63.2432 198.58398 64.884766 C 197.31709 66.495363 195.69076 67.328125 193.80664 67.328125 C 192.23512 67.328125 188.7613 67.97757 186.08789 68.771484 C 170.95708 73.264854 162.63669 92.477579 168.07227 110.37305 C 169.90471 116.40601 171.0513 118.28139 175.76953 122.97461 C 178.81832 126.00723 182.8517 128.98801 184.73242 129.59961 C 186.86046 130.29164 194.60981 130.64236 205.25 130.52734 C 219.45163 130.37385 222.87693 130.0534 225.47656 128.63281 C 230.32485 125.9834 235.55742 120.1305 238.35938 114.22461 C 240.59035 109.52218 240.90415 107.62993 240.87305 99.080078 C 240.84447 91.254634 240.4265 88.416446 238.77148 84.814453 C 234.38436 75.266242 225.98907 68.691171 216.82812 67.630859 C 213.13311 67.203189 210.96757 66.353586 209.44727 64.734375 C 207.94244 63.131662 205.87228 62.348932 203.85547 62.376953 z M 318.4043 79.228516 C 319.27488 79.261273 320.16304 79.335828 321.06641 79.451172 C 320.16304 79.335828 319.27488 79.261273 318.4043 79.228516 z M 193.46094 82.126953 C 195.06051 82.276362 196.51958 83.173749 198.11719 84.845703 C 202.31688 89.240855 206.05321 89.223586 210.10352 84.789062 C 212.52532 82.137543 213.33874 81.816266 216.24414 82.361328 C 222.34665 83.506158 226.74219 90.712267 226.74219 99.568359 C 226.74219 105.82285 224.93566 110.17452 220.93945 113.53711 C 217.84765 116.13864 217.58989 116.17773 203.7832 116.17773 C 190.21557 116.17773 189.67376 116.09819 186.83203 113.70703 C 178.51326 106.70725 179.17062 89.254632 187.95508 83.898438 C 190.12068 82.57799 191.86136 81.977544 193.46094 82.126953 z " />
    <path
       id="path13644"
       style="fill:#ffffff;stroke-width:0.976997"
       d="M 84.289062 411.81055 C 80.05244 413.72596 77.261719 417.71853 77.261719 421.9707 C 77.261719 423.97089 80.338192 440.06924 84.097656 457.74414 C 87.85712 475.41905 90.9355 490.20832 90.9375 490.61133 C 90.938483 490.81129 88.402208 490.99204 84.376953 491.125 L 106.03711 491.125 L 101.91797 471.56055 C 99.627165 460.67925 97.758425 451.44598 97.765625 451.04297 C 97.772819 450.63996 108.70231 450.31055 122.05273 450.31055 C 149.26757 450.31055 149.56055 450.23694 149.56055 443.30273 C 149.56055 436.80437 149.10761 436.69825 120.21484 436.40625 L 94.404297 436.14453 L 93.277344 431.0625 C 92.6569 428.26742 92.388923 425.73997 92.683594 425.44531 C 92.978256 425.15064 116.44797 424.91016 144.83789 424.91016 C 190.91166 424.91016 196.45703 425.07174 196.45703 426.42969 C 196.45703 427.26643 195.96441 429.90563 195.36328 432.29297 L 194.26953 436.63281 L 184.16602 436.63281 C 175.02953 436.63281 173.86956 436.83809 172.06836 438.77148 C 169.52757 441.49866 169.53889 444.47842 172.10156 447.73633 C 174.0009 450.15095 174.63385 450.31055 182.30273 450.31055 C 186.79948 450.31055 190.66132 450.63996 190.88477 451.04297 C 191.20766 451.62531 185.6993 479.21601 183.27734 489.14648 L 182.79492 491.125 L 202.4707 491.125 C 199.38216 490.94776 197.72768 490.66208 197.91211 490.12305 C 198.96104 487.05755 212.08789 423.58637 212.08789 421.58008 C 212.08789 420.33668 211.03572 417.76962 209.75 415.875 C 208.86285 414.56771 208.28612 413.37484 207.88477 411.81055 L 84.289062 411.81055 z M 262.4043 416.11719 C 261.01207 416.11719 258.79355 417.19472 257.47461 418.51367 C 255.42189 420.56637 255.07617 421.82469 255.07617 427.24414 C 255.07617 434.85476 256.25005 438.33821 259.21484 439.5293 C 262.86929 440.99745 264.80992 440.66471 267.33203 438.14258 C 269.45694 436.0177 269.73047 434.89959 269.73047 428.32812 C 269.73047 421.75671 269.45694 420.63856 267.33203 418.51367 C 266.01309 417.19472 263.79652 416.11719 262.4043 416.11719 z " />
    <path
       id="path14849"
       style="fill:#9ad6c7;stroke-width:0.976997;fill-opacity:1"
       d="M 84.289062 411.81055 L 207.88477 411.81055 C 207.42937 410.0356 207.20197 407.7784 207.04297 404.25977 C 206.6084 394.64246 203.6648 387.24094 198.0332 381.60938 C 193.25738 376.83355 189.49842 375.02989 182.91211 374.35156 C 178.54352 373.90164 176.86892 373.21098 174.81445 371.01367 C 173.38981 369.49001 171.54281 368.24414 170.70898 368.24414 C 168.06155 368.24414 164.27337 370.42835 163.67969 372.29883 C 163.2304 373.71444 162.11778 374.10723 158.53125 374.11523 C 153.42199 374.1259 145.27637 377.48979 142.32617 380.80664 C 139.58292 383.8908 133.37504 383.70042 130.82227 380.45508 C 128.18683 377.10467 122.15196 377.01837 119.57617 380.29297 C 118.2734 381.94917 116.40483 382.7352 112.73438 383.16992 C 100.7608 384.58801 90.253276 394.84821 88.271484 407.06055 C 87.861161 409.58903 87.025192 410.63922 84.619141 411.64453 C 84.504015 411.69263 84.402135 411.75943 84.289062 411.81055 z M 158.0918 388.72852 C 160.22787 388.78431 162.45763 389.81029 164.21484 391.69141 C 166.04453 393.65009 167.89583 394.62305 169.79688 394.62305 C 171.68233 394.62305 173.59001 393.63404 175.45117 391.69141 C 179.88854 387.05979 185.3336 388.08427 189.63477 394.35938 C 191.61168 397.24355 192.06055 399.0831 192.06055 404.32031 L 192.06055 410.74219 L 177.72266 411.01367 C 169.83721 411.16214 163.18343 410.94058 162.9375 410.52344 C 162.69157 410.1063 162.16503 408.22643 161.76758 406.3457 C 160.85218 402.01399 157.7647 395.77484 155.09375 392.86133 C 153.33689 390.94489 153.24412 390.47685 154.4707 389.70117 C 155.5623 389.01086 156.81015 388.69504 158.0918 388.72852 z M 113.92578 397.55273 C 115.26841 397.55273 117.46002 398.85449 119.13477 400.64648 C 121.20948 402.86641 122.90384 403.74023 125.13477 403.74023 C 127.3657 403.74023 129.06202 402.86641 131.13672 400.64648 C 132.81148 398.85449 135.00308 397.55273 136.3457 397.55273 C 140.51355 397.55273 147.60547 405.21473 147.60547 409.7168 C 147.60547 411.04027 144.77766 411.23047 125.13477 411.23047 C 105.49188 411.23047 102.66406 411.04027 102.66406 409.7168 C 102.66406 405.21473 109.75794 397.55273 113.92578 397.55273 z " />
    <path
       id="path14749"
       style="fill:#9ad6c7;stroke-width:0.976997;fill-opacity:1"
       d="M 323.08789 491.125 L 346.39453 491.125 C 343.06004 490.86905 341.89042 490.27902 340.01758 488.70312 C 335.9392 485.27141 334.21289 480.97438 334.21289 474.24805 C 334.21289 467.52171 335.9392 463.22274 340.01758 459.79102 C 344.19282 456.2778 347.7491 456.3728 351.00391 460.08203 C 352.95738 462.30827 354.41266 463.01172 357.05469 463.01172 C 359.78668 463.01172 360.99723 462.38409 362.69922 460.08203 C 364.30913 457.90451 366.2838 456.98977 368.31445 457.05273 C 374.40641 457.24163 381.01506 466.2199 379.88672 476.23047 C 379.24619 481.91322 376.36077 487.38109 372.88281 489.50195 C 371.15157 490.55766 368.35867 490.93178 363.92188 491.125 L 400.29492 491.125 C 393.4572 490.92366 390.99998 490.54016 391.37305 489.63477 C 396.99926 475.98039 394.90041 461.092 385.90234 450.84375 C 381.68499 446.04047 374.21619 442.51641 368.22852 442.50391 C 364.64199 442.49642 363.53133 442.10506 363.08203 440.68945 C 362.48836 438.81896 358.70016 436.63281 356.05273 436.63281 C 355.21891 436.63281 353.36602 437.88664 351.93555 439.41797 C 349.93989 441.55432 348.20103 442.3107 344.46094 442.67188 C 334.77367 443.6073 327.13724 449.32542 322.62695 459.01953 C 319.16249 466.4658 318.58661 477.79118 321.26953 485.73828 L 323.08789 491.125 z " />
    <path
       id="path14747"
       style="fill:#ffffff;stroke-width:0.976997"
       d="M 276.57031 491.125 L 291.22461 491.125 L 291.22461 481.04297 C 291.22461 471.40677 291.06908 470.5847 288.82617 468.3418 C 285.56278 465.0784 281.24274 465.15242 278.5957 468.51758 C 276.84296 470.74582 276.57031 472.45319 276.57031 481.21875 L 276.57031 491.125 z " />
    <path
       id="path14745"
       style="fill:#ffffff;stroke-width:0.976997"
       d="M 252.14453 491.125 L 266.80078 491.125 L 266.80078 475.7832 L 266.80078 460.22266 L 264.22656 458.19727 C 260.03959 454.9038 255.89431 455.66382 253.57422 460.15039 C 252.51189 462.20473 252.14453 466.56591 252.14453 477.13086 L 252.14453 491.125 z " />
    <path
       id="path14743"
       style="fill:#ffffff;stroke-width:0.976997"
       d="M 242.375 491.125 L 227.7207 491.125 L 227.7207 491.3457 L 212.60742 491.3457 C 207.61612 491.3457 204.78176 491.25762 202.4707 491.125 L 182.79492 491.125 L 182.74023 491.3457 L 144.41211 491.3457 L 106.08398 491.3457 L 106.03711 491.125 L 84.376953 491.125 C 80.289391 491.26002 74.665056 491.3457 68.425781 491.3457 L 45.910156 491.3457 L 43.511719 493.74219 C 42.192771 495.06114 41.113281 497.27965 41.113281 498.67188 C 41.113281 500.0641 42.192771 502.28262 43.511719 503.60156 L 45.910156 506 L 256.05273 506 L 466.19531 506 L 468.59375 503.60156 C 471.65007 500.54525 471.65007 496.79852 468.59375 493.74219 L 466.19531 491.3457 L 428.43359 491.3457 C 412.84924 491.3457 405.62359 491.2819 400.29492 491.125 L 363.92188 491.125 C 361.80851 491.21704 360.1745 491.34083 356.51367 491.3418 C 351.39014 491.3432 348.53791 491.28952 346.39453 491.125 L 323.08789 491.125 L 323.16211 491.3457 L 307.19336 491.3457 L 291.22461 491.3457 L 291.22461 491.125 L 276.57031 491.125 L 276.57031 491.3457 L 271.68555 491.3457 L 266.80078 491.3457 L 266.80078 491.125 L 252.14453 491.125 L 252.14453 491.3457 L 247.25977 491.3457 L 242.375 491.3457 L 242.375 491.125 z " />
    <path
       id="path14741"
       style="fill:#ffffff;stroke-width:0.976997"
       d="M 413.85547 309.05078 C 412.05119 309.27207 410.1127 309.46474 408.01367 309.62109 C 405.87322 309.78053 403.57351 309.90309 401.10352 309.98047 C 398.63353 310.05785 395.99271 310.09161 393.16992 310.07227 C 392.26279 310.06605 391.21468 310.01721 390.26953 310 C 390.52592 310.27322 390.35009 310.73869 389.92383 311.53516 C 387.9418 315.23865 378.69666 323.46181 372.82031 326.74805 C 363.99825 331.68163 356.10153 333.40472 344.96094 332.82812 C 334.60598 332.29219 328.48215 330.35356 319.35938 324.72266 C 310.15625 319.04217 305.69854 319.81905 300.08594 328.08398 C 288.21771 345.56071 268.12019 354.83802 248.67188 351.81445 C 234.13883 349.55506 220.68405 340.84303 212.01953 328.08398 C 206.40693 319.81905 201.94922 319.04217 192.74609 324.72266 C 183.62333 330.35356 177.49948 332.29219 167.14453 332.82812 C 152.95584 333.56246 141.07898 329.70599 130.99805 321.0918 C 127.26088 317.89838 121.22656 310.77966 121.22656 309.5625 C 121.22656 309.4389 121.39026 309.27088 121.625 309.08984 C 120.54481 309.13753 120.7757 309.11982 119.44531 309.18359 C 115.48581 309.37339 109.80426 309.73216 104.36328 310.07422 L 106.69922 314.2793 C 123.51024 344.5483 162.43814 356.35863 194.06836 340.78711 L 200.29492 337.72266 L 207.53711 345.41797 C 211.88868 350.04373 217.35896 354.62596 221.24805 356.90039 L 227.7207 360.68555 L 227.7207 426.01562 L 227.7207 491.125 L 242.375 491.125 L 242.375 428.73047 L 242.375 366.11328 L 250.43555 366.76758 C 257.65205 367.3534 263.54604 366.83946 273.39453 364.76172 L 276.57031 364.0918 L 276.57031 370.66211 C 276.57031 376.83157 276.77346 377.43359 279.89258 380.55273 C 282.59924 383.25937 283.962 383.875 287.25391 383.875 C 289.47594 383.875 292.35735 383.17852 293.6582 382.32617 C 294.95904 381.4736 296.52982 381.08838 297.14844 381.4707 C 297.86177 381.91157 294.70087 385.78501 288.50586 392.05859 C 283.1335 397.49909 278.25042 402.91028 277.6543 404.08398 C 276.97925 405.41312 276.57031 412.87407 276.57031 423.86719 C 276.57031 440.21471 276.71365 441.66288 278.52344 443.47266 C 281.4326 446.38182 286.66196 446.07716 289.19922 442.85156 C 291.05121 440.49712 291.22461 438.97693 291.22461 425.03711 L 291.22461 409.79492 L 302.70508 398.28516 C 313.97962 386.98116 314.18359 386.69609 314.18359 382.3457 C 314.18359 378.13385 313.83742 377.57878 307.11523 371.02734 C 300.21366 364.30105 299.94004 364.14392 295.63477 364.48633 L 291.22461 364.83789 L 291.22461 360.75781 C 291.22461 357.16134 291.62332 356.43228 294.5918 354.59766 C 296.44377 353.45308 301.0705 349.185 304.87305 345.11328 L 311.78711 337.71094 L 318.02539 340.78125 C 331.98443 347.65326 349.20699 349.55933 363.75 345.83984 C 381.39121 341.32798 396.91623 329.56596 405.40625 314.2793 C 407.17569 311.09336 408.60612 309.64672 410 309.63672 C 411.23153 309.62815 412.53118 309.41272 413.85547 309.05078 z " />
    <path
       id="path14273"
       style="fill:#ffffff;stroke-width:0.976997"
       d="M 431.01367 259.03125 C 431.48657 259.79621 431.9219 260.62788 432.32227 261.51367 C 432.72263 262.39946 433.08832 263.34008 433.42188 264.32422 C 434.08899 266.29249 434.62822 268.43342 435.0625 270.66016 C 435.27183 271.73347 435.3857 272.85659 435.54883 273.95898 C 436.02263 273.07905 437.20038 272.19336 439.56836 270.73633 C 442.16428 269.13903 446.78547 265.47303 449.83789 262.5918 C 456.69506 256.11922 457.81793 252.3941 454.04883 248.625 C 450.31454 244.89072 446.7748 245.31319 442.1582 250.04102 C 440.05184 252.19812 436.68105 255.10238 434.66992 256.49609 L 431.01367 259.03125 z " />
    <path
       id="path14271"
       style="fill:#ffffff;stroke-width:0.976997"
       d="M 255.36523 373.375 C 254.04043 373.40282 252.97023 374.10788 251.19336 375.88477 C 248.47158 378.60655 248.23633 379.37719 248.23633 385.62305 C 248.23633 391.00523 248.65486 392.93571 250.26172 394.97852 C 252.8228 398.23439 257.43124 398.43558 260.63086 395.42969 C 262.61551 393.5652 262.89258 392.38315 262.89258 385.76758 C 262.89258 377.38743 261.54292 374.67834 256.81055 373.55859 C 256.27705 373.43237 255.80684 373.36573 255.36523 373.375 z " />
    <path
       id="path15012"
       style="fill:#9ad6c7;stroke-width:0.976997;fill-opacity:1"
       d="M 397.75 240.40234 C 396.17253 240.3793 394.60795 241.26119 392.82617 243.04297 C 390.67041 245.19872 388.83115 245.95521 384.70703 246.38086 C 378.25093 247.0472 374.37751 248.9428 369.50195 253.81836 C 350.64448 272.67582 362.3488 309.62305 387.17969 309.62305 C 389.0467 309.62305 389.96472 309.67518 390.26953 310 C 391.21468 310.01721 392.26279 310.06605 393.16992 310.07227 C 395.99271 310.09161 398.63353 310.05785 401.10352 309.98047 C 403.57351 309.90309 405.87322 309.78053 408.01367 309.62109 C 410.1127 309.46474 412.05119 309.27207 413.85547 309.05078 C 420.70421 307.17898 428.30968 300.94624 431.71484 293.91211 C 434.23436 288.70748 436.20913 279.06227 435.4082 275.87109 C 435.22149 275.12715 435.23385 274.54394 435.54883 273.95898 C 435.3857 272.85659 435.27183 271.73347 435.0625 270.66016 C 434.62822 268.43342 434.08898 266.29249 433.42188 264.32422 C 433.08832 263.34008 432.72263 262.39946 432.32227 261.51367 C 431.9219 260.62788 431.48657 259.79621 431.01367 259.03125 L 426.31836 254.21094 C 421.38707 249.14819 414.84981 246.11914 408.85352 246.11914 C 406.63365 246.11914 404.80427 245.23981 402.75195 243.1875 C 400.91781 241.35335 399.32747 240.42538 397.75 240.40234 z M 386.51953 260.875 C 388.488 260.91647 390.40293 261.8405 392.03906 263.70508 C 393.88729 265.81136 395.48756 266.63477 397.72656 266.63477 C 399.92864 266.63477 401.64494 265.77663 403.58008 263.70508 C 406.63737 260.43223 409.14117 260.0633 413.38867 262.25977 C 420.23113 265.79813 422.89387 279.33229 418.42578 287.86523 C 417.23575 290.1379 414.96876 292.66532 413.38867 293.48242 C 409.11599 295.69191 385.55759 295.55448 381.92188 293.29883 C 374.92401 288.95728 372.56902 276.06454 377.25195 267.73242 C 379.80695 263.1864 383.23875 260.80588 386.51953 260.875 z " />
    <path
       id="path13642"
       style="fill:#9ad6c7;stroke-width:0.976997;fill-opacity:1"
       d="M 74.458984 254.80078 C 73.777357 255.35602 73.167709 255.97628 72.623047 256.63477 C 72.078385 257.29325 71.598267 257.99072 71.175781 258.70312 C 70.33081 260.12793 69.716486 261.61058 69.271484 262.95508 C 68.826483 264.29958 68.552016 265.50544 68.388672 266.375 C 68.225328 267.24456 68.171875 267.77734 68.171875 267.77734 L 67.269531 272.74805 C 65.453982 282.73703 69.381246 294.95351 76.789062 302.36133 C 81.798383 307.37065 88.109864 309.61812 97.220703 309.63672 L 104.12891 309.65234 L 104.36328 310.07422 C 109.80426 309.73216 115.48581 309.37339 119.44531 309.18359 C 120.7757 309.11982 120.54481 309.13753 121.625 309.08984 C 122.18803 308.65563 123.30846 308.11157 124.62891 307.67578 C 126.49988 307.05831 129.91931 304.71596 132.22656 302.4707 C 145.18775 289.85766 145.46378 266.44621 132.80078 253.7832 C 127.95921 248.94164 124.0736 247.046 117.62891 246.38086 C 113.50479 245.95521 111.66552 245.19872 109.50977 243.04297 C 105.94621 239.47941 103.25227 239.5192 99.583984 243.1875 C 97.563397 245.20808 95.689893 246.121 93.552734 246.125 C 88.447041 246.13398 83.426416 247.95616 78.814453 251.47656 L 74.458984 254.80078 z M 115.81641 260.875 C 119.09719 260.80588 122.52898 263.1864 125.08398 267.73242 C 129.82988 276.17662 127.16113 289.92976 120.06445 293.59961 C 116.24702 295.57367 92.458919 295.44886 88.748047 293.43555 C 79.399205 288.36336 79.534686 267.1272 88.947266 262.25977 C 93.194767 260.0633 95.698569 260.43223 98.755859 263.70508 C 100.69098 265.77663 102.4073 266.63477 104.60938 266.63477 C 106.84836 266.63477 108.44867 265.81136 110.29688 263.70508 C 111.93302 261.8405 113.84793 260.91647 115.81641 260.875 z " />
    <path
       id="path13640"
       style="fill:#ffffff;stroke-width:0.976997"
       d="M 217.57227 6.0019531 C 203.33535 6.1013479 189.17613 10.773006 177.19336 19.853516 C 166.21924 28.169667 157.01477 42.147883 153.56445 55.734375 L 151.77734 62.769531 L 143.09766 64.523438 C 118.20764 69.555787 97.586509 88.86315 91.580078 112.75781 C 89.007763 122.99095 88.677666 130.62939 90.384766 140.52148 C 91.253513 145.55561 91.844752 149.77276 91.697266 149.89258 C 91.54979 150.01239 89.229715 150.83231 86.542969 151.7168 C 75.956766 155.2018 65.006582 162.8123 56.929688 172.29492 C 51.92633 178.16908 45.642486 190.55867 43.519531 198.73438 C 41.465672 206.64393 41.481299 222.47649 43.550781 230.46289 C 46.903563 243.40168 54.896267 256.68005 63.826172 264.14453 L 68.171875 267.77734 C 68.171875 267.77734 68.225328 267.24456 68.388672 266.375 C 68.552016 265.50544 68.826483 264.29958 69.271484 262.95508 C 69.716486 261.61058 70.33081 260.12793 71.175781 258.70312 C 71.598267 257.99072 72.078385 257.29325 72.623047 256.63477 C 73.167709 255.97628 73.777357 255.35602 74.458984 254.80078 L 71.005859 250.98047 C 61.054319 239.96528 56.559308 228.95952 56.449219 215.34375 C 56.303014 197.26109 64.29122 181.79862 79.015625 171.66797 C 84.150231 168.13527 92.860002 164.51935 98.451172 163.59766 C 103.12557 162.82708 107.17081 159.54985 108.12109 155.76367 C 108.51721 154.1854 107.96543 150.42647 106.71094 146.1543 C 105.57771 142.29507 104.36935 136.66195 104.02539 133.63672 C 102.57286 120.86143 108.31682 104.71841 117.88281 94.689453 C 127.79961 84.292735 136.95534 79.727474 151.12695 78.117188 C 163.5181 76.7092 164.66682 75.584399 167.10352 62.443359 C 170.29696 45.221269 183.2919 30.160549 200.85352 23.328125 C 205.78207 21.410652 208.50284 21.046875 217.94922 21.046875 C 230.65209 21.046875 235.07386 22.313124 246.54297 29.230469 C 254.76045 34.186659 257.34502 34.186659 265.5625 29.230469 C 277.0316 22.313124 281.45339 21.046875 294.15625 21.046875 C 303.60264 21.046875 306.32534 21.410652 311.25391 23.328125 C 319.7181 26.621158 326.116 31.00163 332.4082 37.810547 C 340.19415 46.235868 343.35469 53.386389 346.46289 69.611328 C 347.29901 73.975921 350.89484 76.861858 356.31641 77.519531 C 374.39672 79.712797 381.67246 82.769681 392.00781 92.519531 C 397.3033 97.515025 399.64079 100.67323 402.60156 106.82227 C 409.05948 120.23435 409.82814 131.05566 405.39453 146.1543 C 402.12021 157.30502 404.66426 161.87967 415.30273 163.97266 C 423.77751 165.63997 433.73966 171.13637 440.37109 177.80273 C 450.87006 188.35698 455.41301 199.35941 455.75781 215.0625 C 455.92589 222.71677 456.31573 224.93461 457.76953 226.54102 C 459.85971 228.85065 464.8333 229.19034 467.54297 227.20898 C 471.43157 224.36558 471.18627 206.13703 467.0957 193.92578 C 460.53166 174.33065 444.37586 157.91021 425.5625 151.7168 C 422.87578 150.83231 420.55568 150.01239 420.4082 149.89258 C 420.26071 149.77276 420.85196 145.55561 421.7207 140.52148 C 427.79418 105.32765 404.4409 71.688786 368.95312 64.513672 L 360.21484 62.746094 L 358.95312 57.191406 C 357.20842 49.509306 351.98042 38.667883 346.58789 31.552734 C 338.74654 21.206526 327.53452 13.398886 314.18359 8.9863281 C 307.53966 6.7904766 304.61041 6.3951715 294.64453 6.3515625 C 281.26882 6.2930305 272.86885 8.3064065 262.1582 14.138672 L 256.05273 17.464844 L 249.94727 14.146484 C 239.7663 8.6137948 228.64542 5.9246461 217.57227 6.0019531 z " />
  </g>
</svg>
