<?xml version="1.0" encoding="UTF-8" standalone="no"?>
<!-- Created with Inkscape (http://www.inkscape.org/) -->

<svg
   version="1.1"
   id="svg1"
   width="512"
   height="512"
   viewBox="0 0 512 512"
   sodipodi:docname="services_tree_02.svg"
   inkscape:version="1.1.2 (0a00cf5339, 2022-02-04)"
   inkscape:export-filename="/home/dusoudeth/Documentos/github/isadora-urel-landing-page/src/assets/images/services_tree_02_white.png"
   inkscape:export-xdpi="96"
   inkscape:export-ydpi="96"
   xmlns:inkscape="http://www.inkscape.org/namespaces/inkscape"
   xmlns:sodipodi="http://sodipodi.sourceforge.net/DTD/sodipodi-0.dtd"
   xmlns="http://www.w3.org/2000/svg"
   xmlns:svg="http://www.w3.org/2000/svg">
  <defs
     id="defs1" />
  <sodipodi:namedview
     id="namedview1"
     pagecolor="#ffffff"
     bordercolor="#000000"
     borderopacity="0.25"
     inkscape:showpageshadow="2"
     inkscape:pageopacity="0.0"
     inkscape:pagecheckerboard="0"
     inkscape:deskcolor="#d1d1d1"
     showgrid="false"
     inkscape:zoom="1.59375"
     inkscape:cx="174.43137"
     inkscape:cy="327.21569"
     inkscape:window-width="1868"
     inkscape:window-height="1016"
     inkscape:window-x="52"
     inkscape:window-y="27"
     inkscape:window-maximized="1"
     inkscape:current-layer="g1"
     inkscape:pageshadow="2" />
  <g
     inkscape:groupmode="layer"
     inkscape:label="Image"
     id="g1">
    <path
       id="path1487"
       style="fill:#9ad6c7;stroke-width:1.04073;fill-opacity:1"
       d="M 222.0332 398.74023 L 199.00391 398.8457 L 191.62305 405.4082 L 184.24414 411.9668 L 143.88672 418.66406 C 121.69148 422.34828 103.4809 425.36666 103.41602 425.37305 C 103.26929 425.38715 104.97002 435.52547 105.61914 438.50195 L 106.09766 440.68945 L 117.30469 438.81055 C 123.46826 437.77673 129.74349 436.69703 131.25 436.41211 C 133.93425 435.90446 134.09894 436.20919 139.46094 451.71289 C 142.4703 460.41417 145.24633 467.89247 145.63086 468.32812 C 146.24368 469.02245 156.55105 466.05592 159.18555 464.42773 C 159.73038 464.09099 157.87136 457.32668 154.97461 449.10938 C 152.12146 441.0158 150.15028 434.07752 150.5957 433.68945 C 151.04114 433.30134 160.50017 431.49172 171.61523 429.66992 L 191.82422 426.35742 L 202.67773 416.24414 C 208.64603 410.68189 215.56862 404.357 218.0625 402.18945 L 222.0332 398.74023 z " />
    <path
       id="path1048"
       style="fill:#9ad6c7;stroke-width:1.04073;fill-opacity:1"
       d="M 267.93164 398.53125 L 236.69531 398.67383 L 242.45508 398.8457 L 231.21289 419.0918 L 219.9668 439.33594 L 209.10352 442.06641 C 203.12821 443.5676 197.0036 445.10875 195.49219 445.49023 L 192.74219 446.18164 L 194.33398 452.69531 C 195.20935 456.27763 196.30216 459.62436 196.75977 460.13281 C 197.23721 460.66329 201.37335 460.109 206.46484 458.83203 C 211.34485 457.6081 215.84179 456.60742 216.45898 456.60742 C 217.18993 456.60742 217.47535 459.37825 217.27734 464.55664 L 216.97266 472.50586 L 201.78906 477.82617 L 186.60547 483.14453 L 188.78125 489.57812 C 189.97726 493.11541 191.28219 496.32872 191.68164 496.7207 C 192.08113 497.11267 199.71497 494.97028 208.64648 491.95898 L 224.88672 486.48242 L 228.73438 490.00195 C 230.85137 491.93726 235.51528 496.33031 239.09766 499.76172 L 245.60938 506 L 251.06641 500.47266 L 256.51953 494.94531 L 244.81055 483.8418 L 233.10352 472.73828 L 233.10352 460.32031 L 233.10352 447.90039 L 243.65234 428.77148 C 249.45424 418.25023 254.54717 410.02241 254.96875 410.48828 C 255.39034 410.95415 259.30598 420.63068 263.67188 431.99219 L 271.61133 452.65039 L 271.61133 471.2793 L 271.61133 489.91016 L 279.41602 489.91016 L 287.22266 489.91016 L 287.22266 477.94336 C 287.22266 470.09313 287.60714 465.97461 288.3418 465.97461 C 288.95784 465.97461 294.81259 468.78435 301.35156 472.21875 C 307.89051 475.65315 318.61284 481.28315 325.17969 484.73242 L 337.11914 491.00586 L 340.32812 484.64844 C 342.09305 481.15211 343.38491 477.83638 343.19922 477.2793 C 343.01353 476.72224 330.04386 469.6191 314.37695 461.49414 L 285.89258 446.71875 L 276.68359 422.7832 C 271.61914 409.61802 267.46733 398.72904 267.46094 398.58594 C 267.45999 398.56657 267.75964 398.54944 267.93164 398.53125 z " />
    <path
       id="path1046"
       style="fill:#9ad6c7;stroke-width:1.04073;fill-opacity:1"
       d="M 312.73828 398.32617 L 289.69336 398.43164 L 301.47266 409.41992 L 313.36328 420.50977 L 307.86133 426.08008 L 302.35938 431.6543 L 307.79102 437.08398 L 313.22461 442.51758 L 320.25586 435.55859 L 327.28906 428.60156 L 338.73828 429.71289 C 345.03468 430.32386 350.32984 430.95399 350.50586 431.11328 C 350.68191 431.27255 353.114 440.16848 355.91016 450.88281 C 358.70629 461.59715 361.21941 470.58855 361.49414 470.86328 C 362.09462 471.46372 372.89839 469.13313 374.71289 468.01172 C 375.68572 467.41049 374.97462 463.14209 371.74219 450.22852 C 369.40279 440.88256 367.66556 433.05515 367.88477 432.83594 C 368.10399 432.61671 377.45164 433.26099 388.65625 434.26758 C 399.86084 435.27417 409.33253 435.79245 409.70508 435.41992 C 410.07762 435.04737 410.41946 431.58627 410.46484 427.72852 L 410.54883 420.71484 L 369.03906 416.91602 L 327.53125 413.11914 L 320.13281 405.72461 L 312.73828 398.32617 z " />
    <path
       id="path1044"
       style="fill:#ffffff;stroke-width:1.04073"
       d="M 256 6 C 235.35243 6 212.90293 14.855133 198.56055 28.65625 L 193.67773 33.355469 L 187.63281 31.373047 C 183.10508 29.887866 178.71572 29.402967 170.14062 29.447266 C 158.24848 29.508696 151.7773 31.160942 142.90039 36.398438 L 139.44727 38.4375 L 143.75586 44.580078 C 146.1262 47.959223 148.17449 50.724609 148.30859 50.724609 C 148.44267 50.724609 151.30358 49.435429 154.66406 47.861328 C 160.05252 45.337275 162.00132 45 171.17969 45 C 181.78046 45 184.80997 45.888362 194.17188 51.740234 C 196.18565 52.998983 197.08579 52.362879 206.14258 43.269531 C 214.25959 35.119777 217.44382 32.706752 224.77734 29.158203 C 239.99664 21.793877 255.36647 19.817905 270.88477 23.230469 C 275.00458 24.136437 282.35725 26.803933 287.22266 29.158203 C 294.55619 32.706752 297.74427 35.119777 305.86133 43.269531 C 314.91814 52.362879 315.81434 52.998983 317.82812 51.740234 C 327.19475 45.885407 330.21471 45 340.83984 45 C 350.50285 45 351.77492 45.247034 358.14062 48.380859 C 371.56414 54.989246 378.89475 66.491959 379.65625 82.142578 L 380.09375 91.185547 L 387.51758 93.410156 C 421.98443 103.74888 445.2059 136.83515 442.99414 172.45117 C 442.65512 177.91026 441.61866 185.18475 440.69336 188.61914 C 435.09746 209.38931 419.54888 228.51948 400.4082 238.18164 C 397.11311 239.84501 394.41139 241.54963 394.4082 241.9707 C 394.3641 246.26268 391.71456 257.18755 389.66797 261.51367 C 386.4633 268.28781 378.49245 275.84708 370.70703 279.49609 C 365.56135 281.90788 363.41818 282.28516 354.86914 282.28516 C 346.30694 282.28516 344.18043 281.9111 338.99805 279.48242 C 335.70676 277.93999 333.03022 276.29886 333.05078 275.83789 C 333.07138 275.37692 341.43174 268.30886 351.62891 260.13086 L 370.16797 245.26172 L 388.58789 211.37109 C 398.71865 192.73106 406.85407 177.01339 406.66406 176.44336 C 406.47405 175.87334 399.07423 167.27019 390.2207 157.32422 C 376.33686 141.72725 373.94954 139.47245 372.86328 140.91797 C 372.17059 141.83979 363.06187 158.83488 352.62109 178.68555 L 333.63672 214.77734 L 323.95898 221.2168 C 316.49795 226.18179 314.28463 227.23991 314.29102 225.83203 C 314.29502 224.82759 316.16267 213.50358 318.44336 200.66797 C 320.72402 187.83236 322.47863 177.22041 322.33984 177.08594 C 322.10413 176.85756 274.53734 185.15353 273.93945 185.52734 C 273.78871 185.62164 271.97967 195.25473 269.91992 206.93359 C 266.19887 228.03186 266.14652 228.20896 261.55664 234.67188 C 259.01595 238.24937 256.51455 241.17578 256 241.17578 C 255.48545 241.17578 252.98868 238.24937 250.45117 234.67188 L 245.83789 228.16602 L 237.31641 175.61133 C 232.629 146.70515 228.59446 122.44067 228.35352 121.68945 C 228.06781 120.79871 220.80974 125.13853 207.48438 134.16992 C 196.24681 141.78627 186.87914 148.49036 186.66992 149.06641 C 186.46073 149.64245 189.05505 167.44035 192.43164 188.61914 C 195.80823 209.79793 198.42436 227.27613 198.24609 227.45898 C 198.06783 227.64185 193.53767 224.87346 188.17773 221.30664 L 178.42969 214.82227 L 166.33398 192.35547 L 154.23828 169.88672 L 144.49805 169.54883 C 139.14014 169.3625 127.22121 169.52575 118.01172 169.91211 L 101.26758 170.61328 L 121.51172 207.87109 L 141.75586 245.12891 L 160.33008 260.06445 C 170.54599 268.2791 178.92522 275.37692 178.94727 275.83789 C 178.96947 276.29887 176.29324 277.93999 173.00195 279.48242 C 167.81957 281.9111 165.69306 282.28516 157.13086 282.28516 C 148.58182 282.28516 146.43864 281.9079 141.29297 279.49609 C 133.50755 275.84706 125.5367 268.28781 122.33203 261.51367 C 120.28543 257.18755 117.63591 246.26268 117.5918 241.9707 C 117.5878 241.54962 114.88689 239.84501 111.5918 238.18164 C 92.22517 228.4054 76.942705 209.4989 71.109375 188.09961 C 68.556279 178.73367 68.564708 157.86811 71.125 148.55273 C 78.369489 122.19445 98.758072 101.25263 124.91211 93.308594 L 132.1543 91.109375 L 132.17773 83.144531 C 132.20113 75.579508 132.93194 72.870342 137.98242 61.572266 C 138.25793 60.955966 135.69922 58.497925 132.29688 56.111328 L 126.11133 51.773438 L 123.79492 55.671875 C 120.91434 60.522786 117.93678 69.006494 117.05078 74.882812 C 116.37886 79.339236 116.36235 79.350023 106.3125 84.228516 C 88.807663 92.725874 75.828335 104.52583 66.306641 120.59766 C 46.782496 153.55278 49.474723 195.33466 73.103516 226.08594 C 79.176832 233.98996 91.544799 244.9737 98.568359 248.70117 C 102.52963 250.80344 103.0819 251.58012 104.09961 256.48242 C 106.89866 269.96534 119.82021 286.54854 132.1543 292.48633 C 150.12083 301.13566 171.24596 300.01201 186.99219 289.57031 L 192.39453 285.98633 L 201.93555 293.77734 C 207.18333 298.06198 212.64819 302.48849 214.07812 303.61328 L 216.67773 305.6582 L 215.37109 327.79688 C 214.65205 339.97246 213.75068 350.80734 213.36914 351.875 C 212.98763 352.94265 204.74453 360.30599 195.05078 368.24023 L 177.42578 382.66797 L 95.466797 382.69141 C 50.390318 382.70481 13.511719 382.99665 13.511719 383.33984 C 13.511719 383.68302 16.594659 389.65446 20.365234 396.60938 C 20.734225 397.28999 21.119068 397.95648 21.492188 398.63281 L 45.535156 398.63281 C 57.295238 398.49716 86.093004 398.46741 119.61914 398.58008 L 199.00391 398.8457 L 222.0332 398.74023 L 222.59766 398.25 L 232.52539 398.54883 L 236.69531 398.67383 L 267.93164 398.53125 C 269.0301 398.41508 273.25164 398.32617 278.51367 398.32617 L 289.58008 398.32617 L 289.69336 398.43164 L 312.73828 398.32617 L 392.60547 398.32617 C 416.56594 398.32617 437.89512 398.41156 452.56641 398.54297 L 490.51953 398.54297 C 494.7562 390.95279 498.48828 383.9554 498.48828 383.33984 C 498.48828 382.99666 461.78582 382.71484 416.92773 382.71484 L 335.36914 382.71484 L 316.53906 363.09766 L 297.71094 343.48242 L 296.48633 324.5957 L 295.25781 305.70703 L 297.89062 303.63867 C 299.3381 302.50005 304.81668 298.06202 310.06445 293.77734 L 319.60547 285.98633 L 325.00977 289.57031 C 340.756 300.01201 361.88113 301.13566 379.84766 292.48633 C 392.18174 286.54854 405.1033 269.96533 407.90234 256.48242 C 408.92006 251.58013 409.47039 250.80343 413.43164 248.70117 C 420.45522 244.9737 432.82317 233.98996 438.89648 226.08594 C 445.84647 217.04101 452.97197 202.69881 455.96094 191.74219 C 459.18734 179.91536 459.21695 156.83381 456.01953 145.13477 C 448.3392 117.03346 428.45964 93.77772 402.41992 82.433594 L 395.76367 79.535156 L 394.59766 73.273438 C 390.76514 52.665028 374.52412 35.653045 353.54297 30.273438 C 345.65268 28.250352 332.01401 28.835663 323.85938 31.546875 L 318.34766 33.378906 L 313.45117 28.667969 C 299.09692 14.854689 276.65553 6 256 6 z M 216.13477 147.51367 C 216.59548 147.51467 220.19336 167.16669 224.12891 191.18555 L 231.2832 234.85742 L 243.12305 250.76562 C 249.63434 259.51554 255.34443 266.80278 255.8125 266.95898 C 256.47708 267.18078 277.00492 240.62838 280.10352 235.53906 C 280.48111 234.91887 282.01077 227.38676 283.50195 218.80078 C 284.99317 210.21477 286.4283 202.21947 286.69141 201.0332 C 287.07565 199.30067 288.47772 198.63478 293.82031 197.65039 C 297.47841 196.97635 301.15436 196.42578 301.98828 196.42578 C 303.22578 196.42578 302.47557 202.18662 297.9082 227.76367 C 294.83031 244.99964 292.53124 259.32227 292.80078 259.5918 C 293.07032 259.86134 305.11975 252.19944 319.57617 242.56445 L 345.85938 225.04492 L 360.87891 196.42578 C 369.14002 180.6848 376.25234 167.42906 376.68164 166.96875 C 377.1109 166.50847 379.93455 168.98767 382.95703 172.47656 C 387.27867 177.46508 388.25517 179.22429 387.53125 180.71484 C 387.02496 181.75729 380.12318 194.49932 372.19336 209.03125 L 357.77539 235.45312 L 318.32227 267.19336 C 282.71922 295.83851 278.9178 299.19109 279.35547 301.53906 C 279.62223 302.97005 280.4026 314.44432 281.08984 327.03711 L 282.33984 349.93359 L 292.8457 360.86719 C 298.62434 366.88106 305.6771 374.25833 308.51758 377.25977 L 313.68164 382.71484 L 258.30273 382.71484 C 227.84397 382.71484 202.92188 382.50701 202.92188 382.25 C 202.92188 381.99299 208.77666 377.01307 215.93164 371.18555 C 224.64276 364.09057 228.94141 359.90842 228.94141 358.52734 C 228.94141 355.54424 231.93406 309.17639 232.48828 303.57227 L 232.95703 298.83789 L 193.61523 267.14648 L 154.27344 235.45312 L 144.05859 216.7207 C 138.4404 206.41751 132.24035 195.04021 130.2793 191.43945 L 126.71094 184.89258 L 135.87695 185.19727 L 145.04102 185.49805 L 155.57617 205.27148 L 166.11328 225.04492 L 192.41016 242.56445 C 206.87406 252.19944 218.85957 259.92671 219.04492 259.73633 C 219.31921 259.45457 205.57763 170.89979 203.45703 159.2832 C 202.8874 156.1628 203.22688 155.71046 209.07617 151.73828 C 212.49864 149.41415 215.67408 147.51262 216.13477 147.51367 z " />
  </g>
</svg>
