<?xml version="1.0" encoding="UTF-8" standalone="no"?>
<!-- Created with Inkscape (http://www.inkscape.org/) -->

<svg
   version="1.1"
   id="svg1"
   width="512"
   height="512"
   viewBox="0 0 512 512"
   sodipodi:docname="services_tree_01.svg"
   inkscape:version="1.1.2 (0a00cf5339, 2022-02-04)"
   inkscape:export-filename="/home/dusoudeth/Documentos/github/isadora-urel-landing-page/src/assets/images/services_tree_01_white.png"
   inkscape:export-xdpi="96"
   inkscape:export-ydpi="96"
   xmlns:inkscape="http://www.inkscape.org/namespaces/inkscape"
   xmlns:sodipodi="http://sodipodi.sourceforge.net/DTD/sodipodi-0.dtd"
   xmlns="http://www.w3.org/2000/svg"
   xmlns:svg="http://www.w3.org/2000/svg">
  <defs
     id="defs1" />
  <sodipodi:namedview
     id="namedview1"
     pagecolor="#ffffff"
     bordercolor="#000000"
     borderopacity="0.25"
     inkscape:showpageshadow="2"
     inkscape:pageopacity="0.0"
     inkscape:pagecheckerboard="0"
     inkscape:deskcolor="#d1d1d1"
     showgrid="false"
     inkscape:zoom="1.59375"
     inkscape:cx="222.7451"
     inkscape:cy="306.5098"
     inkscape:window-width="1868"
     inkscape:window-height="1016"
     inkscape:window-x="52"
     inkscape:window-y="27"
     inkscape:window-maximized="1"
     inkscape:current-layer="g1"
     inkscape:pageshadow="2"
     inkscape:object-paths="true"
     inkscape:snap-smooth-nodes="false" />
  <g
     inkscape:groupmode="layer"
     inkscape:label="Image"
     id="g1">
    <path
       id="path1"
       style="fill:#ffffff;fill-opacity:1;stroke-width:1.01724"
       d="M 69.353516 471.72461 C 67.780736 471.71077 66.134817 472.23651 64.675781 473.41797 C 61.621936 475.8908 61.673257 481.49353 64.773438 484.00391 C 67.350444 486.09064 69.097105 486.23737 72.164062 484.62305 C 75.099156 483.07813 75.877764 481.78241 75.896484 478.41602 C 75.918863 474.3969 72.813631 471.75506 69.353516 471.72461 z " />
    <path
       id="path9735"
       style="fill:#ffffff;fill-opacity:1;stroke-width:1.01724"
       d="M 403.46289 254.64258 L 400.19531 252.9375 C 400.19209 252.94844 400.19111 252.96223 400.1875 252.97266 C 400.0301 253.42795 392.41863 249.46613 383.27148 244.16797 C 374.12431 238.86982 365.61186 234.53516 364.35547 234.53516 C 359.45951 234.53516 356.97087 240.97643 360.52344 244.45312 C 361.14325 245.05971 364.45605 247.17415 368.96875 249.88477 C 369.04385 249.92987 369.1176 249.9741 369.19336 250.01953 C 371.91339 251.65085 375.05014 253.48888 378.29883 255.34375 C 384.1331 258.67488 388.36593 261.27213 390.77344 262.98047 L 403.41406 270.57227 L 403.46289 254.64258 z " />
    <path
       id="path11189"
       style="fill:#800080;fill-opacity:1;stroke-width:1.01724"
       d="M 346.96484 202.22852 C 343.76461 202.20409 340.58732 202.4269 337.47266 202.91016 C 328.65972 204.27753 318.2346 207.60864 315.72656 209.85742 C 310.81737 214.25914 316.21243 234.8731 325.97656 249.01562 C 329.35406 253.90765 338.48308 263.11277 342.99609 266.17773 C 358.47963 276.69315 380.24953 280.95325 397.61328 276.86719 L 403.46289 275.49023 L 403.46289 254.64258 L 403.41406 270.57227 L 390.77344 262.98047 C 392.5629 264.25025 393.34839 265.03096 393.00977 265.24609 C 390.95532 266.55131 373.84525 266.0409 368.13867 264.50391 C 354.86372 260.92846 342.96954 252.40542 335.34766 241.00977 C 329.99437 233.00593 325.12151 219.89998 326.85547 218.16602 C 328.2137 216.80779 341.08389 214.22461 346.49609 214.22461 C 363.59738 214.22461 381.53438 223.20338 391.91211 236.95898 C 396.45294 242.97781 400.70842 251.1973 400.19531 252.9375 L 403.46289 254.64258 L 403.46289 231.70508 L 399.47852 226.88281 C 386.95669 211.72967 366.52183 202.37779 346.96484 202.22852 z " />
    <path
       id="path9733"
       style="fill:#ffffff;fill-opacity:1;stroke-width:1.01724"
       d="M 416.01953 271.6582 L 426.31836 264.83789 C 427.44326 263.76732 431.32596 261.20367 436.50977 258.0918 L 436.50977 258.0918 C 437.9873 257.20482 439.53452 256.28792 441.19531 255.33203 C 450.27593 250.10558 458.37487 245.1603 459.19336 244.3418 C 462.65409 240.88108 459.9303 234.53516 454.98438 234.53516 C 453.88301 234.53516 445.44245 238.89987 436.22656 244.23438 C 434.48985 245.23965 432.83449 246.18221 431.24023 247.08008 L 431.24023 247.08008 C 425.89883 250.08829 421.56125 252.38823 419.79688 253.14258 L 415.87695 255.2207 L 416.01953 271.6582 z " />
    <path
       id="path11646"
       style="fill:#800080;fill-opacity:1;stroke-width:1.01724"
       d="M 472.25 202.31445 C 454.53706 202.4967 437.53933 209.58987 424.06055 222.99219 L 415.66992 231.33789 L 415.87695 255.2207 L 419.79688 253.14258 C 419.29338 253.35784 418.99027 253.45315 418.9375 253.40039 C 418.64465 253.10755 419.9453 249.77305 421.82812 245.99023 C 429.12887 231.32223 445.22647 219.07076 461.85742 215.52734 C 465.22027 214.81085 469.07433 214.48713 472.89453 214.48633 C 482.65727 214.48429 492.20445 216.59188 492.80273 219.64648 C 493.38604 222.62457 489.04069 233.84323 484.77539 240.37109 C 477.17221 252.00742 464.74495 260.97081 451.22656 264.56836 C 445.95513 265.9712 428.88501 266.51455 426.02539 265.37109 C 425.89599 265.31935 426.01081 265.13059 426.31836 264.83789 L 416.01953 271.6582 L 416.07812 278.33008 C 416.33713 275.66113 416.75629 275.42235 417.44727 275.6875 C 427.46403 279.53129 446.68033 279.00756 459.5293 274.53906 C 482.77929 266.45339 500.18503 246.51074 504.87891 222.57812 C 507.00756 211.72477 506.31168 210.05996 498.38672 207.0625 C 489.72214 203.78529 480.90051 202.22545 472.25 202.31445 z " />
    <path
       id="path11334"
       style="fill:#ffffff;fill-opacity:1;stroke-width:1.01724"
       d="M 415.66992 123.57617 L 403.46289 122.75195 L 403.46289 130.42188 L 403.46289 142.1875 L 399.64844 137.5957 C 391.10367 127.31007 377.16723 118.51161 363.79102 114.95898 C 355.64807 112.79627 340.04989 112.49977 331.69922 114.34766 C 328.316 115.09631 323.05275 116.92393 320.00195 118.41016 C 314.57035 121.05618 314.44832 121.21118 314.14844 125.85156 C 313.23748 139.94782 323.98579 160.98414 338.10352 172.73242 C 354.30444 186.21428 377.85774 191.99851 397.61328 187.34961 L 403.46289 185.97461 L 403.46289 208.83984 L 403.46289 231.70508 L 403.46289 275.49023 L 403.46289 310.37695 L 403.46289 345.26172 L 395.32227 340.65039 C 386.3146 335.54699 382.92957 335.35783 380.88477 339.8457 C 378.94158 344.11052 381.07604 346.50643 392.64648 353.04297 L 403.44922 359.14648 L 403.45703 379.23633 L 403.46289 399.32617 L 325.13477 399.32617 L 246.80859 399.32617 L 246.80859 373.86133 L 246.80859 348.39453 L 252.14844 349.19336 C 262.16453 350.68994 273.31922 349.85335 281.94141 346.95898 C 304.00285 339.55319 319.81607 320.68497 322.59375 298.45312 C 323.49808 291.21515 321.96539 289.43685 312.22461 286.42383 C 291.38905 279.97897 269.18989 285.03616 253.37305 299.83203 L 246.80859 305.97461 L 246.80859 298.09766 L 246.80859 290.2207 L 253.16602 283.47656 C 274.53424 260.8078 274.65822 225.71947 253.45312 202.28711 C 246.96124 195.11333 242.14699 192.24457 238.24219 193.22461 C 236.71917 193.60686 232.36545 197.02712 228.56836 200.82422 C 205.59886 223.79371 205.34942 260.22967 227.99609 284.23633 L 234.60156 291.23828 L 234.60156 299.12109 L 234.60156 307.00391 L 227.56445 300.36719 C 210.60839 284.37172 186.53109 279.38657 165.10742 287.4375 C 157.22845 290.39838 156.42657 292.21921 158.5957 302.21484 C 165.62776 334.61942 194.64552 354.02846 228.76953 349.15234 L 234.63672 348.31445 L 234.36523 373.56641 L 234.0918 398.81836 L 155.50977 399.07812 L 76.929688 399.33984 L 76.929688 383.25195 L 76.929688 367.16602 L 85.929688 367.5957 C 100.39651 368.28737 109.99559 364.79683 120.58789 354.99023 C 130.05731 346.22322 137.63063 328.66 134.96484 321.64844 C 133.85637 318.73292 128.24482 316.33409 118.71094 314.69922 C 104.80852 312.31522 88.123717 317.95641 78.289062 328.36719 C 75.51093 331.30807 72.684691 334.63104 72.007812 335.75 C 70.802143 337.7431 70.741285 337.7316 69.021484 335.24023 C 56.504712 317.10794 33.310833 309.55094 13.234375 317.0625 C 6.100138 319.73176 5.0043993 321.84428 6.5957031 329.86523 C 9.9845461 346.94672 22.620248 360.74527 39.617188 365.92188 C 45.118006 367.59677 48.437623 367.94391 55.638672 367.59961 L 64.722656 367.16602 L 64.722656 383.24609 L 64.722656 399.32617 L 37.082031 399.32617 C 12.790602 399.32617 9.2169543 399.53019 7.5820312 401.00977 C 5.2080426 403.15824 5.2007312 406.67726 7.5644531 408.81641 C 9.1576591 410.25824 13.101506 410.5192 36.810547 410.75391 L 64.212891 411.02539 L 64.521484 417.54102 L 64.828125 424.05469 L 50.533203 438.47266 C 38.295805 450.81525 36.240234 453.34509 36.240234 456.05859 C 36.240234 459.28972 39.175504 462.39453 42.230469 462.39453 C 43.038674 462.39453 49.704084 456.4506 57.041016 449.18555 L 70.380859 435.97656 L 82.046875 447.73047 C 92.829909 458.59444 97.553813 462.39453 100.27539 462.39453 C 102.18094 462.39453 105.41211 458.38702 105.41211 456.02344 C 105.41211 454.41822 101.09887 449.41775 91.169922 439.50781 L 76.929688 425.29297 L 76.929688 417.89844 L 76.929688 410.50391 L 155.50977 410.76367 L 234.0918 411.02539 L 234.37891 417.63672 L 234.66406 424.24805 L 221.41211 437.45508 L 208.1582 450.66211 L 190.63867 455.36328 C 175.83776 459.33442 172.81235 460.47506 171.13281 462.72461 C 169.4812 464.93676 169.33957 465.81968 170.30273 467.93359 C 172.14837 471.98434 175.2869 472.00615 190.11328 468.07227 C 197.66218 466.06932 204.12361 464.42969 204.4707 464.42969 C 204.81779 464.42969 205.10156 467.76042 205.10156 471.83203 C 205.10156 480.57575 206.72508 483.75781 211.18945 483.75781 C 216.4367 483.75781 217.30859 481.75707 217.30859 469.71289 L 217.30859 458.86719 L 228.73633 447.40625 L 240.16406 435.94727 L 251.62305 447.375 L 263.08398 458.80273 L 263.08398 469.68164 C 263.08398 481.7609 263.95079 483.75781 269.20117 483.75781 C 274.28416 483.75781 275.29102 480.91837 275.29102 466.57031 L 275.29102 453.90625 L 261.04883 439.54297 L 246.80859 425.17969 L 246.80859 417.84766 L 246.80859 410.51562 L 325.13477 410.51562 L 403.46289 410.51562 L 403.46289 417.90625 L 403.46289 425.29688 L 390.79297 437.93555 L 378.125 450.57227 L 360.02734 455.44141 C 341.77738 460.35069 339.37695 461.55756 339.37695 465.81641 C 339.37695 468.48036 342.24454 471.55078 344.73242 471.55078 C 345.8262 471.55078 352.63397 469.94841 359.86133 467.99023 C 367.08867 466.03205 373.44639 464.42969 373.99023 464.42969 C 374.54452 464.42969 374.97852 467.85793 374.97852 472.23242 C 374.97852 480.9256 376.43543 483.75781 380.90625 483.75781 C 386.1545 483.75781 387.18555 481.43612 387.18555 469.62891 L 387.18555 458.86719 L 398.61328 447.40625 L 410.04102 435.94727 L 421.50195 447.375 L 432.96289 458.80273 L 432.96289 466.90234 L 432.96289 475.00391 L 421.77148 486.3457 C 410.00736 498.26931 408.91126 500.39563 412.61719 504.10156 C 416.23695 507.72132 418.48768 506.66576 428.78125 496.52148 L 438.53711 486.9082 L 448.32227 496.52148 C 458.64065 506.6591 460.88591 507.71174 464.49609 504.10156 C 468.20201 500.39563 467.10592 498.26931 455.3418 486.3457 L 444.15234 475.00391 L 444.15234 469.7168 C 444.15234 466.14356 444.56746 464.42969 445.43359 464.42969 C 446.1384 464.42969 452.55903 466.03205 459.70312 467.99023 C 466.84722 469.94841 473.56219 471.55078 474.625 471.55078 C 479.61148 471.55078 481.72643 463.69227 477.4668 460.99023 C 476.20797 460.19171 467.85402 457.61314 458.90234 455.25977 L 442.625 450.98047 L 429.11523 437.61523 L 415.60547 424.24805 L 415.89258 417.63672 L 416.17773 411.02539 L 459.3418 410.75977 C 497.72535 410.52369 502.71226 410.30936 504.35547 408.82227 C 505.37181 407.90248 506.20314 406.14713 506.20312 404.92188 C 506.20312 403.69661 505.37181 401.94126 504.35547 401.02148 C 502.71226 399.53439 497.72535 399.32006 459.3418 399.08398 L 416.17773 398.81836 L 416.17773 379.03125 L 416.17773 359.24219 L 425.96484 353.59961 C 431.3473 350.49586 436.51872 347.30915 437.45898 346.51758 C 440.07204 344.31777 439.16368 339.20315 435.82812 337.33984 C 432.78166 335.63803 431.78263 335.97911 421.00977 342.39844 L 415.66992 345.58008 L 415.66992 310.29297 C 415.66992 290.83533 415.71067 282.11673 416.07812 278.33008 L 415.66992 231.33789 L 415.66992 208.6582 L 415.66992 185.97852 L 422.02734 187.47461 C 431.83707 189.78047 449.53996 188.69417 459.76953 185.16016 C 476.50455 179.37872 490.65855 166.81569 498.69336 150.61133 C 503.96185 139.98599 507.23659 126.22591 505.4375 122.27734 C 504.00103 119.12462 492.90799 115.00503 481.73047 113.47461 C 460.49913 110.56764 439.96365 117.69358 424.06055 133.48633 L 415.66992 141.82031 L 415.66992 130.84766 L 415.66992 123.57617 z M 346.49609 124.70898 C 360.43567 124.70898 376.58341 131.47598 386.64258 141.53516 C 392.49057 147.38314 401.00878 161.05351 400.22852 163.33789 C 400.04829 163.86558 392.35262 159.96023 383.125 154.6582 C 373.89737 149.35615 365.3849 145.01758 364.20898 145.01758 C 359.43584 145.01758 357.02496 151.52511 360.53516 154.93555 C 361.54289 155.91464 369.51072 160.83577 378.24023 165.87109 C 386.96974 170.90641 393.89974 175.36945 393.64062 175.78906 C 392.81797 177.12137 373.68043 176.4793 367.85938 174.92383 C 352.59373 170.84465 338.41808 159.38844 331.44727 145.49609 C 328.41931 139.46159 325.78087 129.72303 326.87695 128.62695 C 328.21749 127.28642 341.12485 124.70898 346.49609 124.70898 z M 472.98047 124.92578 C 476.39729 124.95055 479.82837 125.30766 483.23438 126.00781 C 487.66559 126.91872 491.76435 128.1374 492.34375 128.7168 C 493.07019 129.44324 493.00756 131.26979 492.14258 134.59766 C 487.17982 153.69103 470.86049 169.82574 451.22656 175.05078 C 445.15555 176.6664 427.31486 177.09649 426.41992 175.64844 C 426.11261 175.15122 433.13577 170.55957 442.02734 165.44531 C 450.91889 160.33105 458.75341 155.4727 459.4375 154.64844 C 462.50944 150.94698 459.79795 145.01758 455.0332 145.01758 C 453.95894 145.01758 445.51787 149.38178 436.27539 154.7168 C 427.03291 160.05181 419.25874 164.20406 418.99805 163.94336 C 418.73734 163.68267 420.05478 160.34869 421.92578 156.5332 C 424.16336 151.97013 427.78901 147.08576 432.52148 142.26172 C 443.63168 130.93653 458.17426 124.81844 472.98047 124.92578 z M 239.96289 205.93555 L 243.00781 208.79102 C 258.24961 223.08285 261.43548 249.10504 250.23242 267.8125 L 247.31641 272.68164 L 246.80859 256.56641 C 246.32221 241.1573 246.19491 240.3691 243.89844 238.51172 C 240.98619 236.15632 239.79832 236.09519 236.86133 238.15234 C 234.68581 239.67613 234.60156 240.34698 234.60156 255.95312 C 234.60156 265.23071 234.1974 272.17188 233.6582 272.17188 C 233.13978 272.17187 231.3508 269.7693 229.68359 266.83203 C 219.43029 248.76792 221.80019 226.53105 235.65039 210.82617 L 239.96289 205.93555 z M 294.87109 295.63086 C 298.23563 295.66093 301.56875 296.08686 304.79102 296.92773 C 309.07389 298.04538 309.35864 298.3318 309.2207 301.39844 C 308.99948 306.31654 303.6597 316.78624 298.44531 322.52539 C 292.5774 328.98383 283.93113 334.19368 275.37305 336.42773 C 268.87627 338.12368 259.91632 338.69346 257.14453 337.58789 C 256.3807 337.28323 261.36693 333.83229 268.5 329.72852 C 275.49425 325.70463 281.94202 321.80931 282.83008 321.07227 C 286.38971 318.11805 283.55435 310.82617 278.8457 310.82617 C 277.81208 310.82617 271.0339 314.27497 263.7832 318.48828 C 256.53251 322.70161 250.3881 325.93693 250.12891 325.67773 C 248.99272 324.54154 255.76321 314.4243 261.00977 309.41992 C 270.41551 300.44836 282.85488 295.52345 294.87109 295.63086 z M 185.67578 295.65234 C 197.98238 295.59462 210.95132 300.62319 219.68555 309.35742 C 224.48712 314.15898 231.33221 324.60725 230.33203 325.60742 C 230.11148 325.82798 224.00193 322.60512 216.75391 318.44727 C 209.50587 314.28943 202.61547 310.87432 201.44336 310.85742 C 198.59574 310.81649 195.94531 313.91143 195.94531 317.27734 C 195.94531 320.27094 198.53438 322.19055 215.46094 331.74414 C 220.96329 334.84974 223.84013 337.01898 223.08984 337.49609 C 219.59021 339.72152 205.08958 337.32788 196.11133 333.04297 C 184.26352 327.38853 171.65145 311.43585 171.18359 301.51367 C 171.03238 298.30724 171.27602 298.05652 175.60156 296.92773 C 178.83596 296.08369 182.22993 295.66851 185.67578 295.65234 z M 29.195312 326.25 C 30.798181 326.23872 32.429737 326.33303 33.951172 326.55273 C 45.42138 328.20905 55.508074 335.43591 60.617188 345.66016 C 64.311453 353.05304 64.404353 354.14252 61.416016 354.94336 C 58.275105 355.78509 46.468112 355.58385 43.359375 354.63477 C 38.16744 353.04974 31.966164 349.27868 27.955078 345.26758 C 23.541461 340.85396 18.40609 330.99677 19.302734 328.66016 C 19.837058 327.26771 24.386707 326.28383 29.195312 326.25 z M 112.24219 326.61328 C 122.70367 326.62776 123.55825 327.33052 121.07422 333.88281 C 118.32151 341.14381 108.55744 350.67534 101.05078 353.42773 C 97.018163 354.90631 93.011096 355.5477 88.333984 355.4668 C 76.907659 355.26934 76.330551 354.66618 79.945312 346.70312 C 82.967607 340.04526 90.339412 332.85171 97.544922 329.52734 C 102.91179 327.05125 105.17057 326.60308 112.24219 326.61328 z M 316.7168 424.82227 C 314.86757 424.7885 312.97089 425.32414 311.73633 426.44141 C 309.41843 428.53909 309.32602 433.65196 311.56055 436.12109 C 313.65822 438.439 318.7711 438.53336 321.24023 436.29883 C 323.55813 434.20115 323.65056 429.08632 321.41602 426.61719 C 320.36718 425.45823 318.56602 424.85603 316.7168 424.82227 z M 150.91602 427.80859 C 144.93561 427.80859 141.87626 435.86177 146.29297 439.97656 C 147.51742 441.11732 149.59738 442.05078 150.91602 442.05078 C 153.8858 442.05078 158.30859 437.79076 158.30859 434.92969 C 158.30859 432.06862 153.8858 427.80859 150.91602 427.80859 z M 478.21289 432.04102 C 476.60665 432.01825 475.00093 432.56352 473.71094 433.85352 C 469.97489 437.58957 471.50353 443.48658 476.70312 445.39844 C 477.54235 445.70702 478.36555 445.99486 478.5332 446.03906 C 480.10422 446.45295 484.74566 442.56931 485.29492 440.38086 C 486.42831 435.86509 482.31773 432.0992 478.21289 432.04102 z M 306.31641 468.24414 C 300.63054 468.24414 297.51548 475.58561 301.38672 479.86328 C 303.4844 482.18119 308.59923 482.27359 311.06836 480.03906 C 315.3088 476.20151 312.10288 468.24414 306.31641 468.24414 z " />
    <path
       id="path11883"
       style="fill:#ffffff;fill-opacity:1;stroke-width:1.01724"
       d="M 415.67578 119.87109 L 415.71484 95.128906 L 415.69727 82.203125 C 415.67174 62.980474 415.5333 61.468848 413.63477 59.570312 C 411.09301 57.02854 409.42786 57.005782 406.37305 59.476562 C 404.02735 61.373807 403.9597 61.894307 403.46289 81.873047 L 403.14648 94.570312 L 403.41602 118.61914 L 403.46289 118.65625 L 403.46289 122.75195 L 415.66992 123.57617 L 415.66992 119.87695 L 415.67578 119.87109 z " />
    <path
       id="path11881"
       style="fill:#800080;fill-opacity:1;stroke-width:1.01724"
       d="M 409.76367 6 C 406.82868 6.0144034 403.66133 8.4296372 397.44727 14.59375 C 383.42466 28.50362 376.86383 44.134578 376.86328 63.638672 C 376.86309 70.23492 377.48725 76.654549 378.49609 80.423828 C 382.05897 93.735611 391.29853 109.03253 399.87109 115.81445 L 403.41602 118.61914 L 403.14648 94.570312 L 402.95312 102.32812 L 398.67969 95.953125 C 393.25257 87.85841 390.75194 81.37451 389.25781 71.517578 C 386.78002 55.171579 392.2736 37.738006 403.80469 25.349609 C 407.25951 21.637918 408.55453 20.28162 409.6875 20.212891 C 409.76303 20.208309 409.83742 20.210258 409.91211 20.216797 C 410.45529 20.264353 410.99206 20.597126 411.75 21.09375 C 418.28224 25.373841 427.45329 41.212749 429.78711 52.244141 C 433.08479 67.831446 428.4081 87.673306 418.70898 99.242188 L 415.72461 102.80273 L 415.71484 95.128906 L 415.67578 119.87109 L 423.18945 112.23438 C 445.92224 89.129817 449.47399 52.734427 431.62109 25.837891 C 427.19764 19.173677 417.47703 9.1972704 413.27148 7.0058594 C 412.02629 6.3570186 410.91215 5.9943639 409.76367 6 z " />
    <path
       id="path11189-3"
       style="fill:#800080;fill-opacity:1;stroke-width:1.01724"
       d="m 346.96481,112.71094 c -3.20023,-0.0244 -6.37752,0.19838 -9.49218,0.68164 -8.81294,1.36737 -19.23806,4.69848 -21.7461,6.94726 -4.90919,4.40172 0.48587,25.01568 10.25,39.1582 3.3775,4.89203 12.50652,14.09715 17.01953,17.16211 15.48354,10.51542 37.25344,14.77552 54.61719,10.68946 l 5.84961,-1.37696 V 165.125 l -0.0488,15.92969 -12.64062,-7.5918 c 1.78946,1.26978 2.57495,2.05049 2.23633,2.26562 -2.05445,1.30522 -19.16452,0.79481 -24.8711,-0.74218 -13.27495,-3.57545 -25.16913,-12.09849 -32.79101,-23.49414 -5.35329,-8.00384 -10.22615,-21.10979 -8.49219,-22.84375 1.35823,-1.35823 14.22842,-3.94141 19.64062,-3.94141 17.10129,0 35.03829,8.97877 45.41602,22.73437 4.54083,6.01883 8.79631,14.23832 8.2832,15.97852 l 3.26758,1.70508 v -22.9375 l -3.98437,-4.82227 c -12.52183,-15.15314 -32.95669,-24.50502 -52.51368,-24.65429 z" />
    <path
       id="path11646-6"
       style="fill:#800080;fill-opacity:1;stroke-width:1.01724"
       d="m 472.25,112.79687 c -17.71294,0.18225 -34.71067,7.27542 -48.18945,20.67774 l -8.39063,8.3457 0.20703,23.88281 3.91993,-2.07812 c -0.5035,0.21526 -0.80661,0.31057 -0.85938,0.25781 -0.29285,-0.29284 1.0078,-3.62734 2.89062,-7.41016 7.30075,-14.668 23.39835,-26.91947 40.0293,-30.46289 3.36285,-0.71649 7.21691,-1.04021 11.03711,-1.04101 9.76274,-0.002 19.30992,2.10555 19.9082,5.16015 0.58331,2.97809 -3.76204,14.19675 -8.02734,20.72461 -7.60318,11.63633 -20.03044,20.59972 -33.54883,24.19727 -5.27143,1.40284 -22.34155,1.94619 -25.20117,0.80273 -0.1294,-0.0517 -0.0146,-0.2405 0.29297,-0.5332 l -10.29883,6.82031 0.0586,6.67188 c 0.25901,-2.66895 0.67817,-2.90773 1.36915,-2.64258 10.01676,3.84379 29.23306,3.32006 42.08203,-1.14844 23.24999,-8.08567 40.65573,-28.02832 45.34961,-51.96094 2.12865,-10.85335 1.43277,-12.51816 -6.49219,-15.51562 -8.66458,-3.27721 -17.48621,-4.83705 -26.13672,-4.74805 z" />
  </g>
</svg>
