<?xml version="1.0" encoding="UTF-8" standalone="no"?>
<!-- Created with Inkscape (http://www.inkscape.org/) -->

<svg
   version="1.1"
   id="svg1"
   width="512"
   height="512"
   viewBox="0 0 512 512"
   sodipodi:docname="services_tree_01.svg"
   inkscape:version="1.1.2 (0a00cf5339, 2022-02-04)"
   inkscape:export-filename="/home/dusoudeth/Documentos/github/isadora-urel-landing-page/src/assets/images/services_tree_01_white.png"
   inkscape:export-xdpi="96"
   inkscape:export-ydpi="96"
   xmlns:inkscape="http://www.inkscape.org/namespaces/inkscape"
   xmlns:sodipodi="http://sodipodi.sourceforge.net/DTD/sodipodi-0.dtd"
   xmlns="http://www.w3.org/2000/svg"
   xmlns:svg="http://www.w3.org/2000/svg">
  <defs
     id="defs1" />
  <sodipodi:namedview
     id="namedview1"
     pagecolor="#ffffff"
     bordercolor="#000000"
     borderopacity="0.25"
     inkscape:showpageshadow="2"
     inkscape:pageopacity="0.0"
     inkscape:pagecheckerboard="0"
     inkscape:deskcolor="#d1d1d1"
     showgrid="false"
     inkscape:zoom="1.4142136"
     inkscape:cx="231.93102"
     inkscape:cy="269.76124"
     inkscape:window-width="1868"
     inkscape:window-height="1016"
     inkscape:window-x="52"
     inkscape:window-y="27"
     inkscape:window-maximized="1"
     inkscape:current-layer="g1"
     inkscape:pageshadow="2"
     inkscape:object-paths="true"
     inkscape:snap-smooth-nodes="false" />
  <g
     inkscape:groupmode="layer"
     inkscape:label="Image"
     id="g1">
    <path
       id="path1510"
       style="fill:#ffffff;fill-opacity:1;stroke-width:1.01724"
       d="M 64.722656 399.32617 L 76.929688 399.32617 L 76.929688 399.26367 L 64.722656 399.28125 L 64.722656 399.32617 z " />
    <path
       id="path2594"
       style="fill:#ffffff;fill-opacity:1;stroke-width:1.01724"
       d="m 416.17788,398.73828 h -12.71484 v 0.58789 H 333.94351 325.13492 246.80874 81.033349 l -4.103515,0.0137 v -0.0137 H 64.722802 37.082177 c -24.291429,0 -27.8650769,0.20402 -29.5,1.6836 -2.3739886,2.14847 -2.3813,5.66749 -0.017578,7.80664 1.2250835,1.10868 6.7338291,1.46203 18.6562501,1.69921 h 50.708985 v -0.0117 l 3.544921,0.0117 h 166.333985 78.32618 3.48242 74.8457 v 0.47266 h 18.74414 l 37.13477,-0.22851 c 38.38355,-0.23608 43.37046,-0.45041 45.01367,-1.9375 1.01634,-0.91979 1.84772,-2.67519 1.84765,-3.90039 0,-1.22527 -0.83131,-2.98062 -1.84765,-3.9004 -1.64321,-1.48709 -6.63012,-1.70142 -45.01367,-1.9375 l -43.16407,-0.26562 z" />
    <path
       id="path9735"
       style="fill:#ffffff;fill-opacity:1;stroke-width:1.01724"
       d="m 256.66111,254.64258 -3.26758,-1.70508 c -0.003,0.0109 -0.004,0.0247 -0.008,0.0352 -0.1574,0.45529 -7.76887,-3.50653 -16.91602,-8.80469 -9.14717,-5.29815 -17.65962,-9.63281 -18.91601,-9.63281 -4.89596,0 -7.3846,6.44127 -3.83203,9.91796 0.61981,0.60659 3.93261,2.72103 8.44531,5.43165 0.0751,0.0451 0.14885,0.0893 0.22461,0.13476 2.72003,1.63132 5.85678,3.46935 9.10547,5.32422 5.83427,3.33113 10.0671,5.92838 12.47461,7.63672 l 12.64062,7.5918 z" />
    <path
       id="path11189"
       style="fill:#9ad6c7;fill-opacity:1;stroke-width:1.01724"
       d="m 200.16306,202.22852 c -3.20023,-0.0244 -6.37752,0.19838 -9.49218,0.68164 -8.81294,1.36737 -19.23806,4.69848 -21.7461,6.94726 -4.90919,4.40172 0.48587,25.01568 10.25,39.1582 3.3775,4.89203 12.50652,14.09715 17.01953,17.16211 15.48354,10.51542 37.25344,14.77552 54.61719,10.68946 l 5.84961,-1.37696 v -20.84765 l -0.0488,15.92969 -12.64062,-7.5918 c 1.78946,1.26978 2.57495,2.05049 2.23633,2.26562 -2.05445,1.30522 -19.16452,0.79481 -24.8711,-0.74218 -13.27495,-3.57545 -25.16913,-12.09849 -32.79101,-23.49414 -5.35329,-8.00384 -10.22615,-21.10979 -8.49219,-22.84375 1.35823,-1.35823 14.22842,-3.94141 19.64062,-3.94141 17.10129,0 35.03829,8.97877 45.41602,22.73437 4.54083,6.01883 8.79631,14.23832 8.2832,15.97852 l 3.26758,1.70508 v -22.9375 l -3.98437,-4.82227 c -12.52183,-15.15314 -32.95669,-24.50502 -52.51368,-24.65429 z" />
    <path
       id="path9733"
       style="fill:#ffffff;fill-opacity:1;stroke-width:1.01724"
       d="m 269.21775,271.6582 10.29883,-6.82031 c 1.1249,-1.07057 5.0076,-3.63422 10.19141,-6.74609 v 0 c 1.47753,-0.88698 3.02475,-1.80388 4.68554,-2.75977 9.08062,-5.22645 17.17956,-10.17173 17.99805,-10.99023 3.46073,-3.46072 0.73694,-9.80664 -4.20898,-9.80664 -1.10137,0 -9.54193,4.36471 -18.75782,9.69922 -1.73671,1.00527 -3.39207,1.94783 -4.98633,2.8457 v 0 c -5.3414,3.00821 -9.67898,5.30815 -11.44335,6.0625 l -3.91993,2.07812 z" />
    <path
       id="path11646"
       style="fill:#9ad6c7;fill-opacity:1;stroke-width:1.01724"
       d="m 325.44822,202.31445 c -17.71294,0.18225 -34.71067,7.27542 -48.18945,20.67774 l -8.39063,8.3457 0.20703,23.88281 3.91993,-2.07812 c -0.5035,0.21526 -0.80661,0.31057 -0.85938,0.25781 -0.29285,-0.29284 1.0078,-3.62734 2.89062,-7.41016 7.30075,-14.668 23.39835,-26.91947 40.0293,-30.46289 3.36285,-0.71649 7.21691,-1.04021 11.03711,-1.04101 9.76274,-0.002 19.30992,2.10555 19.9082,5.16015 0.58331,2.97809 -3.76204,14.19675 -8.02734,20.72461 -7.60318,11.63633 -20.03044,20.59972 -33.54883,24.19727 -5.27143,1.40284 -22.34155,1.94619 -25.20117,0.80273 -0.1294,-0.0517 -0.0146,-0.2405 0.29297,-0.5332 l -10.29883,6.82031 0.0586,6.67188 c 0.25901,-2.66895 0.67817,-2.90773 1.36915,-2.64258 10.01676,3.84379 29.23306,3.32006 42.08203,-1.14844 23.24999,-8.08567 40.65573,-28.02832 45.34961,-51.96094 2.12865,-10.85335 1.43277,-12.51816 -6.49219,-15.51562 -8.66458,-3.27721 -17.48621,-4.83705 -26.13672,-4.74805 z" />
    <path
       id="path1790"
       style="fill:#ffffff;fill-opacity:1;stroke-width:1.01724"
       d="m 159.51463,468.24414 c -5.68587,0 -8.80093,7.34147 -4.92969,11.61914 2.09768,2.31791 7.21251,2.41031 9.68164,0.17578 4.24044,-3.83755 1.03452,-11.79492 -4.75195,-11.79492 z" />
    <path
       id="path2371"
       style="fill:#ffffff;fill-opacity:1;stroke-width:1.01724"
       d="m 275.40525,410.98828 h -18.74414 v 6.91797 7.39063 l -12.66992,12.63867 -12.66797,12.63672 -18.09766,4.86914 c -18.24996,4.90928 -20.65039,6.11615 -20.65039,10.375 0,2.66395 2.86759,5.73437 5.35547,5.73437 1.09378,0 7.90155,-1.60237 15.12891,-3.56055 7.22734,-1.95818 13.58506,-3.56054 14.1289,-3.56054 0.55429,0 0.98829,3.42824 0.98829,7.80273 0,8.69318 1.45691,11.52539 5.92773,11.52539 5.24825,0 6.2793,-2.32169 6.2793,-14.1289 v -10.76172 l 11.42773,-11.46094 11.42774,-11.45898 11.46093,11.42773 11.46094,11.42773 v 8.09961 8.10157 L 274.9697,486.3457 c -11.76412,11.92361 -12.86022,14.04993 -9.15429,17.75586 3.61976,3.61976 5.87049,2.5642 16.16406,-7.58008 l 9.75586,-9.61328 9.78516,9.61328 c 10.31838,10.13762 12.56364,11.19026 16.17382,7.58008 3.70592,-3.70593 2.60983,-5.83225 -9.15429,-17.75586 l -11.18946,-11.34179 v -5.28711 c 0,-3.57324 0.41512,-5.28711 1.28125,-5.28711 0.70481,0 7.12544,1.60236 14.26953,3.56054 7.1441,1.95818 13.85907,3.56055 14.92188,3.56055 4.98648,0 7.10143,-7.85851 2.8418,-10.56055 -1.25883,-0.79852 -9.61278,-3.37709 -18.56446,-5.73046 l -16.27734,-4.2793 -13.50977,-13.36524 -13.50976,-13.36718 0.28711,-6.61133 0.28515,-6.61133 z m 56.00586,21.05274 c -1.60624,-0.0228 -3.21196,0.5225 -4.50195,1.8125 -3.73605,3.73605 -2.20736,9.63306 2.99218,11.54492 0.83923,0.30858 1.66243,0.59642 1.83008,0.64062 1.57102,0.41389 6.21246,-3.46975 6.76172,-5.6582 1.13339,-4.51577 -2.97719,-8.28166 -7.08203,-8.33984 z" />
    <path
       id="path2592"
       style="fill:#ffffff;fill-opacity:1;stroke-width:1.01724"
       d="m 327.00681,112.85156 c -18.37138,-0.36757 -35.83283,6.81611 -49.74804,20.63477 l -8.39063,8.33398 v -10.97265 -7.27149 l -12.20703,-0.82422 v 7.66993 11.76562 l -3.81445,-4.5918 c -8.54477,-10.28563 -22.48121,-19.08409 -35.85742,-22.63672 -8.14295,-2.16271 -23.74113,-2.45921 -32.0918,-0.61132 -3.38322,0.74865 -8.64647,2.57627 -11.69727,4.0625 -5.4316,2.64602 -5.55363,2.80102 -5.85351,7.4414 -0.91096,14.09626 9.83735,35.13258 23.95508,46.88086 16.20092,13.48186 39.75422,19.26609 59.50976,14.61719 l 5.84961,-1.375 v 22.86523 22.86524 43.78515 34.88672 34.88477 l -8.14062,-4.61133 c -9.00767,-5.1034 -12.3927,-5.29256 -14.4375,-0.80469 -1.94319,4.26482 0.19127,6.66073 11.76171,13.19727 l 10.80274,6.10351 0.008,20.08985 0.006,19.50195 h 12.71484 v -19.70703 -19.78906 l 9.78711,-5.64258 c 5.38246,-3.10375 10.55388,-6.29046 11.49414,-7.08203 2.61306,-2.19981 1.70475,-7.31443 -1.63086,-9.17774 -3.04646,-1.70181 -4.04549,-1.36073 -14.81835,5.0586 l -5.33985,3.18164 v -35.28711 c 0,-19.45764 0.0408,-28.17624 0.4082,-31.96289 l -0.4082,-46.99219 V 208.6582 185.97852 l 6.35742,1.49609 c 9.80973,2.30586 27.51262,1.21956 37.74219,-2.31445 16.73502,-5.78144 30.88902,-18.34447 38.92383,-34.54883 5.26849,-10.62534 8.54323,-24.38542 6.74414,-28.33399 -1.43647,-3.15272 -12.52951,-7.27231 -23.70703,-8.80273 -2.65392,-0.36337 -5.29739,-0.57054 -7.92188,-0.62305 z m -127.3125,11.85742 c 13.93958,0 30.08732,6.767 40.14649,16.82618 5.84799,5.84798 14.3662,19.51835 13.58594,21.80273 -0.18023,0.52769 -7.8759,-3.37766 -17.10352,-8.67969 -9.22763,-5.30205 -17.7401,-9.64062 -18.91602,-9.64062 -4.77314,0 -7.18402,6.50753 -3.67382,9.91797 1.00773,0.97909 8.97556,5.90022 17.70507,10.93554 8.72951,5.03532 15.65956,9.49836 15.40039,9.91797 -0.82265,1.33231 -19.96023,0.69024 -25.78124,-0.86523 -15.26565,-4.07918 -29.4413,-15.53539 -36.41211,-29.42774 -3.02796,-6.0345 -5.6664,-15.77306 -4.57032,-16.86914 1.34054,-1.34053 14.2479,-3.91797 19.61914,-3.91797 z m 126.48438,0.2168 c 3.41682,0.0248 6.8479,0.38188 10.25391,1.08203 4.43121,0.91091 8.52997,2.12959 9.10937,2.70899 0.72644,0.72644 0.66381,2.55299 -0.20117,5.88086 -4.96276,19.09337 -21.28209,35.22808 -40.91602,40.45312 -6.07101,1.61562 -23.9117,2.04571 -24.80664,0.59766 -0.30731,-0.49722 6.71585,-5.08887 15.60742,-10.20313 8.89155,-5.11426 16.72607,-9.97261 17.41016,-10.79687 3.07194,-3.70146 0.36045,-9.63086 -4.4043,-9.63086 -1.07426,0 -9.51533,4.3642 -18.75781,9.69922 -9.24248,5.33501 -17.01665,9.48726 -17.27734,9.22656 -0.26071,-0.26069 1.05673,-3.59467 2.92773,-7.41016 2.23758,-4.56307 5.86323,-9.44744 10.5957,-14.27148 11.1102,-11.32519 25.65278,-17.44328 40.45899,-17.33594 z" />
    <path
       id="path11883"
       style="fill:#ffffff;fill-opacity:1;stroke-width:1.01724"
       d="m 268.874,119.87109 0.0391,-24.742184 -0.0176,-12.925781 C 268.87,62.980474 268.73153,61.468848 266.833,59.570312 c -2.54176,-2.541772 -4.20691,-2.56453 -7.26172,-0.09375 -2.3457,1.897245 -2.41335,2.417745 -2.91016,22.396485 l -0.31641,12.697265 0.26954,24.048828 0.0469,0.0371 v 4.0957 l 12.20703,0.82422 v -3.69922 z" />
    <path
       id="path11881"
       style="fill:#9ad6c7;fill-opacity:1;stroke-width:1.01724"
       d="m 262.96189,6 c -2.93499,0.014403 -6.10234,2.4296372 -12.3164,8.59375 -14.02261,13.90987 -20.58344,29.540828 -20.58399,49.044922 -1.9e-4,6.596248 0.62397,13.015877 1.63281,16.785156 3.56288,13.311783 12.80244,28.608702 21.375,35.390622 l 3.54493,2.80469 -0.26954,-24.048828 -0.19336,7.757808 -4.27343,-6.374995 c -5.42712,-8.094715 -7.92775,-14.578615 -9.42188,-24.435547 -2.47779,-16.345999 3.01579,-33.779572 14.54688,-46.167969 3.45482,-3.711691 4.74984,-5.067989 5.88281,-5.136718 0.0755,-0.0046 0.14992,-0.0026 0.22461,0.0039 0.54318,0.04756 1.07995,0.380329 1.83789,0.876953 6.53224,4.280091 15.70329,20.118999 18.03711,31.150391 3.29768,15.587305 -1.37901,35.429165 -11.07813,46.998047 l -2.98437,3.560538 -0.01,-7.67382 -0.0391,24.74218 7.51367,-7.63671 C 299.12046,89.129817 302.67221,52.734427 284.81931,25.837891 280.39586,19.173677 270.67525,9.1972704 266.4697,7.0058594 265.22451,6.3570186 264.11037,5.9943639 262.96189,6 Z" />
    <path
       id="path11189-3"
       style="fill:#9ad6c7;fill-opacity:1;stroke-width:1.01724"
       d="m 200.16303,112.71094 c -3.20023,-0.0244 -6.37752,0.19838 -9.49218,0.68164 -8.81294,1.36737 -19.23806,4.69848 -21.7461,6.94726 -4.90919,4.40172 0.48587,25.01568 10.25,39.1582 3.3775,4.89203 12.50652,14.09715 17.01953,17.16211 15.48354,10.51542 37.25344,14.77552 54.61719,10.68946 l 5.84961,-1.37696 V 165.125 l -0.0488,15.92969 -12.64062,-7.5918 c 1.78946,1.26978 2.57495,2.05049 2.23633,2.26562 -2.05445,1.30522 -19.16452,0.79481 -24.8711,-0.74218 -13.27495,-3.57545 -25.16913,-12.09849 -32.79101,-23.49414 -5.35329,-8.00384 -10.22615,-21.10979 -8.49219,-22.84375 1.35823,-1.35823 14.22842,-3.94141 19.64062,-3.94141 17.10129,0 35.03829,8.97877 45.41602,22.73437 4.54083,6.01883 8.79631,14.23832 8.2832,15.97852 l 3.26758,1.70508 v -22.9375 l -3.98437,-4.82227 c -12.52183,-15.15314 -32.95669,-24.50502 -52.51368,-24.65429 z" />
    <path
       id="path11646-6"
       style="fill:#9ad6c7;fill-opacity:1;stroke-width:1.01724"
       d="m 325.44822,112.79687 c -17.71294,0.18225 -34.71067,7.27542 -48.18945,20.67774 l -8.39063,8.3457 0.20703,23.88281 3.91993,-2.07812 c -0.5035,0.21526 -0.80661,0.31057 -0.85938,0.25781 -0.29285,-0.29284 1.0078,-3.62734 2.89062,-7.41016 7.30075,-14.668 23.39835,-26.91947 40.0293,-30.46289 3.36285,-0.71649 7.21691,-1.04021 11.03711,-1.04101 9.76274,-0.002 19.30992,2.10555 19.9082,5.16015 0.58331,2.97809 -3.76204,14.19675 -8.02734,20.72461 -7.60318,11.63633 -20.03044,20.59972 -33.54883,24.19727 -5.27143,1.40284 -22.34155,1.94619 -25.20117,0.80273 -0.1294,-0.0517 -0.0146,-0.2405 0.29297,-0.5332 l -10.29883,6.82031 0.0586,6.67188 c 0.25901,-2.66895 0.67817,-2.90773 1.36915,-2.64258 10.01676,3.84379 29.23306,3.32006 42.08203,-1.14844 23.24999,-8.08567 40.65573,-28.02832 45.34961,-51.96094 2.12865,-10.85335 1.43277,-12.51816 -6.49219,-15.51562 -8.66458,-3.27721 -17.48621,-4.83705 -26.13672,-4.74805 z" />
    <path
       style="fill:#ffffff"
       d="m 64.722656,399.32617 -0.509765,11.69922"
       id="path882" />
    <path
       style="fill:#ffffff"
       d="m 76.929688,399.33984 -12.207032,-0.0137"
       id="path884" />
  </g>
</svg>
